<svg width="142" height="142" viewBox="0 0 142 142" xmlns="http://www.w3.org/2000/svg">
  <rect width="142" height="142" rx="28" fill="#1a1a2e"/>
  <!-- legs -->
  <polygon fill="#FFFFFF" points="0 71.5 142 70.5 142 42.6 127.7 42.6 127.7 57.1 85.1 57.1 85.1 42.6 99.2 42.6 99.2 27 56.3 27 56.3 57.1 14.3 57.1 14.3 42.6 0 42.6"/>
  <!-- hair -->
  <polygon fill="#03B605" points="28 42.6 70.7 42.6 70.7 28.7 99 28.7 99 14.3 85.1 14.3 85.1 0 56.1 0 56.1 14.3 28 14.3"/>
  <!-- body -->
  <polygon fill="#5B60FC" points="55.7 57 85.6 57 85.6 98.8 99 98.8 99 127 84.6 127 84.6 113.4 56.7 113.4 56.7 127 42 127 42 98.8 55.7 98.8"/>
  <!-- feet -->
  <rect fill="#FFFFFF" x="29" y="127" width="28" height="15"/>
  <rect fill="#FFFFFF" x="85" y="127" width="28" height="15"/>
</svg>
