<svg width="64" height="32" viewBox="0 0 64 32" fill="none" xmlns="http://www.w3.org/2000/svg">
<path d="M16 32C24.8366 32 32 24.8366 32 16C32 7.16344 24.8366 0 16 0C7.16344 0 0 7.16344 0 16C0 24.8366 7.16344 32 16 32Z" fill="#8085BD"/>
<path d="M28.9208 11.7585C28.9208 11.7585 23.1698 9.56984 19.5623 15.8491C15.9547 22.1283 10.4453 24 10.4453 24C10.4453 24 8.78492 16.3019 7.62266 11.034C7.53209 10.5963 17.9623 15.9095 19.1245 18.0076C22.0076 23.1849 27.1245 23.9095 29.751 21.0868C32.2415 18.4906 33.3585 13.8566 28.9208 11.7585Z" fill="#8085BD"/>
<path d="M29.3283 10.2792C28.2415 9.87169 26.9434 9.78112 25.7962 9.88678C22.8981 10.1434 20.5887 11.7434 18.8981 14.0528C17.9321 15.3811 17.2076 16.8151 16.1208 18.0679C15.2151 19.0943 14.1736 20.0453 13.1472 20.7849C12.3925 21.3283 11.5925 21.7962 10.7623 22.2189C10.6264 22.2792 10.4906 22.3396 10.3547 22.4151C9.90189 22.6113 10.5811 22.3245 10.3094 22.4453C10.2189 22.4755 10.1283 22.5207 10.0377 22.5509C10.6717 22.9132 11.2906 23.2604 11.9245 23.6226C11.6076 22.1585 11.2906 20.6792 10.9736 19.2151C10.6717 17.7962 10.3547 16.3774 10.0528 14.9585C9.8868 14.2189 9.73585 13.4792 9.56981 12.7547C9.49434 12.3924 9.41887 12.0453 9.32831 11.683C9.29812 11.5321 9.14717 10.566 9.16227 11.049C9.08679 11.3057 9.02642 11.5623 8.95095 11.8189C8.76981 12 8.58868 12.1811 8.39246 12.3773C8.03019 12.5887 7.59246 12.6038 7.32076 12.5434C7.36604 12.5585 7.39623 12.5585 7.44151 12.5736C7.54717 12.6038 7.66793 12.649 7.77359 12.6943C7.24529 12.483 7.81887 12.7245 7.93963 12.7698C8.16604 12.8755 8.39246 12.9811 8.61887 13.0868C9.69057 13.6 10.7321 14.1585 11.7736 14.7321C12.9359 15.3811 14.0981 16.0604 15.2151 16.7698C15.6981 17.0868 16.166 17.4038 16.634 17.7358C16.6792 17.766 17.0264 18.0226 16.7245 17.7962C16.8151 17.8717 16.9057 17.9472 16.9962 18.0226C17.1925 18.1736 17.3736 18.3396 17.5396 18.5057C17.6453 18.5962 18.0076 19.0641 17.6755 18.6264C17.8566 18.8679 17.9925 19.1547 18.1434 19.4113C18.6717 20.2566 19.3208 21.0566 20.0453 21.7358C21.2377 22.883 22.7472 23.7434 24.3623 24.0906C27.5925 24.7849 30.4 23.2151 32.1208 20.5283C33.1623 18.9132 33.6604 16.9358 33.3585 15.034C33.0264 12.966 31.5321 11.3509 29.6906 10.4453C28.9359 10.083 28.0302 10.234 27.5925 11.0038C27.2 11.683 27.3962 12.7396 28.1509 13.1019C28.7396 13.3887 29.434 13.8264 29.7509 14.249C29.8566 14.3849 29.9472 14.5358 30.0377 14.6717C30.0226 14.6566 30.2642 15.1396 30.1585 14.8981C30.2189 15.049 30.2642 15.2 30.3094 15.366C30.3396 15.4717 30.3547 15.5773 30.3849 15.683C30.3698 15.5472 30.3698 15.5623 30.3849 15.7585C30.5057 17.0415 30.0528 18.1132 29.283 19.2604C28.6189 20.2415 27.8189 20.8604 26.717 21.117C26.7019 21.117 26.2038 21.1924 26.5208 21.1623C26.3698 21.1773 26.2038 21.1924 26.0528 21.1924C25.9019 21.1924 25.7359 21.1924 25.5849 21.1773C25.5849 21.1773 25.0717 21.117 25.3585 21.1623C24.6038 21.0415 24.0755 20.8302 23.4717 20.483C22.083 19.6981 21.2377 18.4453 20.3925 17.1321C19.8189 16.2415 18.9132 15.6075 18.083 14.9887C16.0151 13.4792 13.7208 12.2264 11.4566 11.049C10.4302 10.5207 9.37359 9.94716 8.2717 9.5849C7.41132 9.28301 6.4 9.70565 6.1434 10.6264C5.97736 11.2302 6.24906 11.8943 6.36981 12.483C6.52076 13.1321 6.65661 13.7811 6.79246 14.4302C7.51698 17.766 8.24151 21.0868 8.96604 24.4226C9.13208 25.2075 10.0981 25.7509 10.8528 25.4943C14.7925 24.1509 18.1434 20.9207 20.3623 17.5094C21.1472 16.3019 21.8566 14.9736 22.9887 14.1283C23.9245 13.434 24.634 13.1623 25.7962 12.966C25.4491 13.0264 26.083 12.9509 26.1736 12.9358C26.3698 12.9207 26.5811 12.9207 26.7774 12.9358C26.9585 12.9358 27.1396 12.9509 27.3208 12.966C27.4113 12.9811 27.7736 13.0264 27.3057 12.966C27.3962 12.9811 27.4868 12.9962 27.5623 13.0113C27.8793 13.0717 28.1962 13.1321 28.4981 13.2528C29.283 13.5547 30.1736 12.9358 30.3849 12.1811C30.6415 11.3057 30.1132 10.566 29.3283 10.2792Z" fill="white"/>
<path d="M48 32C56.8366 32 64 24.8366 64 16C64 7.16344 56.8366 0 48 0C39.1634 0 32 7.16344 32 16C32 24.8366 39.1634 32 48 32Z" fill="black"/>
<path d="M35.0792 11.7585C35.0792 11.7585 40.8302 9.56984 44.4377 15.8491C48.0453 22.1283 53.5547 24 53.5547 24C53.5547 24 55.2151 16.3019 56.3773 11.034C56.4679 10.5963 46.0377 15.9095 44.8755 18.0076C41.9924 23.1849 36.8755 23.9095 34.249 21.0868C31.7585 18.4906 30.6415 13.8566 35.0792 11.7585Z" fill="black"/>
<path d="M35.4868 13.2378C35.7585 13.1321 36.0453 13.0717 36.3321 13.0114C36.4377 12.9963 36.966 12.9208 36.4528 12.9812C36.6339 12.9661 36.8 12.951 36.9811 12.9359C37.4339 12.9057 37.8868 12.9208 38.3245 12.9812C37.9773 12.9359 38.6415 13.0416 38.7321 13.0717C38.9736 13.1321 39.2151 13.1925 39.4415 13.2831C39.8188 13.4038 40.3471 13.6906 40.8453 14.0227C41.9773 14.7925 42.7471 16.1057 43.4868 17.2982C45.6604 20.8151 49.1471 24.1359 53.1321 25.4944C53.8868 25.751 54.8528 25.2076 55.0188 24.4227C55.5019 22.1887 55.9849 19.9699 56.4679 17.7359C56.8604 15.9095 57.2679 14.0982 57.6604 12.2717C57.8717 11.3359 58.1434 10.2793 57.117 9.69061C56.649 9.41891 56.1056 9.434 55.6226 9.61513C53.6 10.3397 51.6679 11.4717 49.8113 12.5283C47.8339 13.6453 45.5396 14.8529 44.0151 16.5736C43.4113 17.2529 43.049 18.0982 42.4604 18.7925C41.8113 19.5623 41.0717 20.1661 40.1962 20.634C39.5321 20.9812 38.7773 21.1623 38.083 21.1774C37.3283 21.1925 36.7396 21.0265 36.0755 20.634C35.5321 20.317 34.9887 19.6982 34.5962 19.1095C34.0679 18.3246 33.8264 17.7359 33.6302 16.8151C33.6 16.6189 33.5849 16.6038 33.6151 16.7246C33.6 16.6189 33.6 16.5132 33.5849 16.3925C33.5698 16.1812 33.5849 15.9548 33.5849 15.7434C33.6 15.5472 33.6 15.5321 33.5849 15.668C33.6 15.5623 33.6302 15.4566 33.6604 15.351C33.6755 15.2906 33.8566 14.7925 33.7811 14.9434C34.1887 14.0529 34.8981 13.5397 35.8188 13.0717C36.5736 12.7095 36.7698 11.6529 36.3773 10.9736C35.9245 10.2189 35.0339 10.0529 34.2792 10.4151C31.0641 11.9849 29.766 15.3963 31.0038 18.7472C32.1056 21.7208 34.5207 24.0302 37.766 24.2265C41.3132 24.4529 44.3471 21.8416 46.0528 18.9736C46.1132 18.868 46.1736 18.7623 46.2339 18.6566C46.3849 18.4151 45.9773 18.9585 46.1736 18.7321C46.2943 18.5963 46.4151 18.4604 46.5509 18.3397C46.7019 18.1887 46.883 18.0529 47.049 17.917C47.0943 17.8868 47.4113 17.6302 47.1245 17.8566C47.2604 17.751 47.4113 17.6453 47.5471 17.5397C48.5887 16.8 49.6754 16.1208 50.7773 15.4868C52.0905 14.717 53.4339 13.9925 54.7924 13.3132C55.2755 13.0717 55.7736 12.8302 56.2717 12.6189C56.6188 12.468 55.9547 12.7397 56.4226 12.5585C56.483 12.5434 56.5434 12.5132 56.6038 12.4982C56.6188 12.4982 56.649 12.4831 56.6641 12.4831C56.2868 12.5736 55.9245 12.5283 55.5622 12.3321C55.3811 12.151 55.2 11.9699 55.0038 11.7736C54.9283 11.517 54.8679 11.2604 54.7924 11.0038C54.8075 10.4906 54.6868 11.3208 54.6717 11.4265C54.5962 11.7736 54.5207 12.1359 54.4302 12.4831C54.2641 13.2227 54.1132 13.9472 53.9471 14.6868C53.6302 16.1057 53.3283 17.5397 53.0113 18.9736C52.6792 20.5132 52.3471 22.0529 52.0151 23.5774C52.649 23.2151 53.2679 22.868 53.9019 22.5057C53.8264 22.4755 53.7509 22.4453 53.6755 22.4151C53.3132 22.2642 53.9321 22.5208 53.7207 22.4302C53.5698 22.3699 53.4188 22.2944 53.2679 22.2189C52.4528 21.8265 51.683 21.3585 50.9283 20.8453C49.9321 20.1661 48.9962 19.3057 48.1056 18.3699C46.9283 17.1019 46.1283 15.6529 45.1622 14.234C42.9283 10.9132 38.5509 8.76985 34.5811 10.2642C33.7962 10.5661 33.2679 11.2906 33.5094 12.151C33.7962 12.9208 34.7019 13.5397 35.4868 13.2378Z" fill="white"/>
</svg>
