<svg width="156" height="49" viewBox="0 0 156 49" fill="none" xmlns="http://www.w3.org/2000/svg">
<path fill-rule="evenodd" clip-rule="evenodd" d="M125.5 49C95.5 49 65 49 34 49L0 14H156L125.5 49Z" fill="#730007"/>
<path d="M27.1992 42H131.602L133.352 40L25.2578 40L27.1992 42Z" fill="#890000"/>
<path d="M11.6535 26H145.541L148.16 23H8.74561L11.6535 26Z" fill="#890000"/>
<path d="M122.9 25.2875H132V23.7125H122.9V25.2875Z" fill="#9B5D5E"/>
<path d="M24.0997 25.2875H33.1997V23.7125H24.0997V25.2875Z" fill="#9B5D5E"/>
<path d="M108.9 42.0875H118V40.5125H108.9V42.0875Z" fill="#9B5D5E"/>
<path d="M37.0997 42.0875H46.1997V40.5125H37.0997V42.0875Z" fill="#9B5D5E"/>
<path d="M75.5 49H79.5L80.5 14H74.5L75.5 49Z" fill="#890000"/>
<path d="M89.5 31C87.2909 31 85.5 31.6716 85.5 32.5C85.5 33.3284 87.2909 34 89.5 34C91.7091 34 93.5 33.3284 93.5 32.5C93.5 31.6716 91.7091 31 89.5 31Z" stroke="#9B5D5E" stroke-width="2"/>
<path d="M65.5 31C63.2909 31 61.5 31.6716 61.5 32.5C61.5 33.3284 63.2909 34 65.5 34C67.7091 34 69.5 33.3284 69.5 32.5C69.5 31.6716 67.7091 31 65.5 31Z" stroke="#9B5D5E" stroke-width="2"/>
<path d="M152.5 14H156L125.5 49H122.5L152.5 14Z" fill="#890000"/>
<path d="M125 14H128.5L94.5 49H92L125 14Z" fill="#890000"/>
<g opacity="0.35" style="mix-blend-mode:multiply">
<path fill-rule="evenodd" clip-rule="evenodd" d="M125.5 49L80 49V14H156L125.5 49Z" fill="#730007"/>
</g>
<path d="M156 14H0V0H156V14Z" fill="#890000"/>
<path d="M153 11H3V3H153V11Z" fill="#772533"/>
<path d="M3.5 14H0L34 49H36.5L3.5 14Z" fill="#890000"/>
<path d="M31.5 14H28L62 49H64.5L31.5 14Z" fill="#890000"/>
</svg>
