<svg width="159" height="81" viewBox="0 0 159 81" fill="none" xmlns="http://www.w3.org/2000/svg">
<rect x="5" y="14" width="4" height="7" fill="#772533"/>
<rect x="150" y="14" width="4" height="7" fill="#772533"/>
<path d="M38.5 79V44.7549L10.6055 24.0215L10.5742 23.998L6.11621 20.5H1.5V79H38.5Z" fill="#730007" stroke="#810002" stroke-width="3"/>
<path d="M1 20V79H6V20H1Z" fill="#772533" stroke="#890000" stroke-width="2"/>
<mask id="path-5-inside-1_263_356" fill="white">
<path d="M18 28H16V80H18V28Z"/>
</mask>
<path d="M18 28H16V80H18V28Z" fill="#772533"/>
<path d="M18 28V26H20V28H18ZM16 28H14V26H16V28ZM16 80V82H14V80H16ZM18 80H20V82H18V80ZM18 28V30H16V28V26H18V28ZM16 28H18V80H16H14V28H16ZM16 80V78H18V80V82H16V80ZM18 80H16V28H18H20V80H18Z" fill="#890000" mask="url(#path-5-inside-1_263_356)"/>
<mask id="path-7-inside-2_263_356" fill="white">
<path d="M31 38H29V80H31V38Z"/>
</mask>
<path d="M31 38H29V80H31V38Z" fill="#772533"/>
<path d="M31 38V36H33V38H31ZM29 38H27V36H29V38ZM29 80V82H27V80H29ZM31 80H33V82H31V80ZM31 38V40H29V38V36H31V38ZM29 38H31V80H29H27V38H29ZM29 80V78H31V80V82H29V80ZM31 80H29V38H31H33V80H31Z" fill="#890000" mask="url(#path-7-inside-2_263_356)"/>
<path d="M37 59.907L7 47L7.00001 49.4419L37 62L37 59.907Z" fill="#890000"/>
<g opacity="0.35" style="mix-blend-mode:multiply">
<path fill-rule="evenodd" clip-rule="evenodd" d="M0 80.25H40V44L33.5 39L0 65.9206V80.25Z" fill="#730007"/>
</g>
<path d="M120.5 79V44.7549L148.395 24.0215L148.41 24.0098L153.007 20.5H157.5V79H120.5Z" fill="#730007" stroke="#810002" stroke-width="3"/>
<path d="M122 59.907L152 47L152 49.4419L122 62L122 59.907Z" fill="#890000"/>
<mask id="path-13-inside-3_263_356" fill="white">
<path d="M141 28H143V80H141V28Z"/>
</mask>
<path d="M141 28H143V80H141V28Z" fill="#772533"/>
<path d="M141 28V26H139V28H141ZM143 28H145V26H143V28ZM143 80V82H145V80H143ZM141 80H139V82H141V80ZM141 28V30H143V28V26H141V28ZM143 28H141V80H143H145V28H143ZM143 80V78H141V80V82H143V80ZM141 80H143V28H141H139V80H141Z" fill="#890000" mask="url(#path-13-inside-3_263_356)"/>
<mask id="path-15-inside-4_263_356" fill="white">
<path d="M128 37H130V80H128V37Z"/>
</mask>
<path d="M128 37H130V80H128V37Z" fill="#772533"/>
<path d="M128 37V35H126V37H128ZM130 37H132V35H130V37ZM130 80V82H132V80H130ZM128 80H126V82H128V80ZM128 37V39H130V37V35H128V37ZM130 37H128V80H130H132V37H130ZM130 80V78H128V80V82H130V80ZM128 80H130V37H128H126V80H128Z" fill="#890000" mask="url(#path-15-inside-4_263_356)"/>
<path d="M158 20V79H153V20H158Z" fill="#772533" stroke="#890000" stroke-width="2"/>
<path d="M40 38H119V41H40V38Z" fill="#9B5D5E"/>
<rect x="40" y="41" width="79" height="3" fill="#5D0005"/>
<path d="M40 38L8.99999 14.5L9 17.5L40 41L40 38Z" fill="#9B5D5E"/>
<path d="M40 41L9 17.5L9 21L40 44.5L40 41Z" fill="#5D0005"/>
<path d="M119 38L150 14.5L150 17.5L119 41L119 38Z" fill="#9B5D5E"/>
<path d="M119 41L150 17.5L150 21L119 44.5L119 41Z" fill="#5D0005"/>
<path d="M158 14H1V0H158V14Z" fill="#890000"/>
<path d="M154.981 11H4.01904V3H154.981V11Z" fill="#772533"/>
<g opacity="0.35" style="mix-blend-mode:multiply">
<path d="M24.1913 1H2V13H60L24.1913 1Z" fill="#730007"/>
</g>
<mask id="mask0_263_356" style="mask-type:alpha" maskUnits="userSpaceOnUse" x="9" y="14" width="142" height="25">
<path d="M150.5 14.5H9.5L40 38.5H118.5L150.5 14.5Z" fill="#730007"/>
</mask>
<g mask="url(#mask0_263_356)">
<path d="M151 14H10V23H151V14Z" fill="#2A0E06"/>
<path d="M143 23H18V39H143V23Z" fill="#46280E"/>
</g>
<path d="M150.5 14.5H9.5L40 38.5H118.5L150.5 14.5Z" stroke="#730007"/>
</svg>
