<svg width="4800" height="800" viewBox="0 0 4800 800" fill="none" xmlns="http://www.w3.org/2000/svg">
<g clip-path="url(#clip0_293_2)">
<path d="M1598 0H-2V800H1598V0Z" fill="black"/>
<path d="M4800 0H1428V800H4800V0Z" fill="black"/>
<path d="M1598 0H-2V110H1598V0Z" fill="#6B4C10"/>
<path d="M4800 0H1428V110H4800V0Z" fill="#6B4C10"/>
<path d="M1598 90H-2V120H1598V90Z" fill="#8A6010"/>
<path d="M4800 90H1428V120H4800V90Z" fill="#8A6010"/>
<path opacity="0.65" d="M140 15H50C47.2386 15 45 17.2386 45 20V55C45 57.7614 47.2386 60 50 60H140C142.761 60 145 57.7614 145 55V20C145 17.2386 142.761 15 140 15Z" fill="#5A3E0C"/>
<path opacity="0.65" d="M3694 15H3784C3786.76 15 3789 17.2386 3789 20V55C3789 57.7614 3786.76 60 3784 60H3694C3691.24 60 3689 57.7614 3689 55V20C3689 17.2386 3691.24 15 3694 15Z" fill="#5A3E0C"/>
<path opacity="0.5" d="M572.5 22.5H467.5C464.739 22.5 462.5 24.7386 462.5 27.5V55C462.5 57.7614 464.739 60 467.5 60H572.5C575.261 60 577.5 57.7614 577.5 55V27.5C577.5 24.7386 575.261 22.5 572.5 22.5Z" fill="#5A3E0C"/>
<path opacity="0.5" d="M3261.5 22.5H3366.5C3369.26 22.5 3371.5 24.7386 3371.5 27.5V55C3371.5 57.7614 3369.26 60 3366.5 60H3261.5C3258.74 60 3256.5 57.7614 3256.5 55V27.5C3256.5 24.7386 3258.74 22.5 3261.5 22.5Z" fill="#5A3E0C"/>
<path opacity="0.5" d="M4626.5 22.5H4731.5C4734.26 22.5 4736.5 24.7386 4736.5 27.5V55C4736.5 57.7614 4734.26 60 4731.5 60H4626.5C4623.74 60 4621.5 57.7614 4621.5 55V27.5C4621.5 24.7386 4623.74 22.5 4626.5 22.5Z" fill="#5A3E0C"/>
<path opacity="0.5" d="M2060.5 22.5H1955.5C1952.74 22.5 1950.5 24.7386 1950.5 27.5V55C1950.5 57.7614 1952.74 60 1955.5 60H2060.5C2063.26 60 2065.5 57.7614 2065.5 55V27.5C2065.5 24.7386 2063.26 22.5 2060.5 22.5Z" fill="#5A3E0C"/>
<path opacity="0.5" d="M1304 22.5H1199C1196.24 22.5 1194 24.7386 1194 27.5V55C1194 57.7614 1196.24 60 1199 60H1304C1306.76 60 1309 57.7614 1309 55V27.5C1309 24.7386 1306.76 22.5 1304 22.5Z" fill="#5A3E0C"/>
<path opacity="0.5" d="M2792 22.5H2687C2684.24 22.5 2682 24.7386 2682 27.5V55C2682 57.7614 2684.24 60 2687 60H2792C2794.76 60 2797 57.7614 2797 55V27.5C2797 24.7386 2794.76 22.5 2792 22.5Z" fill="#5A3E0C"/>
<path opacity="0.5" d="M4265 22.5H4160C4157.24 22.5 4155 24.7386 4155 27.5V55C4155 57.7614 4157.24 60 4160 60H4265C4267.76 60 4270 57.7614 4270 55V27.5C4270 24.7386 4267.76 22.5 4265 22.5Z" fill="#5A3E0C"/>
<path opacity="0.55" d="M770 10H705C702.239 10 700 12.2386 700 15V55C700 57.7614 702.239 60 705 60H770C772.761 60 775 57.7614 775 55V15C775 12.2386 772.761 10 770 10Z" fill="#5A3E0C"/>
<path opacity="0.55" d="M2258 10H2193C2190.24 10 2188 12.2386 2188 15V55C2188 57.7614 2190.24 60 2193 60H2258C2260.76 60 2263 57.7614 2263 55V15C2263 12.2386 2260.76 10 2258 10Z" fill="#5A3E0C"/>
<path opacity="0.55" d="M1008 24H943C940.239 24 938 26.2386 938 29V69C938 71.7614 940.239 74 943 74H1008C1010.76 74 1013 71.7614 1013 69V29C1013 26.2386 1010.76 24 1008 24Z" fill="#5A3E0C"/>
<path opacity="0.55" d="M1793 24H1728C1725.24 24 1723 26.2386 1723 29V69C1723 71.7614 1725.24 74 1728 74H1793C1795.76 74 1798 71.7614 1798 69V29C1798 26.2386 1795.76 24 1793 24Z" fill="#5A3E0C"/>
<path opacity="0.55" d="M2496 24H2431C2428.24 24 2426 26.2386 2426 29V69C2426 71.7614 2428.24 74 2431 74H2496C2498.76 74 2501 71.7614 2501 69V29C2501 26.2386 2498.76 24 2496 24Z" fill="#5A3E0C"/>
<path opacity="0.55" d="M3969 24H3904C3901.24 24 3899 26.2386 3899 29V69C3899 71.7614 3901.24 74 3904 74H3969C3971.76 74 3974 71.7614 3974 69V29C3974 26.2386 3971.76 24 3969 24Z" fill="#5A3E0C"/>
<path d="M182.5 120L165 187.5H200L182.5 120Z" fill="#8A6010"/>
<path d="M3651.5 120L3669 187.5H3634L3651.5 120Z" fill="#8A6010"/>
<path d="M1608.5 120L1591 187.5H1626L1608.5 120Z" fill="#8A6010"/>
<path d="M1044.5 120L1027 187.5H1062L1044.5 120Z" fill="#8A6010"/>
<path d="M2532.5 120L2515 187.5H2550L2532.5 120Z" fill="#8A6010"/>
<path d="M1326.5 120L1309 187.5H1344L1326.5 120Z" fill="#8A6010"/>
<path d="M2814.5 120L2797 187.5H2832L2814.5 120Z" fill="#8A6010"/>
<path d="M212.5 120L202.5 157.5H222.5L212.5 120Z" fill="#7A5614"/>
<path d="M3621.5 120L3631.5 157.5H3611.5L3621.5 120Z" fill="#7A5614"/>
<path d="M1638.5 120L1628.5 157.5H1648.5L1638.5 120Z" fill="#7A5614"/>
<path d="M1074.5 120L1064.5 157.5H1084.5L1074.5 120Z" fill="#7A5614"/>
<path d="M2562.5 120L2552.5 157.5H2572.5L2562.5 120Z" fill="#7A5614"/>
<path d="M1356.5 120L1346.5 157.5H1366.5L1356.5 120Z" fill="#7A5614"/>
<path d="M2844.5 120L2834.5 157.5H2854.5L2844.5 120Z" fill="#7A5614"/>
<path d="M582.5 120L565 195H600L582.5 120Z" fill="#8A6010"/>
<path d="M3251.5 120L3269 195H3234L3251.5 120Z" fill="#8A6010"/>
<path d="M4052.5 120L4070 195H4035L4052.5 120Z" fill="#8A6010"/>
<path d="M4334.5 120L4352 195H4317L4334.5 120Z" fill="#8A6010"/>
<path d="M4616.5 120L4634 195H4599L4616.5 120Z" fill="#8A6010"/>
<path d="M2070.5 120L2053 195H2088L2070.5 120Z" fill="#8A6010"/>
<path d="M615 120L605 162.5H625L615 120Z" fill="#7A5614"/>
<path d="M3219 120L3229 162.5H3209L3219 120Z" fill="#7A5614"/>
<path d="M4020 120L4030 162.5H4010L4020 120Z" fill="#7A5614"/>
<path d="M4302 120L4312 162.5H4292L4302 120Z" fill="#7A5614"/>
<path d="M4584 120L4594 162.5H4574L4584 120Z" fill="#7A5614"/>
<path d="M2103 120L2093 162.5H2113L2103 120Z" fill="#7A5614"/>
<path d="M285 330H115V355H285V330Z" fill="#A07018"/>
<path d="M3549 330H3719V355H3549V330Z" fill="#A07018"/>
<path d="M1711 330H1541V355H1711V330Z" fill="#A07018"/>
<path d="M1147 330H977V355H1147V330Z" fill="#A07018"/>
<path d="M2635 330H2465V355H2635V330Z" fill="#A07018"/>
<path d="M1429 330H1259V355H1429V330Z" fill="#A07018"/>
<path d="M2917 330H2747V355H2917V330Z" fill="#A07018"/>
<path d="M285 330H115V340H285V330Z" fill="#C8961E"/>
<path d="M3549 330H3719V340H3549V330Z" fill="#C8961E"/>
<path d="M1711 330H1541V340H1711V330Z" fill="#C8961E"/>
<path d="M1147 330H977V340H1147V330Z" fill="#C8961E"/>
<path d="M2635 330H2465V340H2635V330Z" fill="#C8961E"/>
<path d="M1429 330H1259V340H1429V330Z" fill="#C8961E"/>
<path d="M2917 330H2747V340H2917V330Z" fill="#C8961E"/>
<path d="M275 350H125V395H275V350Z" fill="#C8961E"/>
<path d="M3559 350H3709V395H3559V350Z" fill="#C8961E"/>
<path d="M1701 350H1551V395H1701V350Z" fill="#C8961E"/>
<path d="M1137 350H987V395H1137V350Z" fill="#C8961E"/>
<path d="M2625 350H2475V395H2625V350Z" fill="#C8961E"/>
<path d="M1419 350H1269V395H1419V350Z" fill="#C8961E"/>
<path d="M2907 350H2757V395H2907V350Z" fill="#C8961E"/>
<path d="M275 350H125V365H275V350Z" fill="#E8B040"/>
<path d="M3559 350H3709V365H3559V350Z" fill="#E8B040"/>
<path d="M1701 350H1551V365H1701V350Z" fill="#E8B040"/>
<path d="M1137 350H987V365H1137V350Z" fill="#E8B040"/>
<path d="M2625 350H2475V365H2625V350Z" fill="#E8B040"/>
<path d="M1419 350H1269V365H1419V350Z" fill="#E8B040"/>
<path d="M2907 350H2757V365H2907V350Z" fill="#E8B040"/>
<path d="M275 380H125V395H275V380Z" fill="#8A6010"/>
<path d="M3559 380H3709V395H3559V380Z" fill="#8A6010"/>
<path d="M1701 380H1551V395H1701V380Z" fill="#8A6010"/>
<path d="M1137 380H987V395H1137V380Z" fill="#8A6010"/>
<path d="M2625 380H2475V395H2625V380Z" fill="#8A6010"/>
<path d="M1419 380H1269V395H1419V380Z" fill="#8A6010"/>
<path d="M2907 380H2757V395H2907V380Z" fill="#8A6010"/>
<path d="M250 390H150V685H250V390Z" fill="#C8961E"/>
<path d="M3584 390H3684V685H3584V390Z" fill="#C8961E"/>
<path d="M1676 390H1576V685H1676V390Z" fill="#C8961E"/>
<path d="M1112 390H1012V685H1112V390Z" fill="#C8961E"/>
<path d="M2600 390H2500V685H2600V390Z" fill="#C8961E"/>
<path d="M1394 390H1294V685H1394V390Z" fill="#C8961E"/>
<path d="M2882 390H2782V685H2882V390Z" fill="#C8961E"/>
<path d="M165 390H150V685H165V390Z" fill="#E8B040"/>
<path d="M3669 390H3684V685H3669V390Z" fill="#E8B040"/>
<path d="M1591 390H1576V685H1591V390Z" fill="#E8B040"/>
<path d="M1027 390H1012V685H1027V390Z" fill="#E8B040"/>
<path d="M2515 390H2500V685H2515V390Z" fill="#E8B040"/>
<path d="M1309 390H1294V685H1309V390Z" fill="#E8B040"/>
<path d="M2797 390H2782V685H2797V390Z" fill="#E8B040"/>
<path d="M250 390H235V685H250V390Z" fill="#8A6010"/>
<path d="M3584 390H3599V685H3584V390Z" fill="#8A6010"/>
<path d="M1676 390H1661V685H1676V390Z" fill="#8A6010"/>
<path d="M1112 390H1097V685H1112V390Z" fill="#8A6010"/>
<path d="M2600 390H2585V685H2600V390Z" fill="#8A6010"/>
<path d="M1394 390H1379V685H1394V390Z" fill="#8A6010"/>
<path d="M2882 390H2867V685H2882V390Z" fill="#8A6010"/>
<path opacity="0.4" d="M182.5 400H177.5V680H182.5V400Z" fill="#D4A030"/>
<path opacity="0.4" d="M3651.5 400H3656.5V680H3651.5V400Z" fill="#D4A030"/>
<path opacity="0.4" d="M1608.5 400H1603.5V680H1608.5V400Z" fill="#D4A030"/>
<path opacity="0.4" d="M1044.5 400H1039.5V680H1044.5V400Z" fill="#D4A030"/>
<path opacity="0.4" d="M2532.5 400H2527.5V680H2532.5V400Z" fill="#D4A030"/>
<path opacity="0.4" d="M1326.5 400H1321.5V680H1326.5V400Z" fill="#D4A030"/>
<path opacity="0.4" d="M2814.5 400H2809.5V680H2814.5V400Z" fill="#D4A030"/>
<path opacity="0.4" d="M205 400H200V680H205V400Z" fill="#D4A030"/>
<path opacity="0.4" d="M3629 400H3634V680H3629V400Z" fill="#D4A030"/>
<path opacity="0.4" d="M1631 400H1626V680H1631V400Z" fill="#D4A030"/>
<path opacity="0.4" d="M1067 400H1062V680H1067V400Z" fill="#D4A030"/>
<path opacity="0.4" d="M2555 400H2550V680H2555V400Z" fill="#D4A030"/>
<path opacity="0.4" d="M1349 400H1344V680H1349V400Z" fill="#D4A030"/>
<path opacity="0.4" d="M2837 400H2832V680H2837V400Z" fill="#D4A030"/>
<path opacity="0.35" d="M227.5 400H222.5V680H227.5V400Z" fill="#8A6010"/>
<path opacity="0.35" d="M3606.5 400H3611.5V680H3606.5V400Z" fill="#8A6010"/>
<path opacity="0.35" d="M1653.5 400H1648.5V680H1653.5V400Z" fill="#8A6010"/>
<path opacity="0.35" d="M1089.5 400H1084.5V680H1089.5V400Z" fill="#8A6010"/>
<path opacity="0.35" d="M2577.5 400H2572.5V680H2577.5V400Z" fill="#8A6010"/>
<path opacity="0.35" d="M1371.5 400H1366.5V680H1371.5V400Z" fill="#8A6010"/>
<path opacity="0.35" d="M2859.5 400H2854.5V680H2859.5V400Z" fill="#8A6010"/>
<path d="M275 680H125V710H275V680Z" fill="#8A6010"/>
<path d="M3559 680H3709V710H3559V680Z" fill="#8A6010"/>
<path d="M1701 680H1551V710H1701V680Z" fill="#8A6010"/>
<path d="M1137 680H987V710H1137V680Z" fill="#8A6010"/>
<path d="M2625 680H2475V710H2625V680Z" fill="#8A6010"/>
<path d="M1419 680H1269V710H1419V680Z" fill="#8A6010"/>
<path d="M2907 680H2757V710H2907V680Z" fill="#8A6010"/>
<path d="M275 680H125V690H275V680Z" fill="#C8961E"/>
<path d="M3559 680H3709V690H3559V680Z" fill="#C8961E"/>
<path d="M1701 680H1551V690H1701V680Z" fill="#C8961E"/>
<path d="M1137 680H987V690H1137V680Z" fill="#C8961E"/>
<path d="M2625 680H2475V690H2625V680Z" fill="#C8961E"/>
<path d="M1419 680H1269V690H1419V680Z" fill="#C8961E"/>
<path d="M2907 680H2757V690H2907V680Z" fill="#C8961E"/>
<path d="M685 435H515V460H685V435Z" fill="#A07018"/>
<path d="M3149 435H3319V460H3149V435Z" fill="#A07018"/>
<path d="M3950 435H4120V460H3950V435Z" fill="#A07018"/>
<path d="M4232 435H4402V460H4232V435Z" fill="#A07018"/>
<path d="M4514 435H4684V460H4514V435Z" fill="#A07018"/>
<path d="M2173 435H2003V460H2173V435Z" fill="#A07018"/>
<path d="M685 435H515V445H685V435Z" fill="#C8961E"/>
<path d="M3149 435H3319V445H3149V435Z" fill="#C8961E"/>
<path d="M3950 435H4120V445H3950V435Z" fill="#C8961E"/>
<path d="M4232 435H4402V445H4232V435Z" fill="#C8961E"/>
<path d="M4514 435H4684V445H4514V435Z" fill="#C8961E"/>
<path d="M2173 435H2003V445H2173V435Z" fill="#C8961E"/>
<path d="M675 455H525V500H675V455Z" fill="#C8961E"/>
<path d="M3159 455H3309V500H3159V455Z" fill="#C8961E"/>
<path d="M3960 455H4110V500H3960V455Z" fill="#C8961E"/>
<path d="M4242 455H4392V500H4242V455Z" fill="#C8961E"/>
<path d="M4524 455H4674V500H4524V455Z" fill="#C8961E"/>
<path d="M2163 455H2013V500H2163V455Z" fill="#C8961E"/>
<path d="M675 455H525V470H675V455Z" fill="#E8B040"/>
<path d="M3159 455H3309V470H3159V455Z" fill="#E8B040"/>
<path d="M3960 455H4110V470H3960V455Z" fill="#E8B040"/>
<path d="M4242 455H4392V470H4242V455Z" fill="#E8B040"/>
<path d="M4524 455H4674V470H4524V455Z" fill="#E8B040"/>
<path d="M2163 455H2013V470H2163V455Z" fill="#E8B040"/>
<path d="M675 485H525V500H675V485Z" fill="#8A6010"/>
<path d="M3159 485H3309V500H3159V485Z" fill="#8A6010"/>
<path d="M3960 485H4110V500H3960V485Z" fill="#8A6010"/>
<path d="M4242 485H4392V500H4242V485Z" fill="#8A6010"/>
<path d="M4524 485H4674V500H4524V485Z" fill="#8A6010"/>
<path d="M2163 485H2013V500H2163V485Z" fill="#8A6010"/>
<path d="M650 495H550V685H650V495Z" fill="#C8961E"/>
<path d="M3184 495H3284V685H3184V495Z" fill="#C8961E"/>
<path d="M3985 495H4085V685H3985V495Z" fill="#C8961E"/>
<path d="M4267 495H4367V685H4267V495Z" fill="#C8961E"/>
<path d="M4549 495H4649V685H4549V495Z" fill="#C8961E"/>
<path d="M2138 495H2038V685H2138V495Z" fill="#C8961E"/>
<path d="M565 495H550V685H565V495Z" fill="#E8B040"/>
<path d="M3269 495H3284V685H3269V495Z" fill="#E8B040"/>
<path d="M4070 495H4085V685H4070V495Z" fill="#E8B040"/>
<path d="M4352 495H4367V685H4352V495Z" fill="#E8B040"/>
<path d="M4634 495H4649V685H4634V495Z" fill="#E8B040"/>
<path d="M2053 495H2038V685H2053V495Z" fill="#E8B040"/>
<path d="M650 495H635V685H650V495Z" fill="#8A6010"/>
<path d="M3184 495H3199V685H3184V495Z" fill="#8A6010"/>
<path d="M3985 495H4000V685H3985V495Z" fill="#8A6010"/>
<path d="M4267 495H4282V685H4267V495Z" fill="#8A6010"/>
<path d="M4548 495H4563V685H4548V495Z" fill="#8A6010"/>
<path d="M2138 495H2123V685H2138V495Z" fill="#8A6010"/>
<path opacity="0.4" d="M582.5 505H577.5V680H582.5V505Z" fill="#D4A030"/>
<path opacity="0.4" d="M3251.5 505H3256.5V680H3251.5V505Z" fill="#D4A030"/>
<path opacity="0.4" d="M4052.5 505H4057.5V680H4052.5V505Z" fill="#D4A030"/>
<path opacity="0.4" d="M4334.5 505H4339.5V680H4334.5V505Z" fill="#D4A030"/>
<path opacity="0.4" d="M4616.5 505H4621.5V680H4616.5V505Z" fill="#D4A030"/>
<path opacity="0.4" d="M2070.5 505H2065.5V680H2070.5V505Z" fill="#D4A030"/>
<path opacity="0.4" d="M605 505H600V680H605V505Z" fill="#D4A030"/>
<path opacity="0.4" d="M3229 505H3234V680H3229V505Z" fill="#D4A030"/>
<path opacity="0.4" d="M4030 505H4035V680H4030V505Z" fill="#D4A030"/>
<path opacity="0.4" d="M4312 505H4317V680H4312V505Z" fill="#D4A030"/>
<path opacity="0.4" d="M4594 505H4599V680H4594V505Z" fill="#D4A030"/>
<path opacity="0.4" d="M2093 505H2088V680H2093V505Z" fill="#D4A030"/>
<path opacity="0.35" d="M627.5 505H622.5V680H627.5V505Z" fill="#8A6010"/>
<path opacity="0.35" d="M3206.5 505H3211.5V680H3206.5V505Z" fill="#8A6010"/>
<path opacity="0.35" d="M4007.5 505H4012.5V680H4007.5V505Z" fill="#8A6010"/>
<path opacity="0.35" d="M4289.5 505H4294.5V680H4289.5V505Z" fill="#8A6010"/>
<path opacity="0.35" d="M4571.5 505H4576.5V680H4571.5V505Z" fill="#8A6010"/>
<path opacity="0.35" d="M2115.5 505H2110.5V680H2115.5V505Z" fill="#8A6010"/>
<path d="M675 680H525V710H675V680Z" fill="#8A6010"/>
<path d="M3159 680H3309V710H3159V680Z" fill="#8A6010"/>
<path d="M3960 680H4110V710H3960V680Z" fill="#8A6010"/>
<path d="M4242 680H4392V710H4242V680Z" fill="#8A6010"/>
<path d="M4524 680H4674V710H4524V680Z" fill="#8A6010"/>
<path d="M2163 680H2013V710H2163V680Z" fill="#8A6010"/>
<path d="M675 680H525V690H675V680Z" fill="#C8961E"/>
<path d="M3159 680H3309V690H3159V680Z" fill="#C8961E"/>
<path d="M3960 680H4110V690H3960V680Z" fill="#C8961E"/>
<path d="M4242 680H4392V690H4242V680Z" fill="#C8961E"/>
<path d="M4524 680H4674V690H4524V680Z" fill="#C8961E"/>
<path d="M2163 680H2013V690H2163V680Z" fill="#C8961E"/>
<path d="M1598 710H-2V800H1598V710Z" fill="#5A3C08"/>
<path d="M4800 710H1428V800H4800V710Z" fill="#5A3C08"/>
<path d="M1598 710H-2V735H1598V710Z" fill="#8A6010"/>
<path d="M4800 710H1428V735H4800V710Z" fill="#8A6010"/>
<path d="M1598 710H-2V718H1598V710Z" fill="#C8961E"/>
<path d="M4800 710H1428V718H4800V710Z" fill="#C8961E"/>
<path opacity="0.45" d="M150 717.5H20V730H150V717.5Z" fill="#A07018"/>
<path opacity="0.45" d="M3684 717.5H3814V730H3684V717.5Z" fill="#A07018"/>
<path opacity="0.45" d="M1576 717.5H1446V730H1576V717.5Z" fill="#A07018"/>
<path opacity="0.45" d="M1004 717.5H874V730H1004V717.5Z" fill="#A07018"/>
<path opacity="0.45" d="M2492 717.5H2362V730H2492V717.5Z" fill="#A07018"/>
<path opacity="0.4" d="M425 717.5H320V730H425V717.5Z" fill="#A07018"/>
<path opacity="0.4" d="M3409 717.5H3514V730H3409V717.5Z" fill="#A07018"/>
<path opacity="0.4" d="M1851 717.5H1746V730H1851V717.5Z" fill="#A07018"/>
<path opacity="0.4" d="M1279 717.5H1174V730H1279V717.5Z" fill="#A07018"/>
<path opacity="0.4" d="M2767 717.5H2662V730H2767V717.5Z" fill="#A07018"/>
<path opacity="0.45" d="M745 717.5H610V730H745V717.5Z" fill="#A07018"/>
<path opacity="0.45" d="M3089 717.5H3224V730H3089V717.5Z" fill="#A07018"/>
<path opacity="0.45" d="M2233 717.5H2098V730H2233V717.5Z" fill="#A07018"/>
<path opacity="0.45" d="M1597 717.5H1462V730H1597V717.5Z" fill="#A07018"/>
<path opacity="0.45" d="M3087 717.5H2952V730H3087V717.5Z" fill="#A07018"/>
<path opacity="0.65" d="M1514 15H1424C1421.24 15 1419 17.2386 1419 20V55C1419 57.7614 1421.24 60 1424 60H1514C1516.76 60 1519 57.7614 1519 55V20C1519 17.2386 1516.76 15 1514 15Z" fill="#5A3E0C"/>
<path opacity="0.65" d="M3002 15H2912C2909.24 15 2907 17.2386 2907 20V55C2907 57.7614 2909.24 60 2912 60H3002C3004.76 60 3007 57.7614 3007 55V20C3007 17.2386 3004.76 15 3002 15Z" fill="#5A3E0C"/>
<path opacity="0.65" d="M4475 15H4385C4382.24 15 4380 17.2386 4380 20V55C4380 57.7614 4382.24 60 4385 60H4475C4477.76 60 4480 57.7614 4480 55V20C4480 17.2386 4477.76 15 4475 15Z" fill="#5A3E0C"/>
</g>
<defs>
<clipPath id="clip0_293_2">
<rect width="4800" height="800" fill="white"/>
</clipPath>
</defs>
</svg>
