<svg width="800" height="800" viewBox="0 0 800 800" fill="none" xmlns="http://www.w3.org/2000/svg">
<g clip-path="url(#clip0_260_97)">
<path d="M800 0H0V800H800V0Z" fill="#050D05"/>
<path opacity="0.7" d="M80 61.5C80.8284 61.5 81.5 60.8284 81.5 60C81.5 59.1716 80.8284 58.5 80 58.5C79.1716 58.5 78.5 59.1716 78.5 60C78.5 60.8284 79.1716 61.5 80 61.5Z" fill="white"/>
<path opacity="0.5" d="M150 121C150.552 121 151 120.552 151 120C151 119.448 150.552 119 150 119C149.448 119 149 119.448 149 120C149 120.552 149.448 121 150 121Z" fill="white"/>
<path opacity="0.6" d="M220 47C221.105 47 222 46.1046 222 45C222 43.8954 221.105 43 220 43C218.895 43 218 43.8954 218 45C218 46.1046 218.895 47 220 47Z" fill="white"/>
<path opacity="0.8" d="M310 91.5C310.828 91.5 311.5 90.8284 311.5 90C311.5 89.1716 310.828 88.5 310 88.5C309.172 88.5 308.5 89.1716 308.5 90C308.5 90.8284 309.172 91.5 310 91.5Z" fill="white"/>
<path opacity="0.4" d="M380 31C380.552 31 381 30.5523 381 30C381 29.4477 380.552 29 380 29C379.448 29 379 29.4477 379 30C379 30.5523 379.448 31 380 31Z" fill="white"/>
<path opacity="0.7" d="M430 151.5C430.828 151.5 431.5 150.828 431.5 150C431.5 149.172 430.828 148.5 430 148.5C429.172 148.5 428.5 149.172 428.5 150C428.5 150.828 429.172 151.5 430 151.5Z" fill="white"/>
<path opacity="0.5" d="M500 56C500.552 56 501 55.5523 501 55C501 54.4477 500.552 54 500 54C499.448 54 499 54.4477 499 55C499 55.5523 499.448 56 500 56Z" fill="white"/>
<path opacity="0.4" d="M160 201.5C160.828 201.5 161.5 200.828 161.5 200C161.5 199.172 160.828 198.5 160 198.5C159.172 198.5 158.5 199.172 158.5 200C158.5 200.828 159.172 201.5 160 201.5Z" fill="white"/>
<path opacity="0.5" d="M260 176C260.552 176 261 175.552 261 175C261 174.448 260.552 174 260 174C259.448 174 259 174.448 259 175C259 175.552 259.448 176 260 176Z" fill="white"/>
<path opacity="0.6" d="M350 191.5C350.828 191.5 351.5 190.828 351.5 190C351.5 189.172 350.828 188.5 350 188.5C349.172 188.5 348.5 189.172 348.5 190C348.5 190.828 349.172 191.5 350 191.5Z" fill="white"/>
<path opacity="0.3" d="M100 301C100.552 301 101 300.552 101 300C101 299.448 100.552 299 100 299C99.4477 299 99 299.448 99 300C99 300.552 99.4477 301 100 301Z" fill="white"/>
<path opacity="0.4" d="M200 281.5C200.828 281.5 201.5 280.828 201.5 280C201.5 279.172 200.828 278.5 200 278.5C199.172 278.5 198.5 279.172 198.5 280C198.5 280.828 199.172 281.5 200 281.5Z" fill="white"/>
<path opacity="0.3" d="M70 391C70.5523 391 71 390.552 71 390C71 389.448 70.5523 389 70 389C69.4477 389 69 389.448 69 390C69 390.552 69.4477 391 70 391Z" fill="white"/>
<path opacity="0.35" d="M290 341.5C290.828 341.5 291.5 340.828 291.5 340C291.5 339.172 290.828 338.5 290 338.5C289.172 338.5 288.5 339.172 288.5 340C288.5 340.828 289.172 341.5 290 341.5Z" fill="white"/>
<path opacity="0.4" d="M410 261C410.552 261 411 260.552 411 260C411 259.448 410.552 259 410 259C409.448 259 409 259.448 409 260C409 260.552 409.448 261 410 261Z" fill="white"/>
<path d="M632 300H602C598.686 300 596 302.686 596 306V579C596 582.314 598.686 585 602 585H632C635.314 585 638 582.314 638 579V306C638 302.686 635.314 300 632 300Z" fill="#6B4A1E"/>
<path opacity="0.45" d="M613 312H609C607.343 312 606 313.343 606 315V509C606 510.657 607.343 512 609 512H613C614.657 512 616 510.657 616 509V315C616 313.343 614.657 312 613 312Z" fill="#7D5A2A"/>
<path d="M582 589C599.673 589 614 583.627 614 577C614 570.373 599.673 565 582 565C564.327 565 550 570.373 550 577C550 583.627 564.327 589 582 589Z" fill="#5E4018"/>
<path d="M655 587C669.912 587 682 582.523 682 577C682 571.477 669.912 567 655 567C640.088 567 628 571.477 628 577C628 582.523 640.088 587 655 587Z" fill="#5E4018"/>
<path d="M556 330C601.287 330 638 299.555 638 262C638 224.445 601.287 194 556 194C510.713 194 474 224.445 474 262C474 299.555 510.713 330 556 330Z" fill="#1E6010"/>
<path d="M683 332C724.974 332 759 304.242 759 270C759 235.758 724.974 208 683 208C641.026 208 607 235.758 607 270C607 304.242 641.026 332 683 332Z" fill="#1E6010"/>
<path d="M620 248C668.601 248 708 215.765 708 176C708 136.235 668.601 104 620 104C571.399 104 532 136.235 532 176C532 215.765 571.399 248 620 248Z" fill="#26760E"/>
<path d="M573.148 276.642C615.122 273.944 647.425 244.949 645.3 211.879C643.174 178.809 607.425 154.187 565.452 156.884C523.478 159.582 491.175 188.577 493.3 221.647C495.426 254.717 531.175 279.339 573.148 276.642Z" fill="#2E8E10"/>
<path d="M677.154 275.739C716.584 273.205 746.891 245.373 744.848 213.575C742.804 181.777 709.183 158.053 669.754 160.587C630.324 163.122 600.017 190.953 602.06 222.751C604.104 254.549 637.725 278.273 677.154 275.739Z" fill="#2E8E10"/>
<path d="M623 208C657.242 208 685 184.719 685 156C685 127.281 657.242 104 623 104C588.758 104 561 127.281 561 156C561 184.719 588.758 208 623 208Z" fill="#38A814"/>
<g opacity="0.9">
<path d="M102.634 416.514H91.445C90.2092 416.514 89.2073 418.008 89.2073 419.851V571.663C89.2073 573.506 90.2092 575 91.445 575H102.634C103.87 575 104.872 573.506 104.872 571.663V419.851C104.872 418.008 103.87 416.514 102.634 416.514Z" fill="#6B4A1E"/>
<path opacity="0.45" d="M100.172 426.65H97.5921C96.5234 426.65 95.6571 427.578 95.6571 428.723V562.791C95.6571 563.936 96.5234 564.864 97.5921 564.864H100.172C101.241 564.864 102.107 563.936 102.107 562.791V428.723C102.107 427.578 101.241 426.65 100.172 426.65Z" fill="#7D5A2A"/>
</g>
<path d="M800 572H0V800H800V572Z" fill="#0C3208"/>
<path d="M800 572H0V600H800V572Z" fill="#186010"/>
<path d="M50 580C58.8366 580 66 576.418 66 572C66 567.582 58.8366 564 50 564C41.1634 564 34 567.582 34 572C34 576.418 41.1634 580 50 580Z" fill="#1E7010"/>
<path d="M130 576C137.18 576 143 573.314 143 570C143 566.686 137.18 564 130 564C122.82 564 117 566.686 117 570C117 573.314 122.82 576 130 576Z" fill="#1E7010"/>
<path d="M230 581C239.941 581 248 577.866 248 574C248 570.134 239.941 567 230 567C220.059 567 212 570.134 212 574C212 577.866 220.059 581 230 581Z" fill="#1E7010"/>
<path d="M350 577C357.732 577 364 574.314 364 571C364 567.686 357.732 565 350 565C342.268 565 336 567.686 336 571C336 574.314 342.268 577 350 577Z" fill="#1E7010"/>
<path d="M460 580C469.389 580 477 576.866 477 573C477 569.134 469.389 566 460 566C450.611 566 443 569.134 443 573C443 576.866 450.611 580 460 580Z" fill="#1E7010"/>
<path d="M560 576C567.18 576 573 573.314 573 570C573 566.686 567.18 564 560 564C552.82 564 547 566.686 547 570C547 573.314 552.82 576 560 576Z" fill="#1E7010"/>
<path d="M710 580C719.941 580 728 576.418 728 572C728 567.582 719.941 564 710 564C700.059 564 692 567.582 692 572C692 576.418 700.059 580 710 580Z" fill="#1E7010"/>
<path d="M800 658H0V800H800V658Z" fill="#28221A"/>
<path d="M71 666H13C10.2386 666 8 668.239 8 671V697C8 699.761 10.2386 702 13 702H71C73.7614 702 76 699.761 76 697V671C76 668.239 73.7614 666 71 666Z" fill="#3A3426"/>
<path d="M140 668H90C87.7909 668 86 669.791 86 672V697C86 699.209 87.7909 701 90 701H140C142.209 701 144 699.209 144 697V672C144 669.791 142.209 668 140 668Z" fill="#322C20"/>
<path d="M227 663H159C156.239 663 154 665.239 154 668V696C154 698.761 156.239 701 159 701H227C229.761 701 232 698.761 232 696V668C232 665.239 229.761 663 227 663Z" fill="#3A3426"/>
<path d="M301 666H246C243.791 666 242 667.791 242 670V697C242 699.209 243.791 701 246 701H301C303.209 701 305 699.209 305 697V670C305 667.791 303.209 666 301 666Z" fill="#2C271E"/>
<path d="M383 664H320C317.239 664 315 666.239 315 669V696C315 698.761 317.239 701 320 701H383C385.761 701 388 698.761 388 696V669C388 666.239 385.761 664 383 664Z" fill="#3A3426"/>
<path d="M450 667H402C399.791 667 398 668.791 398 671V697C398 699.209 399.791 701 402 701H450C452.209 701 454 699.209 454 697V671C454 668.791 452.209 667 450 667Z" fill="#322C20"/>
<path d="M539 663H469C466.239 663 464 665.239 464 668V696C464 698.761 466.239 701 469 701H539C541.761 701 544 698.761 544 696V668C544 665.239 541.761 663 539 663Z" fill="#3A3426"/>
<path d="M616 666H558C555.791 666 554 667.791 554 670V697C554 699.209 555.791 701 558 701H616C618.209 701 620 699.209 620 697V670C620 667.791 618.209 666 616 666Z" fill="#2C271E"/>
<path d="M697 664H635C632.239 664 630 666.239 630 669V696C630 698.761 632.239 701 635 701H697C699.761 701 702 698.761 702 696V669C702 666.239 699.761 664 697 664Z" fill="#322C20"/>
<path d="M788 666H716C713.791 666 712 667.791 712 670V698C712 700.209 713.791 702 716 702H788C790.209 702 792 700.209 792 698V670C792 667.791 790.209 666 788 666Z" fill="#3A3426"/>
<path d="M67 712H22C19.7909 712 18 713.791 18 716V742C18 744.209 19.7909 746 22 746H67C69.2091 746 71 744.209 71 742V716C71 713.791 69.2091 712 67 712Z" fill="#322C20"/>
<path d="M146 715H86C83.2386 715 81 717.239 81 720V741C81 743.761 83.2386 746 86 746H146C148.761 746 151 743.761 151 741V720C151 717.239 148.761 715 146 715Z" fill="#3A3426"/>
<path d="M213 711H165C162.791 711 161 712.791 161 715V742C161 744.209 162.791 746 165 746H213C215.209 746 217 744.209 217 742V715C217 712.791 215.209 711 213 711Z" fill="#2C271E"/>
<path d="M298 713H232C229.239 713 227 715.239 227 718V740C227 742.761 229.239 745 232 745H298C300.761 745 303 742.761 303 740V718C303 715.239 300.761 713 298 713Z" fill="#3A3426"/>
<path d="M369 712H317C314.791 712 313 713.791 313 716V742C313 744.209 314.791 746 317 746H369C371.209 746 373 744.209 373 742V716C373 713.791 371.209 712 369 712Z" fill="#322C20"/>
<path d="M446 714H388C385.239 714 383 716.239 383 719V740C383 742.761 385.239 745 388 745H446C448.761 745 451 742.761 451 740V719C451 716.239 448.761 714 446 714Z" fill="#3A3426"/>
<path d="M520 711H465C462.791 711 461 712.791 461 715V742C461 744.209 462.791 746 465 746H520C522.209 746 524 744.209 524 742V715C524 712.791 522.209 711 520 711Z" fill="#2C271E"/>
<path d="M607 713H539C536.239 713 534 715.239 534 718V740C534 742.761 536.239 745 539 745H607C609.761 745 612 742.761 612 740V718C612 715.239 609.761 713 607 713Z" fill="#3A3426"/>
<path d="M672 712H626C623.791 712 622 713.791 622 716V742C622 744.209 623.791 746 626 746H672C674.209 746 676 744.209 676 742V716C676 713.791 674.209 712 672 712Z" fill="#322C20"/>
<path d="M753 714H691C688.239 714 686 716.239 686 719V740C686 742.761 688.239 745 691 745H753C755.761 745 758 742.761 758 740V719C758 716.239 755.761 714 753 714Z" fill="#3A3426"/>
<path d="M70 444C91.5391 444 109 427.211 109 406.5C109 385.789 91.5391 369 70 369C48.4609 369 31 385.789 31 406.5C31 427.211 48.4609 444 70 444Z" fill="#2E8E10"/>
<path d="M122.5 443C142.658 443 159 426.658 159 406.5C159 386.342 142.658 370 122.5 370C102.342 370 86 386.342 86 406.5C86 426.658 102.342 443 122.5 443Z" fill="#2E8E10"/>
<path d="M95 423C120.957 423 142 401.957 142 376C142 350.043 120.957 329 95 329C69.0426 329 48 350.043 48 376C48 401.957 69.0426 423 95 423Z" fill="#38A814"/>
</g>
<defs>
<clipPath id="clip0_260_97">
<rect width="800" height="800" fill="white"/>
</clipPath>
</defs>
</svg>
