<svg width="800" height="800" viewBox="0 0 800 800" fill="none" xmlns="http://www.w3.org/2000/svg">
<g clip-path="url(#clip0_332_2)">
<path d="M850 0H-3950V800H850V0Z" fill="#070503"/>
<path d="M850 240H-3950V648H850V240Z" fill="#0B0706"/>
<g opacity="0.9">
<path d="M310 380H-410V664H310V380Z" fill="url(#paint0_radial_332_2)"/>
<path d="M1030 380H310V664H1030V380Z" fill="url(#paint1_radial_332_2)"/>
</g>
<path d="M850 0H-3950V240H850V0Z" fill="#2A0E06"/>
<path d="M850 0H-3950V120H850V0Z" fill="#1A0A06"/>
<path opacity="0.7" d="M850 150H-3950V240H850V150Z" fill="#3A1208"/>
<path d="M121 43H41C35.4772 43 31 47.4772 31 53V65C31 70.5228 35.4772 75 41 75H121C126.523 75 131 70.5228 131 65V53C131 47.4772 126.523 43 121 43Z" fill="#8A1E0C"/>
<path d="M271 40H191C185.477 40 181 44.4772 181 50V58C181 63.5228 185.477 68 191 68H271C276.523 68 281 63.5228 281 58V50C281 44.4772 276.523 40 271 40Z" fill="#5A1006"/>
<path d="M438 37H338C332.477 37 328 41.4772 328 47V55C328 60.5228 332.477 65 338 65H438C443.523 65 448 60.5228 448 55V47C448 41.4772 443.523 37 438 37Z" fill="#8A1E0C"/>
<path d="M593 44H503C497.477 44 493 48.4772 493 54V66C493 71.5228 497.477 76 503 76H593C598.523 76 603 71.5228 603 66V54C603 48.4772 598.523 44 593 44Z" fill="#A8341A"/>
<path d="M741 35H661C655.477 35 651 39.4772 651 45V55C651 60.5228 655.477 65 661 65H741C746.523 65 751 60.5228 751 55V45C751 39.4772 746.523 35 741 35Z" fill="#8A1E0C"/>
<path d="M44 127H-46C-51.5228 127 -56 131.477 -56 137V149C-56 154.523 -51.5228 159 -46 159H44C49.5229 159 54 154.523 54 149V137C54 131.477 49.5229 127 44 127Z" fill="#6A2010"/>
<path d="M244 118H134C128.477 118 124 122.477 124 128V138C124 143.523 128.477 148 134 148H244C249.523 148 254 143.523 254 138V128C254 122.477 249.523 118 244 118Z" fill="#A8341A"/>
<path d="M413 123H323C317.477 123 313 127.477 313 133V141C313 146.523 317.477 151 323 151H413C418.523 151 423 146.523 423 141V133C423 127.477 418.523 123 413 123Z" fill="#7A1408"/>
<path d="M581 120H501C495.477 120 491 124.477 491 130V138C491 143.523 495.477 148 501 148H581C586.523 148 591 143.523 591 138V130C591 124.477 586.523 120 581 120Z" fill="#5A1006"/>
<path d="M758 118H678C672.477 118 668 122.477 668 128V138C668 143.523 672.477 148 678 148H758C763.523 148 768 143.523 768 138V128C768 122.477 763.523 118 758 118Z" fill="#7A1408"/>
<path opacity="0.6" d="M850 86H-3950V90H850V86Z" fill="#1A0A06"/>
<path opacity="0.55" d="M850 170H-3950V174H850V170Z" fill="#2A0E06"/>
<path d="M850 210H-3950V240H850V210Z" fill="#8A1E0C"/>
<path d="M850 210H-3950V220H850V210Z" fill="#5A1006"/>
<path opacity="0.6" d="M850 232H-3950V240H850V232Z" fill="#C8281A"/>
<path opacity="0.5" d="M56 183C56 181.343 54.6569 180 53 180C51.3431 180 50 181.343 50 183V227C50 228.657 51.3431 230 53 230C54.6569 230 56 228.657 56 227V183Z" fill="#E86820"/>
<path opacity="0.5" d="M576 183C576 181.343 574.657 180 573 180C571.343 180 570 181.343 570 183V227C570 228.657 571.343 230 573 230C574.657 230 576 228.657 576 227V183Z" fill="#E86820"/>
<path opacity="0.5" d="M170 241C176.627 241 182 239.209 182 237C182 234.791 176.627 233 170 233C163.373 233 158 234.791 158 237C158 239.209 163.373 241 170 241Z" fill="#F0A848"/>
<path opacity="0.5" d="M470 241C478.837 241 486 239.209 486 237C486 234.791 478.837 233 470 233C461.163 233 454 234.791 454 237C454 239.209 461.163 241 470 241Z" fill="#F0903A"/>
<path opacity="0.5" d="M770 241C778.837 241 786 239.209 786 237C786 234.791 778.837 233 770 233C761.163 233 754 234.791 754 237C754 239.209 761.163 241 770 241Z" fill="#F0903A"/>
<g opacity="0.72">
<path d="M-26 238H26L0 451L-26 238Z" fill="#B81E10"/>
<path d="M-13 238H13L0 429L-13 238Z" fill="#5A1006"/>
<path d="M0 459C2.20914 459 4 455.866 4 452C4 448.134 2.20914 445 0 445C-2.20914 445 -4 448.134 -4 452C-4 455.866 -2.20914 459 0 459Z" fill="#A86850"/>
<path d="M133 238H201L167 395L133 238Z" fill="#8A1E0C"/>
<path d="M150 238H184L167 373L150 238Z" fill="#5A1006"/>
<path d="M133 238H143L163 355L167 395L133 238Z" fill="#E04A28"/>
<path d="M167 403C169.209 403 171 399.866 171 396C171 392.134 169.209 389 167 389C164.791 389 163 392.134 163 396C163 399.866 164.791 403 167 403Z" fill="#A86850"/>
<path d="M307 238H347L327 319L307 238Z" fill="#8A1E0C"/>
<path d="M317 238H337L327 297L317 238Z" fill="#5A1006"/>
<path d="M327 325C328.657 325 330 322.761 330 320C330 317.239 328.657 315 327 315C325.343 315 324 317.239 324 320C324 322.761 325.343 325 327 325Z" fill="#A86850"/>
<path d="M473 238H513L493 330L473 238Z" fill="#7A1408"/>
<path d="M483 238H503L493 308L483 238Z" fill="#5A1006"/>
<path d="M493 336C494.657 336 496 333.761 496 331C496 328.239 494.657 326 493 326C491.343 326 490 328.239 490 331C490 333.761 491.343 336 493 336Z" fill="#A86850"/>
</g>
<path opacity="0.5" d="M273 575C274.657 575 276 573.657 276 572C276 570.343 274.657 569 273 569C271.343 569 270 570.343 270 572C270 573.657 271.343 575 273 575Z" fill="#E86820"/>
<path opacity="0.55" d="M362 388C363.657 388 365 386.657 365 385C365 383.343 363.657 382 362 382C360.343 382 359 383.343 359 385C359 386.657 360.343 388 362 388Z" fill="#F0903A"/>
<path opacity="0.5" d="M538 532C539.105 532 540 531.105 540 530C540 528.895 539.105 528 538 528C536.895 528 536 528.895 536 530C536 531.105 536.895 532 538 532Z" fill="#F0A848"/>
<path opacity="0.5" d="M388 555.5C389.381 555.5 390.5 554.381 390.5 553C390.5 551.619 389.381 550.5 388 550.5C386.619 550.5 385.5 551.619 385.5 553C385.5 554.381 386.619 555.5 388 555.5Z" fill="#F0A848"/>
<path opacity="0.6" d="M228 510C229.657 510 231 508.657 231 507C231 505.343 229.657 504 228 504C226.343 504 225 505.343 225 507C225 508.657 226.343 510 228 510Z" fill="#E86820"/>
<path opacity="0.55" d="M552 529C553.105 529 554 528.105 554 527C554 525.895 553.105 525 552 525C550.895 525 550 525.895 550 527C550 528.105 550.895 529 552 529Z" fill="#E86820"/>
<path d="M850 600H-3950V664H850V600Z" fill="url(#paint2_linear_332_2)"/>
<path d="M850 664H-3950V800H850V664Z" fill="url(#paint3_linear_332_2)"/>
<path opacity="0.9" d="M850 664H-3950V670H850V664Z" fill="#FFD27A"/>
<path opacity="0.7" d="M850 670H-3950V674H850V670Z" fill="#F0A848"/>
<path opacity="0.35" d="M848 682H-3950C-3951.1 682 -3952 682.895 -3952 684C-3952 685.105 -3951.1 686 -3950 686H848C849.104 686 850 685.105 850 684C850 682.895 849.104 682 848 682Z" fill="#F0903A"/>
<path opacity="0.35" d="M848 700H-3969C-3970.1 700 -3971 700.672 -3971 701.5C-3971 702.328 -3970.1 703 -3969 703H848C849.104 703 850 702.328 850 701.5C850 700.672 849.104 700 848 700Z" fill="#F0903A"/>
<path opacity="0.35" d="M848 718H-3965C-3966.1 718 -3967 718.895 -3967 720V721C-3967 722.105 -3966.1 723 -3965 723H848C849.104 723 850 722.105 850 721V720C850 718.895 849.104 718 848 718Z" fill="#F0903A"/>
<path opacity="0.35" d="M848 736H-3975C-3976.1 736 -3977 736.895 -3977 738C-3977 739.105 -3976.1 740 -3975 740H848C849.104 740 850 739.105 850 738C850 736.895 849.104 736 848 736Z" fill="#F0903A"/>
<path opacity="0.35" d="M848 754H-4049C-4050.1 754 -4051 754.895 -4051 756V757C-4051 758.105 -4050.1 759 -4049 759H848C849.104 759 850 758.105 850 757V756C850 754.895 849.104 754 848 754Z" fill="#F0903A"/>
<path opacity="0.35" d="M848 772H-4062C-4063.1 772 -4064 772.895 -4064 774C-4064 775.105 -4063.1 776 -4062 776H848C849.104 776 850 775.105 850 774C850 772.895 849.104 772 848 772Z" fill="#F06838"/>
<path opacity="0.55" d="M448 787C452.418 787 456 784.314 456 781C456 777.686 452.418 775 448 775C443.582 775 440 777.686 440 781C440 784.314 443.582 787 448 787Z" fill="#F06838"/>
<path opacity="0.7" d="M448 785C451.314 785 454 783.209 454 781C454 778.791 451.314 777 448 777C444.686 777 442 778.791 442 781C442 783.209 444.686 785 448 785Z" fill="#FFD27A"/>
<path opacity="0.55" d="M757 740C759.209 740 761 739.105 761 738C761 736.895 759.209 736 757 736C754.791 736 753 736.895 753 738C753 739.105 754.791 740 757 740Z" fill="#F06838"/>
<path opacity="0.7" d="M757 739C758.105 739 759 738.552 759 738C759 737.448 758.105 737 757 737C755.895 737 755 737.448 755 738C755 738.552 755.895 739 757 739Z" fill="#FFD27A"/>
<path opacity="0.55" d="M681 679C684.314 679 687 677.209 687 675C687 672.791 684.314 671 681 671C677.686 671 675 672.791 675 675C675 677.209 677.686 679 681 679Z" fill="#F06838"/>
<path opacity="0.7" d="M681 677C683.209 677 685 676.105 685 675C685 673.895 683.209 673 681 673C678.791 673 677 673.895 677 675C677 676.105 678.791 677 681 677Z" fill="#FFD27A"/>
<path opacity="0.55" d="M360 751C363.866 751 367 748.761 367 746C367 743.239 363.866 741 360 741C356.134 741 353 743.239 353 746C353 748.761 356.134 751 360 751Z" fill="#F06838"/>
<path opacity="0.7" d="M360 749C362.761 749 365 747.657 365 746C365 744.343 362.761 743 360 743C357.239 743 355 744.343 355 746C355 747.657 357.239 749 360 749Z" fill="#FFD27A"/>
<path d="M160 668C190.667 652 221.333 652 252 668L244 694H168L160 668Z" fill="#2A0E06"/>
<path opacity="0.6" d="M160 668C190.667 652 221.333 652 252 668" stroke="#E86820" stroke-width="3"/>
<path opacity="0.5" d="M222 603C223.105 603 224 602.105 224 601C224 599.895 223.105 599 222 599C220.895 599 220 599.895 220 601C220 602.105 220.895 603 222 603Z" fill="#FFD27A"/>
<path opacity="0.7" d="M746 652.5C747.381 652.5 748.5 651.381 748.5 650C748.5 648.619 747.381 647.5 746 647.5C744.619 647.5 743.5 648.619 743.5 650C743.5 651.381 744.619 652.5 746 652.5Z" fill="#F0A848"/>
<path opacity="0.6" d="M645 621C646.105 621 647 620.105 647 619C647 617.895 646.105 617 645 617C643.895 617 643 617.895 643 619C643 620.105 643.895 621 645 621Z" fill="#F0A848"/>
<path opacity="0.5" d="M489 629C490.105 629 491 628.105 491 627C491 625.895 490.105 625 489 625C487.895 625 487 625.895 487 627C487 628.105 487.895 629 489 629Z" fill="#F0A848"/>
<path d="M850 648H-3950V666H850V648Z" fill="#2A0E06"/>
<path d="M850 648H-3950V654H850V648Z" fill="#3A1208"/>
<path d="M850 648H-3950V651H850V648Z" fill="#5A2A14"/>
<path opacity="0.8" d="M850 662H-3950V665H850V662Z" fill="#F0A848"/>
<path d="M50 664H56L53 675L50 664Z" fill="#2A0E06"/>
<path d="M140 664H146L143 678L140 664Z" fill="#2A0E06"/>
<path d="M230 664H236L233 677L230 664Z" fill="#2A0E06"/>
<path d="M320 664H326L323 678L320 664Z" fill="#2A0E06"/>
<path d="M410 664H416L413 671L410 664Z" fill="#2A0E06"/>
<path d="M500 664H506L503 669L500 664Z" fill="#2A0E06"/>
<path d="M590 664H596L593 675L590 664Z" fill="#2A0E06"/>
<path d="M680 664H686L683 677L680 664Z" fill="#2A0E06"/>
<path d="M770 664H776L773 670L770 664Z" fill="#2A0E06"/>
<path d="M850 0H640V800H850V0Z" fill="#2A0E06"/>
<path d="M850 0H700V800H850V0Z" fill="#3A1208"/>
<path d="M744 486C744 468.327 729.673 454 712 454C694.327 454 680 468.327 680 486C680 503.673 694.327 518 712 518C729.673 518 744 503.673 744 486Z" fill="#8A1E0C"/>
<path d="M648 590C648 573.431 634.345 560 617.5 560C600.655 560 587 573.431 587 590C587 606.569 600.655 620 617.5 620C634.345 620 648 606.569 648 590Z" fill="#5A1006"/>
<path d="M649 520H615C595.118 520 579 533.431 579 550C579 566.569 595.118 580 615 580H649C668.882 580 685 566.569 685 550C685 533.431 668.882 520 649 520Z" fill="#3A1208"/>
<path d="M727 595H725C706.222 595 691 610.222 691 629V671C691 689.778 706.222 705 725 705H727C745.778 705 761 689.778 761 671V629C761 610.222 745.778 595 727 595Z" fill="#5A1006"/>
<path d="M768 376H708C694.193 376 683 387.193 683 401V406C683 419.807 694.193 431 708 431H768C781.807 431 793 419.807 793 406V401C793 387.193 781.807 376 768 376Z" fill="#8A1E0C"/>
<path d="M686 164H657C637.118 164 621 177.655 621 194.5C621 211.345 637.118 225 657 225H686C705.882 225 722 211.345 722 194.5C722 177.655 705.882 164 686 164Z" fill="#5A1006"/>
<path d="M812 54H771C756.641 54 745 65.6406 745 80V120C745 134.359 756.641 146 771 146H812C826.359 146 838 134.359 838 120V80C838 65.6406 826.359 54 812 54Z" fill="#B81E10"/>
<path d="M738 382H695C675.67 382 660 397.67 660 417V446C660 465.33 675.67 481 695 481H738C757.33 481 773 465.33 773 446V417C773 397.67 757.33 382 738 382Z" fill="#3A1208"/>
<path d="M679 517H638C625.297 517 615 527.297 615 540V566C615 578.703 625.297 589 638 589H679C691.703 589 702 578.703 702 566V540C702 527.297 691.703 517 679 517Z" fill="#3A1208"/>
<path d="M762 -4H731C713.879 -4 700 9.87917 700 27V66C700 83.1208 713.879 97 731 97H762C779.121 97 793 83.1208 793 66V27C793 9.87917 779.121 -4 762 -4Z" fill="#8A1E0C"/>
<path d="M779 480C779 461.222 764.002 446 745.5 446C726.998 446 712 461.222 712 480V491C712 509.778 726.998 525 745.5 525C764.002 525 779 509.778 779 491V480Z" fill="#8A1E0C"/>
<path d="M682 69H650C632.879 69 619 82.8792 619 100V144C619 161.121 632.879 175 650 175H682C699.121 175 713 161.121 713 144V100C713 82.8792 699.121 69 682 69Z" fill="#7A1408"/>
<path d="M721 450H701C687.193 450 676 461.193 676 475V526C676 539.807 687.193 551 701 551H721C734.807 551 746 539.807 746 526V475C746 461.193 734.807 450 721 450Z" fill="#7A1408"/>
<path d="M785 392H727C712.641 392 701 403.641 701 418V474C701 488.359 712.641 500 727 500H785C799.359 500 811 488.359 811 474V418C811 403.641 799.359 392 785 392Z" fill="#8A1E0C"/>
<path d="M723 392H703C690.297 392 680 402.297 680 415V470C680 482.703 690.297 493 703 493H723C735.703 493 746 482.703 746 470V415C746 402.297 735.703 392 723 392Z" fill="#5A1006"/>
<path d="M694 183H647C629.327 183 615 197.327 615 215V241C615 258.673 629.327 273 647 273H694C711.673 273 726 258.673 726 241V215C726 197.327 711.673 183 694 183Z" fill="#3A1208"/>
<path d="M751 598H732C713.775 598 699 612.775 699 631V657C699 675.225 713.775 690 732 690H751C769.225 690 784 675.225 784 657V631C784 612.775 769.225 598 751 598Z" fill="#5A1006"/>
<path d="M715 94H659C642.984 94 630 106.984 630 123V124C630 140.016 642.984 153 659 153H715C731.016 153 744 140.016 744 124V123C744 106.984 731.016 94 715 94Z" fill="#3A1208"/>
<path d="M836 604H782C765.984 604 753 616.984 753 633V685C753 701.016 765.984 714 782 714H836C852.016 714 865 701.016 865 685V633C865 616.984 852.016 604 836 604Z" fill="#A8341A"/>
<path d="M800 488H771C758.297 488 748 498.297 748 511V569C748 581.703 758.297 592 771 592H800C812.703 592 823 581.703 823 569V511C823 498.297 812.703 488 800 488Z" fill="#A8341A"/>
<path d="M811 746H761C744.431 746 731 759.431 731 776C731 792.569 744.431 806 761 806H811C827.569 806 841 792.569 841 776C841 759.431 827.569 746 811 746Z" fill="#8A1E0C"/>
<path d="M775 678H744C724.67 678 709 693.446 709 712.5C709 731.554 724.67 747 744 747H775C794.33 747 810 731.554 810 712.5C810 693.446 794.33 678 775 678Z" fill="#8A1E0C"/>
<path d="M701 513C701 495.879 687.121 482 670 482C652.879 482 639 495.879 639 513V556C639 573.121 652.879 587 670 587C687.121 587 701 573.121 701 556V513Z" fill="#5A1006"/>
<path d="M685 394H657C642.088 394 630 406.088 630 421V455C630 469.912 642.088 482 657 482H685C699.912 482 712 469.912 712 455V421C712 406.088 699.912 394 685 394Z" fill="#5A1006"/>
<path d="M831 410H806C786.118 410 770 426.118 770 446V466C770 485.882 786.118 502 806 502H831C850.882 502 867 485.882 867 466V446C867 426.118 850.882 410 831 410Z" fill="#8A1E0C"/>
<path d="M690 397H639C627.402 397 618 406.402 618 418V434C618 445.598 627.402 455 639 455H690C701.598 455 711 445.598 711 434V418C711 406.402 701.598 397 690 397Z" fill="#5A1006"/>
<path d="M691 580H658C638.118 580 622 593.208 622 609.5C622 625.792 638.118 639 658 639H691C710.882 639 727 625.792 727 609.5C727 593.208 710.882 580 691 580Z" fill="#5A1006"/>
<path d="M768 30H716C700.536 30 688 42.536 688 58V81C688 96.464 700.536 109 716 109H768C783.464 109 796 96.464 796 81V58C796 42.536 783.464 30 768 30Z" fill="#7A1408"/>
<path d="M694 630H646C629.431 630 616 643.431 616 660V707C616 723.569 629.431 737 646 737H694C710.569 737 724 723.569 724 707V660C724 643.431 710.569 630 694 630Z" fill="#5A1006"/>
<path d="M838 366H824C804.67 366 789 378.312 789 393.5C789 408.688 804.67 421 824 421H838C857.33 421 873 408.688 873 393.5C873 378.312 857.33 366 838 366Z" fill="#B81E10"/>
<path d="M705 36H647C633.193 36 622 47.1929 622 61V118C622 131.807 633.193 143 647 143H705C718.807 143 730 131.807 730 118V61C730 47.1929 718.807 36 705 36Z" fill="#3A1208"/>
<path d="M832 654C832 635.222 817.002 620 798.5 620C779.998 620 765 635.222 765 654V685C765 703.778 779.998 719 798.5 719C817.002 719 832 703.778 832 685V654Z" fill="#A8341A"/>
<path d="M739 703H716C696.67 703 681 718.67 681 738V768C681 787.33 696.67 803 716 803H739C758.33 803 774 787.33 774 768V738C774 718.67 758.33 703 739 703Z" fill="#3A1208"/>
<path d="M811 356H770C758.954 356 750 364.954 750 376V423C750 434.046 758.954 443 770 443H811C822.046 443 831 434.046 831 423V376C831 364.954 822.046 356 811 356Z" fill="#7A1408"/>
<path d="M735 464H695C674.565 464 658 480.565 658 501V532C658 552.435 674.565 569 695 569H735C755.435 569 772 552.435 772 532V501C772 480.565 755.435 464 735 464Z" fill="#7A1408"/>
<path d="M783 328H751C730.013 328 713 345.013 713 366V382C713 402.987 730.013 420 751 420H783C803.987 420 821 402.987 821 382V366C821 345.013 803.987 328 783 328Z" fill="#B81E10"/>
<path d="M763 639H749C732.431 639 719 652.431 719 669V679C719 695.569 732.431 709 749 709H763C779.569 709 793 695.569 793 679V669C793 652.431 779.569 639 763 639Z" fill="#8A1E0C"/>
<path d="M681 424H666C648.879 424 635 436.76 635 452.5C635 468.24 648.879 481 666 481H681C698.121 481 712 468.24 712 452.5C712 436.76 698.121 424 681 424Z" fill="#B81E10"/>
<path d="M814 382H783C765.879 382 752 395.879 752 413V426C752 443.121 765.879 457 783 457H814C831.121 457 845 443.121 845 426V413C845 395.879 831.121 382 814 382Z" fill="#8A1E0C"/>
<path d="M670 737H641C628.85 737 619 746.85 619 759V769C619 781.15 628.85 791 641 791H670C682.15 791 692 781.15 692 769V759C692 746.85 682.15 737 670 737Z" fill="#B81E10"/>
<path opacity="0.5" d="M623 599C623 597.343 621.657 596 620 596C618.343 596 617 597.343 617 599V655C617 656.657 618.343 658 620 658C621.657 658 623 656.657 623 655V599Z" fill="#E86820"/>
<path opacity="0.5" d="M601 536C601 534.343 599.657 533 598 533C596.343 533 595 534.343 595 536V654C595 655.657 596.343 657 598 657C599.657 657 601 655.657 601 654V536Z" fill="#E86820"/>
<path opacity="0.5" d="M584 99C584 97.3431 582.657 96 581 96C579.343 96 578 97.3431 578 99V226C578 227.657 579.343 229 581 229C582.657 229 584 227.657 584 226V99Z" fill="#E86820"/>
<path opacity="0.5" d="M615 572C615 570.343 613.657 569 612 569C610.343 569 609 570.343 609 572V691C609 692.657 610.343 694 612 694C613.657 694 615 692.657 615 691V572Z" fill="#E86820"/>
<path opacity="0.5" d="M562 279C562 277.343 560.657 276 559 276C557.343 276 556 277.343 556 279V377C556 378.657 557.343 380 559 380C560.657 380 562 378.657 562 377V279Z" fill="#E86820"/>
<path opacity="0.4" d="M646 0H640V800H646V0Z" fill="#F0903A"/>
<path d="M363.244 435.945C365.457 435.3 368.32 435.313 370.542 435.462C371.671 435.538 372.668 435.652 373.383 435.747C373.741 435.794 374.03 435.837 374.23 435.868C374.33 435.883 374.408 435.896 374.461 435.905C374.488 435.909 374.51 435.913 374.524 435.916C374.531 435.917 374.537 435.918 374.541 435.918C374.543 435.919 374.544 435.919 374.545 435.919H374.547L374.641 435.941C374.856 436 375.047 436.13 375.18 436.311L386.137 451.181L399.508 436.238L399.585 436.16C399.776 435.989 400.026 435.897 400.284 435.905C400.579 435.914 400.856 436.053 401.039 436.285L412.939 451.359L432.189 436.121L432.329 436.028C432.475 435.947 432.641 435.905 432.81 435.905C437.556 435.905 441.239 436.984 443.748 438.075C445.001 438.62 445.96 439.167 446.613 439.583C446.939 439.792 447.189 439.968 447.361 440.094C447.447 440.157 447.513 440.208 447.56 440.245C447.561 440.245 447.562 440.247 447.563 440.248C453.424 443.461 459.062 449.414 463.987 457.035C468.945 464.707 473.228 474.139 476.316 484.347C482.485 504.739 483.937 528.4 476.311 547.465C476.191 547.766 475.931 547.991 475.616 548.067C475.3 548.142 474.968 548.06 474.724 547.846C473.751 546.995 471.674 545.818 468.185 544.526C464.723 543.244 459.947 541.875 453.647 540.603C441.048 538.058 422.4 535.906 396.067 535.573C369.701 535.239 351.427 535.587 339.299 536.156C333.236 536.44 328.715 536.78 325.492 537.117C322.24 537.456 320.375 537.787 319.575 538.033C319.3 538.117 319.001 538.079 318.756 537.928C318.512 537.778 318.343 537.529 318.294 537.246C314.9 517.443 315.79 499.55 321.748 483.413C327.707 467.27 338.707 452.96 355.406 440.282L355.409 440.28L355.41 440.279C355.41 440.278 355.412 440.278 355.413 440.277C355.415 440.275 355.419 440.271 355.423 440.268C355.433 440.261 355.446 440.251 355.463 440.239C355.498 440.213 355.547 440.177 355.611 440.13C355.739 440.037 355.925 439.903 356.157 439.74C356.62 439.414 357.271 438.971 358.027 438.497C359.515 437.562 361.492 436.455 363.244 435.945Z" fill="#81585E" stroke="black" stroke-width="2" stroke-linejoin="round"/>
<path d="M324.29 524.555C324.29 527.227 322.064 529.007 320.951 529.564C316.276 516.875 319.003 507.582 320.951 504.521C322.064 505.356 324.29 507.526 324.29 509.529C324.29 511.533 327.629 514.26 329.298 515.373L335.142 517.877C334.864 520.103 333.305 523.721 329.298 520.381C324.29 516.208 324.29 521.216 324.29 524.555Z" fill="#C50000"/>
<path d="M463.488 520.381C465.217 520.382 466.618 521.627 466.618 523.164C466.618 523.909 467.024 525.024 467.245 525.973C467.381 525.957 467.52 525.947 467.661 525.947C469.39 525.947 473.921 529.974 473.922 531.511C475.651 531.511 477.053 532.758 477.053 534.295C477.053 535.831 475.651 537.077 473.922 537.077C472.293 537.076 470.028 533.5 469.772 531.801C468.949 531.65 468.179 531.511 467.661 531.511C465.932 531.511 464.531 530.266 464.531 528.729C464.531 528.214 464.691 527.732 464.966 527.318C462.954 526.385 460.357 524.327 460.357 523.164C460.358 521.627 461.76 520.381 463.488 520.381Z" fill="#641F29"/>
<path d="M401.834 453.186C402.002 455.499 400.673 457.481 398.865 457.612C397.988 457.676 396.717 458.313 395.622 458.691C395.654 458.872 395.678 459.057 395.692 459.246C395.86 461.559 391.561 467.967 389.753 468.099L389.765 468.314C389.838 470.534 388.536 472.398 386.784 472.525C384.976 472.656 383.374 470.888 383.206 468.575C383.047 466.396 387.034 463.06 389.008 462.572C389.107 461.457 389.194 460.415 389.144 459.722C388.976 457.409 390.305 455.428 392.114 455.296C392.72 455.252 393.303 455.422 393.816 455.754C394.718 452.983 396.888 449.335 398.256 449.236C400.064 449.105 401.666 450.873 401.834 453.186Z" fill="#641F29"/>
<path d="M450.284 451.355C449.436 453.513 447.381 454.726 445.693 454.063C444.875 453.742 443.453 453.767 442.303 453.634C442.254 453.811 442.195 453.989 442.126 454.165C441.278 456.323 434.632 460.243 432.944 459.581C432.096 461.739 430.04 462.951 428.352 462.289C426.665 461.625 425.985 459.338 426.833 457.18C427.633 455.146 432.671 453.862 434.661 454.275C435.232 453.312 435.761 452.411 436.015 451.764C436.863 449.606 438.918 448.393 440.605 449.056C441.172 449.278 441.624 449.684 441.944 450.206C443.955 448.097 447.488 445.745 448.764 446.246C450.452 446.91 451.132 449.197 450.284 451.355Z" fill="#641F29"/>
<path d="M421.123 465.287C420.455 469.961 425.853 470.573 428.635 470.295L421.54 480.73L414.445 475.304L411.106 470.295C408.88 467.791 403.259 461.948 398.584 458.608C392.741 454.435 398.584 448.591 401.923 449.426C404.595 450.094 409.158 458.608 411.106 462.782C414.723 461.669 421.79 460.612 421.123 465.287Z" fill="#C50000"/>
<path d="M448.67 507.86C439.321 505.857 437.54 511.477 437.818 514.538L448.67 526.225C452.566 520.938 458.02 509.863 448.67 507.86Z" fill="#641F29"/>
<path d="M336.811 510.364C322.787 512.368 327.072 521.216 330.968 525.39L349.333 515.373C351.002 512.869 350.835 508.361 336.811 510.364Z" fill="#641F29"/>
<path d="M396.914 510.864C438.17 510.864 471.544 541.698 471.544 579.65C471.544 617.602 438.169 648.436 396.914 648.436C355.659 648.435 322.285 617.602 322.285 579.65C322.285 541.698 355.659 510.864 396.914 510.864Z" fill="black" stroke="black"/>
<path d="M363.266 521.085C373.43 518.374 387.464 517.823 400.805 518.214C413.333 518.58 425.338 519.779 433.123 520.849L434.623 521.061L435.004 521.117L435.249 521.413C439.298 526.299 445.741 534.56 450.792 543.257C453.317 547.605 455.511 552.092 456.88 556.34C458.243 560.573 458.82 564.671 457.991 568.192C451.296 596.648 443.307 610.017 436.844 616.264C433.601 619.399 430.737 620.745 428.623 621.288C427.753 621.511 427.017 621.595 426.444 621.616C426.464 621.763 426.485 621.924 426.509 622.099C426.66 623.239 426.895 624.982 427.225 627.396C427.885 632.224 428.927 639.735 430.46 650.464L430.623 651.605H365.71L365.873 650.464L369.897 622.29C356.844 620.884 330.678 609.2 320.819 572.396L320.735 572.082L320.852 571.778C323.659 564.478 329.124 553.214 336.417 543.088C343.683 532.999 352.899 523.849 363.266 521.085Z" fill="black" stroke="black" stroke-width="2"/>
<path d="M352.232 554.617C360.638 547.003 374.431 541.247 396.111 541.921C439.405 543.267 452.219 564.43 453.006 575.405L453.011 575.467L453.007 575.529C452.724 580.917 451.241 589.427 447.708 597.538C444.179 605.641 438.544 613.48 429.874 617.295C421.299 621.068 408.365 621.817 395.829 621.281C383.247 620.743 370.88 618.9 363.324 617.36L363.195 617.334L363.077 617.274C358.775 615.123 352.551 610.6 347.731 603.967C342.906 597.327 339.465 588.537 340.822 577.904C340.935 571.524 343.87 562.192 352.232 554.617Z" fill="#641F29" stroke="black" stroke-width="2"/>
<path d="M398.827 555.486C361.815 554.365 348.654 581.06 348.497 591.337C345.737 613.618 362.177 615.381 369.367 618.884C382.723 620.554 416.949 621.389 427.587 617.149C442.122 611.357 446.521 591.69 447 582.814C446.364 574.172 435.839 556.608 398.827 555.486Z" fill="#641F29" stroke="black" stroke-width="2"/>
<path d="M409.778 567.343C413.152 565.757 416.637 565.759 418.794 566.242C418.841 566.253 418.889 566.257 418.938 566.254C421.183 566.097 424.73 566.994 427.901 570.313C431.07 573.629 433.889 579.393 434.604 588.999C435.319 598.63 434.124 605.278 432.366 609.663C430.635 613.984 428.376 616.07 426.895 616.715H367.017C364.315 611.203 363.732 603.549 364.144 596.61C364.352 593.094 364.814 589.783 365.372 587.064C365.932 584.331 366.582 582.233 367.15 581.117C367.158 581.102 367.165 581.087 367.171 581.071C370.102 573.512 378.427 566.287 388.239 566.255C397.335 568.634 400.126 575.086 400.406 577.912C400.43 578.15 400.619 578.338 400.856 578.36C401.094 578.383 401.315 578.235 401.383 578.006C403.144 572.082 406.426 568.919 409.778 567.343Z" fill="black" stroke="black" stroke-linejoin="round"/>
<path d="M424.242 617.215H368.151C362.793 607.737 365.919 590.698 368.151 586.749C370.942 580.261 378.867 574.055 388.244 574.055C396.95 576.086 399.685 581.671 399.964 584.21C403.313 574.055 412.522 573.209 416.708 574.055C421.173 573.773 430.438 577.271 431.777 593.519C433.116 609.768 427.312 616.086 424.242 617.215Z" fill="#4630FF" stroke="#040608"/>
<mask id="mask0_332_2" style="mask-type:alpha" maskUnits="userSpaceOnUse" x="365" y="573" width="67" height="45">
<path d="M408.217 575.467C411.355 574.137 414.599 574.139 416.609 574.545L416.673 574.558L416.74 574.554C418.836 574.422 422.132 575.178 425.071 577.951C428.003 580.718 430.617 585.529 431.279 593.561C432.599 609.576 426.925 615.623 424.144 616.715H368.448C365.961 612.121 365.423 605.741 365.804 599.942C365.998 596.999 366.426 594.228 366.944 591.953C367.464 589.665 368.065 587.918 368.586 586.995L368.6 586.972L368.611 586.946C371.32 580.648 379.042 574.581 388.183 574.555C396.655 576.551 399.213 581.956 399.467 584.265L400.439 584.366C402.066 579.432 405.1 576.788 408.217 575.467Z" fill="#4630FF" stroke="#040608"/>
</mask>
<g mask="url(#mask0_332_2)">
<g opacity="0.9">
<path d="M413.083 597.059H414.374C414.516 597.059 414.632 597.231 414.632 597.444V614.959C414.632 615.172 414.516 615.344 414.374 615.344H413.083C412.94 615.344 412.825 615.172 412.825 614.959V597.444C412.825 597.231 412.94 597.059 413.083 597.059Z" fill="#6B4A1E"/>
<path opacity="0.45" d="M413.367 598.228H413.664C413.788 598.228 413.888 598.335 413.888 598.467V613.936C413.888 614.068 413.788 614.175 413.664 614.175H413.367C413.243 614.175 413.144 614.068 413.144 613.936V598.467C413.144 598.335 413.243 598.228 413.367 598.228Z" fill="#7D5A2A"/>
</g>
<g opacity="0.9">
<path d="M421.539 607.535H422.451C422.551 607.535 422.633 607.626 422.633 607.738V617.012C422.633 617.124 422.551 617.215 422.451 617.215H421.539C421.439 617.215 421.357 617.124 421.357 617.012V607.738C421.357 607.626 421.439 607.535 421.539 607.535Z" fill="#6B4A1E"/>
<path opacity="0.45" d="M421.74 608.154H421.95C422.037 608.154 422.107 608.21 422.107 608.28V616.47C422.107 616.54 422.037 616.596 421.95 616.596H421.74C421.653 616.596 421.582 616.54 421.582 616.47V608.28C421.582 608.21 421.653 608.154 421.74 608.154Z" fill="#7D5A2A"/>
</g>
<path d="M366.862 615.545H425.296V617.215H366.862V615.545Z" fill="#186010"/>
<path d="M419.154 615.921C418.135 615.921 417.308 615.508 417.308 614.998C417.308 614.488 418.135 614.075 419.154 614.075C420.174 614.075 421 614.488 421 614.998C421 615.508 420.174 615.921 419.154 615.921Z" fill="#1E7010"/>
<path d="M409.924 615.46C409.096 615.46 408.425 615.15 408.425 614.767C408.425 614.385 409.096 614.075 409.924 614.075C410.753 614.075 411.424 614.385 411.424 614.767C411.424 615.15 410.753 615.46 409.924 615.46Z" fill="#1E7010"/>
<path d="M416.847 600.23C414.362 600.23 412.348 598.293 412.348 595.903C412.348 593.514 414.362 591.577 416.847 591.577C419.333 591.577 421.347 593.514 421.347 595.903C421.347 598.293 419.333 600.23 416.847 600.23Z" fill="#2E8E10"/>
<path d="M423.627 610.537C421.783 610.537 420.288 609.415 420.288 608.032C420.288 606.649 421.783 605.528 423.627 605.528C425.471 605.528 426.966 606.649 426.966 608.032C426.966 609.415 425.471 610.537 423.627 610.537Z" fill="#2E8E10"/>
<path d="M410.79 600.115C408.464 600.115 406.579 598.229 406.579 595.903C406.579 593.578 408.464 591.692 410.79 591.692C413.116 591.692 415.001 593.578 415.001 595.903C415.001 598.229 413.116 600.115 410.79 600.115Z" fill="#2E8E10"/>
<path d="M420.287 610.537C418.443 610.537 416.948 609.415 416.948 608.032C416.948 606.649 418.443 605.528 420.287 605.528C422.132 605.528 423.626 606.649 423.626 608.032C423.626 609.415 422.132 610.537 420.287 610.537Z" fill="#2E8E10"/>
<path d="M413.963 597.807C410.968 597.807 408.54 595.379 408.54 592.384C408.54 589.39 410.968 586.962 413.963 586.962C416.958 586.962 419.386 589.39 419.386 592.384C419.386 595.379 416.958 597.807 413.963 597.807Z" fill="#38A814"/>
<path d="M421.957 608.867C420.113 608.867 418.618 607.372 418.618 605.528C418.618 603.684 420.113 602.189 421.957 602.189C423.801 602.189 425.296 603.684 425.296 605.528C425.296 607.372 423.801 608.867 421.957 608.867Z" fill="#38A814"/>
<path d="M364.241 587.324C364.82 586.872 365.498 586.647 366.156 586.638C366.395 586.298 366.686 585.989 367.029 585.721C368.92 584.247 371.67 584.597 373.258 586.484C373.268 586.475 373.279 586.467 373.29 586.459C374.794 585.285 377 585.599 378.217 587.159C379.433 588.719 379.2 590.934 377.696 592.107C376.468 593.065 374.773 593.032 373.53 592.139C373.299 592.455 373.024 592.744 372.703 592.995C370.823 594.461 368.091 594.124 366.5 592.266C365.408 592.564 364.243 592.253 363.555 591.371C362.615 590.165 362.922 588.353 364.241 587.324Z" fill="#F7FEF5"/>
<path d="M382.723 594.676L366.027 608.032C366.027 612.039 367.697 615.267 368.532 616.38H403.592L388.566 598.85H386.062L382.723 594.676Z" fill="#319413" stroke="#38A814"/>
<path d="M391.905 603.024H372.705L382.722 594.676L386.061 598.85H389.4L391.905 603.024Z" fill="#F7FEF5" stroke="#D2F9FD"/>
</g>
<path d="M424.242 617.215H368.151C362.793 607.737 365.919 590.698 368.151 586.749C370.942 580.261 378.867 574.055 388.244 574.055C396.95 576.086 399.685 581.671 399.964 584.21C403.313 574.055 412.522 573.209 416.708 574.055C421.173 573.773 430.438 577.271 431.777 593.519C433.116 609.768 427.312 616.086 424.242 617.215Z" stroke="#040608" stroke-width="2" stroke-linejoin="round"/>
<path d="M434.479 575.476C435.862 575.476 436.984 576.597 436.984 577.98C436.984 578.651 437.308 579.654 437.485 580.509C437.594 580.494 437.705 580.485 437.818 580.485C439.201 580.485 442.827 584.111 442.827 585.494L443.083 585.507C444.345 585.635 445.331 586.701 445.331 587.998C445.331 589.381 444.21 590.502 442.827 590.502C441.524 590.502 439.712 587.284 439.507 585.755C438.848 585.618 438.232 585.494 437.818 585.494C436.435 585.494 435.314 584.372 435.314 582.989C435.314 582.525 435.442 582.091 435.662 581.719C434.052 580.879 431.975 579.027 431.975 577.98C431.975 576.597 433.096 575.477 434.479 575.476Z" fill="#B7000D"/>
<path d="M362.061 557.905C362.308 559.266 361.405 560.57 360.045 560.817C359.385 560.937 358.455 561.435 357.647 561.762C357.68 561.867 357.709 561.975 357.729 562.086C357.976 563.447 355.059 567.656 353.697 567.907L353.697 567.909C353.944 569.27 353.04 570.573 351.679 570.82C350.319 571.067 349.016 570.164 348.769 568.804C348.536 567.521 351.378 565.164 352.846 564.689C352.863 564.016 352.875 563.389 352.801 562.981C352.554 561.62 353.457 560.316 354.818 560.069C355.275 559.986 355.725 560.035 356.131 560.185C356.669 558.451 358.12 556.076 359.15 555.889C360.511 555.642 361.814 556.545 362.061 557.905Z" fill="#B7000D"/>
<path d="M431.976 553.772C433.517 553.772 435.979 557.149 436.747 559.335C437.072 558.995 437.436 558.781 437.819 558.781C439.202 558.781 440.323 559.902 440.323 561.285C440.323 561.85 440.6 562.927 440.759 563.891C440.87 563.826 441.001 563.79 441.158 563.79C442.541 563.79 445.332 566.581 445.332 567.964C445.332 568.256 445.279 568.537 445.187 568.798C445.279 569.059 445.332 569.34 445.332 569.634C445.332 569.926 445.279 570.206 445.187 570.468C445.279 570.729 445.332 571.009 445.332 571.302C445.332 571.595 445.279 571.876 445.187 572.137C445.279 572.399 445.332 572.679 445.332 572.972C445.332 573.265 445.279 573.545 445.187 573.806C445.279 574.068 445.332 574.349 445.332 574.642C445.332 576.025 444.211 577.146 442.828 577.146C441.445 577.146 440.324 576.025 440.323 574.642C440.323 574.349 440.376 574.068 440.469 573.806C440.376 573.545 440.323 573.265 440.323 572.972C440.323 572.679 440.376 572.399 440.469 572.137C440.376 571.876 440.323 571.595 440.323 571.302C440.323 571.01 440.376 570.729 440.469 570.468C440.376 570.207 440.323 569.926 440.323 569.634C440.323 569.341 440.376 569.06 440.469 568.799C440.376 568.537 440.323 568.257 440.323 567.964C440.323 567.388 440.229 566.569 440.218 565.809C440.028 565.769 439.788 565.658 439.488 565.459C438.105 565.459 435.315 564.338 435.314 562.955C435.314 562.712 435.351 562.426 435.415 562.12C435.382 562.12 435.349 562.12 435.314 562.12C433.47 562.119 428.637 558.955 428.637 557.111C428.637 555.267 430.132 553.772 431.976 553.772Z" fill="#C50000"/>
<path d="M435.479 519.297L434.97 519.584L421.613 527.096L420.931 527.48L420.395 526.91C418.237 524.618 414.144 521.134 408.948 518.228C403.75 515.321 397.521 513.034 391.071 513.034C378.014 513.034 367.106 519.582 363.34 522.81L362.86 523.221L362.283 522.964L354.77 519.626L354.259 519.398L354.185 518.844L350.846 493.801L350.771 493.238L351.216 492.884L371.251 477.024L371.523 476.808H414L414.287 477.072L435.156 496.272L435.479 496.569V519.297Z" stroke="black" stroke-width="2"/>
<path d="M404.427 482.817C397.749 478.81 382.723 481.147 376.045 482.817L362.689 505.356L389.402 509.529V502.017H396.915L402.758 505.356V507.86L412.775 509.529C412.775 502.295 411.106 486.824 404.427 482.817Z" fill="#986F77"/>
<path d="M408.206 470.057L419.059 490.091L419.095 490.158L419.109 490.232L422.448 506.927L422.607 507.723L421.825 507.507L397.616 500.829L397.25 500.728V480.952L397.382 480.808L407.399 469.956L407.873 469.443L408.206 470.057ZM387.397 500.72L387.04 500.827L364.501 507.504L363.983 507.658L363.87 507.13L361.365 495.443L361.317 495.218L361.457 495.035L372.31 480.843L372.53 480.555L372.873 480.676L387.064 485.684L387.397 485.802V500.72Z" fill="#C50000" stroke="#FF4100"/>
<path d="M377.38 486.491V489.83H382.389V499.177H372.206V486.491H377.38Z" fill="#FFF000" stroke="#FF4100"/>
<path d="M414.945 503.351H410.838L410.69 503.129L407.5 498.343H404.038L403.943 497.964L402.273 491.286L402.118 490.665H407.476L410.671 485.073L411.106 484.313L411.541 485.073L414.879 490.917L414.945 491.032V503.351Z" fill="#FFF000" stroke="#FF4100"/>
<path d="M505.233 396.896C511.659 402.154 523.155 420.041 519.785 450.371L519.779 450.421L519.769 450.47C513.697 478.805 493.662 501.579 484.377 509.457L483.026 510.604L482.744 508.854C481.381 500.408 474.002 477.988 455.43 456.763L454.56 455.768L455.754 455.201C463.936 451.318 475.715 445.111 485.545 435.762C495.363 426.425 503.191 414 503.6 397.645L503.651 395.602L505.233 396.896Z" fill="#C50000" stroke="black" stroke-width="2"/>
<path d="M505.908 401.105C510.319 406.553 513.477 417.628 510.629 443.339C505.04 469.298 488.169 479.343 478.433 487.109C474.348 478.48 468.138 467.908 458.589 456.611C466.734 452.65 477.844 446.536 487.268 437.574C496.732 428.572 504.554 416.639 505.908 401.105Z" fill="#81585E" stroke="#641F29" stroke-width="3"/>
<path d="M300.009 387.842C293.36 392.816 281.097 410.186 283.144 440.634L283.148 440.684L283.155 440.733C287.989 469.306 307.013 492.93 315.947 501.205L317.247 502.409L317.605 500.673C319.334 492.294 327.682 470.217 347.16 449.82L348.072 448.864L346.904 448.245C338.899 444.01 327.401 437.296 317.987 427.528C308.585 417.773 301.304 405.019 301.608 388.662L301.646 386.618L300.009 387.842Z" fill="#C50000" stroke="black" stroke-width="2"/>
<path d="M299.152 392.018C294.508 397.269 290.87 408.196 292.597 434.007C297.051 460.185 313.47 470.954 322.858 479.136C327.315 470.694 333.978 460.401 344.01 449.53C336.045 445.219 325.212 438.627 316.187 429.263C307.123 419.859 299.828 407.597 299.152 392.018Z" fill="#81585E" stroke="#641F29" stroke-width="3"/>
<path d="M392.74 543.755L386.062 561.285L370.201 543.755C369.645 542.085 368.866 536.409 370.201 527.059C371.537 517.71 376.323 515.929 378.549 516.207H392.74V543.755Z" fill="#C8929E" stroke="black" stroke-width="2"/>
<path d="M362.377 530.315L359.051 542.687L340.752 536.668C339.924 535.826 338.179 532.649 337.817 526.678C337.454 520.707 341.733 518.292 343.918 517.831L357.533 513.831L362.377 530.315Z" fill="#C8929E" stroke="black" stroke-width="2"/>
<path d="M420.085 530.315L423.411 542.687L441.71 536.668C442.538 535.826 444.283 532.649 444.645 526.678C445.008 520.707 440.729 518.292 438.544 517.831L424.929 513.831L420.085 530.315Z" fill="#C8929E" stroke="black" stroke-width="2"/>
<path d="M396.915 542.947L403.593 560.477L419.454 542.947C420.01 541.277 420.79 535.601 419.454 526.251C418.118 516.902 413.332 515.121 411.106 515.399H396.915V542.947Z" fill="#C8929E" stroke="black" stroke-width="2"/>
<path d="M348.283 519.245L353.598 538.045C346.455 538.064 331.765 524.889 348.283 519.245Z" fill="#81585E"/>
<path d="M375.211 646.431C335.977 646.431 318.446 603.023 322.62 573.806C326.627 559.782 333.473 559.615 340.15 562.12C340.15 609.702 359.628 616.658 375.211 624.727V646.431Z" fill="#C8929E" stroke="black" stroke-width="2"/>
<path d="M416.949 646.431C456.183 646.431 473.714 603.023 469.54 573.806C465.533 559.782 458.687 559.615 452.009 562.12C452.009 609.702 432.531 616.658 416.949 624.727V646.431Z" fill="#C8929E" stroke="black" stroke-width="2"/>
<path d="M440.322 536.14C440.322 542.194 470.374 572.137 479.208 593.841C485.539 556.004 464.739 529.519 457.504 527.627C450.27 525.735 440.322 528.573 440.322 536.14Z" fill="#C8929E" stroke="black" stroke-width="2"/>
<path d="M345.994 534.573C345.994 539.915 322.064 570.746 310.099 585.493C304.255 552.103 323.455 528.729 330.133 527.06C336.811 525.39 345.994 527.894 345.994 534.573Z" fill="#C8929E" stroke="black" stroke-width="2"/>
<path d="M452.009 530.398C460.028 541.474 476.232 565.42 476.895 572.603C477.725 581.583 476.066 537.582 452.009 530.398Z" fill="#81585E"/>
<path d="M331.611 533.738C325.022 545.718 311.9 571.482 312.129 578.693C312.415 587.707 308.626 543.838 331.611 533.738Z" fill="#81585E"/>
<path d="M460.357 577.146C460.357 611.204 435.871 630.849 423.627 636.414C456.35 629.068 465.088 597.736 465.366 582.989L460.357 577.146Z" fill="#81585E"/>
<path d="M369.105 633.961C338.444 619.132 331.421 588.535 331.741 575.09C324.107 607.747 348.509 629.254 361.664 635.926L369.105 633.961Z" fill="#81585E"/>
<path d="M381.889 520.381L378.55 540.416C374.929 536.342 371.719 516.023 381.889 520.381Z" fill="#81585E"/>
<path d="M412.319 529.299L408.387 549.226C413.211 546.689 423.373 528.802 412.319 529.299Z" fill="#81585E"/>
<path d="M431.979 519.245L426.665 538.045C433.808 538.064 448.498 524.889 431.979 519.245Z" fill="#81585E"/>
<path d="M449.025 457.25C438.279 456.508 427.831 471.169 423.95 478.592C440.965 507.358 474.099 523.133 477.681 520.35C480.547 518.123 482.756 505.193 477.681 493.439C472.607 481.686 459.771 457.992 449.025 457.25Z" fill="#B7000D" stroke="black" stroke-width="2"/>
<path d="M450.93 468.927C443.66 468.439 436.593 478.085 433.968 482.969C445.478 501.894 467.892 512.272 470.315 510.44C472.254 508.975 473.748 500.469 470.315 492.736C466.882 485.003 458.199 469.416 450.93 468.927Z" fill="#FF4100" stroke="#641F29" stroke-width="3"/>
<path d="M355.729 445.279C368.371 444.537 380.663 459.198 385.228 466.622C365.211 495.388 326.229 511.163 322.015 508.379C318.644 506.152 316.045 493.223 322.015 481.469C327.985 469.715 343.086 446.022 355.729 445.279Z" fill="#B7000D" stroke="black" stroke-width="2"/>
<path d="M354.756 455.288C364.238 454.78 373.456 464.812 376.88 469.891C361.867 489.573 332.631 500.366 329.471 498.462C326.942 496.938 324.993 488.091 329.471 480.049C333.948 472.007 345.274 455.796 354.756 455.288Z" fill="#FF4100" stroke="#641F29" stroke-width="3"/>
<rect x="376.88" y="632.241" width="40.0689" height="15.0258" rx="3" fill="#81585E" stroke="black" stroke-width="2"/>
<path d="M364.364 650.594C364.872 649.578 365.911 648.936 367.047 648.936H430.121C431.257 648.936 432.296 649.578 432.804 650.594L436.482 657.951C437.48 659.945 436.029 662.292 433.799 662.292H363.369C361.139 662.292 359.689 659.945 360.686 657.951L364.364 650.594Z" fill="#81585E" stroke="black" stroke-width="2"/>
<rect x="383.558" y="620.554" width="28.3822" height="10.0172" rx="3" fill="#81585E" stroke="black" stroke-width="2"/>
<path d="M388.566 658.953H368.015C368.015 658.953 364.47 658.893 365.327 655.918C366.183 652.943 367.621 652.275 369.333 652.275C371.046 652.275 383.205 654.096 383.205 654.096L379.631 655.918L388.566 658.953Z" fill="#B7000D" stroke="#B7000D" stroke-linejoin="round"/>
<path d="M393.576 657.284H373.024C373.024 657.284 369.48 657.238 370.336 655.007C371.192 652.776 372.63 652.275 374.343 652.275C376.055 652.275 388.214 653.641 388.214 653.641L384.64 655.007L393.576 657.284Z" fill="#B7000D" stroke="#B7000D" stroke-linejoin="round"/>
<path d="M401.923 635.58H381.889C381.889 635.58 379.384 635.655 380.219 639.374C381.054 643.093 380.219 643.927 381.889 643.927C383.558 643.927 396.697 641.651 396.697 641.651L393.213 639.374L401.923 635.58Z" fill="#B7000D" stroke="#B7000D" stroke-linejoin="round"/>
<path d="M396.915 623.893H387.74C387.74 623.893 386.593 623.923 386.975 625.411C387.358 626.898 386.975 627.232 387.74 627.232C388.505 627.232 394.521 626.321 394.521 626.321L392.926 625.411L396.915 623.893Z" fill="#B7000D" stroke="#B7000D" stroke-linejoin="round"/>
</g>
<defs>
<radialGradient id="paint0_radial_332_2" cx="0" cy="0" r="1" gradientUnits="userSpaceOnUse" gradientTransform="translate(-50 664) scale(432 170.4)">
<stop stop-color="#F0903A" stop-opacity="0.3"/>
<stop offset="0.4" stop-color="#E86820" stop-opacity="0.16"/>
<stop offset="1" stop-color="#2A0E06" stop-opacity="0"/>
</radialGradient>
<radialGradient id="paint1_radial_332_2" cx="0" cy="0" r="1" gradientUnits="userSpaceOnUse" gradientTransform="translate(670 664) scale(432 170.4)">
<stop stop-color="#F0903A" stop-opacity="0.3"/>
<stop offset="0.4" stop-color="#E86820" stop-opacity="0.16"/>
<stop offset="1" stop-color="#2A0E06" stop-opacity="0"/>
</radialGradient>
<linearGradient id="paint2_linear_332_2" x1="-3950" y1="600" x2="-3950" y2="664" gradientUnits="userSpaceOnUse">
<stop stop-color="#F0903A" stop-opacity="0.55"/>
<stop offset="1" stop-color="#E04A28" stop-opacity="0"/>
</linearGradient>
<linearGradient id="paint3_linear_332_2" x1="-3950" y1="664" x2="-3950" y2="800" gradientUnits="userSpaceOnUse">
<stop stop-color="#FFC25A"/>
<stop offset="0.22" stop-color="#F0903A"/>
<stop offset="0.55" stop-color="#E04A28"/>
<stop offset="1" stop-color="#7A1408"/>
</linearGradient>
<clipPath id="clip0_332_2">
<rect width="800" height="800" fill="white"/>
</clipPath>
</defs>
</svg>
