<svg width="800" height="2800" viewBox="0 0 800 2800" fill="none" xmlns="http://www.w3.org/2000/svg">
<g clip-path="url(#clip0_252_96)">
<path d="M800 0H0V2800H800V0Z" fill="#070503"/>
<path d="M800 0H0V640H800V0Z" fill="#010106"/>
<path opacity="0.7" d="M800 640H0V1340H800V640Z" fill="#020208"/>
<path opacity="0.08" d="M800 1240H0V1660H800V1240Z" fill="#0D062B"/>
<path opacity="0.55" d="M800 1500H0V2120H800V1500Z" fill="#1A0A06"/>
<path d="M800 2040H0V2800H800V2040Z" fill="#2A0E06"/>
<path opacity="0.7" d="M800 2360H0V2800H800V2360Z" fill="#3A1208"/>
<path d="M800 40H0V114H800V40Z" fill="#46280E"/>
<path d="M800 40H0V50H800V40Z" fill="#5E3A16"/>
<path d="M300 114L322 60L352 96L388 52L430 100L470 58L500 114H300Z" fill="#010106"/>
<path d="M300 114H500V150H300V114Z" fill="#010106"/>
<path d="M296 114L284 158L272 116L296 114Z" fill="#3A2208"/>
<path d="M504 114L518 162L530 118L504 114Z" fill="#3A2208"/>
<path opacity="0.7" d="M267 150H255C252.239 150 250 152.239 250 155V159C250 161.761 252.239 164 255 164H267C269.761 164 272 161.761 272 159V155C272 152.239 269.761 150 267 150Z" fill="#3A3426"/>
<path opacity="0.6" d="M443 176H435C432.239 176 430 178.239 430 181V183C430 185.761 432.239 188 435 188H443C445.761 188 448 185.761 448 183V181C448 178.239 445.761 176 443 176Z" fill="#322C20"/>
<path opacity="0.45" d="M370 206H364C361.791 206 360 207.791 360 210V212C360 214.209 361.791 216 364 216H370C372.209 216 374 214.209 374 212V210C374 207.791 372.209 206 370 206Z" fill="#3A3426"/>
<path d="M64 0H0V2800H64V0Z" fill="#46280E"/>
<path d="M32 0H0V2800H32V0Z" fill="#35200C"/>
<path d="M15 0H0V2800H15V0Z" fill="#28221A"/>
<path d="M66 60H36C29.3726 60 24 65.3726 24 72V198C24 204.627 29.3726 210 36 210H66C72.6274 210 78 204.627 78 198V72C78 65.3726 72.6274 60 66 60Z" fill="#54320F"/>
<path d="M63 196H41C34.9249 196 30 200.925 30 207V317C30 323.075 34.9249 328 41 328H63C69.0751 328 74 323.075 74 317V207C74 200.925 69.0751 196 63 196Z" fill="#3A2208"/>
<path d="M67 314H35C27.8203 314 22 319.82 22 327V459C22 466.18 27.8203 472 35 472H67C74.1797 472 80 466.18 80 459V327C80 319.82 74.1797 314 67 314Z" fill="#5E3A16"/>
<path d="M65 458H43C36.9249 458 32 462.925 32 469V577C32 583.075 36.9249 588 43 588H65C71.0751 588 76 583.075 76 577V469C76 462.925 71.0751 458 65 458Z" fill="#54320F"/>
<path d="M68 574H36C29.3726 574 24 579.373 24 586V712C24 718.627 29.3726 724 36 724H68C74.6274 724 80 718.627 80 712V586C80 579.373 74.6274 574 68 574Z" fill="#6E4419"/>
<path d="M65 710H43C36.9249 710 32 714.925 32 721V827C32 833.075 36.9249 838 43 838H65C71.0751 838 76 833.075 76 827V721C76 714.925 71.0751 710 65 710Z" fill="#3A2208"/>
<path d="M67 824H35C27.8203 824 22 829.82 22 837V967C22 974.18 27.8203 980 35 980H67C74.1797 980 80 974.18 80 967V837C80 829.82 74.1797 824 67 824Z" fill="#5E3A16"/>
<path d="M65 966H43C36.9249 966 32 970.925 32 977V1083C32 1089.08 36.9249 1094 43 1094H65C71.0751 1094 76 1089.08 76 1083V977C76 970.925 71.0751 966 65 966Z" fill="#54320F"/>
<path d="M68 1080H36C29.3726 1080 24 1085.37 24 1092V1220C24 1226.63 29.3726 1232 36 1232H68C74.6274 1232 80 1226.63 80 1220V1092C80 1085.37 74.6274 1080 68 1080Z" fill="#6E4419"/>
<path d="M65 1218H43C36.9249 1218 32 1222.92 32 1229V1333C32 1339.08 36.9249 1344 43 1344H65C71.0751 1344 76 1339.08 76 1333V1229C76 1222.92 71.0751 1218 65 1218Z" fill="#3A2208"/>
<path d="M67 1330H35C27.8203 1330 22 1335.82 22 1343V1473C22 1480.18 27.8203 1486 35 1486H67C74.1797 1486 80 1480.18 80 1473V1343C80 1335.82 74.1797 1330 67 1330Z" fill="#5A2A10"/>
<path d="M65 1472H43C36.9249 1472 32 1476.92 32 1483V1589C32 1595.08 36.9249 1600 43 1600H65C71.0751 1600 76 1595.08 76 1589V1483C76 1476.92 71.0751 1472 65 1472Z" fill="#6A2E12"/>
<path d="M68 1586H36C29.3726 1586 24 1591.37 24 1598V1726C24 1732.63 29.3726 1738 36 1738H68C74.6274 1738 80 1732.63 80 1726V1598C80 1591.37 74.6274 1586 68 1586Z" fill="#7A3414"/>
<path d="M65 1724H43C36.9249 1724 32 1728.92 32 1735V1839C32 1845.08 36.9249 1850 43 1850H65C71.0751 1850 76 1845.08 76 1839V1735C76 1728.92 71.0751 1724 65 1724Z" fill="#5A2410"/>
<path d="M67 1836H35C27.8203 1836 22 1841.82 22 1849V1979C22 1986.18 27.8203 1992 35 1992H67C74.1797 1992 80 1986.18 80 1979V1849C80 1841.82 74.1797 1836 67 1836Z" fill="#7A3414"/>
<path d="M68 1978H36C29.3726 1978 24 1983.37 24 1990V2118C24 2124.63 29.3726 2130 36 2130H68C74.6274 2130 80 2124.63 80 2118V1990C80 1983.37 74.6274 1978 68 1978Z" fill="#8A2E12"/>
<path d="M65 2116H43C36.9249 2116 32 2120.92 32 2127V2233C32 2239.08 36.9249 2244 43 2244H65C71.0751 2244 76 2239.08 76 2233V2127C76 2120.92 71.0751 2116 65 2116Z" fill="#5A1006"/>
<path d="M67 2230H35C27.8203 2230 22 2235.82 22 2243V2373C22 2380.18 27.8203 2386 35 2386H67C74.1797 2386 80 2380.18 80 2373V2243C80 2235.82 74.1797 2230 67 2230Z" fill="#A8341A"/>
<path d="M65 2372H43C36.9249 2372 32 2376.92 32 2383V2489C32 2495.08 36.9249 2500 43 2500H65C71.0751 2500 76 2495.08 76 2489V2383C76 2376.92 71.0751 2372 65 2372Z" fill="#7A1408"/>
<path d="M68 2486H36C29.3726 2486 24 2491.37 24 2498V2634C24 2640.63 29.3726 2646 36 2646H68C74.6274 2646 80 2640.63 80 2634V2498C80 2491.37 74.6274 2486 68 2486Z" fill="#8A2E12"/>
<path d="M65 2632H43C36.9249 2632 32 2636.92 32 2643V2791C32 2797.08 36.9249 2802 43 2802H65C71.0751 2802 76 2797.08 76 2791V2643C76 2636.92 71.0751 2632 65 2632Z" fill="#5A1006"/>
<path d="M56 420H52C48.6863 420 46 422.686 46 426V440C46 443.314 48.6863 446 52 446H56C59.3137 446 62 443.314 62 440V426C62 422.686 59.3137 420 56 420Z" fill="#28221A"/>
<path d="M58 900H54C50.6863 900 48 902.686 48 906V920C48 923.314 50.6863 926 54 926H58C61.3137 926 64 923.314 64 920V906C64 902.686 61.3137 900 58 900Z" fill="#28221A"/>
<path d="M56 1380H52C48.6863 1380 46 1382.69 46 1386V1400C46 1403.31 48.6863 1406 52 1406H56C59.3137 1406 62 1403.31 62 1400V1386C62 1382.69 59.3137 1380 56 1380Z" fill="#3A1208"/>
<path d="M58 1880H54C50.6863 1880 48 1882.69 48 1886V1900C48 1903.31 50.6863 1906 54 1906H58C61.3137 1906 64 1903.31 64 1900V1886C64 1882.69 61.3137 1880 58 1880Z" fill="#3A1208"/>
<path opacity="0.5" d="M46 2083C46 2081.34 44.6569 2080 43 2080C41.3431 2080 40 2081.34 40 2083V2137C40 2138.66 41.3431 2140 43 2140C44.6569 2140 46 2138.66 46 2137V2083Z" fill="#E86820"/>
<path opacity="0.45" d="M53 2300H52C50.8954 2300 50 2300.9 50 2302V2346C50 2347.1 50.8954 2348 52 2348H53C54.1046 2348 55 2347.1 55 2346V2302C55 2300.9 54.1046 2300 53 2300Z" fill="#F0903A"/>
<path opacity="0.55" d="M48 2523C48 2521.34 46.6569 2520 45 2520C43.3431 2520 42 2521.34 42 2523V2583C42 2584.66 43.3431 2586 45 2586C46.6569 2586 48 2584.66 48 2583V2523Z" fill="#E86820"/>
<path d="M800 0H736V2800H800V0Z" fill="#46280E"/>
<path d="M800 0H768V2800H800V0Z" fill="#35200C"/>
<path d="M800 0H785V2800H800V0Z" fill="#28221A"/>
<path d="M764 40H734C727.373 40 722 45.3726 722 52V174C722 180.627 727.373 186 734 186H764C770.627 186 776 180.627 776 174V52C776 45.3726 770.627 40 764 40Z" fill="#5E3A16"/>
<path d="M759 172H737C730.925 172 726 176.925 726 183V295C726 301.075 730.925 306 737 306H759C765.075 306 770 301.075 770 295V183C770 176.925 765.075 172 759 172Z" fill="#54320F"/>
<path d="M765 292H733C725.82 292 720 297.82 720 305V435C720 442.18 725.82 448 733 448H765C772.18 448 778 442.18 778 435V305C778 297.82 772.18 292 765 292Z" fill="#3A2208"/>
<path d="M759 434H737C730.925 434 726 438.925 726 445V553C726 559.075 730.925 564 737 564H759C765.075 564 770 559.075 770 553V445C770 438.925 765.075 434 759 434Z" fill="#6E4419"/>
<path d="M764 550H732C725.373 550 720 555.373 720 562V690C720 696.627 725.373 702 732 702H764C770.627 702 776 696.627 776 690V562C776 555.373 770.627 550 764 550Z" fill="#54320F"/>
<path d="M759 688H737C730.925 688 726 692.925 726 699V805C726 811.075 730.925 816 737 816H759C765.075 816 770 811.075 770 805V699C770 692.925 765.075 688 759 688Z" fill="#5E3A16"/>
<path d="M765 802H733C725.82 802 720 807.82 720 815V945C720 952.18 725.82 958 733 958H765C772.18 958 778 952.18 778 945V815C778 807.82 772.18 802 765 802Z" fill="#3A2208"/>
<path d="M759 944H737C730.925 944 726 948.925 726 955V1061C726 1067.08 730.925 1072 737 1072H759C765.075 1072 770 1067.08 770 1061V955C770 948.925 765.075 944 759 944Z" fill="#6E4419"/>
<path d="M764 1058H732C725.373 1058 720 1063.37 720 1070V1198C720 1204.63 725.373 1210 732 1210H764C770.627 1210 776 1204.63 776 1198V1070C776 1063.37 770.627 1058 764 1058Z" fill="#54320F"/>
<path d="M759 1196H737C730.925 1196 726 1200.92 726 1207V1311C726 1317.08 730.925 1322 737 1322H759C765.075 1322 770 1317.08 770 1311V1207C770 1200.92 765.075 1196 759 1196Z" fill="#5E3A16"/>
<path d="M765 1308H733C725.82 1308 720 1313.82 720 1321V1451C720 1458.18 725.82 1464 733 1464H765C772.18 1464 778 1458.18 778 1451V1321C778 1313.82 772.18 1308 765 1308Z" fill="#6A2E12"/>
<path d="M759 1450H737C730.925 1450 726 1454.92 726 1461V1567C726 1573.08 730.925 1578 737 1578H759C765.075 1578 770 1573.08 770 1567V1461C770 1454.92 765.075 1450 759 1450Z" fill="#5A2A10"/>
<path d="M764 1564H732C725.373 1564 720 1569.37 720 1576V1704C720 1710.63 725.373 1716 732 1716H764C770.627 1716 776 1710.63 776 1704V1576C776 1569.37 770.627 1564 764 1564Z" fill="#7A3414"/>
<path d="M759 1702H737C730.925 1702 726 1706.92 726 1713V1817C726 1823.08 730.925 1828 737 1828H759C765.075 1828 770 1823.08 770 1817V1713C770 1706.92 765.075 1702 759 1702Z" fill="#6A2E12"/>
<path d="M765 1814H733C725.82 1814 720 1819.82 720 1827V1957C720 1964.18 725.82 1970 733 1970H765C772.18 1970 778 1964.18 778 1957V1827C778 1819.82 772.18 1814 765 1814Z" fill="#5A2410"/>
<path d="M764 1956H732C725.373 1956 720 1961.37 720 1968V2096C720 2102.63 725.373 2108 732 2108H764C770.627 2108 776 2102.63 776 2096V1968C776 1961.37 770.627 1956 764 1956Z" fill="#8A2E12"/>
<path d="M759 2094H737C730.925 2094 726 2098.92 726 2105V2211C726 2217.08 730.925 2222 737 2222H759C765.075 2222 770 2217.08 770 2211V2105C770 2098.92 765.075 2094 759 2094Z" fill="#7A1408"/>
<path d="M765 2208H733C725.82 2208 720 2213.82 720 2221V2351C720 2358.18 725.82 2364 733 2364H765C772.18 2364 778 2358.18 778 2351V2221C778 2213.82 772.18 2208 765 2208Z" fill="#A8341A"/>
<path d="M759 2350H737C730.925 2350 726 2354.92 726 2361V2467C726 2473.08 730.925 2478 737 2478H759C765.075 2478 770 2473.08 770 2467V2361C770 2354.92 765.075 2350 759 2350Z" fill="#5A1006"/>
<path d="M764 2464H732C725.373 2464 720 2469.37 720 2476V2612C720 2618.63 725.373 2624 732 2624H764C770.627 2624 776 2618.63 776 2612V2476C776 2469.37 770.627 2464 764 2464Z" fill="#8A2E12"/>
<path d="M759 2610H737C730.925 2610 726 2614.92 726 2621V2791C726 2797.08 730.925 2802 737 2802H759C765.075 2802 770 2797.08 770 2791V2621C770 2614.92 765.075 2610 759 2610Z" fill="#7A1408"/>
<path d="M748 398H744C740.686 398 738 400.686 738 404V418C738 421.314 740.686 424 744 424H748C751.314 424 754 421.314 754 418V404C754 400.686 751.314 398 748 398Z" fill="#28221A"/>
<path d="M746 878H742C738.686 878 736 880.686 736 884V898C736 901.314 738.686 904 742 904H746C749.314 904 752 901.314 752 898V884C752 880.686 749.314 878 746 878Z" fill="#28221A"/>
<path d="M748 1358H744C740.686 1358 738 1360.69 738 1364V1378C738 1381.31 740.686 1384 744 1384H748C751.314 1384 754 1381.31 754 1378V1364C754 1360.69 751.314 1358 748 1358Z" fill="#3A1208"/>
<path d="M746 1858H742C738.686 1858 736 1860.69 736 1864V1878C736 1881.31 738.686 1884 742 1884H746C749.314 1884 752 1881.31 752 1878V1864C752 1860.69 749.314 1858 746 1858Z" fill="#3A1208"/>
<path opacity="0.5" d="M760 2123C760 2121.34 758.657 2120 757 2120C755.343 2120 754 2121.34 754 2123V2175C754 2176.66 755.343 2178 757 2178C758.657 2178 760 2176.66 760 2175V2123Z" fill="#E86820"/>
<path opacity="0.45" d="M749 2330H748C746.895 2330 746 2330.9 746 2332V2378C746 2379.1 746.895 2380 748 2380H749C750.105 2380 751 2379.1 751 2378V2332C751 2330.9 750.105 2330 749 2330Z" fill="#F0903A"/>
<path opacity="0.55" d="M758 2543C758 2541.34 756.657 2540 755 2540C753.343 2540 752 2541.34 752 2543V2601C752 2602.66 753.343 2604 755 2604C756.657 2604 758 2602.66 758 2601V2543Z" fill="#E86820"/>
<path opacity="0.1" d="M248 300H188C183.582 300 180 303.582 180 308V318C180 322.418 183.582 326 188 326H248C252.418 326 256 322.418 256 318V308C256 303.582 252.418 300 248 300Z" fill="#3A3426"/>
<path opacity="0.09" d="M553 360H507C503.134 360 500 363.134 500 367V375C500 378.866 503.134 382 507 382H553C556.866 382 560 378.866 560 375V367C560 363.134 556.866 360 553 360Z" fill="#322C20"/>
<path opacity="0.1" d="M379 520H309C304.029 520 300 524.029 300 529V539C300 543.971 304.029 548 309 548H379C383.971 548 388 543.971 388 539V529C388 524.029 383.971 520 379 520Z" fill="#3A3426"/>
<path opacity="0.11" d="M617 640H567C563.134 640 560 643.134 560 647V655C560 658.866 563.134 662 567 662H617C620.866 662 624 658.866 624 655V647C624 643.134 620.866 640 617 640Z" fill="#2C271E"/>
<path opacity="0.09" d="M283 780H209C204.029 780 200 784.029 200 789V801C200 805.971 204.029 810 209 810H283C287.971 810 292 805.971 292 801V789C292 784.029 287.971 780 283 780Z" fill="#322C20"/>
<path opacity="0.1" d="M532 900H478C473.582 900 470 903.582 470 908V916C470 920.418 473.582 924 478 924H532C536.418 924 540 920.418 540 916V908C540 903.582 536.418 900 532 900Z" fill="#3A3426"/>
<path opacity="0.09" d="M332 1060H268C263.582 1060 260 1063.58 260 1068V1078C260 1082.42 263.582 1086 268 1086H332C336.418 1086 340 1082.42 340 1078V1068C340 1063.58 336.418 1060 332 1060Z" fill="#322C20"/>
<path opacity="0.11" d="M571 1180H527C523.134 1180 520 1183.13 520 1187V1193C520 1196.87 523.134 1200 527 1200H571C574.866 1200 578 1196.87 578 1193V1187C578 1183.13 574.866 1180 571 1180Z" fill="#2C271E"/>
<path opacity="0.16" d="M316 1360H248C243.582 1360 240 1363.58 240 1368V1378C240 1382.42 243.582 1386 248 1386H316C320.418 1386 324 1382.42 324 1378V1368C324 1363.58 320.418 1360 316 1360Z" fill="#5A2410"/>
<path opacity="0.15" d="M559 1500H507C503.134 1500 500 1503.13 500 1507V1515C500 1518.87 503.134 1522 507 1522H559C562.866 1522 566 1518.87 566 1515V1507C566 1503.13 562.866 1500 559 1500Z" fill="#6A2E12"/>
<path opacity="0.16" d="M370 1680H308C303.582 1680 300 1683.58 300 1688V1696C300 1700.42 303.582 1704 308 1704H370C374.418 1704 378 1700.42 378 1696V1688C378 1683.58 374.418 1680 370 1680Z" fill="#7A3414"/>
<path opacity="0.18" d="M573 1820H527C523.134 1820 520 1823.13 520 1827V1833C520 1836.87 523.134 1840 527 1840H573C576.866 1840 580 1836.87 580 1833V1827C580 1823.13 576.866 1820 573 1820Z" fill="#8A2E12"/>
<path opacity="0.5" d="M800 300H0V304H800V300Z" fill="#35200C"/>
<path opacity="0.45" d="M800 540H0V544H800V540Z" fill="#35200C"/>
<path opacity="0.42" d="M800 820H0V824H800V820Z" fill="#35200C"/>
<path opacity="0.4" d="M800 1100H0V1104H800V1100Z" fill="#35200C"/>
<path opacity="0.4" d="M800 1380H0V1384H800V1380Z" fill="#5A2410"/>
<path opacity="0.38" d="M800 1660H0V1664H800V1660Z" fill="#6A2E12"/>
<path opacity="0.4" d="M800 1900H0V1904H800V1900Z" fill="#7A1408"/>
<path opacity="0.12" d="M158 380H126C122.686 380 120 382.686 120 386C120 389.314 122.686 392 126 392H158C161.314 392 164 389.314 164 386C164 382.686 161.314 380 158 380Z" fill="#A85A1C"/>
<path opacity="0.13" d="M674 560H646C642.686 560 640 562.686 640 566C640 569.314 642.686 572 646 572H674C677.314 572 680 569.314 680 566C680 562.686 677.314 560 674 560Z" fill="#8A3E10"/>
<path opacity="0.15" d="M222 840H186C182.686 840 180 842.686 180 846C180 849.314 182.686 852 186 852H222C225.314 852 228 849.314 228 846C228 842.686 225.314 840 222 840Z" fill="#A85A1C"/>
<path opacity="0.16" d="M636 1040H606C602.686 1040 600 1042.69 600 1046C600 1049.31 602.686 1052 606 1052H636C639.314 1052 642 1049.31 642 1046C642 1042.69 639.314 1040 636 1040Z" fill="#8A3E10"/>
<path opacity="0.24" d="M265 1300H227C223.134 1300 220 1303.13 220 1307C220 1310.87 223.134 1314 227 1314H265C268.866 1314 272 1310.87 272 1307C272 1303.13 268.866 1300 265 1300Z" fill="#A85A1C"/>
<path opacity="0.3" d="M599 1500H567C563.134 1500 560 1503.13 560 1507C560 1510.87 563.134 1514 567 1514H599C602.866 1514 606 1510.87 606 1507C606 1503.13 602.866 1500 599 1500Z" fill="#C8581C"/>
<path opacity="0.32" d="M308 1740H268C263.582 1740 260 1743.58 260 1748C260 1752.42 263.582 1756 268 1756H308C312.418 1756 316 1752.42 316 1748C316 1743.58 312.418 1740 308 1740Z" fill="#E86820"/>
<path opacity="0.4" d="M582 1940H548C543.582 1940 540 1943.58 540 1948C540 1952.42 543.582 1956 548 1956H582C586.418 1956 590 1952.42 590 1948C590 1943.58 586.418 1940 582 1940Z" fill="#E86820"/>
<path opacity="0.5" d="M323 1620H322C320.895 1620 320 1620.9 320 1622V1623C320 1624.1 320.895 1625 322 1625H323C324.105 1625 325 1624.1 325 1623V1622C325 1620.9 324.105 1620 323 1620Z" fill="#F0A848"/>
<path opacity="0.55" d="M474 1702C474 1700.9 473.105 1700 472 1700C470.895 1700 470 1700.9 470 1702C470 1703.1 470.895 1704 472 1704C473.105 1704 474 1703.1 474 1702Z" fill="#E86820"/>
<path opacity="0.6" d="M256 1863C256 1861.34 254.657 1860 253 1860C251.343 1860 250 1861.34 250 1863C250 1864.66 251.343 1866 253 1866C254.657 1866 256 1864.66 256 1863Z" fill="#F0903A"/>
<path opacity="0.6" d="M543 1920H542C540.895 1920 540 1920.9 540 1922V1923C540 1924.1 540.895 1925 542 1925H543C544.105 1925 545 1924.1 545 1923V1922C545 1920.9 544.105 1920 543 1920Z" fill="#F0A848"/>
<path opacity="0.7" d="M386 2013C386 2011.34 384.657 2010 383 2010C381.343 2010 380 2011.34 380 2013C380 2014.66 381.343 2016 383 2016C384.657 2016 386 2014.66 386 2013Z" fill="#E86820"/>
<path opacity="0.65" d="M183 2080H182C180.895 2080 180 2080.9 180 2082V2083C180 2084.1 180.895 2085 182 2085H183C184.105 2085 185 2084.1 185 2083V2082C185 2080.9 184.105 2080 183 2080Z" fill="#F0903A"/>
<path opacity="0.7" d="M626 2143C626 2141.34 624.657 2140 623 2140C621.343 2140 620 2141.34 620 2143C620 2144.66 621.343 2146 623 2146C624.657 2146 626 2144.66 626 2143Z" fill="#F0A848"/>
<path opacity="0.75" d="M424 2230H423C421.343 2230 420 2231.34 420 2233V2234C420 2235.66 421.343 2237 423 2237H424C425.657 2237 427 2235.66 427 2234V2233C427 2231.34 425.657 2230 424 2230Z" fill="#E86820"/>
<path opacity="0.8" d="M306 2333C306 2331.34 304.657 2330 303 2330C301.343 2330 300 2331.34 300 2333C300 2334.66 301.343 2336 303 2336C304.657 2336 306 2334.66 306 2333Z" fill="#F0903A"/>
<path opacity="0.8" d="M564 2400H563C561.343 2400 560 2401.34 560 2403V2404C560 2405.66 561.343 2407 563 2407H564C565.657 2407 567 2405.66 567 2404V2403C567 2401.34 565.657 2400 564 2400Z" fill="#F0A848"/>
<path d="M800 2090H0V2800H800V2090Z" fill="url(#paint0_radial_252_96)"/>
<path d="M800 2690H0V2800H800V2690Z" fill="#46280E"/>
<path opacity="0.55" d="M800 2690H0V2800H800V2690Z" fill="#3A1208"/>
<path d="M80 2690H18C14.6863 2690 12 2692.69 12 2696V2718C12 2721.31 14.6863 2724 18 2724H80C83.3137 2724 86 2721.31 86 2718V2696C86 2692.69 83.3137 2690 80 2690Z" fill="#5A2A14"/>
<path d="M149 2692H99C96.2386 2692 94 2694.24 94 2697V2719C94 2721.76 96.2386 2724 99 2724H149C151.761 2724 154 2721.76 154 2719V2697C154 2694.24 151.761 2692 149 2692Z" fill="#4A1810"/>
<path d="M238 2688H168C164.686 2688 162 2690.69 162 2694V2718C162 2721.31 164.686 2724 168 2724H238C241.314 2724 244 2721.31 244 2718V2694C244 2690.69 241.314 2688 238 2688Z" fill="#5A2A14"/>
<path d="M311 2691H257C254.239 2691 252 2693.24 252 2696V2719C252 2721.76 254.239 2724 257 2724H311C313.761 2724 316 2721.76 316 2719V2696C316 2693.24 313.761 2691 311 2691Z" fill="#3A1208"/>
<path d="M394 2689H330C326.686 2689 324 2691.69 324 2695V2718C324 2721.31 326.686 2724 330 2724H394C397.314 2724 400 2721.31 400 2718V2695C400 2691.69 397.314 2689 394 2689Z" fill="#5A2A14"/>
<path d="M461 2692H413C410.239 2692 408 2694.24 408 2697V2719C408 2721.76 410.239 2724 413 2724H461C463.761 2724 466 2721.76 466 2719V2697C466 2694.24 463.761 2692 461 2692Z" fill="#4A1810"/>
<path d="M554 2688H480C476.686 2688 474 2690.69 474 2694V2718C474 2721.31 476.686 2724 480 2724H554C557.314 2724 560 2721.31 560 2718V2694C560 2690.69 557.314 2688 554 2688Z" fill="#5A2A14"/>
<path d="M629 2691H573C570.239 2691 568 2693.24 568 2696V2719C568 2721.76 570.239 2724 573 2724H629C631.761 2724 634 2721.76 634 2719V2696C634 2693.24 631.761 2691 629 2691Z" fill="#3A1208"/>
<path d="M710 2689H648C644.686 2689 642 2691.69 642 2695V2718C642 2721.31 644.686 2724 648 2724H710C713.314 2724 716 2721.31 716 2718V2695C716 2691.69 713.314 2689 710 2689Z" fill="#4A1810"/>
<path d="M794 2691H730C726.686 2691 724 2693.69 724 2697V2719C724 2722.31 726.686 2725 730 2725H794C797.314 2725 800 2722.31 800 2719V2697C800 2693.69 797.314 2691 794 2691Z" fill="#5A2A14"/>
<path opacity="0.6" d="M152 2702C152 2700.9 151.105 2700 150 2700C148.895 2700 148 2700.9 148 2702V2778C148 2779.1 148.895 2780 150 2780C151.105 2780 152 2779.1 152 2778V2702Z" fill="#E86820"/>
<path opacity="0.55" d="M405 2700H404C402.895 2700 402 2700.9 402 2702V2784C402 2785.1 402.895 2786 404 2786H405C406.105 2786 407 2785.1 407 2784V2702C407 2700.9 406.105 2700 405 2700Z" fill="#F0903A"/>
<path opacity="0.6" d="M640 2702C640 2700.9 639.105 2700 638 2700C636.895 2700 636 2700.9 636 2702V2776C636 2777.1 636.895 2778 638 2778C639.105 2778 640 2777.1 640 2776V2702Z" fill="#E86820"/>
<path d="M800 2682H0V2702H800V2682Z" fill="url(#paint1_linear_252_96)"/>
<path d="M238 2744H224C221.791 2744 220 2745.79 220 2748V2749C220 2751.21 221.791 2753 224 2753H238C240.209 2753 242 2751.21 242 2749V2748C242 2745.79 240.209 2744 238 2744Z" fill="#7A1408"/>
<path d="M521 2752H505C502.239 2752 500 2754.24 500 2757C500 2759.76 502.239 2762 505 2762H521C523.761 2762 526 2759.76 526 2757C526 2754.24 523.761 2752 521 2752Z" fill="#5A1006"/>
<path d="M374 2748H364C361.791 2748 360 2749.79 360 2752C360 2754.21 361.791 2756 364 2756H374C376.209 2756 378 2754.21 378 2752C378 2749.79 376.209 2748 374 2748Z" fill="#8A2E12"/>
<!-- Faint recessed hatch suggestion in the floor, centered under the ceiling fall-through (x~400): reads as a buried door without drawing the door art. The real entrance door lives in the Abyss screen (task 1.2). -->
<path opacity="0.55" d="M322 2706H478V2772H322V2706Z" fill="#150804"/>
<path opacity="0.4" d="M322 2706H478V2712H322V2706Z" fill="#5A2A14"/>
<path opacity="0.45" d="M322 2766H478V2772H322V2766Z" fill="#070503"/>
<path opacity="0.5" d="M398 2706H402V2772H398V2706Z" fill="#070503"/>
<path opacity="0.3" d="M334 2716H342V2724H334V2716Z" fill="#3A1208"/>
<path opacity="0.3" d="M458 2716H466V2724H458V2716Z" fill="#3A1208"/>
<path opacity="0.3" d="M334 2754H342V2762H334V2754Z" fill="#3A1208"/>
<path opacity="0.3" d="M458 2754H466V2762H458V2754Z" fill="#3A1208"/>
<path opacity="0.5" d="M13 0H0V2800H13V0Z" fill="#010106"/>
<path opacity="0.5" d="M800 0H787V2800H800V0Z" fill="#010106"/>
</g>
<defs>
<radialGradient id="paint0_radial_252_96" cx="0" cy="0" r="1" gradientUnits="userSpaceOnUse" gradientTransform="translate(400 2800) scale(720 639)">
<stop stop-color="#F0903A" stop-opacity="0.42"/>
<stop offset="0.32" stop-color="#E86820" stop-opacity="0.26"/>
<stop offset="0.62" stop-color="#A8341A" stop-opacity="0.12"/>
<stop offset="1" stop-color="#2A0E06" stop-opacity="0"/>
</radialGradient>
<linearGradient id="paint1_linear_252_96" x1="0" y1="2682" x2="0" y2="2702" gradientUnits="userSpaceOnUse">
<stop stop-color="#F0A848" stop-opacity="0.9"/>
<stop offset="1" stop-color="#8A1E0C" stop-opacity="0"/>
</linearGradient>
<clipPath id="clip0_252_96">
<rect width="800" height="2800" fill="white"/>
</clipPath>
</defs>
</svg>
