<svg width="800" height="800" viewBox="0 0 800 800" fill="none" xmlns="http://www.w3.org/2000/svg">
<g clip-path="url(#clip0_336_183)">
<path d="M1103 0H-3697V800H1103V0Z" fill="#070503"/>
<path d="M1103 240H-3697V648H1103V240Z" fill="#0B0706"/>
<g opacity="0.9">
<path d="M563 380H-157V664H563V380Z" fill="url(#paint0_radial_336_183)"/>
<path d="M1283 380H563V664H1283V380Z" fill="url(#paint1_radial_336_183)"/>
</g>
<path d="M1103 0H-3697V240H1103V0Z" fill="#2A0E06"/>
<path d="M1103 0H-3697V120H1103V0Z" fill="#1A0A06"/>
<path opacity="0.7" d="M1103 150H-3697V240H1103V150Z" fill="#3A1208"/>
<path d="M76 39H-14C-19.5228 39 -24 43.4772 -24 49V61C-24 66.5228 -19.5228 71 -14 71H76C81.5229 71 86 66.5228 86 61V49C86 43.4772 81.5229 39 76 39Z" fill="#6A2010"/>
<path d="M223 44H143C137.477 44 133 48.4772 133 54V66C133 71.5228 137.477 76 143 76H223C228.523 76 233 71.5228 233 66V54C233 48.4772 228.523 44 223 44Z" fill="#6A2010"/>
<path d="M374 43H294C288.477 43 284 47.4772 284 53V65C284 70.5228 288.477 75 294 75H374C379.523 75 384 70.5228 384 65V53C384 47.4772 379.523 43 374 43Z" fill="#8A1E0C"/>
<path d="M524 40H444C438.477 40 434 44.4772 434 50V58C434 63.5228 438.477 68 444 68H524C529.523 68 534 63.5228 534 58V50C534 44.4772 529.523 40 524 40Z" fill="#5A1006"/>
<path d="M691 37H591C585.477 37 581 41.4772 581 47V55C581 60.5228 585.477 65 591 65H691C696.523 65 701 60.5228 701 55V47C701 41.4772 696.523 37 691 37Z" fill="#8A1E0C"/>
<path d="M846 44H756C750.477 44 746 48.4772 746 54V66C746 71.5228 750.477 76 756 76H846C851.523 76 856 71.5228 856 66V54C856 48.4772 851.523 44 846 44Z" fill="#A8341A"/>
<path d="M-5 126H-85C-90.5228 126 -95 130.477 -95 136V146C-95 151.523 -90.5228 156 -85 156H-5C0.52285 156 5 151.523 5 146V136C5 130.477 0.52285 126 -5 126Z" fill="#6A2010"/>
<path d="M143 119H63C57.4772 119 53 123.477 53 129V137C53 142.523 57.4772 147 63 147H143C148.523 147 153 142.523 153 137V129C153 123.477 148.523 119 143 119Z" fill="#5A1006"/>
<path d="M297 127H207C201.477 127 197 131.477 197 137V149C197 154.523 201.477 159 207 159H297C302.523 159 307 154.523 307 149V137C307 131.477 302.523 127 297 127Z" fill="#6A2010"/>
<path d="M497 118H387C381.477 118 377 122.477 377 128V138C377 143.523 381.477 148 387 148H497C502.523 148 507 143.523 507 138V128C507 122.477 502.523 118 497 118Z" fill="#A8341A"/>
<path d="M666 123H576C570.477 123 566 127.477 566 133V141C566 146.523 570.477 151 576 151H666C671.523 151 676 146.523 676 141V133C676 127.477 671.523 123 666 123Z" fill="#7A1408"/>
<path d="M834 120H754C748.477 120 744 124.477 744 130V138C744 143.523 748.477 148 754 148H834C839.523 148 844 143.523 844 138V130C844 124.477 839.523 120 834 120Z" fill="#5A1006"/>
<path opacity="0.6" d="M1103 86H-3697V90H1103V86Z" fill="#1A0A06"/>
<path opacity="0.55" d="M1103 170H-3697V174H1103V170Z" fill="#2A0E06"/>
<path d="M1103 210H-3697V240H1103V210Z" fill="#8A1E0C"/>
<path d="M1103 210H-3697V220H1103V210Z" fill="#5A1006"/>
<path opacity="0.6" d="M1103 232H-3697V240H1103V232Z" fill="#C8281A"/>
<path opacity="0.5" d="M309 183C309 181.343 307.657 180 306 180C304.343 180 303 181.343 303 183V227C303 228.657 304.343 230 306 230C307.657 230 309 228.657 309 227V183Z" fill="#E86820"/>
<path opacity="0.5" d="M123 241C130.732 241 137 239.209 137 237C137 234.791 130.732 233 123 233C115.268 233 109 234.791 109 237C109 239.209 115.268 241 123 241Z" fill="#F0903A"/>
<path opacity="0.5" d="M423 241C429.627 241 435 239.209 435 237C435 234.791 429.627 233 423 233C416.373 233 411 234.791 411 237C411 239.209 416.373 241 423 241Z" fill="#F0A848"/>
<path opacity="0.5" d="M723 241C731.837 241 739 239.209 739 237C739 234.791 731.837 233 723 233C714.163 233 707 234.791 707 237C707 239.209 714.163 241 723 241Z" fill="#F0903A"/>
<g opacity="0.72">
<path d="M23 238H91L57 446L23 238Z" fill="#B81E10"/>
<path d="M40 238H74L57 424L40 238Z" fill="#5A1006"/>
<path d="M23 238H33L53 406L57 446L23 238Z" fill="#E04A28"/>
<path d="M57 454C59.2091 454 61 450.866 61 447C61 443.134 59.2091 440 57 440C54.7909 440 53 443.134 53 447C53 450.866 54.7909 454 57 454Z" fill="#A86850"/>
<path d="M227 238H279L253 451L227 238Z" fill="#B81E10"/>
<path d="M240 238H266L253 429L240 238Z" fill="#5A1006"/>
<path d="M227 238H237L249 411L253 451L227 238Z" fill="#E04A28"/>
<path d="M253 459C255.209 459 257 455.866 257 452C257 448.134 255.209 445 253 445C250.791 445 249 448.134 249 452C249 455.866 250.791 459 253 459Z" fill="#A86850"/>
<path d="M386 238H454L420 395L386 238Z" fill="#8A1E0C"/>
<path d="M403 238H437L420 373L403 238Z" fill="#5A1006"/>
<path d="M386 238H396L416 355L420 395L386 238Z" fill="#E04A28"/>
<path d="M420 403C422.209 403 424 399.866 424 396C424 392.134 422.209 389 420 389C417.791 389 416 392.134 416 396C416 399.866 417.791 403 420 403Z" fill="#A86850"/>
<path d="M560 238H600L580 319L560 238Z" fill="#8A1E0C"/>
<path d="M570 238H590L580 297L570 238Z" fill="#5A1006"/>
<path d="M580 325C581.657 325 583 322.761 583 320C583 317.239 581.657 315 580 315C578.343 315 577 317.239 577 320C577 322.761 578.343 325 580 325Z" fill="#A86850"/>
<path d="M726 238H766L746 330L726 238Z" fill="#7A1408"/>
<path d="M736 238H756L746 308L736 238Z" fill="#5A1006"/>
<path d="M746 336C747.657 336 749 333.761 749 331C749 328.239 747.657 326 746 326C744.343 326 743 328.239 743 331C743 333.761 744.343 336 746 336Z" fill="#A86850"/>
</g>
<path opacity="0.5" d="M526 575C527.657 575 529 573.657 529 572C529 570.343 527.657 569 526 569C524.343 569 523 570.343 523 572C523 573.657 524.343 575 526 575Z" fill="#E86820"/>
<path opacity="0.55" d="M615 388C616.657 388 618 386.657 618 385C618 383.343 616.657 382 615 382C613.343 382 612 383.343 612 385C612 386.657 613.343 388 615 388Z" fill="#F0903A"/>
<path opacity="0.5" d="M791 532C792.105 532 793 531.105 793 530C793 528.895 792.105 528 791 528C789.895 528 789 528.895 789 530C789 531.105 789.895 532 791 532Z" fill="#F0A848"/>
<path opacity="0.5" d="M641 555.5C642.381 555.5 643.5 554.381 643.5 553C643.5 551.619 642.381 550.5 641 550.5C639.619 550.5 638.5 551.619 638.5 553C638.5 554.381 639.619 555.5 641 555.5Z" fill="#F0A848"/>
<path opacity="0.6" d="M481 510C482.657 510 484 508.657 484 507C484 505.343 482.657 504 481 504C479.343 504 478 505.343 478 507C478 508.657 479.343 510 481 510Z" fill="#E86820"/>
<path opacity="0.55" d="M152 456C153.105 456 154 455.105 154 454C154 452.895 153.105 452 152 452C150.895 452 150 452.895 150 454C150 455.105 150.895 456 152 456Z" fill="#F0A848"/>
<path d="M1103 600H-3697V664H1103V600Z" fill="url(#paint2_linear_336_183)"/>
<path d="M1103 664H-3697V800H1103V664Z" fill="url(#paint3_linear_336_183)"/>
<path opacity="0.9" d="M1103 664H-3697V670H1103V664Z" fill="#FFD27A"/>
<path opacity="0.7" d="M1103 670H-3697V674H1103V670Z" fill="#F0A848"/>
<path opacity="0.35" d="M1101 682H-3697C-3698.1 682 -3699 682.895 -3699 684C-3699 685.105 -3698.1 686 -3697 686H1101C1102.1 686 1103 685.105 1103 684C1103 682.895 1102.1 682 1101 682Z" fill="#F0903A"/>
<path opacity="0.35" d="M1101 700H-3716C-3717.1 700 -3718 700.672 -3718 701.5C-3718 702.328 -3717.1 703 -3716 703H1101C1102.1 703 1103 702.328 1103 701.5C1103 700.672 1102.1 700 1101 700Z" fill="#F0903A"/>
<path opacity="0.35" d="M1101 718H-3712C-3713.1 718 -3714 718.895 -3714 720V721C-3714 722.105 -3713.1 723 -3712 723H1101C1102.1 723 1103 722.105 1103 721V720C1103 718.895 1102.1 718 1101 718Z" fill="#F0903A"/>
<path opacity="0.35" d="M1101 736H-3722C-3723.1 736 -3724 736.895 -3724 738C-3724 739.105 -3723.1 740 -3722 740H1101C1102.1 740 1103 739.105 1103 738C1103 736.895 1102.1 736 1101 736Z" fill="#F0903A"/>
<path opacity="0.35" d="M1101 754H-3796C-3797.1 754 -3798 754.895 -3798 756V757C-3798 758.105 -3797.1 759 -3796 759H1101C1102.1 759 1103 758.105 1103 757V756C1103 754.895 1102.1 754 1101 754Z" fill="#F0903A"/>
<path opacity="0.35" d="M1101 772H-3809C-3810.1 772 -3811 772.895 -3811 774C-3811 775.105 -3810.1 776 -3809 776H1101C1102.1 776 1103 775.105 1103 774C1103 772.895 1102.1 772 1101 772Z" fill="#F06838"/>
<path opacity="0.55" d="M701 787C705.418 787 709 784.314 709 781C709 777.686 705.418 775 701 775C696.582 775 693 777.686 693 781C693 784.314 696.582 787 701 787Z" fill="#F06838"/>
<path opacity="0.7" d="M701 785C704.314 785 707 783.209 707 781C707 778.791 704.314 777 701 777C697.686 777 695 778.791 695 781C695 783.209 697.686 785 701 785Z" fill="#FFD27A"/>
<path opacity="0.55" d="M207 765C209.761 765 212 763.657 212 762C212 760.343 209.761 759 207 759C204.239 759 202 760.343 202 762C202 763.657 204.239 765 207 765Z" fill="#F06838"/>
<path opacity="0.7" d="M207 763C208.657 763 210 762.552 210 762C210 761.448 208.657 761 207 761C205.343 761 204 761.448 204 762C204 762.552 205.343 763 207 763Z" fill="#FFD27A"/>
<path opacity="0.55" d="M613 751C616.866 751 620 748.761 620 746C620 743.239 616.866 741 613 741C609.134 741 606 743.239 606 746C606 748.761 609.134 751 613 751Z" fill="#F06838"/>
<path opacity="0.7" d="M613 749C615.761 749 618 747.657 618 746C618 744.343 615.761 743 613 743C610.239 743 608 744.343 608 746C608 747.657 610.239 749 613 749Z" fill="#FFD27A"/>
<path d="M413 668C443.667 652 474.333 652 505 668L497 694H421L413 668Z" fill="#2A0E06"/>
<path opacity="0.6" d="M413 668C443.667 652 474.333 652 505 668" stroke="#E86820" stroke-width="3"/>
<path opacity="0.5" d="M475 603C476.105 603 477 602.105 477 601C477 599.895 476.105 599 475 599C473.895 599 473 599.895 473 601C473 602.105 473.895 603 475 603Z" fill="#FFD27A"/>
<path opacity="0.5" d="M742 629C743.105 629 744 628.105 744 627C744 625.895 743.105 625 742 625C740.895 625 740 625.895 740 627C740 628.105 740.895 629 742 629Z" fill="#F0A848"/>
<path opacity="0.5" d="M1 649.5C1.82843 649.5 2.5 648.828 2.5 648C2.5 647.172 1.82843 646.5 1 646.5C0.171573 646.5 -0.5 647.172 -0.5 648C-0.5 648.828 0.171573 649.5 1 649.5Z" fill="#FFD27A"/>
<path d="M1103 648H-3697V666H1103V648Z" fill="#2A0E06"/>
<path d="M1103 648H-3697V654H1103V648Z" fill="#3A1208"/>
<path d="M1103 648H-3697V651H1103V648Z" fill="#5A2A14"/>
<path opacity="0.8" d="M1103 662H-3697V665H1103V662Z" fill="#F0A848"/>
<path d="M33 664H39L36 668L33 664Z" fill="#2A0E06"/>
<path d="M123 664H129L126 673L123 664Z" fill="#2A0E06"/>
<path d="M213 664H219L216 669L213 664Z" fill="#2A0E06"/>
<path d="M303 664H309L306 675L303 664Z" fill="#2A0E06"/>
<path d="M393 664H399L396 678L393 664Z" fill="#2A0E06"/>
<path d="M483 664H489L486 677L483 664Z" fill="#2A0E06"/>
<path d="M573 664H579L576 678L573 664Z" fill="#2A0E06"/>
<path d="M663 664H669L666 671L663 664Z" fill="#2A0E06"/>
<path d="M753 664H759L756 669L753 664Z" fill="#2A0E06"/>
<path d="M616.244 435.945C618.457 435.3 621.32 435.313 623.542 435.462C624.671 435.538 625.668 435.652 626.383 435.747C626.741 435.794 627.03 435.837 627.23 435.868C627.33 435.883 627.408 435.896 627.461 435.905C627.488 435.909 627.51 435.913 627.524 435.916C627.531 435.917 627.537 435.918 627.541 435.918C627.543 435.919 627.544 435.919 627.545 435.919H627.547L627.641 435.941C627.856 436 628.047 436.13 628.18 436.311L639.137 451.181L652.508 436.238L652.585 436.16C652.776 435.989 653.026 435.897 653.284 435.905C653.579 435.914 653.856 436.053 654.039 436.285L665.939 451.359L685.189 436.121L685.329 436.028C685.475 435.947 685.641 435.905 685.81 435.905C690.556 435.905 694.239 436.984 696.748 438.075C698.001 438.62 698.96 439.167 699.613 439.583C699.939 439.792 700.189 439.968 700.361 440.094C700.447 440.157 700.513 440.208 700.56 440.245C700.561 440.245 700.562 440.247 700.563 440.248C706.424 443.461 712.062 449.414 716.987 457.035C721.945 464.707 726.228 474.139 729.316 484.347C735.485 504.739 736.937 528.4 729.311 547.465C729.191 547.766 728.931 547.991 728.616 548.067C728.3 548.142 727.968 548.06 727.724 547.846C726.751 546.995 724.674 545.818 721.185 544.526C717.723 543.244 712.947 541.875 706.647 540.603C694.048 538.058 675.4 535.906 649.067 535.573C622.701 535.239 604.427 535.587 592.299 536.156C586.236 536.44 581.715 536.78 578.492 537.117C575.24 537.456 573.375 537.787 572.575 538.033C572.3 538.117 572.001 538.079 571.756 537.928C571.512 537.778 571.343 537.529 571.294 537.246C567.9 517.443 568.79 499.55 574.748 483.413C580.707 467.27 591.707 452.96 608.406 440.282L608.409 440.28L608.41 440.279C608.41 440.278 608.412 440.278 608.413 440.277C608.415 440.275 608.419 440.271 608.423 440.268C608.433 440.261 608.446 440.251 608.463 440.239C608.498 440.213 608.547 440.177 608.611 440.13C608.739 440.037 608.925 439.903 609.157 439.74C609.62 439.414 610.271 438.971 611.027 438.497C612.515 437.562 614.492 436.455 616.244 435.945Z" fill="#81585E" stroke="black" stroke-width="2" stroke-linejoin="round"/>
<path d="M577.29 524.555C577.29 527.227 575.064 529.007 573.951 529.564C569.276 516.875 572.003 507.582 573.951 504.521C575.064 505.356 577.29 507.526 577.29 509.529C577.29 511.533 580.629 514.26 582.298 515.373L588.142 517.877C587.864 520.103 586.305 523.721 582.298 520.381C577.29 516.208 577.29 521.216 577.29 524.555Z" fill="#C50000"/>
<path d="M716.488 520.381C718.217 520.382 719.618 521.627 719.618 523.164C719.618 523.909 720.024 525.024 720.245 525.973C720.381 525.957 720.52 525.947 720.661 525.947C722.39 525.947 726.921 529.974 726.922 531.511C728.651 531.511 730.053 532.758 730.053 534.295C730.053 535.831 728.651 537.077 726.922 537.077C725.293 537.076 723.028 533.5 722.772 531.801C721.949 531.65 721.179 531.511 720.661 531.511C718.932 531.511 717.531 530.266 717.531 528.729C717.531 528.214 717.691 527.732 717.966 527.318C715.954 526.385 713.357 524.327 713.357 523.164C713.358 521.627 714.76 520.381 716.488 520.381Z" fill="#641F29"/>
<path d="M654.834 453.186C655.002 455.499 653.673 457.481 651.865 457.612C650.988 457.676 649.717 458.313 648.622 458.691C648.654 458.872 648.678 459.057 648.692 459.246C648.86 461.559 644.561 467.967 642.753 468.099L642.765 468.314C642.838 470.534 641.536 472.398 639.784 472.525C637.976 472.656 636.374 470.888 636.206 468.575C636.047 466.396 640.034 463.06 642.008 462.572C642.107 461.457 642.194 460.415 642.144 459.722C641.976 457.409 643.305 455.428 645.114 455.296C645.72 455.252 646.303 455.422 646.816 455.754C647.718 452.983 649.888 449.335 651.256 449.236C653.064 449.105 654.666 450.873 654.834 453.186Z" fill="#641F29"/>
<path d="M703.284 451.355C702.436 453.513 700.381 454.726 698.693 454.063C697.875 453.742 696.453 453.767 695.303 453.634C695.254 453.811 695.195 453.989 695.126 454.165C694.278 456.323 687.632 460.243 685.944 459.581C685.096 461.739 683.04 462.951 681.352 462.289C679.665 461.625 678.985 459.338 679.833 457.18C680.633 455.146 685.671 453.862 687.661 454.275C688.232 453.312 688.761 452.411 689.015 451.764C689.863 449.606 691.918 448.393 693.605 449.056C694.172 449.278 694.624 449.684 694.944 450.206C696.955 448.097 700.488 445.745 701.764 446.246C703.452 446.91 704.132 449.197 703.284 451.355Z" fill="#641F29"/>
<path d="M674.123 465.287C673.455 469.961 678.853 470.573 681.635 470.295L674.54 480.73L667.445 475.304L664.106 470.295C661.88 467.791 656.259 461.948 651.584 458.608C645.741 454.435 651.584 448.591 654.923 449.426C657.595 450.094 662.158 458.608 664.106 462.782C667.723 461.669 674.79 460.612 674.123 465.287Z" fill="#C50000"/>
<path d="M701.67 507.86C692.321 505.857 690.54 511.477 690.818 514.538L701.67 526.225C705.566 520.938 711.02 509.863 701.67 507.86Z" fill="#641F29"/>
<path d="M589.811 510.364C575.787 512.368 580.072 521.216 583.968 525.39L602.333 515.373C604.002 512.869 603.835 508.361 589.811 510.364Z" fill="#641F29"/>
<path d="M649.914 510.864C691.17 510.864 724.544 541.698 724.544 579.65C724.544 617.602 691.169 648.436 649.914 648.436C608.659 648.435 575.285 617.602 575.285 579.65C575.285 541.698 608.659 510.864 649.914 510.864Z" fill="black" stroke="black"/>
<path d="M616.266 521.085C626.43 518.374 640.464 517.823 653.805 518.214C666.333 518.58 678.338 519.779 686.123 520.849L687.623 521.061L688.004 521.117L688.249 521.413C692.298 526.299 698.741 534.56 703.792 543.257C706.317 547.605 708.511 552.092 709.88 556.34C711.243 560.573 711.82 564.671 710.991 568.192C704.296 596.648 696.307 610.017 689.844 616.264C686.601 619.399 683.737 620.745 681.623 621.288C680.753 621.511 680.017 621.595 679.444 621.616C679.464 621.763 679.485 621.924 679.509 622.099C679.66 623.239 679.895 624.982 680.225 627.396C680.885 632.224 681.927 639.735 683.46 650.464L683.623 651.605H618.71L618.873 650.464L622.897 622.29C609.844 620.884 583.678 609.2 573.819 572.396L573.735 572.082L573.852 571.778C576.659 564.478 582.124 553.214 589.417 543.088C596.683 532.999 605.899 523.849 616.266 521.085Z" fill="black" stroke="black" stroke-width="2"/>
<path d="M605.232 554.617C613.638 547.003 627.431 541.247 649.111 541.921C692.405 543.267 705.219 564.43 706.006 575.405L706.011 575.467L706.007 575.529C705.724 580.917 704.241 589.427 700.708 597.538C697.179 605.641 691.544 613.48 682.874 617.295C674.299 621.068 661.365 621.817 648.829 621.281C636.247 620.743 623.88 618.9 616.324 617.36L616.195 617.334L616.077 617.274C611.775 615.123 605.551 610.6 600.731 603.967C595.906 597.327 592.465 588.537 593.822 577.904C593.935 571.524 596.87 562.192 605.232 554.617Z" fill="#641F29" stroke="black" stroke-width="2"/>
<path d="M651.827 555.486C614.815 554.365 601.654 581.06 601.497 591.337C598.737 613.618 615.177 615.381 622.367 618.884C635.723 620.554 669.949 621.389 680.587 617.149C695.122 611.357 699.521 591.69 700 582.814C699.364 574.172 688.839 556.608 651.827 555.486Z" fill="#641F29" stroke="black" stroke-width="2"/>
<path d="M662.778 567.343C666.152 565.757 669.637 565.759 671.794 566.242C671.841 566.253 671.889 566.257 671.938 566.254C674.183 566.097 677.73 566.994 680.901 570.313C684.07 573.629 686.889 579.393 687.604 588.999C688.319 598.63 687.124 605.278 685.366 609.663C683.635 613.984 681.376 616.07 679.895 616.715H620.017C617.315 611.203 616.732 603.549 617.144 596.61C617.352 593.094 617.814 589.783 618.372 587.064C618.932 584.331 619.582 582.233 620.15 581.117C620.158 581.102 620.165 581.087 620.171 581.071C623.102 573.512 631.427 566.287 641.239 566.255C650.335 568.634 653.126 575.086 653.406 577.912C653.43 578.15 653.619 578.338 653.856 578.36C654.094 578.383 654.315 578.235 654.383 578.006C656.144 572.082 659.426 568.919 662.778 567.343Z" fill="black" stroke="black" stroke-linejoin="round"/>
<path d="M677.242 617.215H621.151C615.793 607.737 618.919 590.698 621.151 586.749C623.942 580.261 631.867 574.055 641.244 574.055C649.95 576.086 652.685 581.671 652.964 584.21C656.313 574.055 665.522 573.209 669.708 574.055C674.173 573.773 683.438 577.271 684.777 593.519C686.116 609.768 680.312 616.086 677.242 617.215Z" fill="#4630FF" stroke="#040608"/>
<mask id="mask0_336_183" style="mask-type:alpha" maskUnits="userSpaceOnUse" x="618" y="573" width="67" height="45">
<path d="M661.217 575.467C664.355 574.137 667.599 574.139 669.609 574.545L669.673 574.558L669.74 574.554C671.836 574.422 675.132 575.178 678.071 577.951C681.003 580.718 683.617 585.529 684.279 593.561C685.599 609.576 679.925 615.623 677.144 616.715H621.448C618.961 612.121 618.423 605.741 618.804 599.942C618.998 596.999 619.426 594.228 619.944 591.953C620.464 589.665 621.065 587.918 621.586 586.995L621.6 586.972L621.611 586.946C624.32 580.648 632.042 574.581 641.183 574.555C649.655 576.551 652.213 581.956 652.467 584.265L653.439 584.366C655.066 579.432 658.1 576.788 661.217 575.467Z" fill="#4630FF" stroke="#040608"/>
</mask>
<g mask="url(#mask0_336_183)">
<g opacity="0.9">
<path d="M666.083 598.059H667.374C667.516 598.059 667.632 598.231 667.632 598.444V615.959C667.632 616.172 667.516 616.344 667.374 616.344H666.083C665.94 616.344 665.825 616.172 665.825 615.959V598.444C665.825 598.231 665.94 598.059 666.083 598.059Z" fill="#6B4A1E"/>
<path opacity="0.45" d="M666.367 599.228H666.664C666.788 599.228 666.888 599.335 666.888 599.467V614.936C666.888 615.068 666.788 615.175 666.664 615.175H666.367C666.243 615.175 666.144 615.068 666.144 614.936V599.467C666.144 599.335 666.243 599.228 666.367 599.228Z" fill="#7D5A2A"/>
</g>
<g opacity="0.9">
<path d="M674.539 607.535H675.451C675.551 607.535 675.633 607.626 675.633 607.738V617.012C675.633 617.124 675.551 617.215 675.451 617.215H674.539C674.439 617.215 674.357 617.124 674.357 617.012V607.738C674.357 607.626 674.439 607.535 674.539 607.535Z" fill="#6B4A1E"/>
<path opacity="0.45" d="M674.74 608.154H674.95C675.037 608.154 675.107 608.21 675.107 608.28V616.47C675.107 616.54 675.037 616.596 674.95 616.596H674.74C674.653 616.596 674.582 616.54 674.582 616.47V608.28C674.582 608.21 674.653 608.154 674.74 608.154Z" fill="#7D5A2A"/>
</g>
<path d="M619.862 615.545H678.296V617.215H619.862V615.545Z" fill="#186010"/>
<path d="M672.154 615.921C671.135 615.921 670.308 615.508 670.308 614.998C670.308 614.488 671.135 614.075 672.154 614.075C673.174 614.075 674 614.488 674 614.998C674 615.508 673.174 615.921 672.154 615.921Z" fill="#1E7010"/>
<path d="M662.924 615.46C662.096 615.46 661.425 615.15 661.425 614.767C661.425 614.385 662.096 614.075 662.924 614.075C663.753 614.075 664.424 614.385 664.424 614.767C664.424 615.15 663.753 615.46 662.924 615.46Z" fill="#1E7010"/>
<path d="M669.847 601.23C667.362 601.23 665.348 599.293 665.348 596.903C665.348 594.514 667.362 592.577 669.847 592.577C672.333 592.577 674.347 594.514 674.347 596.903C674.347 599.293 672.333 601.23 669.847 601.23Z" fill="#2E8E10"/>
<path d="M676.627 610.537C674.783 610.537 673.288 609.415 673.288 608.032C673.288 606.649 674.783 605.528 676.627 605.528C678.471 605.528 679.966 606.649 679.966 608.032C679.966 609.415 678.471 610.537 676.627 610.537Z" fill="#2E8E10"/>
<path d="M663.79 601.115C661.464 601.115 659.579 599.229 659.579 596.903C659.579 594.578 661.464 592.692 663.79 592.692C666.116 592.692 668.001 594.578 668.001 596.903C668.001 599.229 666.116 601.115 663.79 601.115Z" fill="#2E8E10"/>
<path d="M673.287 610.537C671.443 610.537 669.948 609.415 669.948 608.032C669.948 606.649 671.443 605.528 673.287 605.528C675.132 605.528 676.626 606.649 676.626 608.032C676.626 609.415 675.132 610.537 673.287 610.537Z" fill="#2E8E10"/>
<path d="M666.963 598.807C663.968 598.807 661.54 596.379 661.54 593.384C661.54 590.39 663.968 587.962 666.963 587.962C669.958 587.962 672.386 590.39 672.386 593.384C672.386 596.379 669.958 598.807 666.963 598.807Z" fill="#38A814"/>
<path d="M674.957 608.867C673.113 608.867 671.618 607.372 671.618 605.528C671.618 603.684 673.113 602.189 674.957 602.189C676.801 602.189 678.296 603.684 678.296 605.528C678.296 607.372 676.801 608.867 674.957 608.867Z" fill="#38A814"/>
<path d="M617.241 587.324C617.82 586.872 618.498 586.647 619.156 586.638C619.395 586.298 619.686 585.989 620.029 585.721C621.92 584.247 624.67 584.597 626.258 586.484C626.268 586.475 626.279 586.467 626.29 586.459C627.794 585.285 630 585.599 631.217 587.159C632.433 588.719 632.2 590.934 630.696 592.107C629.468 593.065 627.773 593.032 626.53 592.139C626.299 592.455 626.024 592.744 625.703 592.995C623.823 594.461 621.091 594.124 619.5 592.266C618.408 592.564 617.243 592.253 616.555 591.371C615.615 590.165 615.922 588.353 617.241 587.324Z" fill="#F7FEF5"/>
<path d="M635.723 594.676L619.027 608.032C619.027 612.039 620.697 615.267 621.532 616.38H656.592L641.566 598.85H639.062L635.723 594.676Z" fill="#7D8794" stroke="#D2F9FD"/>
<path d="M644.905 603.024H625.705L635.722 594.676L639.061 598.85H642.4L644.905 603.024Z" fill="#F7FEF5" stroke="#D2F9FD"/>
</g>
<path d="M677.242 617.215H621.151C615.793 607.736 618.919 590.698 621.151 586.749C623.942 580.261 631.867 574.055 641.244 574.055C649.95 576.086 652.685 581.671 652.964 584.21C656.313 574.055 665.522 573.209 669.708 574.055C674.173 573.773 683.438 577.271 684.777 593.519C686.116 609.768 680.312 616.086 677.242 617.215Z" stroke="#040608" stroke-width="2" stroke-linejoin="round"/>
<path d="M687.479 575.476C688.862 575.476 689.984 576.597 689.984 577.98C689.984 578.651 690.308 579.654 690.485 580.509C690.594 580.494 690.705 580.485 690.818 580.485C692.201 580.485 695.827 584.111 695.827 585.494L696.083 585.507C697.345 585.635 698.331 586.701 698.331 587.998C698.331 589.381 697.21 590.502 695.827 590.502C694.524 590.502 692.712 587.284 692.507 585.755C691.848 585.618 691.232 585.494 690.818 585.494C689.435 585.494 688.314 584.372 688.314 582.989C688.314 582.525 688.442 582.091 688.662 581.719C687.052 580.879 684.975 579.027 684.975 577.98C684.975 576.597 686.096 575.477 687.479 575.476Z" fill="#B7000D"/>
<path d="M615.061 557.905C615.308 559.266 614.405 560.57 613.045 560.817C612.385 560.937 611.455 561.435 610.647 561.762C610.68 561.867 610.709 561.975 610.729 562.086C610.976 563.447 608.059 567.656 606.697 567.907L606.697 567.909C606.944 569.27 606.04 570.573 604.679 570.82C603.319 571.067 602.016 570.164 601.769 568.804C601.536 567.521 604.378 565.164 605.846 564.689C605.863 564.016 605.875 563.389 605.801 562.981C605.554 561.62 606.457 560.316 607.818 560.069C608.275 559.986 608.725 560.035 609.131 560.185C609.669 558.451 611.12 556.076 612.15 555.889C613.511 555.642 614.814 556.545 615.061 557.905Z" fill="#B7000D"/>
<path d="M684.976 553.772C686.517 553.772 688.979 557.149 689.747 559.335C690.072 558.995 690.436 558.781 690.819 558.781C692.202 558.781 693.323 559.902 693.323 561.285C693.323 561.85 693.6 562.928 693.759 563.892C693.87 563.827 694.001 563.79 694.158 563.79C695.541 563.79 698.332 566.581 698.332 567.964C698.332 568.256 698.278 568.536 698.186 568.798C698.278 569.059 698.332 569.34 698.332 569.634C698.332 569.926 698.278 570.206 698.186 570.468C698.278 570.729 698.332 571.009 698.332 571.302C698.332 571.595 698.278 571.876 698.186 572.137C698.278 572.399 698.332 572.679 698.332 572.972C698.332 573.265 698.278 573.545 698.186 573.806C698.278 574.068 698.332 574.349 698.332 574.642C698.332 576.025 697.211 577.146 695.828 577.146C694.445 577.146 693.324 576.025 693.323 574.642C693.323 574.349 693.376 574.068 693.469 573.806C693.376 573.545 693.323 573.265 693.323 572.972C693.323 572.679 693.376 572.399 693.469 572.137C693.376 571.876 693.323 571.595 693.323 571.302C693.323 571.01 693.376 570.729 693.469 570.468C693.376 570.206 693.323 569.926 693.323 569.634C693.323 569.341 693.375 569.06 693.468 568.799C693.375 568.537 693.323 568.257 693.323 567.964C693.323 567.388 693.229 566.569 693.218 565.809C693.028 565.769 692.788 565.658 692.488 565.459C691.105 565.459 688.315 564.338 688.314 562.955C688.314 562.712 688.351 562.426 688.415 562.12C688.382 562.12 688.349 562.12 688.314 562.12C686.47 562.119 681.637 558.955 681.637 557.111C681.637 555.267 683.132 553.772 684.976 553.772Z" fill="#C50000"/>
<path d="M688.479 519.297L687.97 519.584L674.613 527.096L673.931 527.48L673.395 526.91C671.237 524.618 667.144 521.134 661.948 518.228C656.75 515.321 650.521 513.034 644.071 513.034C631.014 513.034 620.106 519.582 616.34 522.81L615.86 523.221L615.283 522.964L607.77 519.626L607.259 519.398L607.185 518.844L603.846 493.801L603.771 493.238L604.216 492.884L624.251 477.024L624.523 476.808H667L667.287 477.072L688.156 496.272L688.479 496.569V519.297Z" stroke="black" stroke-width="2"/>
<path d="M657.427 482.817C650.749 478.81 635.723 481.147 629.045 482.817L615.689 505.356L642.402 509.529V502.017H649.915L655.758 505.356V507.86L665.775 509.529C665.775 502.295 664.106 486.824 657.427 482.817Z" fill="#986F77"/>
<path d="M661.206 470.057L672.059 490.091L672.095 490.158L672.109 490.232L675.448 506.927L675.607 507.723L674.825 507.507L650.616 500.829L650.25 500.728V480.952L650.382 480.808L660.399 469.956L660.873 469.443L661.206 470.057ZM640.397 500.72L640.04 500.827L617.501 507.504L616.983 507.658L616.87 507.13L614.365 495.443L614.317 495.218L614.457 495.035L625.31 480.843L625.53 480.555L625.873 480.676L640.064 485.684L640.397 485.802V500.72Z" fill="#C50000" stroke="#FF4100"/>
<path d="M630.38 486.491V489.83H635.389V499.177H625.206V486.491H630.38Z" fill="#FFF000" stroke="#FF4100"/>
<path d="M667.945 503.351H663.838L663.69 503.129L660.5 498.343H657.038L656.943 497.964L655.273 491.286L655.118 490.665H660.476L663.671 485.073L664.106 484.313L664.541 485.073L667.879 490.917L667.945 491.032V503.351Z" fill="#FFF000" stroke="#FF4100"/>
<path d="M758.233 396.896C764.66 402.154 776.155 420.041 772.785 450.371L772.779 450.421L772.77 450.47C766.698 478.805 746.663 501.579 737.378 509.457L736.026 510.604L735.744 508.854C734.382 500.408 727.003 477.988 708.431 456.763L707.561 455.768L708.755 455.201C716.937 451.318 728.716 445.111 738.546 435.762C748.363 426.425 756.192 414 756.601 397.645L756.651 395.602L758.233 396.896Z" fill="#C50000" stroke="black" stroke-width="2"/>
<path d="M758.908 401.105C763.319 406.553 766.478 417.628 763.63 443.339C758.04 469.298 741.169 479.343 731.434 487.109C727.348 478.48 721.139 467.908 711.59 456.611C719.735 452.65 730.845 446.536 740.269 437.574C749.733 428.572 757.554 416.639 758.908 401.105Z" fill="#81585E" stroke="#641F29" stroke-width="3"/>
<path d="M553.009 387.842C546.361 392.816 534.097 410.186 536.145 440.634L536.148 440.684L536.156 440.733C540.989 469.306 560.014 492.93 568.947 501.205L570.248 502.409L570.606 500.673C572.334 492.294 580.682 470.217 600.16 449.82L601.073 448.864L599.904 448.245C591.899 444.01 580.401 437.296 570.987 427.528C561.585 417.773 554.305 405.019 554.608 388.662L554.646 386.618L553.009 387.842Z" fill="#C50000" stroke="black" stroke-width="2"/>
<path d="M552.152 392.018C547.508 397.269 543.871 408.196 545.597 434.007C550.052 460.185 566.47 470.954 575.858 479.136C580.315 470.694 586.979 460.401 597.01 449.53C589.046 445.219 578.212 438.627 569.187 429.263C560.123 419.859 552.829 407.597 552.152 392.018Z" fill="#81585E" stroke="#641F29" stroke-width="3"/>
<path d="M645.74 543.755L639.062 561.285L623.201 543.755C622.645 542.085 621.866 536.409 623.201 527.059C624.537 517.71 629.323 515.929 631.549 516.207H645.74V543.755Z" fill="#C8929E" stroke="black" stroke-width="2"/>
<path d="M615.377 530.315L612.051 542.687L593.752 536.668C592.924 535.826 591.179 532.649 590.817 526.678C590.454 520.707 594.733 518.292 596.918 517.831L610.533 513.831L615.377 530.315Z" fill="#C8929E" stroke="black" stroke-width="2"/>
<path d="M673.085 530.315L676.41 542.687L694.71 536.668C695.537 535.826 697.283 532.649 697.645 526.678C698.007 520.707 693.728 518.292 691.544 517.831L677.928 513.831L673.085 530.315Z" fill="#C8929E" stroke="black" stroke-width="2"/>
<path d="M649.915 542.947L656.593 560.477L672.454 542.947C673.01 541.277 673.79 535.601 672.454 526.251C671.118 516.902 666.332 515.121 664.106 515.399H649.915V542.947Z" fill="#C8929E" stroke="black" stroke-width="2"/>
<path d="M601.283 519.245L606.598 538.045C599.455 538.064 584.765 524.889 601.283 519.245Z" fill="#81585E"/>
<path d="M628.211 646.431C588.977 646.431 571.446 603.023 575.62 573.806C579.627 559.782 586.473 559.615 593.15 562.12C593.15 609.702 612.628 616.658 628.211 624.727V646.431Z" fill="#C8929E" stroke="black" stroke-width="2"/>
<path d="M669.949 646.431C709.182 646.431 726.713 603.023 722.539 573.806C718.532 559.782 711.687 559.615 705.009 562.12C705.009 609.702 685.531 616.658 669.949 624.727V646.431Z" fill="#C8929E" stroke="black" stroke-width="2"/>
<path d="M693.322 536.14C693.322 542.194 723.373 572.137 732.208 593.841C738.538 556.004 717.739 529.519 710.504 527.627C703.269 525.735 693.322 528.573 693.322 536.14Z" fill="#C8929E" stroke="black" stroke-width="2"/>
<path d="M598.994 534.573C598.994 539.915 575.064 570.746 563.099 585.493C557.255 552.103 576.455 528.729 583.133 527.06C589.811 525.39 598.994 527.894 598.994 534.573Z" fill="#C8929E" stroke="black" stroke-width="2"/>
<path d="M705.009 530.399C713.028 541.474 729.232 565.42 729.895 572.604C730.725 581.583 729.066 537.582 705.009 530.399Z" fill="#81585E"/>
<path d="M584.611 533.738C578.022 545.718 564.9 571.482 565.129 578.693C565.415 587.707 561.626 543.838 584.611 533.738Z" fill="#81585E"/>
<path d="M713.357 577.146C713.357 611.204 688.871 630.849 676.627 636.414C709.35 629.068 718.088 597.736 718.366 582.989L713.357 577.146Z" fill="#81585E"/>
<path d="M622.105 633.961C591.444 619.132 584.421 588.535 584.741 575.09C577.107 607.747 601.509 629.254 614.664 635.926L622.105 633.961Z" fill="#81585E"/>
<path d="M634.889 520.381L631.55 540.416C627.929 536.342 624.719 516.023 634.889 520.381Z" fill="#81585E"/>
<path d="M665.319 529.299L661.387 549.226C666.211 546.689 676.373 528.802 665.319 529.299Z" fill="#81585E"/>
<path d="M684.979 519.245L679.664 538.045C686.807 538.064 701.497 524.889 684.979 519.245Z" fill="#81585E"/>
<path d="M702.025 457.25C691.279 456.508 680.831 471.169 676.95 478.592C693.965 507.358 727.099 523.133 730.681 520.35C733.547 518.123 735.756 505.193 730.681 493.439C725.607 481.686 712.771 457.992 702.025 457.25Z" fill="#B7000D" stroke="black" stroke-width="2"/>
<path d="M703.93 468.927C696.66 468.439 689.593 478.085 686.968 482.969C698.478 501.894 720.892 512.272 723.315 510.44C725.254 508.975 726.748 500.469 723.315 492.736C719.882 485.003 711.199 469.416 703.93 468.927Z" fill="#FF4100" stroke="#641F29" stroke-width="3"/>
<path d="M608.729 445.279C621.371 444.537 633.663 459.198 638.228 466.622C618.211 495.388 579.229 511.163 575.015 508.379C571.644 506.152 569.045 493.223 575.015 481.469C580.985 469.715 596.086 446.022 608.729 445.279Z" fill="#B7000D" stroke="black" stroke-width="2"/>
<path d="M607.756 455.288C617.238 454.78 626.456 464.812 629.88 469.891C614.867 489.573 585.631 500.366 582.471 498.462C579.942 496.938 577.993 488.091 582.471 480.049C586.948 472.007 598.274 455.796 607.756 455.288Z" fill="#FF4100" stroke="#641F29" stroke-width="3"/>
<rect x="629.88" y="632.241" width="40.0689" height="15.0258" rx="3" fill="#81585E" stroke="black" stroke-width="2"/>
<path d="M617.364 650.594C617.872 649.578 618.911 648.936 620.047 648.936H683.121C684.257 648.936 685.296 649.578 685.804 650.594L689.482 657.951C690.48 659.945 689.029 662.292 686.799 662.292H616.369C614.139 662.292 612.689 659.945 613.686 657.951L617.364 650.594Z" fill="#81585E" stroke="black" stroke-width="2"/>
<rect x="636.558" y="620.554" width="28.3822" height="10.0172" rx="3" fill="#81585E" stroke="black" stroke-width="2"/>
<path d="M641.566 658.953H621.015C621.015 658.953 617.47 658.893 618.327 655.918C619.183 652.943 620.621 652.275 622.333 652.275C624.046 652.275 636.205 654.096 636.205 654.096L632.631 655.918L641.566 658.953Z" fill="#B7000D" stroke="#B7000D" stroke-linejoin="round"/>
<path d="M646.576 657.284H626.024C626.024 657.284 622.48 657.238 623.336 655.007C624.192 652.776 625.63 652.275 627.343 652.275C629.055 652.275 641.214 653.641 641.214 653.641L637.64 655.007L646.576 657.284Z" fill="#B7000D" stroke="#B7000D" stroke-linejoin="round"/>
<path d="M654.923 635.58H634.889C634.889 635.58 632.384 635.655 633.219 639.374C634.054 643.093 633.219 643.927 634.889 643.927C636.558 643.927 649.697 641.651 649.697 641.651L646.213 639.374L654.923 635.58Z" fill="#B7000D" stroke="#B7000D" stroke-linejoin="round"/>
<path d="M649.915 623.893H640.74C640.74 623.893 639.593 623.923 639.975 625.411C640.358 626.898 639.975 627.232 640.74 627.232C641.505 627.232 647.521 626.321 647.521 626.321L645.926 625.411L649.915 623.893Z" fill="#B7000D" stroke="#B7000D" stroke-linejoin="round"/>
</g>
<defs>
<radialGradient id="paint0_radial_336_183" cx="0" cy="0" r="1" gradientUnits="userSpaceOnUse" gradientTransform="translate(203 664) scale(432 170.4)">
<stop stop-color="#F0903A" stop-opacity="0.3"/>
<stop offset="0.4" stop-color="#E86820" stop-opacity="0.16"/>
<stop offset="1" stop-color="#2A0E06" stop-opacity="0"/>
</radialGradient>
<radialGradient id="paint1_radial_336_183" cx="0" cy="0" r="1" gradientUnits="userSpaceOnUse" gradientTransform="translate(923 664) scale(432 170.4)">
<stop stop-color="#F0903A" stop-opacity="0.3"/>
<stop offset="0.4" stop-color="#E86820" stop-opacity="0.16"/>
<stop offset="1" stop-color="#2A0E06" stop-opacity="0"/>
</radialGradient>
<linearGradient id="paint2_linear_336_183" x1="-3697" y1="600" x2="-3697" y2="664" gradientUnits="userSpaceOnUse">
<stop stop-color="#F0903A" stop-opacity="0.55"/>
<stop offset="1" stop-color="#E04A28" stop-opacity="0"/>
</linearGradient>
<linearGradient id="paint3_linear_336_183" x1="-3697" y1="664" x2="-3697" y2="800" gradientUnits="userSpaceOnUse">
<stop stop-color="#FFC25A"/>
<stop offset="0.22" stop-color="#F0903A"/>
<stop offset="0.55" stop-color="#E04A28"/>
<stop offset="1" stop-color="#7A1408"/>
</linearGradient>
<clipPath id="clip0_336_183">
<rect width="800" height="800" fill="white"/>
</clipPath>
</defs>
</svg>
