<svg width="800" height="800" viewBox="0 0 800 800" fill="none" xmlns="http://www.w3.org/2000/svg">
<g clip-path="url(#clip0_339_247)">
<path d="M800 0H0V800H800V0Z" fill="#060608"/>
<g opacity="0.6">
<path d="M267.99 479.342L260.962 476.667C259.668 476.175 258.22 476.825 257.727 478.119L221.175 574.173C220.683 575.467 221.332 576.915 222.626 577.408L229.655 580.082C230.948 580.575 232.397 579.925 232.889 578.631L269.441 482.576C269.934 481.282 269.284 479.834 267.99 479.342Z" fill="#434135"/>
<path d="M280.16 510.794L230.961 492.072C229.667 491.58 228.219 492.23 227.727 493.523L225.052 500.552C224.56 501.846 225.209 503.294 226.503 503.786L275.702 522.508C276.996 523.001 278.444 522.351 278.936 521.057L281.611 514.028C282.103 512.735 281.454 511.287 280.16 510.794Z" fill="#434135"/>
</g>
<g opacity="0.6">
<path d="M800 580H0V800H800V580Z" fill="#080C06"/>
<path d="M225 645H105C77.3858 645 55 661.949 55 682.857V713.143C55 734.051 77.3858 751 105 751H225C252.614 751 275 734.051 275 713.143V682.857C275 661.949 252.614 645 225 645Z" fill="#3A3426"/>
<path d="M174.182 747H133.818C124.53 747 117 761.391 117 779.143V804.857C117 822.609 124.53 837 133.818 837H174.182C183.47 837 191 822.609 191 804.857V779.143C191 761.391 183.47 747 174.182 747Z" fill="#504434"/>
<path d="M106.273 702H27.7273C9.6525 702 -5 716.391 -5 734.143V759.857C-5 777.609 9.6525 792 27.7273 792H106.273C124.348 792 139 777.609 139 759.857V734.143C139 716.391 124.348 702 106.273 702Z" fill="#322C20"/>
<path d="M126.722 615H70.2778C50.7944 615 35 630.67 35 650V664C35 683.33 50.7944 699 70.2778 699H126.722C146.206 699 162 683.33 162 664V650C162 630.67 146.206 615 126.722 615Z" fill="#2B3324"/>
<path d="M283.722 573H227.278C207.794 573 192 588.67 192 608V622C192 641.33 207.794 657 227.278 657H283.722C303.206 657 319 641.33 319 622V608C319 588.67 303.206 573 283.722 573Z" fill="#2B3324"/>
<path d="M242.714 737H200.286C184.664 737 172 749.536 172 765V779C172 794.464 184.664 807 200.286 807H242.714C258.336 807 271 794.464 271 779V765C271 749.536 258.336 737 242.714 737Z" fill="#3A402C"/>
<path d="M183.714 580H141.286C125.664 580 113 592.536 113 608V622C113 637.464 125.664 650 141.286 650H183.714C199.336 650 212 637.464 212 622V608C212 592.536 199.336 580 183.714 580Z" fill="#37462F"/>
<path d="M31.7143 667H-10.7143C-26.3361 667 -39 679.536 -39 695V709C-39 724.464 -26.3361 737 -10.7143 737H31.7143C47.3361 737 60 724.464 60 709V695C60 679.536 47.3361 667 31.7143 667Z" fill="#37462F"/>
</g>
<path opacity="0.9" d="M800 782H0V800H800V782Z" fill="#0E1E0A"/>
<path d="M134 789C141.732 789 148 785.418 148 781C148 776.582 141.732 773 134 773C126.268 773 120 776.582 120 781C120 785.418 126.268 789 134 789Z" fill="#14120C"/>
<path opacity="0.6" d="M310 790C318.284 790 325 787.314 325 784C325 780.686 318.284 778 310 778C301.716 778 295 780.686 295 784C295 787.314 301.716 790 310 790Z" fill="#122808"/>
<path opacity="0.65" d="M520 787C529.389 787 537 783.866 537 780C537 776.134 529.389 773 520 773C510.611 773 503 776.134 503 780C503 783.866 510.611 787 520 787Z" fill="#122808"/>
<path opacity="0.6" d="M750 791C762.15 791 772 787.418 772 783C772 778.582 762.15 775 750 775C737.85 775 728 778.582 728 783C728 787.418 737.85 791 750 791Z" fill="#122808"/>
<path d="M639.478 303.789C644.713 303.789 648.957 297.121 648.957 288.895C648.957 280.669 644.713 274 639.478 274C634.244 274 630 280.669 630 288.895C630 297.121 634.244 303.789 639.478 303.789Z" stroke="#28221A" stroke-width="4"/>
<path d="M639.478 332.225C644.713 332.225 648.957 325.556 648.957 317.33C648.957 309.104 644.713 302.436 639.478 302.436C634.244 302.436 630 309.104 630 317.33C630 325.556 634.244 332.225 639.478 332.225Z" stroke="#28221A" stroke-width="4"/>
<path d="M639.478 360.66C644.713 360.66 648.957 353.991 648.957 345.765C648.957 337.539 644.713 330.871 639.478 330.871C634.244 330.871 630 337.539 630 345.765C630 353.991 634.244 360.66 639.478 360.66Z" stroke="#28221A" stroke-width="4"/>
<path d="M639.478 389.096C644.713 389.096 648.957 382.427 648.957 374.201C648.957 365.975 644.713 359.306 639.478 359.306C634.244 359.306 630 365.975 630 374.201C630 382.427 634.244 389.096 639.478 389.096Z" stroke="#28221A" stroke-width="4"/>
<path d="M639.478 417.531C644.713 417.531 648.957 410.863 648.957 402.636C648.957 394.41 644.713 387.742 639.478 387.742C634.244 387.742 630 394.41 630 402.636C630 410.863 634.244 417.531 639.478 417.531Z" stroke="#28221A" stroke-width="4"/>
<path d="M639.478 445.967C644.713 445.967 648.957 439.298 648.957 431.072C648.957 422.846 644.713 416.177 639.478 416.177C634.244 416.177 630 422.846 630 431.072C630 439.298 634.244 445.967 639.478 445.967Z" stroke="#28221A" stroke-width="4"/>
<path d="M644.2 444H635.8C634.254 444 633 444.618 633 445.379V482.621C633 483.382 634.254 484 635.8 484H644.2C645.746 484 647 483.382 647 482.621V445.379C647 444.618 645.746 444 644.2 444Z" fill="#1C1810"/>
<path d="M639.603 497.521C649.325 497.521 657.206 493.278 657.206 488.043C657.206 482.808 649.325 478.564 639.603 478.564C629.881 478.564 622 482.808 622 488.043C622 493.278 629.881 497.521 639.603 497.521Z" fill="#1C1810"/>
<path d="M601 489L609 448L616 489H601Z" fill="#1C1810" stroke="#1C1810"/>
<path d="M664 489L672 448L679 489H664Z" fill="#1C1810" stroke="#1C1810"/>
<path d="M601 498L609 517L616 498H601Z" fill="#453F30"/>
<path d="M632 498L640 517L647 498H632Z" fill="#453F30"/>
<path d="M664 498L672 517L679 498H664Z" fill="#453F30"/>
<rect x="600" y="489" width="80" height="13" fill="#1C1810"/>
<path d="M468.478 303.789C473.713 303.789 477.957 297.121 477.957 288.895C477.957 280.669 473.713 274 468.478 274C463.244 274 459 280.669 459 288.895C459 297.121 463.244 303.789 468.478 303.789Z" stroke="#28221A" stroke-width="4"/>
<path d="M468.478 332.225C473.713 332.225 477.957 325.556 477.957 317.33C477.957 309.104 473.713 302.436 468.478 302.436C463.244 302.436 459 309.104 459 317.33C459 325.556 463.244 332.225 468.478 332.225Z" stroke="#28221A" stroke-width="4"/>
<path d="M468.478 360.66C473.713 360.66 477.957 353.991 477.957 345.765C477.957 337.539 473.713 330.871 468.478 330.871C463.244 330.871 459 337.539 459 345.765C459 353.991 463.244 360.66 468.478 360.66Z" stroke="#28221A" stroke-width="4"/>
<path d="M468.478 389.096C473.713 389.096 477.957 382.427 477.957 374.201C477.957 365.975 473.713 359.306 468.478 359.306C463.244 359.306 459 365.975 459 374.201C459 382.427 463.244 389.096 468.478 389.096Z" stroke="#28221A" stroke-width="4"/>
<path d="M468.478 417.531C473.713 417.531 477.957 410.863 477.957 402.636C477.957 394.41 473.713 387.742 468.478 387.742C463.244 387.742 459 394.41 459 402.636C459 410.863 463.244 417.531 468.478 417.531Z" stroke="#28221A" stroke-width="4"/>
<path d="M468.478 445.967C473.713 445.967 477.957 439.298 477.957 431.072C477.957 422.846 473.713 416.177 468.478 416.177C463.244 416.177 459 422.846 459 431.072C459 439.298 463.244 445.967 468.478 445.967Z" stroke="#28221A" stroke-width="4"/>
<path d="M473.2 446H464.8C463.254 446 462 446.371 462 446.828V469.172C462 469.629 463.254 470 464.8 470H473.2C474.746 470 476 469.629 476 469.172V446.828C476 446.371 474.746 446 473.2 446Z" fill="#1C1810"/>
<path d="M468.603 487.521C478.325 487.521 486.206 483.278 486.206 478.043C486.206 472.808 478.325 468.564 468.603 468.564C458.881 468.564 451 472.808 451 478.043C451 483.278 458.881 487.521 468.603 487.521Z" fill="#1C1810"/>
<path d="M431 479L439 424L446 479H431Z" fill="#1C1810" stroke="#1C1810"/>
<path d="M494 479L502 424L509 479H494Z" fill="#1C1810" stroke="#1C1810"/>
<path d="M431 488L439 507L446 488H431Z" fill="#453F30"/>
<path d="M462 488L470 507L477 488H462Z" fill="#453F30"/>
<path d="M494 488L502 507L509 488H494Z" fill="#453F30"/>
<rect x="430" y="479" width="80" height="13" fill="#1C1810"/>
<g opacity="0.5">
<path d="M178 94V96C178 114.778 162.778 130 144 130H102C83.2223 130 68 114.778 68 96V94C68 75.2223 83.2223 60 102 60H144C162.778 60 178 75.2223 178 94Z" fill="#413633"/>
<path d="M747 -29V12C747 26.3594 735.359 38 721 38L681 38C666.641 38 655 26.3594 655 12V-29C655 -43.3594 666.641 -55 681 -55H721C735.359 -55 747 -43.3594 747 -29Z" fill="#3A3426"/>
<path d="M284 104V145C284 157.703 273.703 168 261 168H235C222.297 168 212 157.703 212 145V104C212 91.2975 222.297 81 235 81H261C273.703 81 284 91.2975 284 104Z" fill="#3A3426"/>
<path d="M805 21V52C805 69.1208 791.121 83 774 83H735C717.879 83 704 69.1208 704 52V21C704 3.87917 717.879 -10 735 -10H774C791.121 -10 805 3.87917 805 21Z" fill="#2C271E"/>
<path d="M732 101V133C732 150.121 718.121 164 701 164H657C639.879 164 626 150.121 626 133V101C626 83.8792 639.879 70 657 70H701C718.121 70 732 83.8792 732 101Z" fill="#453F30"/>
<path d="M313 -17V12C313 24.7025 302.703 35 290 35L232 35C219.297 35 209 24.7025 209 12V-17C209 -29.7025 219.297 -40 232 -40H290C302.703 -40 313 -29.7025 313 -17Z" fill="#2C271E"/>
<path d="M55 -28L55 22C55 38.5685 41.5685 52 25 52C8.43146 52 -5 38.5685 -5 22L-5 -28C-5 -44.5685 8.43146 -58 25 -58C41.5685 -58 55 -44.5685 55 -28Z" fill="#322C20"/>
<path d="M771 15V67C771 82.464 758.464 95 743 95H720C704.536 95 692 82.464 692 67V15C692 -0.463974 704.536 -13 720 -13H743C758.464 -13 771 -0.463974 771 15Z" fill="#322C20"/>
<path d="M765 78V136C765 149.807 753.807 161 740 161H683C669.193 161 658 149.807 658 136V78C658 64.1929 669.193 53 683 53H740C753.807 53 765 64.1929 765 78Z" fill="#2C271E"/>
<path d="M98 44V67C98 86.33 82.33 102 63 102H33C13.67 102 -2 86.33 -2 67V44C-2 24.67 13.67 9 33 9H63C82.33 9 98 24.67 98 44Z" fill="#2C271E"/>
<path d="M337 48V88C337 108.435 320.435 125 300 125H269C248.565 125 232 108.435 232 88V48C232 27.5655 248.565 11 269 11H300C320.435 11 337 27.5655 337 48Z" fill="#322C20"/>
<path d="M473 0V32C473 52.9868 455.987 70 435 70H419C398.013 70 381 52.9868 381 32V0C381 -20.9868 398.013 -38 419 -38H435C455.987 -38 473 -20.9868 473 0Z" fill="#3A3426"/>
<path d="M419 -31V0C419 17.1208 405.121 31 388 31H375C357.879 31 344 17.1208 344 0V-31C344 -48.1208 357.879 -62 375 -62H388C405.121 -62 419 -48.1208 419 -31Z" fill="#322C20"/>
<path d="M92 113V142C92 154.15 77.043 164 58.5926 164H43.4074C24.957 164 10 154.15 10 142V113C10 100.85 24.957 91 43.4074 91H58.5926C77.043 91 92 100.85 92 113Z" fill="#3A3426"/>
<path d="M185.773 125H101.227C81.7718 125 66 140.83 66 160.357V188.643C66 208.17 81.7718 224 101.227 224H185.773C205.228 224 221 208.17 221 188.643V160.357C221 140.83 205.228 125 185.773 125Z" fill="#2C271E"/>
<path d="M607.773 57H523.227C503.772 57 488 72.8299 488 92.3571V120.643C488 140.17 503.772 156 523.227 156H607.773C627.228 156 643 140.17 643 120.643V92.3571C643 72.8299 627.228 57 607.773 57Z" fill="#3A3426"/>
<path d="M106.773 186H22.2273C2.77179 186 -13 201.83 -13 221.357V249.643C-13 269.17 2.77179 285 22.2273 285H106.773C126.228 285 142 269.17 142 249.643V221.357C142 201.83 126.228 186 106.773 186Z" fill="#3A3426"/>
<path d="M269.722 161H213.278C193.794 161 178 176.67 178 196V210C178 229.33 193.794 245 213.278 245H269.722C289.206 245 305 229.33 305 210V196C305 176.67 289.206 161 269.722 161Z" fill="#322C20"/>
<path opacity="0.8" d="M725.714 153H683.286C667.664 153 655 165.536 655 181V195C655 210.464 667.664 223 683.286 223H725.714C741.336 223 754 210.464 754 195V181C754 165.536 741.336 153 725.714 153Z" fill="#3A3426"/>
<path opacity="0.8" d="M539.714 151H497.286C481.664 151 469 163.536 469 179V193C469 208.464 481.664 221 497.286 221H539.714C555.336 221 568 208.464 568 193V179C568 163.536 555.336 151 539.714 151Z" fill="#3A3426"/>
<path opacity="0.8" d="M626.714 153H584.286C568.664 153 556 165.536 556 181V195C556 210.464 568.664 223 584.286 223H626.714C642.336 223 655 210.464 655 195V181C655 165.536 642.336 153 626.714 153Z" fill="#3A3426"/>
<path opacity="0.8" d="M440.714 151H398.286C382.664 151 370 163.536 370 179V193C370 208.464 382.664 221 398.286 221H440.714C456.336 221 469 208.464 469 193V179C469 163.536 456.336 151 440.714 151Z" fill="#3A3426"/>
<path d="M482.857 204H454.143C443.571 204 435 216.536 435 232V246C435 261.464 443.571 274 454.143 274H482.857C493.429 274 502 261.464 502 246V232C502 216.536 493.429 204 482.857 204Z" fill="#2C271E"/>
<path d="M653.857 204H625.143C614.571 204 606 216.536 606 232V246C606 261.464 614.571 274 625.143 274H653.857C664.429 274 673 261.464 673 246V232C673 216.536 664.429 204 653.857 204Z" fill="#2C271E"/>
</g>
</g>
<defs>
<clipPath id="clip0_339_247">
<rect width="800" height="800" fill="white"/>
</clipPath>
</defs>
</svg>
