<svg width="800" height="800" viewBox="0 0 800 800" fill="none" xmlns="http://www.w3.org/2000/svg">
<g clip-path="url(#clip0_339_247)">
<path d="M800 0H0V800H800V0Z" fill="#060608"/>
<g opacity="0.6">
<path d="M267.99 542.342L260.962 539.667C259.668 539.175 258.22 539.825 257.727 541.119L221.175 637.173C220.683 638.467 221.332 639.915 222.626 640.408L229.655 643.082C230.948 643.575 232.397 642.925 232.889 641.631L269.441 545.576C269.934 544.282 269.284 542.834 267.99 542.342Z" fill="#434135"/>
<path d="M280.16 573.794L230.961 555.072C229.667 554.58 228.219 555.23 227.727 556.523L225.052 563.552C224.56 564.846 225.209 566.294 226.503 566.786L275.702 585.508C276.996 586.001 278.444 585.351 278.936 584.057L281.611 577.028C282.103 575.735 281.454 574.287 280.16 573.794Z" fill="#434135"/>
</g>
<g opacity="0.6">
<path d="M800 642H0V800H800V642Z" fill="#080C06"/>
<path d="M225 708H105C77.3858 708 55 724.949 55 745.857V776.143C55 797.051 77.3858 814 105 814H225C252.614 814 275 797.051 275 776.143V745.857C275 724.949 252.614 708 225 708Z" fill="#3A3426"/>
<path d="M174.182 723H133.818C124.53 723 117 737.391 117 755.143V780.857C117 798.609 124.53 813 133.818 813H174.182C183.47 813 191 798.609 191 780.857V755.143C191 737.391 183.47 723 174.182 723Z" fill="#504434"/>
<path d="M106.273 765H27.7273C9.6525 765 -5 779.391 -5 797.143V822.857C-5 840.609 9.6525 855 27.7273 855H106.273C124.348 855 139 840.609 139 822.857V797.143C139 779.391 124.348 765 106.273 765Z" fill="#322C20"/>
<path d="M126.722 678H70.2778C50.7944 678 35 693.67 35 713V727C35 746.33 50.7944 762 70.2778 762H126.722C146.206 762 162 746.33 162 727V713C162 693.67 146.206 678 126.722 678Z" fill="#2B3324"/>
<path d="M283.722 636H227.278C207.794 636 192 651.67 192 671V685C192 704.33 207.794 720 227.278 720H283.722C303.206 720 319 704.33 319 685V671C319 651.67 303.206 636 283.722 636Z" fill="#2B3324"/>
<path d="M242.714 758H200.286C184.664 758 172 770.536 172 786V800C172 815.464 184.664 828 200.286 828H242.714C258.336 828 271 815.464 271 800V786C271 770.536 258.336 758 242.714 758Z" fill="#3A402C"/>
<path d="M183.714 643H141.286C125.664 643 113 655.536 113 671V685C113 700.464 125.664 713 141.286 713H183.714C199.336 713 212 700.464 212 685V671C212 655.536 199.336 643 183.714 643Z" fill="#37462F"/>
<path d="M31.7143 730H-10.7143C-26.3361 730 -39 742.536 -39 758V772C-39 787.464 -26.3361 800 -10.7143 800H31.7143C47.3361 800 60 787.464 60 772V758C60 742.536 47.3361 730 31.7143 730Z" fill="#37462F"/>
</g>
<path opacity="0.9" d="M800 782H0V800H800V782Z" fill="#0E1E0A"/>
<path d="M134 789C141.732 789 148 785.418 148 781C148 776.582 141.732 773 134 773C126.268 773 120 776.582 120 781C120 785.418 126.268 789 134 789Z" fill="#14120C"/>
<path opacity="0.6" d="M310 790C318.284 790 325 787.314 325 784C325 780.686 318.284 778 310 778C301.716 778 295 780.686 295 784C295 787.314 301.716 790 310 790Z" fill="#122808"/>
<path opacity="0.65" d="M520 787C529.389 787 537 783.866 537 780C537 776.134 529.389 773 520 773C510.611 773 503 776.134 503 780C503 783.866 510.611 787 520 787Z" fill="#122808"/>
<path opacity="0.6" d="M750 791C762.15 791 772 787.418 772 783C772 778.582 762.15 775 750 775C737.85 775 728 778.582 728 783C728 787.418 737.85 791 750 791Z" fill="#122808"/>
<path d="M640.478 260.789C645.713 260.789 649.957 254.121 649.957 245.895C649.957 237.669 645.713 231 640.478 231C635.244 231 631 237.669 631 245.895C631 254.121 635.244 260.789 640.478 260.789Z" stroke="#28221A" stroke-width="4"/>
<path d="M640.478 289.225C645.713 289.225 649.957 282.556 649.957 274.33C649.957 266.104 645.713 259.436 640.478 259.436C635.244 259.436 631 266.104 631 274.33C631 282.556 635.244 289.225 640.478 289.225Z" stroke="#28221A" stroke-width="4"/>
<path d="M640.478 317.66C645.713 317.66 649.957 310.991 649.957 302.765C649.957 294.539 645.713 287.871 640.478 287.871C635.244 287.871 631 294.539 631 302.765C631 310.991 635.244 317.66 640.478 317.66Z" stroke="#28221A" stroke-width="4"/>
<path d="M640.478 346.096C645.713 346.096 649.957 339.427 649.957 331.201C649.957 322.975 645.713 316.306 640.478 316.306C635.244 316.306 631 322.975 631 331.201C631 339.427 635.244 346.096 640.478 346.096Z" stroke="#28221A" stroke-width="4"/>
<path d="M640.478 374.531C645.713 374.531 649.957 367.863 649.957 359.636C649.957 351.41 645.713 344.742 640.478 344.742C635.244 344.742 631 351.41 631 359.636C631 367.863 635.244 374.531 640.478 374.531Z" stroke="#28221A" stroke-width="4"/>
<path d="M640.478 402.967C645.713 402.967 649.957 396.298 649.957 388.072C649.957 379.846 645.713 373.177 640.478 373.177C635.244 373.177 631 379.846 631 388.072C631 396.298 635.244 402.967 640.478 402.967Z" stroke="#28221A" stroke-width="4"/>
<path d="M645.2 401H636.8C635.254 401 634 401.618 634 402.379V439.621C634 440.382 635.254 441 636.8 441H645.2C646.746 441 648 440.382 648 439.621V402.379C648 401.618 646.746 401 645.2 401Z" fill="#1C1810"/>
<path d="M640.603 454.521C650.325 454.521 658.206 450.278 658.206 445.043C658.206 439.808 650.325 435.564 640.603 435.564C630.881 435.564 623 439.808 623 445.043C623 450.278 630.881 454.521 640.603 454.521Z" fill="#1C1810"/>
<path d="M602 446L610 405L617 446H602Z" fill="#1C1810" stroke="#1C1810"/>
<path d="M665 446L673 405L680 446H665Z" fill="#1C1810" stroke="#1C1810"/>
<path d="M602 455L610 474L617 455H602Z" fill="#453F30"/>
<path d="M633 455L641 474L648 455H633Z" fill="#453F30"/>
<path d="M665 455L673 474L680 455H665Z" fill="#453F30"/>
<rect x="601" y="446" width="80" height="13" fill="#1C1810"/>
<path d="M469.478 260.225C474.713 260.225 478.957 253.556 478.957 245.33C478.957 237.104 474.713 230.436 469.478 230.436C464.244 230.436 460 237.104 460 245.33C460 253.556 464.244 260.225 469.478 260.225Z" stroke="#28221A" stroke-width="4"/>
<path d="M469.478 288.66C474.713 288.66 478.957 281.991 478.957 273.765C478.957 265.539 474.713 258.871 469.478 258.871C464.244 258.871 460 265.539 460 273.765C460 281.991 464.244 288.66 469.478 288.66Z" stroke="#28221A" stroke-width="4"/>
<path d="M469.478 317.096C474.713 317.096 478.957 310.427 478.957 302.201C478.957 293.975 474.713 287.306 469.478 287.306C464.244 287.306 460 293.975 460 302.201C460 310.427 464.244 317.096 469.478 317.096Z" stroke="#28221A" stroke-width="4"/>
<path d="M469.478 345.531C474.713 345.531 478.957 338.863 478.957 330.636C478.957 322.41 474.713 315.742 469.478 315.742C464.244 315.742 460 322.41 460 330.636C460 338.863 464.244 345.531 469.478 345.531Z" stroke="#28221A" stroke-width="4"/>
<path d="M469.478 373.967C474.713 373.967 478.957 367.298 478.957 359.072C478.957 350.846 474.713 344.177 469.478 344.177C464.244 344.177 460 350.846 460 359.072C460 367.298 464.244 373.967 469.478 373.967Z" stroke="#28221A" stroke-width="4"/>
<path d="M474.2 374H465.8C464.254 374 463 374.371 463 374.828V397.172C463 397.629 464.254 398 465.8 398H474.2C475.746 398 477 397.629 477 397.172V374.828C477 374.371 475.746 374 474.2 374Z" fill="#1C1810"/>
<path d="M469.603 415.521C479.325 415.521 487.206 411.278 487.206 406.043C487.206 400.808 479.325 396.564 469.603 396.564C459.881 396.564 452 400.808 452 406.043C452 411.278 459.881 415.521 469.603 415.521Z" fill="#1C1810"/>
<path d="M432 407L440 352L447 407H432Z" fill="#1C1810" stroke="#1C1810"/>
<path d="M495 407L503 352L510 407H495Z" fill="#1C1810" stroke="#1C1810"/>
<path d="M432 416L440 435L447 416H432Z" fill="#453F30"/>
<path d="M463 416L471 435L478 416H463Z" fill="#453F30"/>
<path d="M495 416L503 435L510 416H495Z" fill="#453F30"/>
<rect x="431" y="407" width="80" height="13" fill="#1C1810"/>
<g opacity="0.5">
<path d="M179 51V53C179 71.7777 163.778 87 145 87H103C84.2223 87 69 71.7777 69 53V51C69 32.2223 84.2223 17 103 17H145C163.778 17 179 32.2223 179 51Z" fill="#413633"/>
<path d="M748 -35V6C748 20.3594 736.359 32 722 32L682 32C667.641 32 656 20.3594 656 6V-35C656 -49.3594 667.641 -61 682 -61H722C736.359 -61 748 -49.3594 748 -35Z" fill="#3A3426"/>
<path d="M285 61V102C285 114.703 274.703 125 262 125H236C223.297 125 213 114.703 213 102V61C213 48.2975 223.297 38 236 38H262C274.703 38 285 48.2975 285 61Z" fill="#3A3426"/>
<path d="M806 -22V9C806 26.1208 792.121 40 775 40L736 40C718.879 40 705 26.1208 705 9V-22C705 -39.1208 718.879 -53 736 -53H775C792.121 -53 806 -39.1208 806 -22Z" fill="#2C271E"/>
<path d="M733 58V90C733 107.121 719.121 121 702 121H658C640.879 121 627 107.121 627 90V58C627 40.8792 640.879 27 658 27H702C719.121 27 733 40.8792 733 58Z" fill="#453F30"/>
<path d="M314 -18V11C314 23.7025 303.703 34 291 34L233 34C220.297 34 210 23.7025 210 11V-18C210 -30.7025 220.297 -41 233 -41H291C303.703 -41 314 -30.7025 314 -18Z" fill="#2C271E"/>
<path d="M56 -35L56 15C56 31.5685 42.5685 45 26 45C9.43146 45 -4 31.5685 -4 15L-4 -35C-4 -51.5685 9.43146 -65 26 -65C42.5685 -65 56 -51.5685 56 -35Z" fill="#322C20"/>
<path d="M772 -28V24C772 39.464 759.464 52 744 52H721C705.536 52 693 39.464 693 24V-28C693 -43.464 705.536 -56 721 -56H744C759.464 -56 772 -43.464 772 -28Z" fill="#322C20"/>
<path d="M766 35V93C766 106.807 754.807 118 741 118H684C670.193 118 659 106.807 659 93V35C659 21.1929 670.193 10 684 10H741C754.807 10 766 21.1929 766 35Z" fill="#2C271E"/>
<path d="M99 1V24C99 43.33 83.33 59 64 59L34 59C14.67 59 -1 43.33 -1 24V1C-1 -18.33 14.67 -34 34 -34H64C83.33 -34 99 -18.33 99 1Z" fill="#2C271E"/>
<path d="M338 5V45C338 65.4345 321.435 82 301 82H270C249.565 82 233 65.4345 233 45V5C233 -15.4345 249.565 -32 270 -32H301C321.435 -32 338 -15.4345 338 5Z" fill="#322C20"/>
<path d="M474 -40V-8C474 12.9868 456.987 30 436 30H420C399.013 30 382 12.9868 382 -8V-40C382 -60.9868 399.013 -78 420 -78H436C456.987 -78 474 -60.9868 474 -40Z" fill="#3A3426"/>
<path d="M420 34V65C420 82.1208 406.121 96 389 96H376C358.879 96 345 82.1208 345 65V34C345 16.8792 358.879 3 376 3H389C406.121 3 420 16.8792 420 34Z" fill="#322C20"/>
<path d="M93 70V99C93 111.15 78.043 121 59.5926 121H44.4074C25.957 121 11 111.15 11 99V70C11 57.8497 25.957 48 44.4074 48H59.5926C78.043 48 93 57.8497 93 70Z" fill="#3A3426"/>
<path d="M186.773 82H102.227C82.7718 82 67 97.8299 67 117.357V145.643C67 165.17 82.7718 181 102.227 181H186.773C206.228 181 222 165.17 222 145.643V117.357C222 97.8299 206.228 82 186.773 82Z" fill="#2C271E"/>
<path d="M608.773 14H524.227C504.772 14 489 29.8299 489 49.3571V77.6429C489 97.1701 504.772 113 524.227 113H608.773C628.228 113 644 97.1701 644 77.6429V49.3571C644 29.8299 628.228 14 608.773 14Z" fill="#3A3426"/>
<path d="M107.773 143H23.2273C3.77179 143 -12 158.83 -12 178.357V206.643C-12 226.17 3.77179 242 23.2273 242H107.773C127.228 242 143 226.17 143 206.643V178.357C143 158.83 127.228 143 107.773 143Z" fill="#3A3426"/>
<path d="M270.722 118H214.278C194.794 118 179 133.67 179 153V167C179 186.33 194.794 202 214.278 202H270.722C290.206 202 306 186.33 306 167V153C306 133.67 290.206 118 270.722 118Z" fill="#322C20"/>
<path opacity="0.8" d="M726.714 110H684.286C668.664 110 656 122.536 656 138V152C656 167.464 668.664 180 684.286 180H726.714C742.336 180 755 167.464 755 152V138C755 122.536 742.336 110 726.714 110Z" fill="#3A3426"/>
<path opacity="0.8" d="M540.714 108H498.286C482.664 108 470 120.536 470 136V150C470 165.464 482.664 178 498.286 178H540.714C556.336 178 569 165.464 569 150V136C569 120.536 556.336 108 540.714 108Z" fill="#3A3426"/>
<path opacity="0.8" d="M627.714 110H585.286C569.664 110 557 122.536 557 138V152C557 167.464 569.664 180 585.286 180H627.714C643.336 180 656 167.464 656 152V138C656 122.536 643.336 110 627.714 110Z" fill="#3A3426"/>
<path opacity="0.8" d="M441.714 108H399.286C383.664 108 371 120.536 371 136V150C371 165.464 383.664 178 399.286 178H441.714C457.336 178 470 165.464 470 150V136C470 120.536 457.336 108 441.714 108Z" fill="#3A3426"/>
<path d="M483.857 161H455.143C444.571 161 436 173.536 436 189V203C436 218.464 444.571 231 455.143 231H483.857C494.429 231 503 218.464 503 203V189C503 173.536 494.429 161 483.857 161Z" fill="#2C271E"/>
<path d="M654.857 161H626.143C615.571 161 607 173.536 607 189V203C607 218.464 615.571 231 626.143 231H654.857C665.429 231 674 218.464 674 203V189C674 173.536 665.429 161 654.857 161Z" fill="#2C271E"/>
</g>
</g>
<defs>
<clipPath id="clip0_339_247">
<rect width="800" height="800" fill="white"/>
</clipPath>
</defs>
</svg>
