<svg width="800" height="2800" viewBox="0 0 800 2800" fill="none" xmlns="http://www.w3.org/2000/svg">
<g clip-path="url(#clip0_343_85)">
<path d="M800 -31H0V2769H800V-31Z" fill="#00C8FF"/>
<path opacity="0.47" d="M800 0H0V1146H800V0Z" fill="url(#paint0_linear_343_85)"/>
<path d="M529 2551.33L449.65 2471.33L370.3 2530L290.95 2450L211.6 2514L132.25 2460.67L52.9 2524.67L0 2487.33V2738H529V2551.33Z" fill="#6DB4E6"/>
<path d="M899 2551.33L819.65 2471.33L740.3 2530L660.95 2450L581.6 2514L502.25 2460.67L422.9 2524.67L370 2487.33V2738H899V2551.33Z" fill="#6DB4E6"/>
<path d="M0 2560L120 2500L240 2544L360 2484L480 2532L600 2492L720 2540L800 2512V2700H0V2560Z" fill="#9FB3C2"/>
<path d="M437.896 2590.14L439.768 2591.98L441.841 2590.37L556.032 2501.66L579.18 2529.9L580.08 2531H598.802L677.934 2606.17L679.416 2607.58L681.269 2606.72L797 2552.71V2717H3V2661.14L100.535 2551.9L198.383 2614.53L200.596 2615.94L202.291 2613.94L320.203 2474.41L437.896 2590.14Z" fill="#7D8794" stroke="#D2F9FD" stroke-width="6"/>
<path d="M344.517 2504.11L321.371 2509.07L320.312 2509.29L319.641 2510.15L300.198 2534.89L287.698 2516.14L320.072 2474.77L344.517 2504.11Z" fill="#F2F6FB" stroke="#D2F9FD" stroke-width="6"/>
<path d="M140.22 2576.43L121.36 2582.72L105.241 2573.05L121.07 2549.3L140.22 2576.43Z" fill="#F2F6FB" stroke="#D2F9FD" stroke-width="6"/>
<path d="M124.021 2583.52L100.872 2607.06L81.6729 2573.15L100.056 2552.67L124.021 2583.52Z" fill="#F2F6FB" stroke="#D2F9FD" stroke-width="6"/>
<path d="M800 2688H0V2800H800V2688Z" fill="#5AA83A"/>
<path d="M800 2688H0V2698H800V2688Z" fill="#6CBF45"/>
<path d="M74 2720H60V2728H74V2720Z" fill="#3F8A28"/>
<path d="M224 2740H210V2748H224V2740Z" fill="#3F8A28"/>
<path d="M444 2724H430V2732H444V2724Z" fill="#3F8A28"/>
<path d="M614 2744H600V2752H614V2744Z" fill="#3F8A28"/>
<path d="M734 2726H720V2734H734V2726Z" fill="#3F8A28"/>
<path d="M37.11 2081.81C39.803 2079.71 42.9549 2078.66 46.0143 2078.62C47.1256 2077.04 48.4802 2075.6 50.0743 2074.36C58.8678 2067.5 71.6641 2069.13 79.0467 2077.9C79.0949 2077.86 79.1429 2077.82 79.1918 2077.78C86.187 2072.33 96.4456 2073.79 102.104 2081.04C107.763 2088.3 106.679 2098.6 99.6838 2104.06C93.9766 2108.51 86.0981 2108.36 80.317 2104.21C79.2451 2105.68 77.9598 2107.02 76.4619 2108.19C67.7216 2115 55.0248 2113.44 47.6221 2104.8C42.5404 2106.19 37.1208 2104.73 33.9202 2100.63C29.5459 2095.02 30.9741 2086.6 37.11 2081.81Z" fill="#F7FEF5"/>
<path d="M37.11 1281.81C39.803 1279.71 42.9549 1278.66 46.0143 1278.62C47.1256 1277.04 48.4802 1275.6 50.0743 1274.36C58.8678 1267.5 71.6641 1269.13 79.0467 1277.9C79.0949 1277.86 79.1429 1277.82 79.1918 1277.78C86.187 1272.33 96.4456 1273.78 102.104 1281.04C107.763 1288.29 106.679 1298.6 99.6838 1304.06C93.9766 1308.51 86.0981 1308.36 80.317 1304.21C79.2451 1305.68 77.9598 1307.02 76.4619 1308.19C67.7216 1315 55.0248 1313.44 47.6221 1304.8C42.5404 1306.19 37.1208 1304.73 33.9202 1300.63C29.5459 1295.02 30.9741 1286.6 37.11 1281.81Z" fill="#F7FEF5"/>
<path d="M746.907 2395.05C745.121 2396.44 743.031 2397.14 741.002 2397.17C740.265 2398.21 739.366 2399.17 738.308 2399.99C732.475 2404.54 723.986 2403.46 719.09 2397.64C719.058 2397.67 719.026 2397.7 718.994 2397.72C714.354 2401.34 707.55 2400.37 703.797 2395.56C700.044 2390.75 700.762 2383.91 705.401 2380.3C709.187 2377.34 714.413 2377.44 718.248 2380.19C718.959 2379.22 719.812 2378.33 720.806 2377.55C726.604 2373.03 735.026 2374.07 739.936 2379.8C743.306 2378.88 746.9 2379.84 749.023 2382.57C751.924 2386.29 750.977 2391.88 746.907 2395.05Z" fill="#F7FEF5"/>
<path d="M177.907 1181.05C176.121 1182.44 174.031 1183.14 172.002 1183.17C171.265 1184.21 170.366 1185.17 169.308 1185.99C163.475 1190.54 154.986 1189.46 150.09 1183.64C150.058 1183.67 150.026 1183.7 149.994 1183.72C145.354 1187.34 138.55 1186.37 134.797 1181.56C131.044 1176.75 131.762 1169.91 136.401 1166.3C140.187 1163.34 145.413 1163.44 149.248 1166.19C149.959 1165.22 150.812 1164.33 151.806 1163.55C157.604 1159.03 166.026 1160.07 170.936 1165.8C174.306 1164.88 177.9 1165.84 180.023 1168.57C182.924 1172.29 181.977 1177.88 177.907 1181.05Z" fill="#F7FEF5"/>
<path d="M621.907 1726.05C620.121 1727.44 618.031 1728.14 616.002 1728.17C615.265 1729.21 614.366 1730.17 613.308 1730.99C607.475 1735.54 598.986 1734.46 594.09 1728.64C594.058 1728.67 594.026 1728.7 593.994 1728.72C589.354 1732.34 582.55 1731.37 578.797 1726.56C575.044 1721.75 575.762 1714.91 580.401 1711.3C584.187 1708.34 589.413 1708.44 593.248 1711.19C593.959 1710.22 594.812 1709.33 595.806 1708.55C601.604 1704.03 610.026 1705.07 614.936 1710.8C618.306 1709.88 621.9 1710.84 624.023 1713.57C626.924 1717.29 625.977 1722.88 621.907 1726.05Z" fill="#F7FEF5"/>
<path d="M279.578 2269.98C289.813 2262 304.68 2263.83 313.348 2273.94C319.298 2272.31 325.643 2274.02 329.391 2278.82C334.513 2285.39 332.841 2295.26 325.657 2300.86C322.504 2303.32 318.814 2304.55 315.232 2304.6C313.93 2306.45 312.343 2308.14 310.476 2309.59C300.725 2317.2 286.774 2315.89 277.981 2307.01C277.128 2307.93 276.191 2308.79 275.17 2309.59C264.873 2317.62 249.89 2315.72 241.245 2305.44C241.189 2305.49 241.132 2305.53 241.075 2305.58C232.884 2311.97 220.872 2310.26 214.246 2301.76C207.621 2293.27 208.89 2281.2 217.08 2274.81C223.763 2269.6 232.989 2269.78 239.758 2274.64C241.013 2272.92 242.52 2271.35 244.274 2269.98C254.025 2262.37 267.979 2263.68 276.773 2272.56C277.624 2271.64 278.559 2270.77 279.578 2269.98Z" fill="#F7FEF5"/>
<g opacity="0.9">
<path d="M746.793 2659.29H749.416C749.706 2659.29 749.94 2659.64 749.94 2660.08V2695.66C749.94 2696.1 749.706 2696.45 749.416 2696.45H746.793C746.503 2696.45 746.268 2696.1 746.268 2695.66V2660.08C746.268 2659.64 746.503 2659.29 746.793 2659.29Z" fill="#6B4A1E"/>
<path opacity="0.45" d="M747.37 2661.67H747.975C748.226 2661.67 748.429 2661.89 748.429 2662.16V2693.58C748.429 2693.85 748.226 2694.07 747.975 2694.07H747.37C747.12 2694.07 746.917 2693.85 746.917 2693.58V2662.16C746.917 2661.89 747.12 2661.67 747.37 2661.67Z" fill="#7D5A2A"/>
</g>
<g opacity="0.9">
<path d="M531.793 2676.29H534.416C534.706 2676.29 534.94 2676.64 534.94 2677.08V2712.66C534.94 2713.1 534.706 2713.45 534.416 2713.45H531.793C531.503 2713.45 531.268 2713.1 531.268 2712.66V2677.08C531.268 2676.64 531.503 2676.29 531.793 2676.29Z" fill="#6B4A1E"/>
<path opacity="0.45" d="M532.37 2678.67H532.975C533.226 2678.67 533.429 2678.89 533.429 2679.16V2710.58C533.429 2710.85 533.226 2711.07 532.975 2711.07H532.37C532.12 2711.07 531.917 2710.85 531.917 2710.58V2679.16C531.917 2678.89 532.12 2678.67 532.37 2678.67Z" fill="#7D5A2A"/>
</g>
<g opacity="0.9">
<path d="M320.793 2664.29H323.416C323.706 2664.29 323.94 2664.64 323.94 2665.08V2700.66C323.94 2701.1 323.706 2701.45 323.416 2701.45H320.793C320.503 2701.45 320.268 2701.1 320.268 2700.66V2665.08C320.268 2664.64 320.503 2664.29 320.793 2664.29Z" fill="#6B4A1E"/>
<path opacity="0.45" d="M321.37 2666.67H321.975C322.226 2666.67 322.429 2666.89 322.429 2667.16V2698.58C322.429 2698.85 322.226 2699.07 321.975 2699.07H321.37C321.12 2699.07 320.917 2698.85 320.917 2698.58V2667.16C320.917 2666.89 321.12 2666.67 321.37 2666.67Z" fill="#7D5A2A"/>
</g>
<g opacity="0.9">
<path d="M69.2666 2666.13H75.4718C76.1573 2666.13 76.7129 2666.96 76.7129 2667.98V2752.18C76.7129 2753.2 76.1573 2754.03 75.4718 2754.03H69.2666C68.5812 2754.03 68.0255 2753.2 68.0255 2752.18V2667.98C68.0255 2666.96 68.5812 2666.13 69.2666 2666.13Z" fill="#6B4A1E"/>
<path opacity="0.45" d="M70.6317 2671.75H72.0626C72.6553 2671.75 73.1357 2672.27 73.1357 2672.9V2747.26C73.1357 2747.89 72.6553 2748.41 72.0626 2748.41H70.6317C70.0391 2748.41 69.5586 2747.89 69.5586 2747.26V2672.9C69.5586 2672.27 70.0391 2671.75 70.6317 2671.75Z" fill="#7D5A2A"/>
</g>
<g opacity="0.9">
<path d="M311.231 2647.03H306.973C306.502 2647.03 306.121 2647.6 306.121 2648.3V2706.07C306.121 2706.77 306.502 2707.34 306.973 2707.34H311.231C311.701 2707.34 312.082 2706.77 312.082 2706.07V2648.3C312.082 2647.6 311.701 2647.03 311.231 2647.03Z" fill="#6B4A1E"/>
<path opacity="0.45" d="M310.293 2650.89H309.312C308.905 2650.89 308.575 2651.24 308.575 2651.68V2702.7C308.575 2703.13 308.905 2703.49 309.312 2703.49H310.293C310.7 2703.49 311.03 2703.13 311.03 2702.7V2651.68C311.03 2651.24 310.7 2650.89 310.293 2650.89Z" fill="#7D5A2A"/>
</g>
<g opacity="0.9">
<path d="M365.231 2657.03H360.973C360.502 2657.03 360.121 2657.6 360.121 2658.3V2716.07C360.121 2716.77 360.502 2717.34 360.973 2717.34H365.231C365.701 2717.34 366.082 2716.77 366.082 2716.07V2658.3C366.082 2657.6 365.701 2657.03 365.231 2657.03Z" fill="#6B4A1E"/>
<path opacity="0.45" d="M364.293 2660.89H363.312C362.905 2660.89 362.575 2661.24 362.575 2661.68V2712.7C362.575 2713.13 362.905 2713.49 363.312 2713.49H364.293C364.7 2713.49 365.03 2713.13 365.03 2712.7V2661.68C365.03 2661.24 364.7 2660.89 364.293 2660.89Z" fill="#7D5A2A"/>
</g>
<g opacity="0.9">
<path d="M519.911 2656.22H517.433C517.159 2656.22 516.938 2656.55 516.938 2656.96V2690.59C516.938 2691 517.159 2691.33 517.433 2691.33H519.911C520.185 2691.33 520.407 2691 520.407 2690.59V2656.96C520.407 2656.55 520.185 2656.22 519.911 2656.22Z" fill="#6B4A1E"/>
<path opacity="0.45" d="M519.366 2658.47H518.795C518.558 2658.47 518.366 2658.67 518.366 2658.93V2688.62C518.366 2688.88 518.558 2689.08 518.795 2689.08H519.366C519.603 2689.08 519.795 2688.88 519.795 2688.62V2658.93C519.795 2658.67 519.603 2658.47 519.366 2658.47Z" fill="#7D5A2A"/>
</g>
<g opacity="0.9">
<path d="M569.911 2656.22H567.433C567.159 2656.22 566.938 2656.55 566.938 2656.96V2690.59C566.938 2691 567.159 2691.33 567.433 2691.33H569.911C570.185 2691.33 570.407 2691 570.407 2690.59V2656.96C570.407 2656.55 570.185 2656.22 569.911 2656.22Z" fill="#6B4A1E"/>
<path opacity="0.45" d="M569.366 2658.47H568.795C568.558 2658.47 568.366 2658.67 568.366 2658.93V2688.62C568.366 2688.88 568.558 2689.08 568.795 2689.08H569.366C569.603 2689.08 569.795 2688.88 569.795 2688.62V2658.93C569.795 2658.67 569.603 2658.47 569.366 2658.47Z" fill="#7D5A2A"/>
</g>
<g opacity="0.9">
<path d="M619.911 2656.22H617.433C617.159 2656.22 616.938 2656.55 616.938 2656.96V2690.59C616.938 2691 617.159 2691.33 617.433 2691.33H619.911C620.185 2691.33 620.407 2691 620.407 2690.59V2656.96C620.407 2656.55 620.185 2656.22 619.911 2656.22Z" fill="#6B4A1E"/>
<path opacity="0.45" d="M619.366 2658.47H618.795C618.558 2658.47 618.366 2658.67 618.366 2658.93V2688.62C618.366 2688.88 618.558 2689.08 618.795 2689.08H619.366C619.603 2689.08 619.795 2688.88 619.795 2688.62V2658.93C619.795 2658.67 619.603 2658.47 619.366 2658.47Z" fill="#7D5A2A"/>
</g>
<g opacity="0.9">
<path d="M23.9115 2656.22H21.4332C21.1594 2656.22 20.9375 2656.55 20.9375 2656.96V2690.59C20.9375 2691 21.1594 2691.33 21.4332 2691.33H23.9115C24.1852 2691.33 24.4071 2691 24.4071 2690.59V2656.96C24.4071 2656.55 24.1852 2656.22 23.9115 2656.22Z" fill="#6B4A1E"/>
<path opacity="0.45" d="M23.3663 2658.47H22.7948C22.5581 2658.47 22.3662 2658.67 22.3662 2658.93V2688.62C22.3662 2688.88 22.5581 2689.08 22.7948 2689.08H23.3663C23.603 2689.08 23.7949 2688.88 23.7949 2688.62V2658.93C23.7949 2658.67 23.603 2658.47 23.3663 2658.47Z" fill="#7D5A2A"/>
</g>
<g opacity="0.9">
<path d="M549.182 2640.25H547.784C547.629 2640.25 547.504 2640.44 547.504 2640.67V2659.64C547.504 2659.87 547.629 2660.06 547.784 2660.06H549.182C549.336 2660.06 549.461 2659.87 549.461 2659.64V2640.67C549.461 2640.44 549.336 2640.25 549.182 2640.25Z" fill="#6B4A1E"/>
<path opacity="0.45" d="M548.874 2641.52H548.551C548.418 2641.52 548.31 2641.64 548.31 2641.78V2658.53C548.31 2658.67 548.418 2658.79 548.551 2658.79H548.874C549.007 2658.79 549.115 2658.67 549.115 2658.53V2641.78C549.115 2641.64 549.007 2641.52 548.874 2641.52Z" fill="#7D5A2A"/>
</g>
<g opacity="0.9">
<path d="M697.182 2664.25H695.784C695.629 2664.25 695.504 2664.44 695.504 2664.67V2683.64C695.504 2683.87 695.629 2684.06 695.784 2684.06H697.182C697.336 2684.06 697.461 2683.87 697.461 2683.64V2664.67C697.461 2664.44 697.336 2664.25 697.182 2664.25Z" fill="#6B4A1E"/>
<path opacity="0.45" d="M696.874 2665.52H696.551C696.418 2665.52 696.31 2665.64 696.31 2665.78V2682.53C696.31 2682.67 696.418 2682.79 696.551 2682.79H696.874C697.007 2682.79 697.115 2682.67 697.115 2682.53V2665.78C697.115 2665.64 697.007 2665.52 696.874 2665.52Z" fill="#7D5A2A"/>
</g>
<g opacity="0.9">
<path d="M718.818 2670.25H720.216C720.371 2670.25 720.496 2670.44 720.496 2670.67V2689.64C720.496 2689.87 720.371 2690.06 720.216 2690.06H718.818C718.664 2690.06 718.539 2689.87 718.539 2689.64V2670.67C718.539 2670.44 718.664 2670.25 718.818 2670.25Z" fill="#6B4A1E"/>
<path opacity="0.45" d="M719.126 2671.52H719.449C719.582 2671.52 719.69 2671.64 719.69 2671.78V2688.53C719.69 2688.67 719.582 2688.79 719.449 2688.79H719.126C718.993 2688.79 718.885 2688.67 718.885 2688.53V2671.78C718.885 2671.64 718.993 2671.52 719.126 2671.52Z" fill="#7D5A2A"/>
</g>
<g opacity="0.9">
<path d="M763.975 2678.55H765.826C766.031 2678.55 766.196 2678.73 766.196 2678.96V2697.8C766.196 2698.03 766.031 2698.22 765.826 2698.22H763.975C763.77 2698.22 763.604 2698.03 763.604 2697.8V2678.96C763.604 2678.73 763.77 2678.55 763.975 2678.55Z" fill="#6B4A1E"/>
<path opacity="0.45" d="M764.382 2679.8H764.809C764.986 2679.8 765.129 2679.92 765.129 2680.06V2696.7C765.129 2696.84 764.986 2696.96 764.809 2696.96H764.382C764.205 2696.96 764.062 2696.84 764.062 2696.7V2680.06C764.062 2679.92 764.205 2679.8 764.382 2679.8Z" fill="#7D5A2A"/>
</g>
<g opacity="0.9">
<path d="M548.975 2695.55H550.826C551.031 2695.55 551.196 2695.73 551.196 2695.96V2714.8C551.196 2715.03 551.031 2715.22 550.826 2715.22H548.975C548.77 2715.22 548.604 2715.03 548.604 2714.8V2695.96C548.604 2695.73 548.77 2695.55 548.975 2695.55Z" fill="#6B4A1E"/>
<path opacity="0.45" d="M549.382 2696.8H549.809C549.986 2696.8 550.129 2696.92 550.129 2697.06V2713.7C550.129 2713.84 549.986 2713.96 549.809 2713.96H549.382C549.205 2713.96 549.062 2713.84 549.062 2713.7V2697.06C549.062 2696.92 549.205 2696.8 549.382 2696.8Z" fill="#7D5A2A"/>
</g>
<g opacity="0.9">
<path d="M337.975 2683.55H339.826C340.031 2683.55 340.196 2683.73 340.196 2683.96V2702.8C340.196 2703.03 340.031 2703.22 339.826 2703.22H337.975C337.77 2703.22 337.604 2703.03 337.604 2702.8V2683.96C337.604 2683.73 337.77 2683.55 337.975 2683.55Z" fill="#6B4A1E"/>
<path opacity="0.45" d="M338.382 2684.8H338.809C338.986 2684.8 339.129 2684.92 339.129 2685.06V2701.7C339.129 2701.84 338.986 2701.96 338.809 2701.96H338.382C338.205 2701.96 338.062 2701.84 338.062 2701.7V2685.06C338.062 2684.92 338.205 2684.8 338.382 2684.8Z" fill="#7D5A2A"/>
</g>
<g opacity="0.9">
<path d="M109.916 2711.68H114.296C114.78 2711.68 115.172 2712.12 115.172 2712.66V2757.24C115.172 2757.78 114.78 2758.22 114.296 2758.22H109.916C109.432 2758.22 109.04 2757.78 109.04 2757.24V2712.66C109.04 2712.12 109.432 2711.68 109.916 2711.68Z" fill="#6B4A1E"/>
<path opacity="0.45" d="M110.879 2714.66H111.889C112.307 2714.66 112.646 2714.93 112.646 2715.27V2754.63C112.646 2754.97 112.307 2755.24 111.889 2755.24H110.879C110.461 2755.24 110.121 2754.97 110.121 2754.63V2715.27C110.121 2714.93 110.461 2714.66 110.879 2714.66Z" fill="#7D5A2A"/>
</g>
<g opacity="0.9">
<path d="M283.337 2678.28H280.332C280 2678.28 279.73 2678.58 279.73 2678.96V2709.54C279.73 2709.91 280 2710.22 280.332 2710.22H283.337C283.669 2710.22 283.938 2709.91 283.938 2709.54V2678.96C283.938 2678.58 283.669 2678.28 283.337 2678.28Z" fill="#6B4A1E"/>
<path opacity="0.45" d="M282.677 2680.33H281.984C281.697 2680.33 281.464 2680.51 281.464 2680.74V2707.76C281.464 2707.99 281.697 2708.17 281.984 2708.17H282.677C282.964 2708.17 283.197 2707.99 283.197 2707.76V2680.74C283.197 2680.51 282.964 2680.33 282.677 2680.33Z" fill="#7D5A2A"/>
</g>
<g opacity="0.9">
<path d="M337.337 2688.28H334.332C334 2688.28 333.73 2688.58 333.73 2688.96V2719.54C333.73 2719.91 334 2720.22 334.332 2720.22H337.337C337.669 2720.22 337.938 2719.91 337.938 2719.54V2688.96C337.938 2688.58 337.669 2688.28 337.337 2688.28Z" fill="#6B4A1E"/>
<path opacity="0.45" d="M336.677 2690.33H335.984C335.697 2690.33 335.464 2690.51 335.464 2690.74V2717.76C335.464 2717.99 335.697 2718.17 335.984 2718.17H336.677C336.964 2718.17 337.197 2717.99 337.197 2717.76V2690.74C337.197 2690.51 336.964 2690.33 336.677 2690.33Z" fill="#7D5A2A"/>
</g>
<g opacity="0.9">
<path d="M503.677 2674.42H501.928C501.735 2674.42 501.578 2674.59 501.578 2674.81V2692.61C501.578 2692.82 501.735 2693 501.928 2693H503.677C503.871 2693 504.027 2692.82 504.027 2692.61V2674.81C504.027 2674.59 503.871 2674.42 503.677 2674.42Z" fill="#6B4A1E"/>
<path opacity="0.45" d="M503.293 2675.6H502.889C502.722 2675.6 502.587 2675.71 502.587 2675.85V2691.57C502.587 2691.7 502.722 2691.81 502.889 2691.81H503.293C503.46 2691.81 503.595 2691.7 503.595 2691.57V2675.85C503.595 2675.71 503.46 2675.6 503.293 2675.6Z" fill="#7D5A2A"/>
</g>
<g opacity="0.9">
<path d="M553.677 2674.42H551.928C551.735 2674.42 551.578 2674.59 551.578 2674.81V2692.61C551.578 2692.82 551.735 2693 551.928 2693H553.677C553.871 2693 554.027 2692.82 554.027 2692.61V2674.81C554.027 2674.59 553.871 2674.42 553.677 2674.42Z" fill="#6B4A1E"/>
<path opacity="0.45" d="M553.293 2675.6H552.889C552.722 2675.6 552.587 2675.71 552.587 2675.85V2691.57C552.587 2691.7 552.722 2691.81 552.889 2691.81H553.293C553.46 2691.81 553.595 2691.7 553.595 2691.57V2675.85C553.595 2675.71 553.46 2675.6 553.293 2675.6Z" fill="#7D5A2A"/>
</g>
<g opacity="0.9">
<path d="M603.677 2674.42H601.928C601.735 2674.42 601.578 2674.59 601.578 2674.81V2692.61C601.578 2692.82 601.735 2693 601.928 2693H603.677C603.871 2693 604.027 2692.82 604.027 2692.61V2674.81C604.027 2674.59 603.871 2674.42 603.677 2674.42Z" fill="#6B4A1E"/>
<path opacity="0.45" d="M603.293 2675.6H602.889C602.722 2675.6 602.587 2675.71 602.587 2675.85V2691.57C602.587 2691.7 602.722 2691.81 602.889 2691.81H603.293C603.46 2691.81 603.595 2691.7 603.595 2691.57V2675.85C603.595 2675.71 603.46 2675.6 603.293 2675.6Z" fill="#7D5A2A"/>
</g>
<g opacity="0.9">
<path d="M7.6774 2674.42H5.928C5.73477 2674.42 5.57812 2674.59 5.57812 2674.81V2692.61C5.57812 2692.82 5.73477 2693 5.928 2693H7.6774C7.87063 2693 8.02728 2692.82 8.02728 2692.61V2674.81C8.02728 2674.59 7.87063 2674.42 7.6774 2674.42Z" fill="#6B4A1E"/>
<path opacity="0.45" d="M7.29285 2675.6H6.88946C6.72237 2675.6 6.58691 2675.71 6.58691 2675.85V2691.57C6.58691 2691.7 6.72237 2691.81 6.88946 2691.81H7.29285C7.45994 2691.81 7.59539 2691.7 7.59539 2691.57V2675.85C7.59539 2675.71 7.45994 2675.6 7.29285 2675.6Z" fill="#7D5A2A"/>
</g>
<g opacity="0.9">
<path d="M540.023 2650.52H539.036C538.927 2650.52 538.839 2650.61 538.839 2650.74V2660.78C538.839 2660.9 538.927 2661 539.036 2661H540.023C540.132 2661 540.22 2660.9 540.22 2660.78V2650.74C540.22 2650.61 540.132 2650.52 540.023 2650.52Z" fill="#6B4A1E"/>
<path opacity="0.45" d="M539.806 2651.19H539.579C539.485 2651.19 539.408 2651.25 539.408 2651.32V2660.19C539.408 2660.27 539.485 2660.33 539.579 2660.33H539.806C539.901 2660.33 539.977 2660.27 539.977 2660.19V2651.32C539.977 2651.25 539.901 2651.19 539.806 2651.19Z" fill="#7D5A2A"/>
</g>
<g opacity="0.9">
<path d="M688.023 2674.52H687.036C686.927 2674.52 686.839 2674.61 686.839 2674.74V2684.78C686.839 2684.9 686.927 2685 687.036 2685H688.023C688.132 2685 688.22 2684.9 688.22 2684.78V2674.74C688.22 2674.61 688.132 2674.52 688.023 2674.52Z" fill="#6B4A1E"/>
<path opacity="0.45" d="M687.806 2675.19H687.579C687.485 2675.19 687.408 2675.25 687.408 2675.32V2684.19C687.408 2684.27 687.485 2684.33 687.579 2684.33H687.806C687.901 2684.33 687.977 2684.27 687.977 2684.19V2675.32C687.977 2675.25 687.901 2675.19 687.806 2675.19Z" fill="#7D5A2A"/>
</g>
<g opacity="0.9">
<path d="M727.977 2680.52H728.964C729.073 2680.52 729.161 2680.61 729.161 2680.74V2690.78C729.161 2690.9 729.073 2691 728.964 2691H727.977C727.868 2691 727.78 2690.9 727.78 2690.78V2680.74C727.78 2680.61 727.868 2680.52 727.977 2680.52Z" fill="#6B4A1E"/>
<path opacity="0.45" d="M728.194 2681.19H728.421C728.515 2681.19 728.592 2681.25 728.592 2681.32V2690.19C728.592 2690.27 728.515 2690.33 728.421 2690.33H728.194C728.099 2690.33 728.023 2690.27 728.023 2690.19V2681.32C728.023 2681.25 728.099 2681.19 728.194 2681.19Z" fill="#7D5A2A"/>
</g>
<path d="M759 2696C756.791 2696 755 2695.1 755 2694C755 2692.9 756.791 2692 759 2692C761.209 2692 763 2692.9 763 2694C763 2695.1 761.209 2696 759 2696Z" fill="#1E7010"/>
<path d="M544 2713C541.791 2713 540 2712.1 540 2711C540 2709.9 541.791 2709 544 2709C546.209 2709 548 2709.9 548 2711C548 2712.1 546.209 2713 544 2713Z" fill="#1E7010"/>
<path d="M333 2701C330.791 2701 329 2700.1 329 2699C329 2697.9 330.791 2697 333 2697C335.209 2697 337 2697.9 337 2699C337 2700.1 335.209 2701 333 2701Z" fill="#1E7010"/>
<path d="M98.5 2753C93.2533 2753 89 2750.99 89 2748.5C89 2746.01 93.2533 2744 98.5 2744C103.747 2744 108 2746.01 108 2748.5C108 2750.99 103.747 2753 98.5 2753Z" fill="#1E7010"/>
<path d="M291.5 2707C295.09 2707 298 2705.43 298 2703.5C298 2701.57 295.09 2700 291.5 2700C287.91 2700 285 2701.57 285 2703.5C285 2705.43 287.91 2707 291.5 2707Z" fill="#1E7010"/>
<path d="M345.5 2717C349.09 2717 352 2715.43 352 2713.5C352 2711.57 349.09 2710 345.5 2710C341.91 2710 339 2711.57 339 2713.5C339 2715.43 341.91 2717 345.5 2717Z" fill="#1E7010"/>
<path d="M508.5 2691C510.433 2691 512 2690.1 512 2689C512 2687.9 510.433 2687 508.5 2687C506.567 2687 505 2687.9 505 2689C505 2690.1 506.567 2691 508.5 2691Z" fill="#1E7010"/>
<path d="M558.5 2691C560.433 2691 562 2690.1 562 2689C562 2687.9 560.433 2687 558.5 2687C556.567 2687 555 2687.9 555 2689C555 2690.1 556.567 2691 558.5 2691Z" fill="#1E7010"/>
<path d="M608.5 2691C610.433 2691 612 2690.1 612 2689C612 2687.9 610.433 2687 608.5 2687C606.567 2687 605 2687.9 605 2689C605 2690.1 606.567 2691 608.5 2691Z" fill="#1E7010"/>
<path d="M12.5 2691C14.433 2691 16 2690.1 16 2689C16 2687.9 14.433 2687 12.5 2687C10.567 2687 9 2687.9 9 2689C9 2690.1 10.567 2691 12.5 2691Z" fill="#1E7010"/>
<path d="M543 2660C544.105 2660 545 2659.55 545 2659C545 2658.45 544.105 2658 543 2658C541.895 2658 541 2658.45 541 2659C541 2659.55 541.895 2660 543 2660Z" fill="#1E7010"/>
<path d="M691 2684C692.105 2684 693 2683.55 693 2683C693 2682.45 692.105 2682 691 2682C689.895 2682 689 2682.45 689 2683C689 2683.55 689.895 2684 691 2684Z" fill="#1E7010"/>
<path d="M725 2690C723.895 2690 723 2689.55 723 2689C723 2688.45 723.895 2688 725 2688C726.105 2688 727 2688.45 727 2689C727 2689.55 726.105 2690 725 2690Z" fill="#1E7010"/>
<path d="M740 2695C738.343 2695 737 2694.33 737 2693.5C737 2692.67 738.343 2692 740 2692C741.657 2692 743 2692.67 743 2693.5C743 2694.33 741.657 2695 740 2695Z" fill="#1E7010"/>
<path d="M525 2712C523.343 2712 522 2711.33 522 2710.5C522 2709.67 523.343 2709 525 2709C526.657 2709 528 2709.67 528 2710.5C528 2711.33 526.657 2712 525 2712Z" fill="#1E7010"/>
<path d="M314 2700C312.343 2700 311 2699.33 311 2698.5C311 2697.67 312.343 2697 314 2697C315.657 2697 317 2697.67 317 2698.5C317 2699.33 315.657 2700 314 2700Z" fill="#1E7010"/>
<path d="M53 2751C49.134 2751 46 2749.43 46 2747.5C46 2745.57 49.134 2744 53 2744C56.866 2744 60 2745.57 60 2747.5C60 2749.43 56.866 2751 53 2751Z" fill="#1E7010"/>
<path d="M322.5 2705C324.985 2705 327 2703.88 327 2702.5C327 2701.12 324.985 2700 322.5 2700C320.015 2700 318 2701.12 318 2702.5C318 2703.88 320.015 2705 322.5 2705Z" fill="#1E7010"/>
<path d="M376.5 2715C378.985 2715 381 2713.88 381 2712.5C381 2711.12 378.985 2710 376.5 2710C374.015 2710 372 2711.12 372 2712.5C372 2713.88 374.015 2715 376.5 2715Z" fill="#1E7010"/>
<path d="M526.5 2690C527.881 2690 529 2689.33 529 2688.5C529 2687.67 527.881 2687 526.5 2687C525.119 2687 524 2687.67 524 2688.5C524 2689.33 525.119 2690 526.5 2690Z" fill="#1E7010"/>
<path d="M576.5 2690C577.881 2690 579 2689.33 579 2688.5C579 2687.67 577.881 2687 576.5 2687C575.119 2687 574 2687.67 574 2688.5C574 2689.33 575.119 2690 576.5 2690Z" fill="#1E7010"/>
<path d="M626.5 2690C627.881 2690 629 2689.33 629 2688.5C629 2687.67 627.881 2687 626.5 2687C625.119 2687 624 2687.67 624 2688.5C624 2689.33 625.119 2690 626.5 2690Z" fill="#1E7010"/>
<path d="M30.5 2690C31.8807 2690 33 2689.33 33 2688.5C33 2687.67 31.8807 2687 30.5 2687C29.1193 2687 28 2687.67 28 2688.5C28 2689.33 29.1193 2690 30.5 2690Z" fill="#1E7010"/>
<path d="M552.5 2659C553.328 2659 554 2658.78 554 2658.5C554 2658.22 553.328 2658 552.5 2658C551.672 2658 551 2658.22 551 2658.5C551 2658.78 551.672 2659 552.5 2659Z" fill="#1E7010"/>
<path d="M700.5 2683C701.328 2683 702 2682.78 702 2682.5C702 2682.22 701.328 2682 700.5 2682C699.672 2682 699 2682.22 699 2682.5C699 2682.78 699.672 2683 700.5 2683Z" fill="#1E7010"/>
<path d="M715.5 2689C714.672 2689 714 2688.78 714 2688.5C714 2688.22 714.672 2688 715.5 2688C716.328 2688 717 2688.22 717 2688.5C717 2688.78 716.328 2689 715.5 2689Z" fill="#1E7010"/>
<path d="M754.5 2666C749.253 2666 745 2661.97 745 2657C745 2652.03 749.253 2648 754.5 2648C759.747 2648 764 2652.03 764 2657C764 2661.97 759.747 2666 754.5 2666Z" fill="#2E8E10"/>
<path d="M539.5 2683C534.253 2683 530 2678.97 530 2674C530 2669.03 534.253 2665 539.5 2665C544.747 2665 549 2669.03 549 2674C549 2678.97 544.747 2683 539.5 2683Z" fill="#2E8E10"/>
<path d="M328.5 2671C323.253 2671 319 2666.97 319 2662C319 2657.03 323.253 2653 328.5 2653C333.747 2653 338 2657.03 338 2662C338 2666.97 333.747 2671 328.5 2671Z" fill="#2E8E10"/>
<path d="M87.5 2682C75.0736 2682 65 2672.37 65 2660.5C65 2648.63 75.0736 2639 87.5 2639C99.9264 2639 110 2648.63 110 2660.5C110 2672.37 99.9264 2682 87.5 2682Z" fill="#2E8E10"/>
<path d="M298.5 2658C307.06 2658 314 2651.28 314 2643C314 2634.72 307.06 2628 298.5 2628C289.94 2628 283 2634.72 283 2643C283 2651.28 289.94 2658 298.5 2658Z" fill="#2E8E10"/>
<path d="M352.5 2668C361.06 2668 368 2661.28 368 2653C368 2644.72 361.06 2638 352.5 2638C343.94 2638 337 2644.72 337 2653C337 2661.28 343.94 2668 352.5 2668Z" fill="#2E8E10"/>
<path d="M512.5 2663C517.747 2663 522 2658.97 522 2654C522 2649.03 517.747 2645 512.5 2645C507.253 2645 503 2649.03 503 2654C503 2658.97 507.253 2663 512.5 2663Z" fill="#2E8E10"/>
<path d="M562.5 2663C567.747 2663 572 2658.97 572 2654C572 2649.03 567.747 2645 562.5 2645C557.253 2645 553 2649.03 553 2654C553 2658.97 557.253 2663 562.5 2663Z" fill="#2E8E10"/>
<path d="M612.5 2663C617.747 2663 622 2658.97 622 2654C622 2649.03 617.747 2645 612.5 2645C607.253 2645 603 2649.03 603 2654C603 2658.97 607.253 2663 612.5 2663Z" fill="#2E8E10"/>
<path d="M16.5 2663C21.7467 2663 26 2658.97 26 2654C26 2649.03 21.7467 2645 16.5 2645C11.2533 2645 7 2649.03 7 2654C7 2658.97 11.2533 2663 16.5 2663Z" fill="#2E8E10"/>
<path d="M545 2644C547.761 2644 550 2641.76 550 2639C550 2636.24 547.761 2634 545 2634C542.239 2634 540 2636.24 540 2639C540 2641.76 542.239 2644 545 2644Z" fill="#2E8E10"/>
<path d="M693 2668C695.761 2668 698 2665.76 698 2663C698 2660.24 695.761 2658 693 2658C690.239 2658 688 2660.24 688 2663C688 2665.76 690.239 2668 693 2668Z" fill="#2E8E10"/>
<path d="M723 2674C720.239 2674 718 2671.76 718 2669C718 2666.24 720.239 2664 723 2664C725.761 2664 728 2666.24 728 2669C728 2671.76 725.761 2674 723 2674Z" fill="#2E8E10"/>
<path d="M768 2685C764.134 2685 761 2682.54 761 2679.5C761 2676.46 764.134 2674 768 2674C771.866 2674 775 2676.46 775 2679.5C775 2682.54 771.866 2685 768 2685Z" fill="#2E8E10"/>
<path d="M553 2702C549.134 2702 546 2699.54 546 2696.5C546 2693.46 549.134 2691 553 2691C556.866 2691 560 2693.46 560 2696.5C560 2699.54 556.866 2702 553 2702Z" fill="#2E8E10"/>
<path d="M342 2690C338.134 2690 335 2687.54 335 2684.5C335 2681.46 338.134 2679 342 2679C345.866 2679 349 2681.46 349 2684.5C349 2687.54 345.866 2690 342 2690Z" fill="#2E8E10"/>
<path d="M119.5 2727C110.387 2727 103 2721.18 103 2714C103 2706.82 110.387 2701 119.5 2701C128.613 2701 136 2706.82 136 2714C136 2721.18 128.613 2727 119.5 2727Z" fill="#2E8E10"/>
<path d="M276.5 2689C282.851 2689 288 2684.97 288 2680C288 2675.03 282.851 2671 276.5 2671C270.149 2671 265 2675.03 265 2680C265 2684.97 270.149 2689 276.5 2689Z" fill="#2E8E10"/>
<path d="M330.5 2699C336.851 2699 342 2694.97 342 2690C342 2685.03 336.851 2681 330.5 2681C324.149 2681 319 2685.03 319 2690C319 2694.97 324.149 2699 330.5 2699Z" fill="#2E8E10"/>
<path d="M499.5 2681C503.09 2681 506 2678.54 506 2675.5C506 2672.46 503.09 2670 499.5 2670C495.91 2670 493 2672.46 493 2675.5C493 2678.54 495.91 2681 499.5 2681Z" fill="#2E8E10"/>
<path d="M549.5 2681C553.09 2681 556 2678.54 556 2675.5C556 2672.46 553.09 2670 549.5 2670C545.91 2670 543 2672.46 543 2675.5C543 2678.54 545.91 2681 549.5 2681Z" fill="#2E8E10"/>
<path d="M599.5 2681C603.09 2681 606 2678.54 606 2675.5C606 2672.46 603.09 2670 599.5 2670C595.91 2670 593 2672.46 593 2675.5C593 2678.54 595.91 2681 599.5 2681Z" fill="#2E8E10"/>
<path d="M3.5 2681C7.08985 2681 10 2678.54 10 2675.5C10 2672.46 7.08985 2670 3.5 2670C-0.0898509 2670 -3 2672.46 -3 2675.5C-3 2678.54 -0.0898509 2681 3.5 2681Z" fill="#2E8E10"/>
<path d="M537.5 2654C539.433 2654 541 2652.66 541 2651C541 2649.34 539.433 2648 537.5 2648C535.567 2648 534 2649.34 534 2651C534 2652.66 535.567 2654 537.5 2654Z" fill="#2E8E10"/>
<path d="M685.5 2678C687.433 2678 689 2676.66 689 2675C689 2673.34 687.433 2672 685.5 2672C683.567 2672 682 2673.34 682 2675C682 2676.66 683.567 2678 685.5 2678Z" fill="#2E8E10"/>
<path d="M730.5 2684C728.567 2684 727 2682.66 727 2681C727 2679.34 728.567 2678 730.5 2678C732.433 2678 734 2679.34 734 2681C734 2682.66 732.433 2684 730.5 2684Z" fill="#2E8E10"/>
<path d="M742.5 2666C737.806 2666 734 2661.97 734 2657C734 2652.03 737.806 2648 742.5 2648C747.194 2648 751 2652.03 751 2657C751 2661.97 747.194 2666 742.5 2666Z" fill="#2E8E10"/>
<path d="M527.5 2683C522.806 2683 519 2678.97 519 2674C519 2669.03 522.806 2665 527.5 2665C532.194 2665 536 2669.03 536 2674C536 2678.97 532.194 2683 527.5 2683Z" fill="#2E8E10"/>
<path d="M316.5 2671C311.806 2671 308 2666.97 308 2662C308 2657.03 311.806 2653 316.5 2653C321.194 2653 325 2657.03 325 2662C325 2666.97 321.194 2671 316.5 2671Z" fill="#2E8E10"/>
<path d="M59 2682C47.9543 2682 39 2672.37 39 2660.5C39 2648.63 47.9543 2639 59 2639C70.0457 2639 79 2648.63 79 2660.5C79 2672.37 70.0457 2682 59 2682Z" fill="#2E8E10"/>
<path d="M318.5 2658C325.956 2658 332 2651.28 332 2643C332 2634.72 325.956 2628 318.5 2628C311.044 2628 305 2634.72 305 2643C305 2651.28 311.044 2658 318.5 2658Z" fill="#2E8E10"/>
<path d="M372.5 2668C379.956 2668 386 2661.28 386 2653C386 2644.72 379.956 2638 372.5 2638C365.044 2638 359 2644.72 359 2653C359 2661.28 365.044 2668 372.5 2668Z" fill="#2E8E10"/>
<path d="M524 2663C528.418 2663 532 2658.97 532 2654C532 2649.03 528.418 2645 524 2645C519.582 2645 516 2649.03 516 2654C516 2658.97 519.582 2663 524 2663Z" fill="#2E8E10"/>
<path d="M574 2663C578.418 2663 582 2658.97 582 2654C582 2649.03 578.418 2645 574 2645C569.582 2645 566 2649.03 566 2654C566 2658.97 569.582 2663 574 2663Z" fill="#2E8E10"/>
<path d="M624 2663C628.418 2663 632 2658.97 632 2654C632 2649.03 628.418 2645 624 2645C619.582 2645 616 2649.03 616 2654C616 2658.97 619.582 2663 624 2663Z" fill="#2E8E10"/>
<path d="M28 2663C32.4183 2663 36 2658.97 36 2654C36 2649.03 32.4183 2645 28 2645C23.5817 2645 20 2649.03 20 2654C20 2658.97 23.5817 2663 28 2663Z" fill="#2E8E10"/>
<path d="M551.5 2644C553.985 2644 556 2641.76 556 2639C556 2636.24 553.985 2634 551.5 2634C549.015 2634 547 2636.24 547 2639C547 2641.76 549.015 2644 551.5 2644Z" fill="#2E8E10"/>
<path d="M699.5 2668C701.985 2668 704 2665.76 704 2663C704 2660.24 701.985 2658 699.5 2658C697.015 2658 695 2660.24 695 2663C695 2665.76 697.015 2668 699.5 2668Z" fill="#2E8E10"/>
<path d="M716.5 2674C714.015 2674 712 2671.76 712 2669C712 2666.24 714.015 2664 716.5 2664C718.985 2664 721 2666.24 721 2669C721 2671.76 718.985 2674 716.5 2674Z" fill="#2E8E10"/>
<path d="M761.5 2685C757.91 2685 755 2682.54 755 2679.5C755 2676.46 757.91 2674 761.5 2674C765.09 2674 768 2676.46 768 2679.5C768 2682.54 765.09 2685 761.5 2685Z" fill="#2E8E10"/>
<path d="M546.5 2702C542.91 2702 540 2699.54 540 2696.5C540 2693.46 542.91 2691 546.5 2691C550.09 2691 553 2693.46 553 2696.5C553 2699.54 550.09 2702 546.5 2702Z" fill="#2E8E10"/>
<path d="M335.5 2690C331.91 2690 329 2687.54 329 2684.5C329 2681.46 331.91 2679 335.5 2679C339.09 2679 342 2681.46 342 2684.5C342 2687.54 339.09 2690 335.5 2690Z" fill="#2E8E10"/>
<path d="M104 2727C95.7157 2727 89 2721.18 89 2714C89 2706.82 95.7157 2701 104 2701C112.284 2701 119 2706.82 119 2714C119 2721.18 112.284 2727 104 2727Z" fill="#2E8E10"/>
<path d="M287.5 2689C293.299 2689 298 2684.97 298 2680C298 2675.03 293.299 2671 287.5 2671C281.701 2671 277 2675.03 277 2680C277 2684.97 281.701 2689 287.5 2689Z" fill="#2E8E10"/>
<path d="M341.5 2699C347.299 2699 352 2694.97 352 2690C352 2685.03 347.299 2681 341.5 2681C335.701 2681 331 2685.03 331 2690C331 2694.97 335.701 2699 341.5 2699Z" fill="#2E8E10"/>
<path d="M506 2681C509.314 2681 512 2678.54 512 2675.5C512 2672.46 509.314 2670 506 2670C502.686 2670 500 2672.46 500 2675.5C500 2678.54 502.686 2681 506 2681Z" fill="#2E8E10"/>
<path d="M556 2681C559.314 2681 562 2678.54 562 2675.5C562 2672.46 559.314 2670 556 2670C552.686 2670 550 2672.46 550 2675.5C550 2678.54 552.686 2681 556 2681Z" fill="#2E8E10"/>
<path d="M606 2681C609.314 2681 612 2678.54 612 2675.5C612 2672.46 609.314 2670 606 2670C602.686 2670 600 2672.46 600 2675.5C600 2678.54 602.686 2681 606 2681Z" fill="#2E8E10"/>
<path d="M10 2681C13.3137 2681 16 2678.54 16 2675.5C16 2672.46 13.3137 2670 10 2670C6.68629 2670 4 2672.46 4 2675.5C4 2678.54 6.68629 2681 10 2681Z" fill="#2E8E10"/>
<path d="M541.5 2654C543.433 2654 545 2652.66 545 2651C545 2649.34 543.433 2648 541.5 2648C539.567 2648 538 2649.34 538 2651C538 2652.66 539.567 2654 541.5 2654Z" fill="#2E8E10"/>
<path d="M689.5 2678C691.433 2678 693 2676.66 693 2675C693 2673.34 691.433 2672 689.5 2672C687.567 2672 686 2673.34 686 2675C686 2676.66 687.567 2678 689.5 2678Z" fill="#2E8E10"/>
<path d="M726.5 2684C724.567 2684 723 2682.66 723 2681C723 2679.34 724.567 2678 726.5 2678C728.433 2678 730 2679.34 730 2681C730 2682.66 728.433 2684 726.5 2684Z" fill="#2E8E10"/>
<path d="M749 2661C742.925 2661 738 2656.08 738 2650C738 2643.92 742.925 2639 749 2639C755.075 2639 760 2643.92 760 2650C760 2656.08 755.075 2661 749 2661Z" fill="#38A814"/>
<path d="M534 2678C527.925 2678 523 2673.08 523 2667C523 2660.92 527.925 2656 534 2656C540.075 2656 545 2660.92 545 2667C545 2673.08 540.075 2678 534 2678Z" fill="#38A814"/>
<path d="M323 2666C316.925 2666 312 2661.08 312 2655C312 2648.92 316.925 2644 323 2644C329.075 2644 334 2648.92 334 2655C334 2661.08 329.075 2666 323 2666Z" fill="#38A814"/>
<path d="M74.5 2670C59.8645 2670 48 2658.36 48 2644C48 2629.64 59.8645 2618 74.5 2618C89.1355 2618 101 2629.64 101 2644C101 2658.36 89.1355 2670 74.5 2670Z" fill="#38A814"/>
<path d="M307.5 2650C317.717 2650 326 2641.94 326 2632C326 2622.06 317.717 2614 307.5 2614C297.283 2614 289 2622.06 289 2632C289 2641.94 297.283 2650 307.5 2650Z" fill="#38A814"/>
<path d="M361.5 2660C371.717 2660 380 2651.94 380 2642C380 2632.06 371.717 2624 361.5 2624C351.283 2624 343 2632.06 343 2642C343 2651.94 351.283 2660 361.5 2660Z" fill="#38A814"/>
<path d="M518 2658C524.075 2658 529 2653.3 529 2647.5C529 2641.7 524.075 2637 518 2637C511.925 2637 507 2641.7 507 2647.5C507 2653.3 511.925 2658 518 2658Z" fill="#38A814"/>
<path d="M568 2658C574.075 2658 579 2653.3 579 2647.5C579 2641.7 574.075 2637 568 2637C561.925 2637 557 2641.7 557 2647.5C557 2653.3 561.925 2658 568 2658Z" fill="#38A814"/>
<path d="M618 2658C624.075 2658 629 2653.3 629 2647.5C629 2641.7 624.075 2637 618 2637C611.925 2637 607 2641.7 607 2647.5C607 2653.3 611.925 2658 618 2658Z" fill="#38A814"/>
<path d="M22 2658C28.0751 2658 33 2653.3 33 2647.5C33 2641.7 28.0751 2637 22 2637C15.9249 2637 11 2641.7 11 2647.5C11 2653.3 15.9249 2658 22 2658Z" fill="#38A814"/>
<path d="M548 2641C551.314 2641 554 2638.31 554 2635C554 2631.69 551.314 2629 548 2629C544.686 2629 542 2631.69 542 2635C542 2638.31 544.686 2641 548 2641Z" fill="#38A814"/>
<path d="M696 2665C699.314 2665 702 2662.31 702 2659C702 2655.69 699.314 2653 696 2653C692.686 2653 690 2655.69 690 2659C690 2662.31 692.686 2665 696 2665Z" fill="#38A814"/>
<path d="M720 2671C716.686 2671 714 2668.31 714 2665C714 2661.69 716.686 2659 720 2659C723.314 2659 726 2661.69 726 2665C726 2668.31 723.314 2671 720 2671Z" fill="#38A814"/>
<path d="M765 2681C761.134 2681 758 2678.09 758 2674.5C758 2670.91 761.134 2668 765 2668C768.866 2668 772 2670.91 772 2674.5C772 2678.09 768.866 2681 765 2681Z" fill="#38A814"/>
<path d="M550 2698C546.134 2698 543 2695.09 543 2691.5C543 2687.91 546.134 2685 550 2685C553.866 2685 557 2687.91 557 2691.5C557 2695.09 553.866 2698 550 2698Z" fill="#38A814"/>
<path d="M339 2686C335.134 2686 332 2683.09 332 2679.5C332 2675.91 335.134 2673 339 2673C342.866 2673 346 2675.91 346 2679.5C346 2683.09 342.866 2686 339 2686Z" fill="#38A814"/>
<path d="M112.5 2717C103.387 2717 96 2710.28 96 2702C96 2693.72 103.387 2687 112.5 2687C121.613 2687 129 2693.72 129 2702C129 2710.28 121.613 2717 112.5 2717Z" fill="#38A814"/>
<path d="M281.5 2682C287.851 2682 293 2677.3 293 2671.5C293 2665.7 287.851 2661 281.5 2661C275.149 2661 270 2665.7 270 2671.5C270 2677.3 275.149 2682 281.5 2682Z" fill="#38A814"/>
<path d="M335.5 2692C341.851 2692 347 2687.3 347 2681.5C347 2675.7 341.851 2671 335.5 2671C329.149 2671 324 2675.7 324 2681.5C324 2687.3 329.149 2692 335.5 2692Z" fill="#38A814"/>
<path d="M502.5 2677C506.09 2677 509 2674.09 509 2670.5C509 2666.91 506.09 2664 502.5 2664C498.91 2664 496 2666.91 496 2670.5C496 2674.09 498.91 2677 502.5 2677Z" fill="#38A814"/>
<path d="M552.5 2677C556.09 2677 559 2674.09 559 2670.5C559 2666.91 556.09 2664 552.5 2664C548.91 2664 546 2666.91 546 2670.5C546 2674.09 548.91 2677 552.5 2677Z" fill="#38A814"/>
<path d="M602.5 2677C606.09 2677 609 2674.09 609 2670.5C609 2666.91 606.09 2664 602.5 2664C598.91 2664 596 2666.91 596 2670.5C596 2674.09 598.91 2677 602.5 2677Z" fill="#38A814"/>
<path d="M6.5 2677C10.0899 2677 13 2674.09 13 2670.5C13 2666.91 10.0899 2664 6.5 2664C2.91015 2664 0 2666.91 0 2670.5C0 2674.09 2.91015 2677 6.5 2677Z" fill="#38A814"/>
<path d="M539.5 2652C541.433 2652 543 2650.43 543 2648.5C543 2646.57 541.433 2645 539.5 2645C537.567 2645 536 2646.57 536 2648.5C536 2650.43 537.567 2652 539.5 2652Z" fill="#38A814"/>
<path d="M687.5 2676C689.433 2676 691 2674.43 691 2672.5C691 2670.57 689.433 2669 687.5 2669C685.567 2669 684 2670.57 684 2672.5C684 2674.43 685.567 2676 687.5 2676Z" fill="#38A814"/>
<path d="M728.5 2682C726.567 2682 725 2680.43 725 2678.5C725 2676.57 726.567 2675 728.5 2675C730.433 2675 732 2676.57 732 2678.5C732 2680.43 730.433 2682 728.5 2682Z" fill="#38A814"/>
<path d="M579.18 2529.9L580.08 2531H598.783L610.167 2542.06L502.852 2542.93L556.031 2501.66L579.18 2529.9Z" fill="#F7FEF5" stroke="#D2F9FD" stroke-width="6"/>
<path d="M344.679 1824.27C337.954 1819.02 328.185 1820.23 322.49 1826.88C318.581 1825.81 314.412 1826.93 311.95 1830.08C308.585 1834.4 309.684 1840.88 314.404 1844.56C316.476 1846.18 318.901 1846.99 321.254 1847.02C322.109 1848.23 323.152 1849.34 324.378 1850.3C330.785 1855.29 339.953 1854.43 345.73 1848.6C346.291 1849.2 346.904 1849.77 347.575 1850.3C354.341 1855.57 364.185 1854.32 369.864 1847.57C369.902 1847.6 369.94 1847.63 369.978 1847.66C375.359 1851.86 383.251 1850.74 387.605 1845.15C391.958 1839.57 391.124 1831.65 385.742 1827.45C381.351 1824.02 375.289 1824.14 370.842 1827.33C370.017 1826.2 369.028 1825.17 367.876 1824.27C361.469 1819.27 352.3 1820.13 346.522 1825.97C345.963 1825.36 345.349 1824.79 344.679 1824.27Z" fill="#F7FEF5"/>
<path d="M574.961 920.254C581.705 914.993 591.503 916.203 597.215 922.866C601.135 921.796 605.315 922.918 607.784 926.084C609.98 928.899 610.279 932.633 608.918 935.917C611.669 935.83 614.436 936.651 616.742 938.449C622.123 942.646 622.957 950.573 618.604 956.154C614.251 961.736 606.359 962.857 600.977 958.66C600.94 958.631 600.901 958.601 600.864 958.571C595.185 965.321 585.34 966.574 578.575 961.298C577.904 960.774 577.291 960.203 576.73 959.597C570.953 965.435 561.785 966.294 555.378 961.297C554.152 960.34 553.109 959.232 552.254 958.018C549.901 957.985 547.476 957.178 545.404 955.562C540.684 951.88 539.585 945.397 542.95 941.083C545.363 937.99 549.413 936.855 553.253 937.814C551.288 932.73 552.665 926.855 557.042 923.441C561.446 920.007 567.526 920.123 571.986 923.323C572.813 922.191 573.805 921.155 574.961 920.254Z" fill="#F7FEF5"/>
<path d="M-6.03915 528.279C0.705185 523.019 10.5022 524.229 16.2138 530.892C20.1343 529.822 24.3148 530.945 26.7841 534.11C28.9799 536.926 29.2785 540.66 27.9169 543.943C30.6689 543.856 33.4359 544.677 35.7421 546.476C41.1232 550.673 41.9574 558.599 37.6044 564.181C33.251 569.762 25.359 570.884 19.9775 566.687C19.9397 566.657 19.9015 566.628 19.8642 566.598C14.1847 573.347 4.34032 574.6 -2.42489 569.324C-3.09583 568.801 -3.70935 568.23 -4.26962 567.623C-10.047 573.461 -19.2152 574.32 -25.6222 569.323C-26.8485 568.367 -27.8913 567.259 -28.7462 566.045C-31.0994 566.012 -33.5244 565.204 -35.5958 563.589C-40.3161 559.907 -41.4147 553.424 -38.0499 549.109C-35.6375 546.017 -31.5868 544.881 -27.7472 545.84C-29.7116 540.756 -28.335 534.882 -23.9581 531.468C-19.5543 528.033 -13.4745 528.15 -9.01376 531.35C-8.18663 530.218 -7.19495 529.181 -6.03915 528.279Z" fill="#F7FEF5"/>
<path d="M452.961 1453.28C459.705 1448.02 469.502 1449.23 475.214 1455.89C479.134 1454.82 483.315 1455.94 485.784 1459.11C487.98 1461.93 488.279 1465.66 486.917 1468.94C489.669 1468.86 492.436 1469.68 494.742 1471.48C500.123 1475.67 500.957 1483.6 496.604 1489.18C492.251 1494.76 484.359 1495.88 478.977 1491.69C478.94 1491.66 478.901 1491.63 478.864 1491.6C473.185 1498.35 463.34 1499.6 456.575 1494.32C455.904 1493.8 455.291 1493.23 454.73 1492.62C448.953 1498.46 439.785 1499.32 433.378 1494.32C432.152 1493.37 431.109 1492.26 430.254 1491.04C427.901 1491.01 425.476 1490.2 423.404 1488.59C418.684 1484.91 417.585 1478.42 420.95 1474.11C423.363 1471.02 427.413 1469.88 431.253 1470.84C429.288 1465.76 430.665 1459.88 435.042 1456.47C439.446 1453.03 445.526 1453.15 449.986 1456.35C450.813 1455.22 451.805 1454.18 452.961 1453.28Z" fill="#F7FEF5"/>
<path d="M191.11 779.81C193.803 777.71 196.955 776.66 200.014 776.617C201.126 775.039 202.48 773.599 204.074 772.355C212.868 765.496 225.664 767.125 233.047 775.898C233.095 775.86 233.143 775.821 233.192 775.783C240.187 770.326 250.446 771.785 256.104 779.04C261.763 786.295 260.679 796.599 253.684 802.055C247.977 806.507 240.098 806.355 234.317 802.209C233.245 803.675 231.96 805.018 230.462 806.186C221.722 813.004 209.025 811.438 201.622 802.804C196.54 804.191 191.121 802.734 187.92 798.63C183.546 793.022 184.974 784.596 191.11 779.81Z" fill="#F7FEF5"/>
<path d="M139.11 216.81C141.803 214.71 144.955 213.66 148.014 213.617C149.126 212.039 150.48 210.599 152.074 209.355C160.868 202.496 173.664 204.125 181.047 212.898C181.095 212.86 181.143 212.821 181.192 212.783C188.187 207.326 198.446 208.785 204.104 216.04C209.763 223.295 208.679 233.599 201.684 239.055C195.977 243.507 188.098 243.355 182.317 239.209C181.245 240.675 179.96 242.018 178.462 243.186C169.722 250.004 157.025 248.438 149.622 239.804C144.54 241.191 139.121 239.734 135.92 235.63C131.546 230.022 132.974 221.596 139.11 216.81Z" fill="#F7FEF5"/>
<path d="M283.578 -20.0225C293.812 -28.0048 308.679 -26.1718 317.347 -16.0625C323.297 -17.687 329.643 -15.9812 333.391 -11.1768C338.513 -4.60983 336.841 5.25736 329.657 10.8613C326.504 13.3204 322.813 14.5498 319.231 14.6005C317.929 16.4485 316.343 18.1348 314.476 19.5908C304.725 27.1957 290.773 25.8882 281.98 17.0048C281.127 17.9275 280.191 18.7935 279.17 19.5898C268.873 27.6211 253.889 25.7148 245.244 15.4414C245.188 15.4866 245.132 15.5325 245.074 15.5771C236.884 21.9657 224.871 20.2585 218.245 11.7636C211.62 3.26855 212.889 -8.79795 221.079 -15.1866C227.762 -20.3988 236.988 -20.2201 243.757 -15.3643C245.012 -17.0822 246.519 -18.6543 248.273 -20.0225C258.024 -27.6277 271.979 -26.3228 280.773 -17.4385C281.624 -18.3605 282.558 -19.2269 283.578 -20.0225Z" fill="#F7FEF5"/>
<path d="M784.578 1808.98C794.812 1801 809.679 1802.83 818.347 1812.94C824.297 1811.31 830.643 1813.02 834.391 1817.82C839.513 1824.39 837.841 1834.26 830.657 1839.86C827.504 1842.32 823.813 1843.55 820.231 1843.6C818.929 1845.45 817.343 1847.13 815.476 1848.59C805.725 1856.2 791.773 1854.89 782.98 1846C782.127 1846.93 781.191 1847.79 780.17 1848.59C769.873 1856.62 754.889 1854.71 746.244 1844.44C746.188 1844.49 746.132 1844.53 746.074 1844.58C737.884 1850.97 725.871 1849.26 719.245 1840.76C712.62 1832.27 713.889 1820.2 722.079 1813.81C728.762 1808.6 737.988 1808.78 744.757 1813.64C746.012 1811.92 747.519 1810.35 749.273 1808.98C759.024 1801.37 772.979 1802.68 781.773 1811.56C782.624 1810.64 783.558 1809.77 784.578 1808.98Z" fill="#F7FEF5"/>
<path d="M723.578 90.9776C733.812 82.9952 748.68 84.828 757.348 94.9376C763.298 93.3133 769.643 95.0191 773.391 99.8233C778.513 106.39 776.841 116.257 769.656 121.861C766.504 124.32 762.813 125.55 759.232 125.601C757.93 127.449 756.343 129.135 754.476 130.591C744.725 138.196 730.774 136.888 721.981 128.005C721.128 128.928 720.191 129.793 719.17 130.59C708.873 138.621 693.89 136.715 685.245 126.441C685.189 126.487 685.132 126.533 685.074 126.577C676.884 132.966 664.871 131.259 658.245 122.764C651.62 114.269 652.889 102.202 661.079 95.8135C667.762 90.6013 676.988 90.78 683.757 95.6358C685.012 93.9178 686.519 92.3459 688.274 90.9776C698.024 83.3726 711.979 84.6769 720.773 93.5606C721.624 92.6388 722.558 91.7731 723.578 90.9776Z" fill="#F7FEF5"/>
<path d="M723.578 542.978C733.812 534.995 748.68 536.828 757.348 546.938C763.298 545.313 769.643 547.019 773.391 551.823C778.513 558.39 776.841 568.257 769.656 573.861C766.504 576.32 762.813 577.55 759.232 577.601C757.93 579.449 756.343 581.135 754.476 582.591C744.725 590.196 730.774 588.888 721.981 580.005C721.128 580.928 720.191 581.793 719.17 582.59C708.873 590.621 693.89 588.715 685.245 578.441C685.189 578.487 685.132 578.533 685.074 578.577C676.884 584.966 664.871 583.259 658.245 574.764C651.62 566.269 652.889 554.202 661.079 547.814C667.762 542.601 676.988 542.78 683.757 547.636C685.012 545.918 686.519 544.346 688.274 542.978C698.024 535.373 711.979 536.677 720.773 545.561C721.624 544.639 722.558 543.773 723.578 542.978Z" fill="#F7FEF5"/>
</g>
<defs>
<linearGradient id="paint0_linear_343_85" x1="400" y1="0" x2="400" y2="1146" gradientUnits="userSpaceOnUse">
<stop stop-color="#E8FAFF"/>
<stop offset="0.865385" stop-color="#1DCEFF"/>
<stop offset="1" stop-color="#00C8FF"/>
</linearGradient>
<clipPath id="clip0_343_85">
<rect width="800" height="2800" fill="white"/>
</clipPath>
</defs>
</svg>
