<svg width="800" height="800" viewBox="0 0 800 800" fill="none" xmlns="http://www.w3.org/2000/svg">
<g clip-path="url(#clip0_335_3)">
<path d="M800 0H0V800H800V0Z" fill="#00C8FF"/>
<path d="M529 551.333L449.65 471.333L370.3 530L290.95 450L211.6 514L132.25 460.667L52.9 524.667L0 487.333V738H529V551.333Z" fill="#6DB4E6"/>
<path d="M899 551.333L819.65 471.333L740.3 530L660.95 450L581.6 514L502.25 460.667L422.9 524.667L370 487.333V738H899V551.333Z" fill="#6DB4E6"/>
<path d="M0 560L120 500L240 544L360 484L480 532L600 492L720 540L800 512V700H0V560Z" fill="#9FB3C2"/>
<path d="M437.896 590.139L439.768 591.979L441.841 590.369L556.032 501.661L579.18 529.901L580.08 531H598.802L677.934 606.175L679.416 607.583L681.269 606.719L797 552.71V717H3V661.145L100.535 551.904L198.383 614.526L200.596 615.943L202.291 613.937L320.203 474.406L437.896 590.139Z" fill="#7D8794" stroke="#D2F9FD" stroke-width="6"/>
<path d="M344.517 504.106L321.371 509.066L320.312 509.294L319.641 510.146L300.198 534.89L287.698 516.14L320.072 474.773L344.517 504.106Z" fill="#F2F6FB" stroke="#D2F9FD" stroke-width="6"/>
<path d="M140.22 576.431L121.36 582.718L105.241 573.046L121.07 549.302L140.22 576.431Z" fill="#F2F6FB" stroke="#D2F9FD" stroke-width="6"/>
<path d="M124.021 583.518L100.872 607.059L81.6729 573.148L100.056 552.675L124.021 583.518Z" fill="#F2F6FB" stroke="#D2F9FD" stroke-width="6"/>
<path d="M694.621 632.929L678.752 635.813L666.566 626.675L679.705 613.536L694.621 632.929Z" fill="#F2F6FB" stroke="#D2F9FD" stroke-width="6"/>
<path d="M800 688H0V800H800V688Z" fill="#5AA83A"/>
<path d="M800 688H0V698H800V688Z" fill="#6CBF45"/>
<path d="M74 720H60V728H74V720Z" fill="#3F8A28"/>
<path d="M224 740H210V748H224V740Z" fill="#3F8A28"/>
<path d="M444 724H430V732H444V724Z" fill="#3F8A28"/>
<path d="M614 744H600V752H614V744Z" fill="#3F8A28"/>
<path d="M734 726H720V734H734V726Z" fill="#3F8A28"/>
<path d="M37.11 81.8104C39.803 79.7101 42.9549 78.6597 46.0143 78.6167C47.1256 77.0386 48.4802 75.5985 50.0743 74.3552C58.8678 67.4965 71.6641 69.1251 79.0467 77.8982C79.0949 77.8596 79.1429 77.8206 79.1918 77.7825C86.187 72.3265 96.4456 73.7849 102.104 81.0399C107.763 88.2949 106.679 98.5992 99.6838 104.055C93.9766 108.507 86.0981 108.355 80.317 104.209C79.2451 105.675 77.9598 107.018 76.4619 108.186C67.7216 115.004 55.0248 113.438 47.6221 104.804C42.5404 106.191 37.1208 104.734 33.9202 100.63C29.5459 95.022 30.9741 86.5962 37.11 81.8104Z" fill="#F7FEF5"/>
<path d="M746.907 395.05C745.121 396.443 743.031 397.139 741.002 397.168C740.265 398.215 739.366 399.169 738.308 399.994C732.475 404.544 723.986 403.464 719.09 397.643C719.058 397.669 719.026 397.696 718.994 397.722C714.354 401.34 707.55 400.373 703.797 395.561C700.044 390.749 700.762 383.914 705.401 380.295C709.187 377.342 714.413 377.444 718.248 380.194C718.959 379.221 719.812 378.33 720.806 377.555C726.604 373.033 735.026 374.072 739.936 379.8C743.306 378.88 746.9 379.845 749.023 382.567C751.924 386.287 750.977 391.875 746.907 395.05Z" fill="#F7FEF5"/>
<path d="M279.578 269.977C289.813 261.995 304.679 263.829 313.347 273.938C319.297 272.313 325.643 274.019 329.391 278.824C334.513 285.391 332.841 295.258 325.657 300.862C322.504 303.321 318.813 304.55 315.231 304.601C313.929 306.449 312.343 308.135 310.476 309.591C300.725 317.196 286.773 315.888 277.98 307.004C277.127 307.927 276.191 308.794 275.17 309.59C264.873 317.622 249.889 315.715 241.244 305.442C241.188 305.487 241.132 305.533 241.075 305.578C232.884 311.966 220.871 310.259 214.245 301.764C207.62 293.269 208.889 281.203 217.079 274.814C223.762 269.602 232.988 269.779 239.757 274.635C241.012 272.917 242.519 271.346 244.273 269.978C254.024 262.373 267.979 263.678 276.773 272.562C277.625 271.64 278.558 270.773 279.578 269.977Z" fill="#F7FEF5"/>
<g opacity="0.9">
<path d="M746.793 659.294H749.416C749.706 659.294 749.94 659.644 749.94 660.076V695.664C749.94 696.096 749.706 696.446 749.416 696.446H746.793C746.503 696.446 746.268 696.096 746.268 695.664V660.076C746.268 659.644 746.503 659.294 746.793 659.294Z" fill="#6B4A1E"/>
<path opacity="0.45" d="M747.37 661.67H747.975C748.226 661.67 748.429 661.888 748.429 662.156V693.584C748.429 693.852 748.226 694.07 747.975 694.07H747.37C747.12 694.07 746.917 693.852 746.917 693.584V662.156C746.917 661.888 747.12 661.67 747.37 661.67Z" fill="#7D5A2A"/>
</g>
<g opacity="0.9">
<path d="M533.793 679.294H536.416C536.706 679.294 536.94 679.644 536.94 680.076V715.664C536.94 716.096 536.706 716.446 536.416 716.446H533.793C533.503 716.446 533.268 716.096 533.268 715.664V680.076C533.268 679.644 533.503 679.294 533.793 679.294Z" fill="#6B4A1E"/>
<path opacity="0.45" d="M534.37 681.67H534.975C535.226 681.67 535.429 681.888 535.429 682.156V713.584C535.429 713.852 535.226 714.07 534.975 714.07H534.37C534.12 714.07 533.917 713.852 533.917 713.584V682.156C533.917 681.888 534.12 681.67 534.37 681.67Z" fill="#7D5A2A"/>
</g>
<g opacity="0.9">
<path d="M320.793 699.294H323.416C323.706 699.294 323.94 699.644 323.94 700.076V735.664C323.94 736.096 323.706 736.446 323.416 736.446H320.793C320.503 736.446 320.268 736.096 320.268 735.664V700.076C320.268 699.644 320.503 699.294 320.793 699.294Z" fill="#6B4A1E"/>
<path opacity="0.45" d="M321.37 701.67H321.975C322.226 701.67 322.429 701.888 322.429 702.156V733.584C322.429 733.852 322.226 734.07 321.975 734.07H321.37C321.12 734.07 320.917 733.852 320.917 733.584V702.156C320.917 701.888 321.12 701.67 321.37 701.67Z" fill="#7D5A2A"/>
</g>
<g opacity="0.9">
<path d="M69.2666 666.133H75.4718C76.1573 666.133 76.7129 666.962 76.7129 667.984V752.178C76.7129 753.2 76.1573 754.029 75.4718 754.029H69.2666C68.5812 754.029 68.0255 753.2 68.0255 752.178V667.984C68.0255 666.962 68.5812 666.133 69.2666 666.133Z" fill="#6B4A1E"/>
<path opacity="0.45" d="M70.6322 671.755H72.0631C72.6558 671.755 73.1362 672.27 73.1362 672.905V747.258C73.1362 747.893 72.6558 748.408 72.0631 748.408H70.6322C70.0395 748.408 69.5591 747.893 69.5591 747.258V672.905C69.5591 672.27 70.0395 671.755 70.6322 671.755Z" fill="#7D5A2A"/>
</g>
<g opacity="0.9">
<path d="M311.231 682.029H306.973C306.503 682.029 306.122 682.597 306.122 683.299V741.073C306.122 741.774 306.503 742.343 306.973 742.343H311.231C311.702 742.343 312.083 741.774 312.083 741.073V683.299C312.083 682.597 311.702 682.029 311.231 682.029Z" fill="#6B4A1E"/>
<path opacity="0.45" d="M310.294 685.886H309.312C308.905 685.886 308.576 686.24 308.576 686.675V737.697C308.576 738.132 308.905 738.486 309.312 738.486H310.294C310.701 738.486 311.03 738.132 311.03 737.697V686.675C311.03 686.24 310.701 685.886 310.294 685.886Z" fill="#7D5A2A"/>
</g>
<g opacity="0.9">
<path d="M365.231 692.029H360.973C360.503 692.029 360.122 692.597 360.122 693.299V751.073C360.122 751.774 360.503 752.343 360.973 752.343H365.231C365.702 752.343 366.083 751.774 366.083 751.073V693.299C366.083 692.597 365.702 692.029 365.231 692.029Z" fill="#6B4A1E"/>
<path opacity="0.45" d="M364.294 695.886H363.312C362.905 695.886 362.576 696.24 362.576 696.675V747.697C362.576 748.132 362.905 748.486 363.312 748.486H364.294C364.701 748.486 365.03 748.132 365.03 747.697V696.675C365.03 696.24 364.701 695.886 364.294 695.886Z" fill="#7D5A2A"/>
</g>
<g opacity="0.9">
<path d="M519.912 656.224H517.434C517.16 656.224 516.938 656.555 516.938 656.963V690.589C516.938 690.997 517.16 691.328 517.434 691.328H519.912C520.186 691.328 520.408 690.997 520.408 690.589V656.963C520.408 656.555 520.186 656.224 519.912 656.224Z" fill="#6B4A1E"/>
<path opacity="0.45" d="M519.366 658.469H518.795C518.558 658.469 518.366 658.675 518.366 658.928V688.624C518.366 688.878 518.558 689.083 518.795 689.083H519.366C519.603 689.083 519.795 688.878 519.795 688.624V658.928C519.795 658.675 519.603 658.469 519.366 658.469Z" fill="#7D5A2A"/>
</g>
<g opacity="0.9">
<path d="M569.912 656.224H567.434C567.16 656.224 566.938 656.555 566.938 656.963V690.589C566.938 690.997 567.16 691.328 567.434 691.328H569.912C570.186 691.328 570.408 690.997 570.408 690.589V656.963C570.408 656.555 570.186 656.224 569.912 656.224Z" fill="#6B4A1E"/>
<path opacity="0.45" d="M569.366 658.469H568.795C568.558 658.469 568.366 658.675 568.366 658.928V688.624C568.366 688.878 568.558 689.083 568.795 689.083H569.366C569.603 689.083 569.795 688.878 569.795 688.624V658.928C569.795 658.675 569.603 658.469 569.366 658.469Z" fill="#7D5A2A"/>
</g>
<g opacity="0.9">
<path d="M619.912 656.224H617.434C617.16 656.224 616.938 656.555 616.938 656.963V690.589C616.938 690.997 617.16 691.328 617.434 691.328H619.912C620.186 691.328 620.408 690.997 620.408 690.589V656.963C620.408 656.555 620.186 656.224 619.912 656.224Z" fill="#6B4A1E"/>
<path opacity="0.45" d="M619.366 658.469H618.795C618.558 658.469 618.366 658.675 618.366 658.928V688.624C618.366 688.878 618.558 689.083 618.795 689.083H619.366C619.603 689.083 619.795 688.878 619.795 688.624V658.928C619.795 658.675 619.603 658.469 619.366 658.469Z" fill="#7D5A2A"/>
</g>
<g opacity="0.9">
<path d="M23.9119 656.224H21.4336C21.1599 656.224 20.938 656.555 20.938 656.963V690.589C20.938 690.997 21.1599 691.328 21.4336 691.328H23.9119C24.1857 691.328 24.4076 690.997 24.4076 690.589V656.963C24.4076 656.555 24.1857 656.224 23.9119 656.224Z" fill="#6B4A1E"/>
<path opacity="0.45" d="M23.3663 658.469H22.7948C22.5581 658.469 22.3662 658.675 22.3662 658.928V688.624C22.3662 688.878 22.5581 689.083 22.7948 689.083H23.3663C23.603 689.083 23.7949 688.878 23.7949 688.624V658.928C23.7949 658.675 23.603 658.469 23.3663 658.469Z" fill="#7D5A2A"/>
</g>
<g opacity="0.9">
<path d="M549.181 640.254H547.783C547.629 640.254 547.503 640.441 547.503 640.671V659.64C547.503 659.87 547.629 660.057 547.783 660.057H549.181C549.335 660.057 549.461 659.87 549.461 659.64V640.671C549.461 640.441 549.335 640.254 549.181 640.254Z" fill="#6B4A1E"/>
<path opacity="0.45" d="M548.873 641.521H548.551C548.417 641.521 548.309 641.637 548.309 641.78V658.531C548.309 658.675 548.417 658.791 548.551 658.791H548.873C549.007 658.791 549.115 658.675 549.115 658.531V641.78C549.115 641.637 549.007 641.521 548.873 641.521Z" fill="#7D5A2A"/>
</g>
<g opacity="0.9">
<path d="M697.181 664.254H695.783C695.629 664.254 695.503 664.441 695.503 664.671V683.64C695.503 683.87 695.629 684.057 695.783 684.057H697.181C697.335 684.057 697.461 683.87 697.461 683.64V664.671C697.461 664.441 697.335 664.254 697.181 664.254Z" fill="#6B4A1E"/>
<path opacity="0.45" d="M696.873 665.521H696.551C696.417 665.521 696.309 665.637 696.309 665.78V682.531C696.309 682.675 696.417 682.791 696.551 682.791H696.873C697.007 682.791 697.115 682.675 697.115 682.531V665.78C697.115 665.637 697.007 665.521 696.873 665.521Z" fill="#7D5A2A"/>
</g>
<g opacity="0.9">
<path d="M718.818 670.254H720.216C720.371 670.254 720.496 670.441 720.496 670.671V689.64C720.496 689.87 720.371 690.057 720.216 690.057H718.818C718.664 690.057 718.539 689.87 718.539 689.64V670.671C718.539 670.441 718.664 670.254 718.818 670.254Z" fill="#6B4A1E"/>
<path opacity="0.45" d="M719.126 671.521H719.449C719.582 671.521 719.69 671.637 719.69 671.78V688.531C719.69 688.675 719.582 688.791 719.449 688.791H719.126C718.993 688.791 718.885 688.675 718.885 688.531V671.78C718.885 671.637 718.993 671.521 719.126 671.521Z" fill="#7D5A2A"/>
</g>
<g opacity="0.9">
<path d="M763.975 678.546H765.826C766.031 678.546 766.196 678.732 766.196 678.96V697.801C766.196 698.03 766.031 698.215 765.826 698.215H763.975C763.77 698.215 763.604 698.03 763.604 697.801V678.96C763.604 678.732 763.77 678.546 763.975 678.546Z" fill="#6B4A1E"/>
<path opacity="0.45" d="M764.382 679.804H764.809C764.986 679.804 765.129 679.92 765.129 680.062V696.7C765.129 696.842 764.986 696.957 764.809 696.957H764.382C764.205 696.957 764.062 696.842 764.062 696.7V680.062C764.062 679.92 764.205 679.804 764.382 679.804Z" fill="#7D5A2A"/>
</g>
<g opacity="0.9">
<path d="M550.975 698.546H552.826C553.031 698.546 553.196 698.732 553.196 698.96V717.801C553.196 718.03 553.031 718.215 552.826 718.215H550.975C550.77 718.215 550.604 718.03 550.604 717.801V698.96C550.604 698.732 550.77 698.546 550.975 698.546Z" fill="#6B4A1E"/>
<path opacity="0.45" d="M551.382 699.804H551.809C551.986 699.804 552.129 699.92 552.129 700.062V716.7C552.129 716.842 551.986 716.957 551.809 716.957H551.382C551.205 716.957 551.062 716.842 551.062 716.7V700.062C551.062 699.92 551.205 699.804 551.382 699.804Z" fill="#7D5A2A"/>
</g>
<g opacity="0.9">
<path d="M337.975 718.546H339.826C340.031 718.546 340.196 718.732 340.196 718.96V737.801C340.196 738.03 340.031 738.215 339.826 738.215H337.975C337.77 738.215 337.604 738.03 337.604 737.801V718.96C337.604 718.732 337.77 718.546 337.975 718.546Z" fill="#6B4A1E"/>
<path opacity="0.45" d="M338.382 719.804H338.809C338.986 719.804 339.129 719.92 339.129 720.062V736.7C339.129 736.842 338.986 736.957 338.809 736.957H338.382C338.205 736.957 338.062 736.842 338.062 736.7V720.062C338.062 719.92 338.205 719.804 338.382 719.804Z" fill="#7D5A2A"/>
</g>
<g opacity="0.9">
<path d="M109.916 711.682H114.296C114.78 711.682 115.172 712.12 115.172 712.661V757.236C115.172 757.777 114.78 758.215 114.296 758.215H109.916C109.432 758.215 109.04 757.777 109.04 757.236V712.661C109.04 712.12 109.432 711.682 109.916 711.682Z" fill="#6B4A1E"/>
<path opacity="0.45" d="M110.879 714.658H111.889C112.307 714.658 112.646 714.93 112.646 715.266V754.631C112.646 754.967 112.307 755.239 111.889 755.239H110.879C110.461 755.239 110.121 754.967 110.121 754.631V715.266C110.121 714.93 110.461 714.658 110.879 714.658Z" fill="#7D5A2A"/>
</g>
<g opacity="0.9">
<path d="M283.338 713.284H280.332C280 713.284 279.731 713.585 279.731 713.956V744.543C279.731 744.914 280 745.215 280.332 745.215H283.338C283.67 745.215 283.939 744.914 283.939 744.543V713.956C283.939 713.585 283.67 713.284 283.338 713.284Z" fill="#6B4A1E"/>
<path opacity="0.45" d="M282.677 715.326H281.984C281.697 715.326 281.464 715.513 281.464 715.744V742.756C281.464 742.986 281.697 743.173 281.984 743.173H282.677C282.964 743.173 283.197 742.986 283.197 742.756V715.744C283.197 715.513 282.964 715.326 282.677 715.326Z" fill="#7D5A2A"/>
</g>
<g opacity="0.9">
<path d="M337.338 723.284H334.332C334 723.284 333.731 723.585 333.731 723.956V754.543C333.731 754.914 334 755.215 334.332 755.215H337.338C337.67 755.215 337.939 754.914 337.939 754.543V723.956C337.939 723.585 337.67 723.284 337.338 723.284Z" fill="#6B4A1E"/>
<path opacity="0.45" d="M336.677 725.326H335.984C335.697 725.326 335.464 725.513 335.464 725.744V752.756C335.464 752.986 335.697 753.173 335.984 753.173H336.677C336.964 753.173 337.197 752.986 337.197 752.756V725.744C337.197 725.513 336.964 725.326 336.677 725.326Z" fill="#7D5A2A"/>
</g>
<g opacity="0.9">
<path d="M503.677 674.415H501.928C501.735 674.415 501.578 674.59 501.578 674.806V692.609C501.578 692.825 501.735 693 501.928 693H503.677C503.871 693 504.027 692.825 504.027 692.609V674.806C504.027 674.59 503.871 674.415 503.677 674.415Z" fill="#6B4A1E"/>
<path opacity="0.45" d="M503.292 675.604H502.889C502.722 675.604 502.586 675.713 502.586 675.847V691.568C502.586 691.703 502.722 691.812 502.889 691.812H503.292C503.459 691.812 503.595 691.703 503.595 691.568V675.847C503.595 675.713 503.459 675.604 503.292 675.604Z" fill="#7D5A2A"/>
</g>
<g opacity="0.9">
<path d="M553.677 674.415H551.928C551.735 674.415 551.578 674.59 551.578 674.806V692.609C551.578 692.825 551.735 693 551.928 693H553.677C553.871 693 554.027 692.825 554.027 692.609V674.806C554.027 674.59 553.871 674.415 553.677 674.415Z" fill="#6B4A1E"/>
<path opacity="0.45" d="M553.292 675.604H552.889C552.722 675.604 552.586 675.713 552.586 675.847V691.568C552.586 691.703 552.722 691.812 552.889 691.812H553.292C553.459 691.812 553.595 691.703 553.595 691.568V675.847C553.595 675.713 553.459 675.604 553.292 675.604Z" fill="#7D5A2A"/>
</g>
<g opacity="0.9">
<path d="M603.677 674.415H601.928C601.735 674.415 601.578 674.59 601.578 674.806V692.609C601.578 692.825 601.735 693 601.928 693H603.677C603.871 693 604.027 692.825 604.027 692.609V674.806C604.027 674.59 603.871 674.415 603.677 674.415Z" fill="#6B4A1E"/>
<path opacity="0.45" d="M603.292 675.604H602.889C602.722 675.604 602.586 675.713 602.586 675.847V691.568C602.586 691.703 602.722 691.812 602.889 691.812H603.292C603.459 691.812 603.595 691.703 603.595 691.568V675.847C603.595 675.713 603.459 675.604 603.292 675.604Z" fill="#7D5A2A"/>
</g>
<g opacity="0.9">
<path d="M7.6774 674.415H5.928C5.73477 674.415 5.57812 674.59 5.57812 674.806V692.609C5.57812 692.825 5.73477 693 5.928 693H7.6774C7.87063 693 8.02728 692.825 8.02728 692.609V674.806C8.02728 674.59 7.87063 674.415 7.6774 674.415Z" fill="#6B4A1E"/>
<path opacity="0.45" d="M7.29236 675.604H6.88897C6.72188 675.604 6.58643 675.713 6.58643 675.847V691.568C6.58643 691.703 6.72188 691.812 6.88897 691.812H7.29236C7.45945 691.812 7.5949 691.703 7.5949 691.568V675.847C7.5949 675.713 7.45945 675.604 7.29236 675.604Z" fill="#7D5A2A"/>
</g>
<g opacity="0.9">
<path d="M540.023 650.516H539.036C538.927 650.516 538.839 650.615 538.839 650.737V660.779C538.839 660.901 538.927 661 539.036 661H540.023C540.132 661 540.22 660.901 540.22 660.779V650.737C540.22 650.615 540.132 650.516 540.023 650.516Z" fill="#6B4A1E"/>
<path opacity="0.45" d="M539.806 651.187H539.578C539.484 651.187 539.408 651.248 539.408 651.324V660.192C539.408 660.268 539.484 660.33 539.578 660.33H539.806C539.9 660.33 539.977 660.268 539.977 660.192V651.324C539.977 651.248 539.9 651.187 539.806 651.187Z" fill="#7D5A2A"/>
</g>
<g opacity="0.9">
<path d="M688.023 674.516H687.036C686.927 674.516 686.839 674.615 686.839 674.737V684.779C686.839 684.901 686.927 685 687.036 685H688.023C688.132 685 688.22 684.901 688.22 684.779V674.737C688.22 674.615 688.132 674.516 688.023 674.516Z" fill="#6B4A1E"/>
<path opacity="0.45" d="M687.806 675.187H687.578C687.484 675.187 687.408 675.248 687.408 675.324V684.192C687.408 684.268 687.484 684.33 687.578 684.33H687.806C687.9 684.33 687.977 684.268 687.977 684.192V675.324C687.977 675.248 687.9 675.187 687.806 675.187Z" fill="#7D5A2A"/>
</g>
<g opacity="0.9">
<path d="M727.977 680.516H728.964C729.073 680.516 729.161 680.615 729.161 680.737V690.779C729.161 690.901 729.073 691 728.964 691H727.977C727.868 691 727.78 690.901 727.78 690.779V680.737C727.78 680.615 727.868 680.516 727.977 680.516Z" fill="#6B4A1E"/>
<path opacity="0.45" d="M728.194 681.187H728.421C728.515 681.187 728.592 681.248 728.592 681.324V690.192C728.592 690.268 728.515 690.33 728.421 690.33H728.194C728.099 690.33 728.023 690.268 728.023 690.192V681.324C728.023 681.248 728.099 681.187 728.194 681.187Z" fill="#7D5A2A"/>
</g>
<path d="M759 696C756.791 696 755 695.105 755 694C755 692.895 756.791 692 759 692C761.209 692 763 692.895 763 694C763 695.105 761.209 696 759 696Z" fill="#1E7010"/>
<path d="M546 716C543.791 716 542 715.105 542 714C542 712.895 543.791 712 546 712C548.209 712 550 712.895 550 714C550 715.105 548.209 716 546 716Z" fill="#1E7010"/>
<path d="M333 736C330.791 736 329 735.105 329 734C329 732.895 330.791 732 333 732C335.209 732 337 732.895 337 734C337 735.105 335.209 736 333 736Z" fill="#1E7010"/>
<path d="M98.5 753C93.2533 753 89 750.985 89 748.5C89 746.015 93.2533 744 98.5 744C103.747 744 108 746.015 108 748.5C108 750.985 103.747 753 98.5 753Z" fill="#1E7010"/>
<path d="M291.5 742C295.09 742 298 740.433 298 738.5C298 736.567 295.09 735 291.5 735C287.91 735 285 736.567 285 738.5C285 740.433 287.91 742 291.5 742Z" fill="#1E7010"/>
<path d="M345.5 752C349.09 752 352 750.433 352 748.5C352 746.567 349.09 745 345.5 745C341.91 745 339 746.567 339 748.5C339 750.433 341.91 752 345.5 752Z" fill="#1E7010"/>
<path d="M508.5 691C510.433 691 512 690.105 512 689C512 687.895 510.433 687 508.5 687C506.567 687 505 687.895 505 689C505 690.105 506.567 691 508.5 691Z" fill="#1E7010"/>
<path d="M558.5 691C560.433 691 562 690.105 562 689C562 687.895 560.433 687 558.5 687C556.567 687 555 687.895 555 689C555 690.105 556.567 691 558.5 691Z" fill="#1E7010"/>
<path d="M608.5 691C610.433 691 612 690.105 612 689C612 687.895 610.433 687 608.5 687C606.567 687 605 687.895 605 689C605 690.105 606.567 691 608.5 691Z" fill="#1E7010"/>
<path d="M12.5 691C14.433 691 16 690.105 16 689C16 687.895 14.433 687 12.5 687C10.567 687 9 687.895 9 689C9 690.105 10.567 691 12.5 691Z" fill="#1E7010"/>
<path d="M543 660C544.105 660 545 659.552 545 659C545 658.448 544.105 658 543 658C541.895 658 541 658.448 541 659C541 659.552 541.895 660 543 660Z" fill="#1E7010"/>
<path d="M691 684C692.105 684 693 683.552 693 683C693 682.448 692.105 682 691 682C689.895 682 689 682.448 689 683C689 683.552 689.895 684 691 684Z" fill="#1E7010"/>
<path d="M725 690C723.895 690 723 689.552 723 689C723 688.448 723.895 688 725 688C726.105 688 727 688.448 727 689C727 689.552 726.105 690 725 690Z" fill="#1E7010"/>
<path d="M740 695C738.343 695 737 694.328 737 693.5C737 692.672 738.343 692 740 692C741.657 692 743 692.672 743 693.5C743 694.328 741.657 695 740 695Z" fill="#1E7010"/>
<path d="M527 715C525.343 715 524 714.328 524 713.5C524 712.672 525.343 712 527 712C528.657 712 530 712.672 530 713.5C530 714.328 528.657 715 527 715Z" fill="#1E7010"/>
<path d="M314 735C312.343 735 311 734.328 311 733.5C311 732.672 312.343 732 314 732C315.657 732 317 732.672 317 733.5C317 734.328 315.657 735 314 735Z" fill="#1E7010"/>
<path d="M53 751C49.134 751 46 749.433 46 747.5C46 745.567 49.134 744 53 744C56.866 744 60 745.567 60 747.5C60 749.433 56.866 751 53 751Z" fill="#1E7010"/>
<path d="M322.5 740C324.985 740 327 738.881 327 737.5C327 736.119 324.985 735 322.5 735C320.015 735 318 736.119 318 737.5C318 738.881 320.015 740 322.5 740Z" fill="#1E7010"/>
<path d="M376.5 750C378.985 750 381 748.881 381 747.5C381 746.119 378.985 745 376.5 745C374.015 745 372 746.119 372 747.5C372 748.881 374.015 750 376.5 750Z" fill="#1E7010"/>
<path d="M526.5 690C527.881 690 529 689.328 529 688.5C529 687.672 527.881 687 526.5 687C525.119 687 524 687.672 524 688.5C524 689.328 525.119 690 526.5 690Z" fill="#1E7010"/>
<path d="M576.5 690C577.881 690 579 689.328 579 688.5C579 687.672 577.881 687 576.5 687C575.119 687 574 687.672 574 688.5C574 689.328 575.119 690 576.5 690Z" fill="#1E7010"/>
<path d="M626.5 690C627.881 690 629 689.328 629 688.5C629 687.672 627.881 687 626.5 687C625.119 687 624 687.672 624 688.5C624 689.328 625.119 690 626.5 690Z" fill="#1E7010"/>
<path d="M30.5 690C31.8807 690 33 689.328 33 688.5C33 687.672 31.8807 687 30.5 687C29.1193 687 28 687.672 28 688.5C28 689.328 29.1193 690 30.5 690Z" fill="#1E7010"/>
<path d="M552.5 659C553.328 659 554 658.776 554 658.5C554 658.224 553.328 658 552.5 658C551.672 658 551 658.224 551 658.5C551 658.776 551.672 659 552.5 659Z" fill="#1E7010"/>
<path d="M700.5 683C701.328 683 702 682.776 702 682.5C702 682.224 701.328 682 700.5 682C699.672 682 699 682.224 699 682.5C699 682.776 699.672 683 700.5 683Z" fill="#1E7010"/>
<path d="M715.5 689C714.672 689 714 688.776 714 688.5C714 688.224 714.672 688 715.5 688C716.328 688 717 688.224 717 688.5C717 688.776 716.328 689 715.5 689Z" fill="#1E7010"/>
<path d="M754.5 666C749.253 666 745 661.971 745 657C745 652.029 749.253 648 754.5 648C759.747 648 764 652.029 764 657C764 661.971 759.747 666 754.5 666Z" fill="#2E8E10"/>
<path d="M541.5 686C536.253 686 532 681.971 532 677C532 672.029 536.253 668 541.5 668C546.747 668 551 672.029 551 677C551 681.971 546.747 686 541.5 686Z" fill="#2E8E10"/>
<path d="M328.5 706C323.253 706 319 701.971 319 697C319 692.029 323.253 688 328.5 688C333.747 688 338 692.029 338 697C338 701.971 333.747 706 328.5 706Z" fill="#2E8E10"/>
<path d="M87.5 682C75.0736 682 65 672.374 65 660.5C65 648.626 75.0736 639 87.5 639C99.9264 639 110 648.626 110 660.5C110 672.374 99.9264 682 87.5 682Z" fill="#2E8E10"/>
<path d="M298.5 693C307.06 693 314 686.284 314 678C314 669.716 307.06 663 298.5 663C289.94 663 283 669.716 283 678C283 686.284 289.94 693 298.5 693Z" fill="#2E8E10"/>
<path d="M352.5 703C361.06 703 368 696.284 368 688C368 679.716 361.06 673 352.5 673C343.94 673 337 679.716 337 688C337 696.284 343.94 703 352.5 703Z" fill="#2E8E10"/>
<path d="M512.5 663C517.747 663 522 658.971 522 654C522 649.029 517.747 645 512.5 645C507.253 645 503 649.029 503 654C503 658.971 507.253 663 512.5 663Z" fill="#2E8E10"/>
<path d="M562.5 663C567.747 663 572 658.971 572 654C572 649.029 567.747 645 562.5 645C557.253 645 553 649.029 553 654C553 658.971 557.253 663 562.5 663Z" fill="#2E8E10"/>
<path d="M612.5 663C617.747 663 622 658.971 622 654C622 649.029 617.747 645 612.5 645C607.253 645 603 649.029 603 654C603 658.971 607.253 663 612.5 663Z" fill="#2E8E10"/>
<path d="M16.5 663C21.7467 663 26 658.971 26 654C26 649.029 21.7467 645 16.5 645C11.2533 645 7 649.029 7 654C7 658.971 11.2533 663 16.5 663Z" fill="#2E8E10"/>
<path d="M545 644C547.761 644 550 641.761 550 639C550 636.239 547.761 634 545 634C542.239 634 540 636.239 540 639C540 641.761 542.239 644 545 644Z" fill="#2E8E10"/>
<path d="M693 668C695.761 668 698 665.761 698 663C698 660.239 695.761 658 693 658C690.239 658 688 660.239 688 663C688 665.761 690.239 668 693 668Z" fill="#2E8E10"/>
<path d="M723 674C720.239 674 718 671.761 718 669C718 666.239 720.239 664 723 664C725.761 664 728 666.239 728 669C728 671.761 725.761 674 723 674Z" fill="#2E8E10"/>
<path d="M768 685C764.134 685 761 682.538 761 679.5C761 676.462 764.134 674 768 674C771.866 674 775 676.462 775 679.5C775 682.538 771.866 685 768 685Z" fill="#2E8E10"/>
<path d="M555 705C551.134 705 548 702.538 548 699.5C548 696.462 551.134 694 555 694C558.866 694 562 696.462 562 699.5C562 702.538 558.866 705 555 705Z" fill="#2E8E10"/>
<path d="M342 725C338.134 725 335 722.538 335 719.5C335 716.462 338.134 714 342 714C345.866 714 349 716.462 349 719.5C349 722.538 345.866 725 342 725Z" fill="#2E8E10"/>
<path d="M119.5 727C110.387 727 103 721.18 103 714C103 706.82 110.387 701 119.5 701C128.613 701 136 706.82 136 714C136 721.18 128.613 727 119.5 727Z" fill="#2E8E10"/>
<path d="M276.5 724C282.851 724 288 719.971 288 715C288 710.029 282.851 706 276.5 706C270.149 706 265 710.029 265 715C265 719.971 270.149 724 276.5 724Z" fill="#2E8E10"/>
<path d="M330.5 734C336.851 734 342 729.971 342 725C342 720.029 336.851 716 330.5 716C324.149 716 319 720.029 319 725C319 729.971 324.149 734 330.5 734Z" fill="#2E8E10"/>
<path d="M499.5 681C503.09 681 506 678.538 506 675.5C506 672.462 503.09 670 499.5 670C495.91 670 493 672.462 493 675.5C493 678.538 495.91 681 499.5 681Z" fill="#2E8E10"/>
<path d="M549.5 681C553.09 681 556 678.538 556 675.5C556 672.462 553.09 670 549.5 670C545.91 670 543 672.462 543 675.5C543 678.538 545.91 681 549.5 681Z" fill="#2E8E10"/>
<path d="M599.5 681C603.09 681 606 678.538 606 675.5C606 672.462 603.09 670 599.5 670C595.91 670 593 672.462 593 675.5C593 678.538 595.91 681 599.5 681Z" fill="#2E8E10"/>
<path d="M3.5 681C7.08985 681 10 678.538 10 675.5C10 672.462 7.08985 670 3.5 670C-0.0898509 670 -3 672.462 -3 675.5C-3 678.538 -0.0898509 681 3.5 681Z" fill="#2E8E10"/>
<path d="M537.5 654C539.433 654 541 652.657 541 651C541 649.343 539.433 648 537.5 648C535.567 648 534 649.343 534 651C534 652.657 535.567 654 537.5 654Z" fill="#2E8E10"/>
<path d="M685.5 678C687.433 678 689 676.657 689 675C689 673.343 687.433 672 685.5 672C683.567 672 682 673.343 682 675C682 676.657 683.567 678 685.5 678Z" fill="#2E8E10"/>
<path d="M730.5 684C728.567 684 727 682.657 727 681C727 679.343 728.567 678 730.5 678C732.433 678 734 679.343 734 681C734 682.657 732.433 684 730.5 684Z" fill="#2E8E10"/>
<path d="M742.5 666C737.806 666 734 661.971 734 657C734 652.029 737.806 648 742.5 648C747.194 648 751 652.029 751 657C751 661.971 747.194 666 742.5 666Z" fill="#2E8E10"/>
<path d="M529.5 686C524.806 686 521 681.971 521 677C521 672.029 524.806 668 529.5 668C534.194 668 538 672.029 538 677C538 681.971 534.194 686 529.5 686Z" fill="#2E8E10"/>
<path d="M316.5 706C311.806 706 308 701.971 308 697C308 692.029 311.806 688 316.5 688C321.194 688 325 692.029 325 697C325 701.971 321.194 706 316.5 706Z" fill="#2E8E10"/>
<path d="M59 682C47.9543 682 39 672.374 39 660.5C39 648.626 47.9543 639 59 639C70.0457 639 79 648.626 79 660.5C79 672.374 70.0457 682 59 682Z" fill="#2E8E10"/>
<path d="M318.5 693C325.956 693 332 686.284 332 678C332 669.716 325.956 663 318.5 663C311.044 663 305 669.716 305 678C305 686.284 311.044 693 318.5 693Z" fill="#2E8E10"/>
<path d="M372.5 703C379.956 703 386 696.284 386 688C386 679.716 379.956 673 372.5 673C365.044 673 359 679.716 359 688C359 696.284 365.044 703 372.5 703Z" fill="#2E8E10"/>
<path d="M524 663C528.418 663 532 658.971 532 654C532 649.029 528.418 645 524 645C519.582 645 516 649.029 516 654C516 658.971 519.582 663 524 663Z" fill="#2E8E10"/>
<path d="M574 663C578.418 663 582 658.971 582 654C582 649.029 578.418 645 574 645C569.582 645 566 649.029 566 654C566 658.971 569.582 663 574 663Z" fill="#2E8E10"/>
<path d="M624 663C628.418 663 632 658.971 632 654C632 649.029 628.418 645 624 645C619.582 645 616 649.029 616 654C616 658.971 619.582 663 624 663Z" fill="#2E8E10"/>
<path d="M28 663C32.4183 663 36 658.971 36 654C36 649.029 32.4183 645 28 645C23.5817 645 20 649.029 20 654C20 658.971 23.5817 663 28 663Z" fill="#2E8E10"/>
<path d="M551.5 644C553.985 644 556 641.761 556 639C556 636.239 553.985 634 551.5 634C549.015 634 547 636.239 547 639C547 641.761 549.015 644 551.5 644Z" fill="#2E8E10"/>
<path d="M699.5 668C701.985 668 704 665.761 704 663C704 660.239 701.985 658 699.5 658C697.015 658 695 660.239 695 663C695 665.761 697.015 668 699.5 668Z" fill="#2E8E10"/>
<path d="M716.5 674C714.015 674 712 671.761 712 669C712 666.239 714.015 664 716.5 664C718.985 664 721 666.239 721 669C721 671.761 718.985 674 716.5 674Z" fill="#2E8E10"/>
<path d="M761.5 685C757.91 685 755 682.538 755 679.5C755 676.462 757.91 674 761.5 674C765.09 674 768 676.462 768 679.5C768 682.538 765.09 685 761.5 685Z" fill="#2E8E10"/>
<path d="M548.5 705C544.91 705 542 702.538 542 699.5C542 696.462 544.91 694 548.5 694C552.09 694 555 696.462 555 699.5C555 702.538 552.09 705 548.5 705Z" fill="#2E8E10"/>
<path d="M335.5 725C331.91 725 329 722.538 329 719.5C329 716.462 331.91 714 335.5 714C339.09 714 342 716.462 342 719.5C342 722.538 339.09 725 335.5 725Z" fill="#2E8E10"/>
<path d="M104 727C95.7157 727 89 721.18 89 714C89 706.82 95.7157 701 104 701C112.284 701 119 706.82 119 714C119 721.18 112.284 727 104 727Z" fill="#2E8E10"/>
<path d="M287.5 724C293.299 724 298 719.971 298 715C298 710.029 293.299 706 287.5 706C281.701 706 277 710.029 277 715C277 719.971 281.701 724 287.5 724Z" fill="#2E8E10"/>
<path d="M341.5 734C347.299 734 352 729.971 352 725C352 720.029 347.299 716 341.5 716C335.701 716 331 720.029 331 725C331 729.971 335.701 734 341.5 734Z" fill="#2E8E10"/>
<path d="M506 681C509.314 681 512 678.538 512 675.5C512 672.462 509.314 670 506 670C502.686 670 500 672.462 500 675.5C500 678.538 502.686 681 506 681Z" fill="#2E8E10"/>
<path d="M556 681C559.314 681 562 678.538 562 675.5C562 672.462 559.314 670 556 670C552.686 670 550 672.462 550 675.5C550 678.538 552.686 681 556 681Z" fill="#2E8E10"/>
<path d="M606 681C609.314 681 612 678.538 612 675.5C612 672.462 609.314 670 606 670C602.686 670 600 672.462 600 675.5C600 678.538 602.686 681 606 681Z" fill="#2E8E10"/>
<path d="M10 681C13.3137 681 16 678.538 16 675.5C16 672.462 13.3137 670 10 670C6.68629 670 4 672.462 4 675.5C4 678.538 6.68629 681 10 681Z" fill="#2E8E10"/>
<path d="M541.5 654C543.433 654 545 652.657 545 651C545 649.343 543.433 648 541.5 648C539.567 648 538 649.343 538 651C538 652.657 539.567 654 541.5 654Z" fill="#2E8E10"/>
<path d="M689.5 678C691.433 678 693 676.657 693 675C693 673.343 691.433 672 689.5 672C687.567 672 686 673.343 686 675C686 676.657 687.567 678 689.5 678Z" fill="#2E8E10"/>
<path d="M726.5 684C724.567 684 723 682.657 723 681C723 679.343 724.567 678 726.5 678C728.433 678 730 679.343 730 681C730 682.657 728.433 684 726.5 684Z" fill="#2E8E10"/>
<path d="M749 661C742.925 661 738 656.075 738 650C738 643.925 742.925 639 749 639C755.075 639 760 643.925 760 650C760 656.075 755.075 661 749 661Z" fill="#38A814"/>
<path d="M536 681C529.925 681 525 676.075 525 670C525 663.925 529.925 659 536 659C542.075 659 547 663.925 547 670C547 676.075 542.075 681 536 681Z" fill="#38A814"/>
<path d="M323 701C316.925 701 312 696.075 312 690C312 683.925 316.925 679 323 679C329.075 679 334 683.925 334 690C334 696.075 329.075 701 323 701Z" fill="#38A814"/>
<path d="M74.5 670C59.8645 670 48 658.359 48 644C48 629.641 59.8645 618 74.5 618C89.1355 618 101 629.641 101 644C101 658.359 89.1355 670 74.5 670Z" fill="#38A814"/>
<path d="M307.5 685C317.717 685 326 676.941 326 667C326 657.059 317.717 649 307.5 649C297.283 649 289 657.059 289 667C289 676.941 297.283 685 307.5 685Z" fill="#38A814"/>
<path d="M361.5 695C371.717 695 380 686.941 380 677C380 667.059 371.717 659 361.5 659C351.283 659 343 667.059 343 677C343 686.941 351.283 695 361.5 695Z" fill="#38A814"/>
<path d="M518 658C524.075 658 529 653.299 529 647.5C529 641.701 524.075 637 518 637C511.925 637 507 641.701 507 647.5C507 653.299 511.925 658 518 658Z" fill="#38A814"/>
<path d="M568 658C574.075 658 579 653.299 579 647.5C579 641.701 574.075 637 568 637C561.925 637 557 641.701 557 647.5C557 653.299 561.925 658 568 658Z" fill="#38A814"/>
<path d="M618 658C624.075 658 629 653.299 629 647.5C629 641.701 624.075 637 618 637C611.925 637 607 641.701 607 647.5C607 653.299 611.925 658 618 658Z" fill="#38A814"/>
<path d="M22 658C28.0751 658 33 653.299 33 647.5C33 641.701 28.0751 637 22 637C15.9249 637 11 641.701 11 647.5C11 653.299 15.9249 658 22 658Z" fill="#38A814"/>
<path d="M548 641C551.314 641 554 638.314 554 635C554 631.686 551.314 629 548 629C544.686 629 542 631.686 542 635C542 638.314 544.686 641 548 641Z" fill="#38A814"/>
<path d="M696 665C699.314 665 702 662.314 702 659C702 655.686 699.314 653 696 653C692.686 653 690 655.686 690 659C690 662.314 692.686 665 696 665Z" fill="#38A814"/>
<path d="M720 671C716.686 671 714 668.314 714 665C714 661.686 716.686 659 720 659C723.314 659 726 661.686 726 665C726 668.314 723.314 671 720 671Z" fill="#38A814"/>
<path d="M765 681C761.134 681 758 678.09 758 674.5C758 670.91 761.134 668 765 668C768.866 668 772 670.91 772 674.5C772 678.09 768.866 681 765 681Z" fill="#38A814"/>
<path d="M552 701C548.134 701 545 698.09 545 694.5C545 690.91 548.134 688 552 688C555.866 688 559 690.91 559 694.5C559 698.09 555.866 701 552 701Z" fill="#38A814"/>
<path d="M339 721C335.134 721 332 718.09 332 714.5C332 710.91 335.134 708 339 708C342.866 708 346 710.91 346 714.5C346 718.09 342.866 721 339 721Z" fill="#38A814"/>
<path d="M112.5 717C103.387 717 96 710.284 96 702C96 693.716 103.387 687 112.5 687C121.613 687 129 693.716 129 702C129 710.284 121.613 717 112.5 717Z" fill="#38A814"/>
<path d="M281.5 717C287.851 717 293 712.299 293 706.5C293 700.701 287.851 696 281.5 696C275.149 696 270 700.701 270 706.5C270 712.299 275.149 717 281.5 717Z" fill="#38A814"/>
<path d="M335.5 727C341.851 727 347 722.299 347 716.5C347 710.701 341.851 706 335.5 706C329.149 706 324 710.701 324 716.5C324 722.299 329.149 727 335.5 727Z" fill="#38A814"/>
<path d="M502.5 677C506.09 677 509 674.09 509 670.5C509 666.91 506.09 664 502.5 664C498.91 664 496 666.91 496 670.5C496 674.09 498.91 677 502.5 677Z" fill="#38A814"/>
<path d="M552.5 677C556.09 677 559 674.09 559 670.5C559 666.91 556.09 664 552.5 664C548.91 664 546 666.91 546 670.5C546 674.09 548.91 677 552.5 677Z" fill="#38A814"/>
<path d="M602.5 677C606.09 677 609 674.09 609 670.5C609 666.91 606.09 664 602.5 664C598.91 664 596 666.91 596 670.5C596 674.09 598.91 677 602.5 677Z" fill="#38A814"/>
<path d="M6.5 677C10.0899 677 13 674.09 13 670.5C13 666.91 10.0899 664 6.5 664C2.91015 664 0 666.91 0 670.5C0 674.09 2.91015 677 6.5 677Z" fill="#38A814"/>
<path d="M539.5 652C541.433 652 543 650.433 543 648.5C543 646.567 541.433 645 539.5 645C537.567 645 536 646.567 536 648.5C536 650.433 537.567 652 539.5 652Z" fill="#38A814"/>
<path d="M687.5 676C689.433 676 691 674.433 691 672.5C691 670.567 689.433 669 687.5 669C685.567 669 684 670.567 684 672.5C684 674.433 685.567 676 687.5 676Z" fill="#38A814"/>
<path d="M728.5 682C726.567 682 725 680.433 725 678.5C725 676.567 726.567 675 728.5 675C730.433 675 732 676.567 732 678.5C732 680.433 730.433 682 728.5 682Z" fill="#38A814"/>
<path d="M579.18 529.901L580.08 531H598.783L610.167 542.059L502.852 542.928L556.031 501.66L579.18 529.901Z" fill="#F7FEF5" stroke="#D2F9FD" stroke-width="6"/>
</g>
<defs>
<clipPath id="clip0_335_3">
<rect width="800" height="800" fill="white"/>
</clipPath>
</defs>
</svg>
