<svg xmlns="http://www.w3.org/2000/svg" xmlns:xlink="http://www.w3.org/1999/xlink" viewBox="0 0 800 2800" width="100%" height="100%" preserveAspectRatio="xMidYMid slice">

  <defs>
    <g id="shaft-erosion"><path fill-rule="evenodd" clip-rule="evenodd" d="M253.66 29.4829L247.803 41.7136L249.502 52.4698L269.983 49.9159L270.157 50.9492L249.937 55.2162L251.027 62.1109L264.716 71.0525V80.4591L272.123 84.2162L280.534 70.0203L281.465 70.5006L274.765 85.5566L286.497 91.5081L293.019 77.5898L286.259 56.2904L286.188 56.0661L286.307 55.8644L301.527 30.1741L302.459 30.6543L292.05 54.0468L301.419 77.9605L301.501 78.1714L301.404 78.3762L299.22 82.9955L306.074 76.3692L323.183 64.4159L323.708 64.9402L308.173 78.6763L293.057 96.6067L292.684 96.8197L292.567 97.0685L298.601 117.161L326.351 98.1673L327.092 98.8779L305.255 133.675L305.979 134.502L313.567 133.429L313.742 133.303L314.068 133.067L314.376 133.315L318.879 132.678L344.702 125.234L365.8 116.74L366.115 117.369L345.646 127.855L339.517 130.112L353.402 136.808L361.04 132.74L361.148 132.683L361.272 132.678L380.167 132.154L380.24 133.2L361.962 135.286L353.431 139.547L353.207 139.452L338.83 133.297L325.142 146.446L324.797 146.231L319.78 143.128L311.881 174.276L317.099 169.272L332.408 176.654L340.046 172.586L340.154 172.529L340.279 172.525L359.173 172L359.247 173.046L340.968 175.132L332.438 179.394L332.213 179.298L317.836 173.143L313.558 177.253L322.559 183.497L336.806 180.335L337.011 180.564L354.855 200.487L354.098 201.212L335.937 183.59L321.923 187.09V187.545L323.557 187.732L323.484 188.778L321.923 188.734V193.216L327.988 197.255L327.49 198.173L320.142 195.027L319.849 194.901L319.825 194.582L319.401 188.664L304.589 188.253L304.465 188.249L304.357 188.192L303.908 187.952L299.741 195.058L308.305 200.026L308.275 200.359L307.249 211.624L321.74 224.031L321.114 224.87L318.506 223.189L333.862 240.334L333.104 241.059L314.944 223.436L300.93 226.936V233.062L306.994 237.101L306.496 238.019L299.148 234.874L298.855 234.748L298.831 234.428L298.326 227.368L291.758 223.644L288.319 238.182L288.22 238.162L297.676 247.499L311.427 263.962L310.902 264.38L295.891 249.281L287.144 241.703L286.256 251.471L300.746 263.878L300.12 264.716L283.599 254.069L283.61 253.77L284.12 240.999L271.708 234.8L274.156 248.982L274.173 249.088L274.148 249.192L267.325 278.028L266.296 277.825L270.997 248.599L263.075 227.496L264.92 224.961L255.796 218.975L250.649 220.131L238.294 228.961L244.721 242.556L244.818 242.76L244.736 242.971L235.367 266.885L245.776 290.278L244.844 290.758L229.624 265.067L229.505 264.866L229.576 264.641L236.336 243.342L230.176 230.197L219.789 231.35L208.033 233.185V249.879L194.344 258.821L189.657 288.475L188.614 288.355L190.644 260.477L189.748 260.962L190.055 261.305L189.297 262.03L188.753 261.503L167.345 273.125L166.788 272.24L185.751 258.59L171.137 244.408L170.063 244.675L168.565 251.169L162.057 266.478L161.322 266.269L162.878 258.642L162.689 258.991L155.341 255.845L155.048 255.719L155.024 255.4L154.552 248.806L132.957 240.874L126.224 248.663L127.117 251.339L143.505 260.844L143.475 261.177L142.449 272.442L156.939 284.849L156.313 285.688L139.792 275.04L139.803 274.741L140.313 261.971L127.901 255.772L130.349 269.954L130.366 270.06L130.341 270.164L123.519 299L122.489 298.796L127.19 269.571L119.278 248.492L105.152 239.388L105.163 239.089L105.458 231.728L97.5798 236.926L96.8582 236.191L102.978 227.281L102.868 227.223L102.329 227.471L95.5112 233.159L95.709 234.302L95.7265 234.408L95.7019 234.512L88.8789 263.348L87.8497 263.144L90.8952 244.205L71.7836 254.629L74.5124 233.657L85.9615 239.914L92.0946 232.705L84.6289 212.815L85.6632 211.393L76.052 207.793L70.3557 220.728L53.779 222.33L53.6396 221.291L68.5618 218.721L73.8676 204.411L88.2167 207.886L93.5184 200.603L84.3798 192.552L84.3306 187.161L62.9402 201.274L62.2185 200.54L80.1739 174.4L74.2407 168.199L57.986 178.349L41.4124 172.141L35.716 185.076L19.1394 186.679L19 185.639L33.9221 183.069L39.228 168.759L56.761 173.005L70.861 162.44L68.6735 159.163L75.2402 156.639L68.7442 151.602L57.7174 153.336L37.3541 156.062L37.144 155.433L55.3484 149.986L58.0823 143.337L40.8107 129.946L41.2771 129.029L61.584 134.825L65.7766 124.631L58.97 120.381L58.9772 120.082L59.2314 109.914L58.6707 109.51L59.2273 108.624L59.2632 108.644L59.4949 99.3858L24.0311 73.8583L24.5877 72.9725L47.8868 85.6211L45.8572 57.7424L46.8997 57.6226L51.5864 87.2769L65.2753 96.2186V111.907L69.963 114.453L71.7836 110.029L75.562 105.065L66.6551 103.442L66.8058 102.405L76.7686 103.481L80.8412 98.1324L80.4968 93.3943L81.5393 93.2745L82.0549 96.5381L83.7525 94.3098L66.8499 78.6763L67.2701 78.152L86.3736 91.7836L92.1038 98.1099L86.8185 81.4565L86.7478 81.2322L86.8667 81.0305L102.087 55.3401L103.019 55.8204L92.6102 79.2128L100.778 100.063L104.534 93.7763L115.765 82.4508L133.277 82.3627L127.374 74.3631L128.071 73.6044L137.049 79.1002L137.172 74.2198L101.708 48.6922L102.264 47.8065L125.564 60.455L123.534 32.5764L124.576 32.4566L129.263 62.1109L142.952 71.0525V80.7263L152.714 78.2564L156.323 77.2191L150.036 68.2375L150.115 67.9907L155.388 51.3833L142.451 46.4773L142.163 46.3677L142.118 46.0636L139.706 29.9129L140.738 29.7204L144.077 44.4744L158.21 48.8909L158.656 49.0291L155.317 66.7394L162.568 75.425L168.774 73.6433L169.922 73.3903L164.495 56.2904L164.424 56.0661L164.543 55.8644L179.764 30.1741L180.696 30.6543L170.287 54.0468L177.236 71.7867L182.124 70.7146L197.54 48.6062L198.481 49.024L197.875 51.6434L201.105 38.0958L201.839 38.2013L199.693 58.8801L229.465 65.0334L234.766 56.8219L223.471 48.6922L224.028 47.8065L236.289 54.4625L245.816 39.7055L245.297 32.5764L246.34 32.4566L247.157 37.6289L252.746 28.9729L253.66 29.4829ZM157.123 254.034L163.017 257.959L164.165 252.338L157.123 249.75V254.034ZM185.989 234.706L171.016 240.554L170.816 241.416L172.005 241.153L172.21 241.382L186.888 257.77L202.252 246.712L201.934 234.016L185.989 234.706ZM161.753 246.751L164.658 247.691L164.711 246.013L161.753 246.751ZM107.809 236.79L120.104 247.317L126.518 238.509L119.019 235.754L108.413 230.152L107.809 236.79ZM157.758 244.315L164.816 242.748L164.847 241.796L152.198 240.457L157.758 244.315ZM86.8421 240.395L91.131 242.739L92.2319 235.895L86.8421 240.395ZM153.825 223.879L155.415 225.653L154.657 226.378L153.226 224.99L146.883 236.77L151.488 239.965L162.792 207.232L153.825 223.879ZM135.277 238.19L138.398 239.199L135.719 237.68L135.277 238.19ZM279.512 229.565L279.516 229.568L287.391 237.344L289.776 222.52L285.171 219.91L279.512 229.565ZM109.667 228.952L119.964 233.238L128.374 235.958L131.833 231.209L131.49 230.596L116.185 225.374L115.932 224.818L109.667 228.952ZM270.923 230.367L280.418 235.874L276.891 232.818L270.297 228.491L270.923 230.367ZM94.8705 229.443L99.4947 224.01L100.112 223.541L93.2611 220.12L94.8705 229.443ZM272.811 224.475L278.898 229.098L284.225 219.372L279.526 216.709L272.811 224.475ZM294.316 204.311L295.149 209.136L295.167 209.242L295.142 209.346L293.203 217.541L301.565 223.343L314.343 220.507L304.592 214.222L304.604 213.923L305.114 201.153L298.194 197.697L294.316 204.311ZM92.6256 214.001L91.8127 213.696L92.477 215.687L102.671 221.599L111.451 214.94L109.572 210.798L103.504 207.208L92.6256 214.001ZM269.335 215.937L266.91 216.48L268.847 219.567L273.726 212.865L269.335 215.937ZM288.48 214.265L290.84 215.903L291.991 208.753L291.882 208.463L288.48 214.265ZM282.98 206.394L282.326 206.85L283.035 210.488L287.423 213.532L291.199 206.643L288.632 199.805L282.98 206.394ZM292.717 195.045L293.875 201.757L296.549 196.875L292.767 194.986L292.717 195.045ZM292.471 186.171L291.402 187.408L292.143 190.651L298.074 194.091L301.996 186.935L296.719 184.124L292.471 186.171ZM305.822 184.683L305.264 185.638L305.279 185.646L318.717 187.179L308.975 181.656L305.822 184.683ZM299.465 178.08L304.049 181.787L305.664 180.238L305.856 179.887L300.52 176.862L299.465 178.08ZM287.363 177.062L287.827 176.724L286.916 176.552L287.363 177.062ZM303.296 149.631L306.388 154.174L304.079 168.016L303.59 168.388L304.029 170.642L309.024 174.107L309.432 173.363L315.942 140.755L314.114 139.625L303.296 149.631ZM106.361 172.48L105.626 173.16L107.86 173.798L113.29 172.184L113.704 171.105L106.361 172.48ZM60.8695 148.195L63.3031 147.384L61.6281 146.086L60.8695 148.195ZM321.387 136.793L320.925 138.612L325.043 141.941L336.041 131.393L321.387 136.793ZM65.301 135.886L77.5538 139.383L77.9741 138.29L73.2505 129.297L68.6971 126.453L65.301 135.886ZM93.9531 121.254L118.495 129.092L119.185 128.62L102.631 121.287L94.1827 120.958L93.9531 121.254ZM71.2167 119.455L77.522 123.531L77.8746 123.333L71.4791 118.729L71.2167 119.455ZM74.1977 111.182L72.5196 115.841L82.0242 121.001L82.4875 120.741L81.4235 106.133L77.7937 105.472L74.1977 111.182ZM85.6027 118.988L86.0589 118.732L86.0886 118.742L91.1638 107.909L83.6346 106.536L85.6027 118.988ZM94.9402 118.399L96.0801 118.385L95.1422 117.97L94.9402 118.399ZM65.2753 115.615L68.6007 117.765L68.9523 116.911L65.2753 114.264V115.615ZM82.3296 98.2748L83.2625 104.182L90.6308 104.978L84.3152 95.1239L82.3296 98.2748ZM78.9028 103.711L81.2656 103.966L81.0042 100.377L78.9028 103.711ZM271.057 93.893L271.4 94.7696L276.281 97.9246L285.291 94.0804L286.121 92.3099L274.234 86.7496L271.057 93.893ZM264.716 90.4493L267.401 92.185L271.405 85.4265L264.716 82.2972V90.4493ZM232.663 71.0269L232.52 71.2727L213.128 72.2731L211.735 74.6878L220.208 76.0548L224.678 77.5724L224.304 72.4226L225.346 72.3028L226.264 78.111L235.954 81.4022L255.689 83.0805L258.628 86.5007L258.802 79.5313L236.794 69.239L233.963 68.7956L232.663 71.0269ZM235.438 66.2673L237.634 66.722L258.853 77.4853L258.935 74.2198L239.119 59.9553L235.438 66.2673ZM193.35 71.3382L203.309 73.3289L204.027 73.4446L208.039 66.2284L216.158 66.0113L198.347 63.227L193.35 71.3382ZM241.109 57.0789L247.327 60.455L246.991 55.8378L241.109 57.0789ZM242.217 53.3791L246.77 52.8108L246.205 45.0498L242.217 53.3791Z" fill="#010106"/>
<path d="M351.629 171.686L333.05 169.379L348.48 152.497L351.629 171.686Z" fill="#3A3426"/>
<path d="M259.152 273.399L251.07 273.713L256.633 264.276L259.152 273.399Z" fill="#0C3208"/>
<path d="M348.166 104.052L332.945 96.1878L342.813 81.822L348.166 104.052Z" fill="#1E7010"/>
<path d="M217.27 34.6356L209.922 47.0087L201.734 31.9097L217.27 34.6356Z" fill="#1E7010"/>
<path d="M121.958 52.0418L113.876 52.3572L119.439 42.9199L121.958 52.0418Z" fill="#0C3208"/>
<path d="M34.3096 138.656L19.0892 130.791L28.9566 116.425L34.3096 138.656Z" fill="#3A3426"/>
<path d="M233.486 235.331L215.876 225.849L213.167 246.169L233.486 235.331Z" fill="#3A3426"/>
<path d="M321.35 112.2L307.87 109.411L314.618 124.813L321.35 112.2Z" fill="#3A3426"/>
<path d="M281.032 19.5146L275.48 17.3837L277.12 25.2696L281.032 19.5146Z" fill="#0C3208"/>
<path d="M302.939 158.465L290.483 160.339L293.954 172.674L302.939 158.465Z" fill="#1E7010"/>
<path d="M195.393 175.825L193.205 165.473L183.933 174.048L195.393 175.825Z" fill="#1E7010"/>
<path d="M133.158 141.161L127.606 139.029L129.246 146.915L133.158 141.161Z" fill="#0C3208"/>
<path d="M92.6299 60.1293L80.1736 62.0037L83.6446 74.3389L92.6299 60.1293Z" fill="#3A3426"/>
<path d="M254.159 39.9443L239.656 42.3797L242.577 27.5929L254.159 39.9443Z" fill="#3A3426"/>
<path d="M139.357 68.376L123.132 61.4225L119.655 70.6938L137.039 75.3295L139.357 68.376Z" fill="#186010"/>
<path d="M200.779 60.2635L215.845 56.7868L218.163 66.0581L203.097 68.376L200.779 60.2635Z" fill="#1E7010"/>
<path d="M171.806 66.0582L160.217 59.1047L156.74 68.376L170.647 73.0117L171.806 66.0582Z" fill="#0C3208"/>
<path d="M227.434 66.0582L241.341 63.7404L243.659 73.0117L229.752 75.3295L227.434 66.0582Z" fill="#186010"/>
<path d="M102.271 112.415L86.0465 105.461L82.5698 121.686L99.9535 126.322L102.271 112.415Z" fill="#3A3426"/>
<path d="M96.4767 144.864L79.093 139.07L76.7752 154.136L94.1589 157.612L96.4767 144.864Z" fill="#28221A"/>
<path d="M99.9535 172.678L83.7287 168.043L81.4108 179.632L97.6357 181.95L99.9535 172.678Z" fill="#322C20"/>
<path d="M278.426 110.097L295.81 103.143L298.128 119.368L280.744 122.845L278.426 110.097Z" fill="#3A3426"/>
<path d="M280.744 142.547L299.287 137.911L300.446 152.977L281.903 156.454L280.744 142.547Z" fill="#28221A"/>
<path d="M270.314 172.678L287.698 169.202L288.857 180.791L271.473 183.109L270.314 172.678Z" fill="#322C20"/>
<path d="M131.244 230.624L116.178 223.671L113.86 235.26L130.085 238.736L131.244 230.624Z" fill="#3A3426"/>
<path d="M183.395 237.578L169.488 232.942L167.171 242.213L183.395 244.531V237.578Z" fill="#0C3208"/>
<path d="M235.547 230.624L250.612 225.988L252.93 236.419L237.864 239.895L235.547 230.624Z" fill="#28221A"/>
<path d="M208.891 235.26L223.957 231.783L226.275 242.213L210.05 243.372L208.891 235.26Z" fill="#322C20"/>
<path d="M128.926 70.6938L86.0465 28.9729L90.6821 37.0853L133.562 79.9652L128.926 70.6938Z" fill="#070503"/>
<path d="M89.5232 32.4496L75.6163 17.3837L79.093 26.655L90.6822 37.0853L89.5232 32.4496Z" fill="#070503"/>
<path d="M179.919 57.9457L175.283 17.3837L184.554 16.2248L186.872 57.9457H179.919Z" fill="#070503"/>
<path d="M177.601 22.0194L171.806 1.15891L181.078 0L184.554 22.0194H177.601Z" fill="#070503"/>
<path d="M247.136 71.8527L290.015 30.1318L292.333 39.4031L250.612 81.124L247.136 71.8527Z" fill="#070503"/>
<path d="M288.857 33.6085L305.081 18.5426L307.399 27.8139L291.174 40.562L288.857 33.6085Z" fill="#070503"/>
<path d="M281.903 117.05L327.101 112.415V121.686L281.903 126.322V117.05Z" fill="#070503"/>
<path d="M314.353 113.574L338.69 103.143L341.008 112.415L316.671 120.527L314.353 113.574Z" fill="#070503"/>
<path d="M262.202 207.446L296.969 251.485L291.174 254.961L255.248 210.923L262.202 207.446Z" fill="#070503"/>
<path d="M110.589 195.128L75.8217 243.802L81.6163 246.12L116.384 198.605L110.589 195.128Z" fill="#070503"/>
<path d="M96.4767 158.771L38.531 152.977V161.089L96.4767 165.725V158.771Z" fill="#070503"/>
<path d="M50.1201 154.136L23.4651 147.182V156.454L50.1201 162.248V154.136Z" fill="#070503"/>
<path d="M108.066 45.1977L93 33.6085L97.6356 42.8798L109.225 50.9922L108.066 45.1977Z" fill="#070503"/>
<path d="M257.566 42.8799L272.632 32.4496L269.155 41.721L256.407 49.8334L257.566 42.8799Z" fill="#070503"/></g>
    <g id="shaft-hole-1"><path fill-rule="evenodd" clip-rule="evenodd" d="M246.38 0.150943L243.922 27.0929L269.235 13.9041L269.725 14.7559L243.873 31.1183L241.069 47.2471L241.023 47.5086L222.891 55.3413L219.425 75.8427L246.349 76.6532L263.554 61.7271L263.721 61.5829L263.938 61.6108L266.852 61.9819L283.827 41.071L284.22 41.3661L269.959 62.377L294.077 65.4497L294.01 66.4313L267.938 66.1573L266.281 67.7975L261.904 74.2477L241.973 92.0926L262.1 91.3783L280.976 92.5599V92.9531L262.1 93.1502L238.533 95.173L236.834 96.695L226.302 107.133L240.486 116.083L240.15 116.985L219.553 113.823L218.135 115.229L233.817 142.89L247.181 144.049L252.523 141.899L262.125 98.4495L263.093 98.6005L260.635 125.542L285.948 112.354L286.438 113.205L260.586 129.568L257.906 144.979L282.352 147.1L289.696 147.012L308.602 137.748L318.925 131.645L319.219 132.038L309.388 139.224L295.664 146.94L315.09 146.707L332 149.562V150.054L315.188 150.35L282.254 153.894L241.816 152.834L239.604 153.791L237.411 166.758L256.477 162.768L256.478 162.769L256.494 162.765L256.712 163.725L237.114 168.519L236.138 174.292L263.063 175.103L280.267 160.177L280.434 160.032L280.651 160.06L310.79 163.899L310.723 164.881L284.651 164.607L266.051 183.025L265.901 183.174L265.689 183.166L244.644 182.461L236.077 189.663L244.208 193.372L244.011 193.864L234.235 191.211L231.111 193.838L241.946 203.611L273.602 223.793L293.756 242.596L293.461 242.991L271.538 226.844L246.736 213.88L240.561 212.932L238.8 224.088L237.326 234.228L236.932 234.13L237.03 223.891L237.917 212.526L215.519 209.089L213.426 213.477L219.283 216.947L219.608 217.139L219.507 217.503L215.725 230.976L232.682 238.113L231.94 255.383L238.833 260.886L238.922 260.959L238.972 261.063L247.063 278.497L246.19 278.95L236.883 262.715L229.652 256.625L229.476 256.477V256.249L229.446 240.31L211.652 232.838L211.709 232.46L213.591 219.785L196.23 212.107L194.103 213.561L209.299 226.731L208.817 227.569L185.41 219.503L180.454 222.892L179.453 227.825L190.351 235.485L190.329 235.765L188.691 256.828L223.307 284.735L222.74 285.537L199.725 271.371L200.287 299.938L199.308 300L196.145 269.539L183.325 260.131L173.002 282.418L172.098 282.035L181.273 257.938L172.33 246.22L166.553 248.715L165.213 256.032L164.238 255.945L164.222 247.812L164.221 247.512L170.906 244.04L172.273 231.589L166.981 227.744L154.302 251.544L160.019 273.608L160.074 273.822L159.952 274.004L143.135 299.343L142.287 298.847L154.109 275.574L145.887 250.709L145.82 250.508L151.587 239.77L143.445 242.442L137.67 261.006L136.715 260.777L139.973 241.349L140.019 241.072L152.448 236.282L153.256 222.075L140.915 230.134L140.83 230.189L140.731 230.207L111.03 235.479L110.824 234.519L140.044 227.105L151.98 215.614L150.837 210.901L121.624 228.777L120.966 228.074L145.001 193.794L142.002 189.968L136.298 193.683L135.982 193.89L135.701 193.636L129.847 188.347L129.408 188.418L138.52 200.322L101.988 220.287L101.418 219.494L125.301 197.239L118.291 191.647L117.496 191.037L111.669 196.084L111.409 196.308L111.11 196.143L110.42 195.763L87.1041 213.259L57.5126 232.358L30.8704 255.494L30.4767 255.1L55.4484 229.798L83.4673 208.435L103.03 191.69L96.2873 187.974L92.9894 189.519L73.5872 205.005L72.9151 204.291L84.2469 191.665L69.381 191.293L63.3806 195.668L50.8813 206.968L50.5299 206.704L61.1417 193.155L85.3472 171.83L112.283 156.653L111.597 155.423L104.702 152.909L104.674 152.81L98.434 153.416L79.4158 166.012L78.7389 165.322L86.0634 154.619L59.0852 157.241L17.7941 159.899L0.196816 164.428L0 163.936L17.1067 156.257L58.2989 150.35L92.8771 144.663L97.1744 138.385L91.3188 132.025L74.6077 142.5L74.4013 142.629L57.5519 136.292L51.7598 149.493L34.9478 151.125L34.8173 150.149L49.9961 147.525L55.2285 133.36L55.3812 132.948L55.8055 133.052L73.1714 137.273L87.539 126.466L85.3251 123.136L92.0149 120.555L56.9874 93.2963L57.4242 92.4339L94.3056 103L96.4111 97.5083L94.1616 95.2826L75.6849 83.7033L75.4478 83.5542L75.6024 77.3223L39.8164 58.2996L40.0132 57.9054L75.6974 73.493L75.9806 62.152L39.9441 36.1139L40.4664 35.2822L64.1966 48.2143L62.1296 19.7149L63.105 19.6024L67.868 49.8535L81.5462 58.8207L81.768 58.9669V77.379L89.6963 83.8859L99.1934 90.0486L110.601 65.6132L103.73 43.8812L103.664 43.6706L119.233 17.2902L120.106 17.7411L109.528 41.6055L119.126 66.1996L119.035 66.3919L110.053 85.4636L115.723 104.417L116.393 104.911L137.882 65.4113L138.787 65.7795L125.886 111.911L128.237 113.644L128.789 113.529L157.297 97.8064L141.939 87.746L142.303 86.851L174.304 93.1319L177.817 85.229L161.593 74.0121L161.393 73.8737L160.529 55.8711L146.131 55.774L137.976 40.9614L138.819 40.4547L147.237 53.3723L162.297 52.5724L162.735 52.5503L162.808 52.982L165.817 70.6212L178.817 78.0636L178.24 72.2787L179.125 33.2931L177.65 16.2615L178.142 16.1625L182.664 33.096L184.729 71.7864L186.401 79.0673L188.61 81.3257L199.73 38.3213L200.694 38.3809L205.614 76.4782L212.186 76.2109L215.974 51.437L216.235 51.3312L235.81 43.4495L245.411 0L246.38 0.150943ZM175.885 245.423L182.979 255.244L183.786 239.956L177.866 235.654L175.885 245.423ZM155.443 232.588L155.895 231.75L155.659 230.783L155.443 232.588ZM169.865 221.086L173.17 223.409L173.312 222.122L169.883 221.042L169.865 221.086ZM175.756 197.661L185.383 206.003L186.554 204.472L176.022 197.573L175.756 197.661ZM88.7708 177.161L70.9191 190.172L86.4407 189.221L97.0496 177.402H111.771L113.531 165.745L88.7708 177.161ZM97.5757 185.858L105.355 189.7L110.268 185.495L109.351 184.792L99.5602 184.276L97.5757 185.858ZM136.263 187.298L136.286 187.315L136.315 187.29L136.263 187.298ZM221.977 172.221L222.327 174.928L228.899 174.66L229.555 170.368L221.977 172.221ZM222.699 169.837L229.865 168.337L231.591 157.054L222.699 169.837ZM211.522 97.8073L218.077 101.943L232.114 91.0831L241.269 84.458L227.931 84.0119L211.522 97.8073Z" fill="black"/>
<path d="M24.9716 262.582L14.4521 265.437L14.2552 264.945L24.1844 260.416L24.9716 262.582Z" fill="black"/>
<path d="M263.965 161.991L259.2 162.883L258.974 162.04L263.905 161.798L263.965 161.991Z" fill="black"/>
<path d="M247.255 119.639L247.165 119.929L242.339 118.249L242.7 116.975L247.255 119.639Z" fill="black"/>
<path d="M292.478 110.373L287.924 113.037L287.563 111.763L292.388 110.084L292.478 110.373Z" fill="black"/>
<path d="M38.7353 62.0405L28.2158 64.895L28.0189 64.4027L37.9481 59.8744L38.7353 62.0405Z" fill="black"/></g>
    <g id="shaft-hole-3"><path fill-rule="evenodd" clip-rule="evenodd" d="M311.155 0.216724L305.981 26.9667L298.552 37.9746L311.232 37.4633L315.609 26.6036L315.712 26.3494L315.982 26.309L333.49 23.6671L333.697 24.6034L316.95 29.5186L313.57 39.3144L313.469 39.6033L313.165 39.6352L296.231 41.3822L294.481 43.282L298.267 56.0256L317.949 54.1914L321.025 48.4834L321.165 48.2254L321.458 48.2301L328.766 48.3652L328.836 49.3193L322.262 50.4133L319.958 55.5302L330.325 63.7226L352.092 55.8305L352.451 56.7217L329.824 66.7689L329.6 66.6001L319.137 58.7708L298.853 62.5414L288.96 76.5478L295.599 92.242L299.65 91.7073L299.904 91.5853L299.948 91.6679L306.988 90.7409L307.357 90.6912L307.497 91.0374L313.824 106.822L328.125 107.085L328.347 107.09L333.857 113.858L348.311 122.473L347.856 123.318L332.301 115.776L332.2 115.726L332.13 115.637L327.293 109.367L312.088 109.769L311.754 109.778L305.58 94.4177L301.916 95.3813L306.911 104.801L307.043 105.049L300.04 115.935L312.949 125.31L313.14 125.45L313.147 125.686L313.603 143.41L321.212 144.647L332.218 117.465L333.143 117.645L333.163 147.637L346.057 146.682L352.805 128.61L352.896 128.367L353.147 128.31L373.004 123.749L392.946 105.388L393.621 106.071L375.047 125.854L374.979 125.926L374.89 125.966L362.827 131.266L373.821 137.608L383.314 130.764L383.537 130.604L400 137.834L399.676 138.736L382.894 133.945L374.81 140.422L374.571 140.613L359.047 132.907L356.553 133.578L352.959 146.378L370.58 155.342L376.226 152.159L376.482 152.016L376.725 152.175L382.834 156.194L382.384 157.039L376.242 154.451L371.564 157.547L375.961 170.014L398.577 174.971L398.406 175.915L374.193 172.363L373.914 172.322L373.813 172.059L369.141 159.849L349.979 152.201L334.143 158.759L332.138 170.989L345.027 171.824L345.3 170.617L345.326 170.507L345.397 170.419L356.328 157.018L357.097 157.593L347.616 171.502L347.493 171.984L354.92 172.466V173.138L347.116 173.467L345.522 179.748L345.468 179.964L345.268 180.062L341.949 181.68L339.023 197.642L351.161 205.629L351.187 205.851L352.21 214.295L358.254 226.186L363.783 215.907L364.064 215.903L388.532 215.477L388.582 216.435L365.519 218.459L359.566 230.261L363.809 233.93L370.232 232.148L370.571 233.044L364 236.249L363.737 236.377L363.501 236.201L358.308 232.323L339.686 238.96L341.618 252.113L344.006 253.098L360.386 247.441L360.599 247.661L367.789 255.119L385.046 252.514L385.253 253.45L368 258.515L359.259 250.326L347.545 255.21L358.833 262.009L358.916 262.06L358.974 262.14L374.87 284.136L374.114 284.727L356.679 263.968L337.568 256.903L337.325 256.814L337.266 256.562L332.881 237.775L320.216 235.179L316.365 264.923L315.426 264.983L307.98 236.616L300.274 236.869L297.56 254.389L297.524 254.623L297.316 254.737L287.902 259.879L289.606 260.638L289.395 261.557L287.427 261.493L288.018 267.481L287.346 267.577L286.027 261.447L285.088 261.416L283.315 262.384L288.75 273.821L288.871 274.077L288.708 274.306L280.072 286.517L279.269 285.991L286.409 274.117L279.873 262.246L279.668 261.872L280.515 261.265L259.446 260.573L259.967 273.502L278.026 280.957L278.075 281.212L281.965 301.227L299.63 321.792L298.925 322.444L279.794 303.2L279.724 303.13L279.687 303.04L274.8 290.794L268.098 301.581L274.615 311.306L274.767 311.534L266.995 327.76L266.106 327.406L271.451 310.779L265.254 302.476L265.073 302.23L265.217 301.961L273.287 286.958L272.7 284.442L260.04 280.417L250.498 297.744L253.623 303.758L249.236 309.973L248.408 309.495L251.198 303.437L248.263 298.655L235.668 302.635L229.96 325.092L229.023 324.89L233.381 300.787L233.431 300.51L246.046 296.154L254.326 277.241L248.308 261.18L231.607 257.859L226.449 268.133L226.282 268.467L216.749 266.382L216.989 271.515L214.493 290.442L216.989 304.372L216.317 304.564L211.517 290.634L211.605 273.311L204.18 272.035L201.064 276.451L200.935 276.633L200.713 276.652L192.246 277.392L187.6 279.564L200.645 294.157L199.952 294.821L185.344 280.619L177.005 284.52L176.561 283.669L184.04 279.351L183.346 278.676L170.531 281.882V287.495L176.077 291.195L175.621 292.037L168.902 289.154L168.634 289.039L168.612 288.746L168.15 282.277L150.959 272.512L142.276 282.574L143.093 285.025L158.078 293.735L158.051 294.04L157.113 304.361L170.363 315.728L169.791 316.496L154.683 306.741L154.694 306.467L155.16 294.767L143.81 289.087L146.048 302.081L146.064 302.178L146.042 302.273L139.803 328.693L138.862 328.506L143.16 301.73L135.916 282.395L147.406 266.582L141.556 256.129L140.486 255.69L116.084 271.82L115.424 271.148L129.196 251.059L123.392 248.678L102.278 253.775L106.804 258.352L106.296 258.671L103.748 260.267L111.53 274.394L127.325 277.36L127.744 277.44L127.714 277.866L126.786 291.387L138.261 299.145L137.754 299.962L124.781 292.53L124.536 292.389L124.539 292.108L124.651 279.443L108.736 278.413L108.5 278.398L108.368 278.2L98.5307 263.457L91.4358 266.476L96.626 295.342L95.7486 295.684L79.7347 270.333L69.3413 278.029L73.326 297.17L58.7856 311.82L51.7151 338L50.7797 337.783L55.9351 311.131L55.9548 311.034L56.0082 310.953L63.3825 300.026L50.7028 300.538L46.3262 311.396L46.2231 311.651L45.9532 311.692L28.4452 314.333L28.2389 313.397L44.9849 308.481L48.3659 298.686L48.4662 298.397L48.7699 298.365L65.7034 296.618L67.4544 294.719L63.6674 281.974L43.9857 283.81L40.9092 289.518L40.7696 289.776L33.1695 289.635L33.0991 288.681L39.6738 287.587L41.9769 282.471L31.6097 274.277L9.84323 282.17L9.48422 281.279L31.8534 271.346L32.1102 271.232L32.3361 271.4L42.799 279.23L63.0816 275.459L72.9754 261.452L66.337 245.758L54.9472 247.26L54.5778 247.31L54.4391 246.963L48.111 231.179L33.8106 230.915L33.5875 230.91L28.0786 224.143L24.9554 222.281L14.4682 234.77L13.7117 234.179L23.1059 221.179L13.6236 215.527L14.0792 214.682L24.2402 219.608L29.6084 212.183L29.6656 212.103L29.749 212.052L41.0367 205.253L29.3225 200.369L20.5816 208.557L3.32951 203.493L3.53573 202.557L20.7925 205.162L27.9821 197.703L28.1949 197.484L28.4845 197.583L44.5762 203.141L46.9637 202.156L48.8956 189.002L30.273 182.366L24.8447 186.42L24.5823 186.292L18.0114 183.087L18.3498 182.191L24.7726 183.973L29.016 180.303L24.1145 170.587L19.0659 172.946L18.7782 172.37L23.5756 169.519L23.0628 168.502L0 166.478L0.0496801 165.519L24.5176 165.946L24.7988 165.95L24.9319 166.199L25.9565 168.104L36.7267 161.705L54.1963 155.557L59.5955 155.096L55.6014 153.841L55.2452 153.731L55.2659 153.358L55.8442 142.506L45.7788 144.922L45.387 144.064L56.1432 136.361L43.3136 130.105L43.1139 130.006L43.0595 129.791L40.9664 121.545L38.7814 118.34L27.1769 108.053L0.658965 102.485L0.821128 101.539L27.7993 105.179L27.8837 105.229L31.68 107.49L32.2536 107.061L33.476 108.559L39.2042 111.971L37.9687 99.3311L26.6267 95.4901L26.5714 95.2227L22.9344 77.8791L23.8558 77.6192L29.7172 94.0715L39.6813 96.8889L39.9756 96.9734L42.7362 114.096L44.7309 115.736L57.2259 111.224L54.2694 91.6613L48.4006 88.9142L48.1354 88.7895L48.1232 88.4967L47.8401 81.1863L48.7878 81.0615L50.2547 87.5689L55.4908 89.5775L63.0694 78.7498L53.9517 57.4498L54.8197 57.0407L66.0071 78.8248L66.1364 79.0753L65.9808 79.3099L58.7697 90.2127L63.6918 110.265L78.2293 119.35L93.5036 111.819L92.5578 106.852L87.3114 104.447L68.5942 96.7613L68.7864 96.0887L82.1184 99.1819L82.4175 98.4679L90.4019 100.12L81.571 78.1634L74.6299 59.0851L75.2035 58.7914L83.8282 77.2017L93.6255 99.0562L107.003 92.7721L106.799 87.5173L96.9212 81.2876L96.4872 60.6425L82.5777 37.3685L83.382 36.846L98.9619 59.0682L99.0181 59.1489L99.0397 59.2446L101.773 72.1439L110.211 62.6568L105.333 51.7127L105.492 51.4903L115.751 37.0467L116.567 37.5477L108.471 53.0224L113.166 62.2599L113.303 62.533L113.115 62.7741L102.612 76.1819L102.761 78.762L106.536 80.7219L106.44 78.2441L112.875 72.3512L120.641 57.4151L121.511 57.8213L114.878 73.7961L114.834 73.9011L108.771 79.1682L109.009 82.0063L114.552 84.8847L126.902 69.4362L124.846 62.9767L130.226 57.6008L130.961 58.2135L127.18 63.7076L129.259 68.9202L142.349 67.1433L151.792 45.9869L152.681 46.3462L144.287 69.3537L144.19 69.6192L131.018 71.762L119.643 88.9884L121.621 99.4127L133.375 109.895L138.4 111.83L122.346 92.9185L137.608 88.5952L154.214 81.5822L171.107 83.407L175.413 97.4791L177.034 97.8149L177.906 91.1659L177.01 83.9089L162.192 74.5626L161.758 53.9175L147.848 30.6435L148.652 30.1209L164.232 52.3432L164.288 52.4238L164.31 52.5195L167.043 65.4189L175.481 55.9318L170.603 44.9877L170.762 44.7653L181.021 30.3217L181.838 30.8227L173.742 46.2974L178.436 55.5349L178.574 55.8079L178.385 56.0491L167.882 69.4569L168.031 72.0369L179.822 78.1596L192.172 62.7112L190.116 56.2517L195.496 50.8758L196.231 51.4885L192.45 56.9826L194.53 62.1952L207.619 60.4183L217.062 39.2618L217.951 39.6212L209.557 62.6287L209.461 62.8942L196.288 65.037L184.913 82.2633L185.232 83.9455L192.128 84.9447L208.061 78.9881L204.974 103.92L207.853 100.023L212.342 85.4119L208.158 83.2147L217.564 69.0929L223.131 52.7607L223.708 52.8564L220.924 70.4373L216.636 80.2687L229.275 83.3113L246.661 87.3615L246.744 87.3418L238.182 77.7177L229.873 69.7843L230.269 69.2327L239.932 76.0318L250.071 86.5387L259.656 84.2251L255.131 79.6476L255.64 79.3296L258.188 77.7328L250.405 63.6063L234.191 60.5609L235.149 46.6126L223.675 38.8547L224.182 38.0394L237.399 45.6106L237.397 45.8921L237.284 58.5578L253.199 59.588L253.436 59.603L263.404 74.5438L270.5 71.5237L265.309 42.6581L266.187 42.3166L282.201 67.6668L292.593 59.9707L288.609 40.8305L303.15 26.1805L310.221 0L311.155 0.216724ZM154.168 266.812L171.112 278.59L184.14 275.693L184.327 275.903L186.263 278.069L191.535 275.026L191.633 274.971L191.745 274.963L199.646 274.48L201.506 271.575L163.14 264.983L153.004 260.825L154.168 266.812ZM206.718 268.438L211.187 269.04L210.548 265.028L209.316 264.758L206.718 268.438ZM150.896 249.974L152.509 258.274L163.908 262.677L203.77 268.042L207.856 261.665L208.037 261.384L208.363 261.455L210.037 261.819L209.03 255.492L192.128 261.717L172.739 259.026L156.709 249.131L153.104 247.928L150.896 249.974ZM227.067 255.28L216.218 255.026L216.602 263.248L224.201 264.902L228.378 253.064L228.5 252.717L228.867 252.745L232.332 253.015L228.166 245.253L222.69 242.538L227.067 255.28ZM262.832 248.718L284.543 258.383L285.259 257.871L282.739 246.153L279.455 241.265L264.323 241.147L262.832 248.718ZM285.57 244.615L285.81 245.096L286.95 256.662L293.089 252.271L294.2 236.178L292.545 235.971L285.57 244.615ZM126.025 248.042L130.167 249.642L132.004 246.964L131.728 246.665L126.025 248.042ZM55.7008 187.817L51.3158 206.605L51.2568 206.856L51.014 206.946L31.9021 214.01L26.3436 220.628L29.6337 222.224L29.7359 222.274L29.8043 222.363L34.642 228.633L49.847 228.231L50.1816 228.223L50.3053 228.533L56.3551 243.583L68.8417 240.297L72.0437 245.91L75.9609 244.119L70.841 206.841L71.1504 206.731L70.932 205.043L61.683 210.318L52.4688 221.847L51.9888 221.462L59.6677 208.108L70.3011 200.173L68.3664 185.221L55.7008 187.817ZM291.023 230.027L283.267 240.006L285.165 243.805L291.139 235.794L290.622 235.73L292.8 229.671L291.023 230.027ZM126.63 241.384L126.892 241.423L126.774 241.294L126.63 241.384ZM106.839 238.491L118.129 240.141L120.938 238.033L108.815 235.205L109.313 236.034L108.51 236.56L107.303 234.852L107.047 234.792L106.839 238.491ZM265.649 235.131L275.98 236.092L274.182 233.415L265.649 235.131ZM279.445 232.356L281.24 235.948L286.143 231.009L279.445 232.356ZM77.5047 198.455L78.8649 200.519L76.6283 201.794L74.283 210.731L87.7182 232.826L94.2291 225.316L91.2474 222.519L84.2397 208.973L77.5254 198.378L77.5047 198.455ZM332.41 186.332L333.336 203.688L332.981 203.799L322.019 207.241L322.606 224.274L337.475 232.803L357.457 227.669L357.566 227.466L349.871 215.087L349.812 214.99L349.801 214.878L349.054 206.992L335.695 199.036L338.56 183.333L332.41 186.332ZM218.961 231.684L220.853 231.631L215.549 221.75L218.961 231.684ZM274.426 214.127L281.27 218.361L282.229 217.732L280.082 213.716L278.361 212.911L274.426 214.127ZM313.196 209.809L316.909 209.785L317.449 203.345L317.81 203.28L330.155 201.058L329.288 184.524L329.595 184.392L335.614 181.783L326.355 178.857L326.371 178.488L326.533 174.833L313.196 209.809ZM267.128 209.458L269.501 208.765L267.706 207.925L267.128 209.458ZM321.035 174.768L309.584 199.994L311.617 206.611L322.257 174.658L321.035 174.768ZM254.917 201.988L254.884 202.039L261.352 206.04L262.05 205.278L254.985 201.973L254.917 201.988ZM47.2702 181.86L51.1068 182.846L64.8101 174.985L51.4489 174.834L47.2702 181.86ZM37.7831 164.204L26.6548 169.401L31.1251 177.711L45.9026 181.508L50.3203 172.643L50.6016 172.629L63.2409 172.017L63.3272 160.237L54.964 160.169L37.7831 164.204ZM331.624 174.119L331.386 175.577L340.368 179.723L343.553 178.344L344.632 173.571L331.624 174.119ZM65.4709 174.569L65.4653 174.609L65.9761 174.317L66.1477 169.311L65.4709 174.569ZM262.293 168.142L283.716 169.195L279.389 167.302L262.293 168.142ZM58.915 141.769L58.4266 151.101L67.4562 152.725L77.6922 145.001L74.2737 138.083L58.915 141.769ZM264.022 150.754L279.077 147.925L277.658 146.71L264.022 150.754ZM285.974 93.882L289.804 121.763L301.167 126.927L307.119 137.976L287.846 143.689L292.761 145.355L307.532 142.581L308.442 127.215L296.669 116.268L296.357 115.978L304.605 104.695L300.665 95.7106L293.449 97.6104L293.093 97.7033L289.892 92.09L285.974 93.882ZM43.4748 121.514L45.0289 128.386L58.8916 134.393L67.7693 128.035L63.9514 123.804L50.4066 126.68L50.1722 125.748L64.7941 121.488L64.9947 121.686L68.6467 125.277L61.4862 116.667L43.4748 121.514ZM146.641 121.726L147.303 122.316L146.741 121.655L146.641 121.726ZM143.658 119.066L144.097 119.457L144.536 119.057L143.909 118.318L143.658 119.066ZM203.838 113.094L204.653 110.439L204.182 110.319L203.838 113.094ZM110.071 94.672L109.768 94.8136L96.0279 101.283L107.027 103.56L112.438 99.393L113.448 91.711L109.62 89.2961L110.071 94.672Z" fill="black"/>
<path d="M317.005 294.957L306.159 287.56L316.717 277.664L317.005 294.957Z" fill="black"/>
<path d="M23.2887 145.085L6.87554 140.186L24.3451 130.674L23.2887 145.085Z" fill="black"/>
<path d="M341.481 99.2588L332.747 97.0494L338.794 91.1894L341.481 99.2588Z" fill="black"/></g>
    <g id="shaft-hole-4"><path fill-rule="evenodd" clip-rule="evenodd" d="M240.494 40.4237L235.609 50.6326L237.026 59.6107L254.108 57.479L254.252 58.3414L237.389 61.9031L238.298 67.658L249.714 75.1215V82.9731L255.892 86.1091L262.906 74.2599L263.683 74.6608L258.096 87.2279L267.879 92.1956L273.319 80.5781L267.681 62.7997L267.622 62.6125L267.721 62.4442L280.415 41.0007L281.192 41.4015L272.511 60.927L280.324 80.8875L280.392 81.0636L280.312 81.2345L278.49 85.0902L284.206 79.5593L298.475 69.582L298.913 70.0196L285.957 81.485L273.351 96.4513L273.039 96.6291L272.942 96.8368L277.974 113.607L301.117 97.7539L301.735 98.3471L283.523 127.392L284.128 128.082L290.456 127.187L290.602 127.081L290.874 126.884L291.13 127.092L294.886 126.56L316.422 120.346L334.017 113.256L334.28 113.782L317.209 122.534L312.098 124.418L323.677 130.007L330.047 126.611L330.138 126.563L330.241 126.56L345.999 126.122L346.06 126.995L330.817 128.736L323.702 132.294L323.515 132.214L311.525 127.076L300.109 138.052L299.821 137.872L295.637 135.283L289.049 161.281L293.402 157.105L306.169 163.266L312.539 159.871L312.629 159.823L312.733 159.819L328.49 159.382L328.552 160.254L313.308 161.995L306.194 165.553L306.006 165.473L294.016 160.336L290.448 163.766L297.955 168.978L309.836 166.338L310.007 166.53L324.89 183.159L324.258 183.765L309.112 169.056L297.425 171.977V172.356L298.787 172.513L298.726 173.386L297.425 173.349V177.09L302.482 180.461L302.067 181.228L295.939 178.602L295.694 178.497L295.675 178.23L295.321 173.291L282.968 172.948L282.865 172.945L282.774 172.897L282.4 172.697L278.925 178.628L286.067 182.775L286.043 183.053L285.187 192.455L297.272 202.811L296.749 203.511L294.575 202.108L307.381 216.419L306.749 217.024L291.604 202.315L279.916 205.236V210.349L284.974 213.72L284.558 214.487L278.43 211.861L278.186 211.756L278.166 211.489L277.745 205.596L272.267 202.488L269.399 214.623L269.316 214.606L277.203 222.399L288.671 236.141L288.233 236.49L275.714 223.887L268.42 217.561L267.678 225.715L279.763 236.071L279.241 236.771L265.462 227.883L265.472 227.634L265.898 216.974L255.545 211.8L257.587 223.638L257.602 223.726L257.581 223.813L251.891 247.882L251.032 247.712L254.953 223.318L248.346 205.703L249.884 203.587L242.276 198.591L237.983 199.556L227.679 206.926L233.039 218.273L233.12 218.444L233.051 218.62L225.238 238.581L233.919 258.106L233.142 258.507L220.448 237.064L220.349 236.895L220.408 236.708L226.046 218.93L220.909 207.958L212.246 208.92L202.441 210.452V224.386L191.025 231.85L187.116 256.602L186.247 256.502L187.939 233.232L187.192 233.637L187.448 233.924L186.816 234.529L186.362 234.089L168.508 243.79L168.044 243.05L183.859 231.657L171.671 219.82L170.775 220.043L169.526 225.463L164.098 238.241L163.485 238.066L164.783 231.7L164.625 231.992L158.497 229.366L158.253 229.261L158.233 228.994L157.839 223.491L139.83 216.87L134.214 223.371L134.958 225.604L148.626 233.539L148.601 233.817L147.745 243.22L159.83 253.576L159.308 254.276L145.529 245.388L145.539 245.138L145.964 234.479L135.612 229.305L137.654 241.143L137.668 241.231L137.648 241.318L131.958 265.387L131.099 265.217L135.02 240.823L128.421 223.228L116.64 215.63L116.65 215.38L116.895 209.236L110.325 213.574L109.723 212.961L114.827 205.523L114.736 205.476L114.286 205.682L108.6 210.43L108.765 211.384L108.779 211.472L108.759 211.56L103.069 235.629L102.21 235.459L104.75 219.65L88.8113 228.351L91.0871 210.846L100.636 216.068L105.75 210.051L99.5242 193.45L100.387 192.262L92.3711 189.257L87.6204 200.054L73.7957 201.392L73.6795 200.524L86.1243 198.379L90.5493 186.435L102.516 189.335L106.938 183.256L99.3164 176.536L99.2754 172.036L81.436 183.816L80.8342 183.203L95.8087 161.384L90.8605 156.209L77.3043 164.681L63.4821 159.499L58.7314 170.296L44.9067 171.633L44.7905 170.766L57.2353 168.62L61.6603 156.676L76.2827 160.22L88.0419 151.402L86.2175 148.667L91.6941 146.56L86.2765 142.355L77.0803 143.803L60.0976 146.078L59.9223 145.553L75.1046 141.007L77.3846 135.457L62.9803 124.28L63.3693 123.514L80.305 128.352L83.8016 119.843L78.125 116.296L78.131 116.046L78.343 107.559L77.8754 107.222L78.3396 106.482L78.3695 106.499L78.5627 98.771L48.9863 77.4635L49.4506 76.7241L68.8817 87.2818L67.189 64.0117L68.0585 63.9117L71.9671 88.6639L83.3835 96.1274V109.223L87.293 111.348L88.8113 107.655L91.9625 103.511L84.5342 102.157L84.6599 101.291L92.9687 102.189L96.3653 97.7249L96.078 93.77L96.9475 93.67L97.3775 96.394L98.7932 94.5341L84.6967 81.485L85.0472 81.0474L100.979 92.4255L105.758 97.7061L101.35 83.8056L101.291 83.6184L101.39 83.45L114.084 62.0065L114.861 62.4074L106.18 81.9329L112.992 99.336L116.125 94.0888L125.491 84.6355L140.096 84.562L135.173 77.8849L135.754 77.2515L143.242 81.8388L143.344 77.7652L113.768 56.4576L114.232 55.7183L133.663 66.2759L131.97 43.0059L132.84 42.9059L136.748 67.658L148.165 75.1215V83.1962L156.306 81.1345L159.316 80.2687L154.073 72.7719L154.139 72.5659L158.537 58.7039L147.747 54.6088L147.507 54.5174L147.469 54.2635L145.457 40.7827L146.318 40.622L149.103 52.937L160.89 56.6234L161.262 56.7388L158.477 71.5214L164.524 78.7712L169.7 77.284L170.658 77.0729L166.132 62.7997L166.073 62.6125L166.172 62.4442L178.865 41.0007L179.643 41.4015L170.962 60.927L176.757 75.7344L180.833 74.8395L193.69 56.3858L194.475 56.7346L193.97 58.921L196.664 47.6129L197.276 47.7009L195.487 64.9613L220.316 70.0974L224.736 63.2433L215.317 56.4576L215.781 55.7183L226.007 61.274L233.952 48.9565L233.52 43.0059L234.389 42.9059L235.07 47.2231L239.731 39.9981L240.494 40.4237ZM159.983 227.854L164.899 231.13L165.856 226.439L159.983 224.279V227.854ZM184.057 211.721L171.57 216.602L171.403 217.322L172.395 217.102L172.566 217.294L184.807 230.973L197.62 221.743L197.355 211.146L184.057 211.721ZM163.845 221.775L166.268 222.56L166.312 221.159L163.845 221.775ZM118.856 213.461L129.11 222.248L134.459 214.896L128.205 212.596L119.36 207.92L118.856 213.461ZM160.513 219.742L166.399 218.434L166.425 217.639L155.876 216.522L160.513 219.742ZM101.37 216.47L104.947 218.426L105.865 212.714L101.37 216.47ZM157.233 202.684L158.559 204.165L157.927 204.77L156.734 203.611L151.443 213.444L155.284 216.111L164.711 188.79L157.233 202.684ZM141.764 214.63L144.367 215.472L142.133 214.204L141.764 214.63ZM262.054 207.43L262.057 207.433L268.626 213.924L270.614 201.55L266.774 199.371L262.054 207.43ZM120.405 206.918L128.993 210.496L136.007 212.766L138.892 208.802L138.605 208.291L125.842 203.932L125.63 203.468L120.405 206.918ZM254.891 208.1L262.81 212.696L259.869 210.146L254.369 206.534L254.891 208.1ZM108.066 207.329L111.922 202.793L112.437 202.402L106.723 199.546L108.066 207.329ZM256.465 203.181L261.542 207.041L265.985 198.922L262.066 196.699L256.465 203.181ZM274.4 186.351L275.095 190.378L275.11 190.467L275.089 190.554L273.472 197.394L280.446 202.237L291.103 199.869L282.971 194.624L282.98 194.374L283.406 183.715L277.635 180.83L274.4 186.351ZM106.193 194.439L105.515 194.185L106.069 195.846L114.571 200.781L121.894 195.223L120.327 191.766L115.266 188.769L106.193 194.439ZM253.566 196.055L251.544 196.509L253.159 199.085L257.229 193.491L253.566 196.055ZM269.533 194.66L271.501 196.027L272.462 190.059L272.371 189.817L269.533 194.66ZM264.947 188.09L264.401 188.471L264.992 191.507L268.652 194.048L271.801 188.297L269.66 182.59L264.947 188.09ZM273.067 178.617L274.033 184.219L276.263 180.144L273.109 178.568L273.067 178.617ZM272.862 171.209L271.97 172.242L272.588 174.949L277.535 177.821L280.805 171.847L276.404 169.501L272.862 171.209ZM283.997 169.968L283.531 170.765L283.544 170.772L294.751 172.051L286.626 167.441L283.997 169.968ZM278.695 164.456L282.518 167.55L283.864 166.257L284.025 165.965L279.574 163.44L278.695 164.456ZM268.602 163.607L268.989 163.325L268.229 163.181L268.602 163.607ZM281.889 140.71L284.469 144.503L282.543 156.056L282.135 156.366L282.501 158.247L286.667 161.14L287.007 160.519L292.436 133.301L290.912 132.359L281.889 140.71ZM117.648 159.782L117.035 160.349L118.899 160.882L123.427 159.535L123.773 158.635L117.648 159.782ZM79.7091 139.512L81.7387 138.835L80.3418 137.751L79.7091 139.512ZM296.978 129.994L296.592 131.512L300.026 134.291L309.199 125.487L296.978 129.994ZM83.4049 129.237L93.6236 132.156L93.9741 131.244L90.0347 123.738L86.2372 121.364L83.4049 129.237ZM107.3 117.024L127.768 123.567L128.344 123.173L114.538 117.052L107.492 116.777L107.3 117.024ZM88.3386 115.523L93.5971 118.925L93.8912 118.76L88.5574 114.917L88.3386 115.523ZM90.8246 108.618L89.4251 112.506L97.3518 116.813L97.7383 116.596L96.8509 104.403L93.8236 103.851L90.8246 108.618ZM100.336 115.133L100.717 114.919L100.742 114.927L104.974 105.885L98.6949 104.74L100.336 115.133ZM108.124 114.641L109.074 114.63L108.292 114.283L108.124 114.641ZM83.3835 112.318L86.1568 114.112L86.4501 113.399L83.3835 111.189V112.318ZM97.6066 97.8437L98.3846 102.775L104.53 103.439L99.2626 95.2137L97.6066 97.8437ZM94.7486 102.381L96.7192 102.594L96.5012 99.5984L94.7486 102.381ZM255.003 94.1863L255.289 94.9179L259.359 97.5513L266.874 94.3427L267.566 92.8649L257.653 88.2237L255.003 94.1863ZM249.714 91.3118L251.954 92.7606L255.293 87.1194L249.714 84.5073V91.3118ZM222.983 75.1001L222.863 75.3053L206.691 76.1404L205.529 78.1558L212.596 79.2969L216.323 80.5636L216.011 76.2651L216.881 76.1651L217.646 81.0132L225.727 83.7603L242.186 85.1612L244.637 88.016L244.782 82.1987L226.428 73.6078L224.067 73.2377L222.983 75.1001ZM225.297 71.1274L227.128 71.5069L244.825 80.4909L244.893 77.7652L228.367 65.8588L225.297 71.1274ZM190.196 75.36L198.502 77.0216L199.1 77.1182L202.446 71.0949L209.218 70.9137L194.363 68.5897L190.196 75.36ZM230.026 63.4579L235.212 66.2759L234.932 62.4219L230.026 63.4579ZM230.951 60.3697L234.748 59.8953L234.276 53.4173L230.951 60.3697Z" fill="#020208"/>
<path d="M245.075 244.018L238.334 244.28L242.973 236.403L245.075 244.018Z" fill="#020208"/>
<path d="M322.199 159.119L306.704 157.194L319.573 143.102L322.199 159.119Z" fill="#020208"/>
<path d="M57.5585 131.549L44.8648 124.985L53.0942 112.994L57.5585 131.549Z" fill="#020208"/>
<path d="M319.31 102.666L306.617 96.1017L314.846 84.1107L319.31 102.666Z" fill="#020208"/>
<path d="M130.656 59.2534L123.915 59.5167L128.555 51.6395L130.656 59.2534Z" fill="#020208"/>
<path d="M210.145 44.7247L204.017 55.0524L197.189 42.4494L210.145 44.7247Z" fill="#020208"/>
<path fill-rule="evenodd" clip-rule="evenodd" d="M220.027 13.7497L217.832 37.8099L240.437 26.0318L240.875 26.7925L217.789 41.4048L215.284 55.8084L215.243 56.042L199.05 63.0369L195.955 81.3454L220 82.0692L235.364 68.7396L235.513 68.6108L235.707 68.6357L238.309 68.9671L253.469 50.2929L253.819 50.5565L241.084 69.32L262.622 72.0641L262.562 72.9407L239.279 72.696L237.799 74.1607L233.89 79.921L216.092 95.8572L234.065 95.2193L250.922 96.2745V96.6257L234.065 96.8017L213.02 98.6081L211.502 99.9673L202.097 109.289L214.764 117.282L214.464 118.087L196.069 115.263L194.803 116.519L208.807 141.222L220.742 142.256L225.513 140.336L234.087 101.534L234.953 101.669L232.758 125.729L255.363 113.951L255.8 114.712L232.714 129.324L230.32 143.087L252.152 144.981L258.71 144.902L275.594 136.629L284.812 131.179L285.075 131.53L276.296 137.948L264.039 144.838L281.388 144.63L296.489 147.179V147.619L281.475 147.883L252.063 151.048L215.951 150.102L213.976 150.956L212.017 162.536L229.044 158.973L229.045 158.974L229.059 158.97L229.254 159.828L211.752 164.109L210.881 169.265L234.925 169.988L250.29 156.659L250.439 156.53L250.632 156.555L277.548 159.983L277.488 160.86L254.204 160.615L237.594 177.063L237.46 177.196L237.271 177.189L218.477 176.56L210.826 182.992L218.087 186.303L217.911 186.743L209.181 184.374L206.391 186.72L216.067 195.447L244.338 213.471L262.336 230.263L262.073 230.615L242.494 216.196L220.345 204.618L214.831 203.771L213.258 213.734L211.941 222.79L211.59 222.702L211.677 213.558L212.469 203.409L192.467 200.34L190.598 204.258L195.828 207.357L196.119 207.528L196.028 207.854L192.651 219.885L207.794 226.259L207.131 241.682L213.287 246.596L213.367 246.661L213.412 246.755L220.637 262.324L219.857 262.728L211.546 248.23L205.088 242.791L204.931 242.659V242.455L204.905 228.221L189.014 221.548L189.064 221.211L190.745 209.891L175.242 203.035L173.342 204.333L186.912 216.095L186.482 216.843L165.579 209.64L161.153 212.666L160.259 217.072L169.991 223.912L169.971 224.162L168.508 242.973L199.422 267.894L198.916 268.611L178.362 255.96L178.864 281.472L177.989 281.527L175.165 254.324L163.717 245.922L154.498 265.826L153.69 265.483L161.884 243.963L153.898 233.499L148.739 235.727L147.542 242.262L146.671 242.184L146.657 234.921L146.656 234.653L152.625 231.553L153.846 220.433L149.12 217L137.798 238.254L142.903 257.958L142.952 258.149L142.843 258.311L127.825 280.94L127.068 280.497L137.625 259.713L130.283 237.508L130.223 237.328L135.373 227.739L128.102 230.125L122.944 246.703L122.092 246.499L125.001 229.149L125.042 228.901L136.142 224.624L136.864 211.936L125.842 219.134L125.767 219.183L125.678 219.198L99.1543 223.907L98.97 223.049L125.065 216.429L135.725 206.167L134.703 201.958L108.615 217.922L108.027 217.294L129.491 186.68L126.814 183.264L121.719 186.582L121.437 186.766L121.187 186.539L115.958 181.816L115.566 181.88L123.704 192.51L91.0795 210.339L90.5702 209.632L111.899 189.757L105.639 184.763L104.929 184.219L99.7245 188.725L99.493 188.925L99.2255 188.779L98.609 188.439L77.7874 204.063L51.361 221.12L27.5685 241.781L27.2169 241.429L49.5176 218.834L74.5396 199.756L92.0097 184.802L85.9883 181.483L83.0432 182.863L65.7162 196.692L65.116 196.055L75.2358 184.779L61.96 184.447L56.6013 188.354L45.439 198.445L45.1252 198.209L54.6019 186.11L76.2184 167.066L100.273 153.512L99.6602 152.414L93.5033 150.169L93.4784 150.08L87.9054 150.621L70.9214 161.87L70.317 161.254L76.858 151.695L52.7654 154.038L15.8908 156.411L0.175765 160.456L0 160.016L15.2769 153.158L52.0632 147.883L82.9429 142.805L86.7805 137.198L81.5513 131.519L66.6276 140.873L66.4433 140.988L51.3961 135.329L46.2235 147.118L31.2098 148.575L31.0932 147.704L44.6485 145.361L49.3212 132.71L49.4576 132.343L49.8365 132.436L65.345 136.205L78.1758 126.554L76.1986 123.58L82.1729 121.275L50.892 96.9322L51.2821 96.162L84.2186 105.598L86.0989 100.694L84.09 98.706L67.5896 88.3652L67.3778 88.2321L67.5159 82.6668L35.5576 65.6788L35.7334 65.3267L67.6008 79.247L67.8537 69.1191L35.6716 45.866L36.138 45.1233L57.3301 56.6722L55.4841 31.2211L56.3553 31.1206L60.6087 58.1361L72.824 66.1441L73.022 66.2746V82.7174L80.1023 88.5283L88.5836 94.0319L98.7711 72.21L92.6348 52.8025L92.5756 52.6145L106.48 29.0557L107.259 29.4584L97.8125 50.7703L106.384 72.7338L106.303 72.9055L98.2815 89.9373L103.345 106.863L103.944 107.305L123.134 72.0297L123.942 72.3586L112.422 113.556L114.52 115.103L115.013 115.001L140.473 100.96L126.757 91.9756L127.082 91.1762L155.66 96.7854L158.798 89.7278L144.309 79.7106L144.13 79.587L143.359 63.51L130.5 63.4232L123.218 50.195L123.971 49.7425L131.488 61.2785L144.938 60.5642L145.329 60.5444L145.394 60.9299L148.081 76.6824L159.69 83.3287L159.175 78.1626L159.965 43.3469L158.648 28.137L159.087 28.0486L163.126 43.1709L164.97 77.723L166.464 84.2251L168.436 86.2419L178.367 47.8373L179.228 47.8905L183.622 81.9129L189.49 81.6742L192.874 59.5502L193.106 59.4557L210.587 52.417L219.162 13.6149L220.027 13.7497ZM157.073 232.787L163.408 241.558L164.128 227.905L158.841 224.063L157.073 232.787ZM138.817 221.325L139.22 220.576L139.01 219.714L138.817 221.325ZM151.696 211.053L154.648 213.128L154.775 211.979L151.712 211.014L151.696 211.053ZM156.957 190.134L165.554 197.583L166.6 196.217L157.194 190.055L156.957 190.134ZM79.2758 171.827L63.3335 183.446L77.1949 182.597L86.6691 172.042H99.8162L101.388 161.632L79.2758 171.827ZM87.1389 179.593L94.0863 183.024L98.4736 179.269L97.6548 178.641L88.9111 178.18L87.1389 179.593ZM121.688 180.88L121.709 180.894L121.735 180.872L121.688 180.88ZM198.234 167.415L198.547 169.832L204.416 169.594L205.001 165.76L198.234 167.415ZM198.879 165.286L205.278 163.947L206.82 153.87L198.879 165.286ZM188.897 100.961L194.751 104.654L207.287 94.9557L215.462 89.0392L203.552 88.6408L188.897 100.961Z" fill="black"/>
<path d="M22.3007 248.111L12.9063 250.66L12.7305 250.221L21.5976 246.177L22.3007 248.111Z" fill="black"/>
<path d="M235.731 158.279L231.476 159.076L231.274 158.323L235.678 158.106L235.731 158.279Z" fill="black"/>
<path d="M220.808 120.457L220.728 120.716L216.418 119.216L216.741 118.078L220.808 120.457Z" fill="black"/>
<path d="M261.195 112.182L257.127 114.562L256.805 113.424L261.114 111.924L261.195 112.182Z" fill="black"/>
<path d="M34.5922 69.0195L25.1978 71.5687L25.022 71.1291L33.8891 67.0851L34.5922 69.0195Z" fill="black"/>
<path fill-rule="evenodd" clip-rule="evenodd" d="M335.486 0.113734L333.634 20.4142L352.707 10.4766L353.076 11.1184L333.597 23.4474L331.484 35.6003L331.45 35.7974L317.787 41.6993L315.176 57.1469L335.463 57.7575L348.427 46.5109L348.552 46.4022L348.716 46.4232L350.911 46.7028L363.702 30.9466L363.998 31.169L353.252 47.0006L371.425 49.3158L371.375 50.0555L351.73 49.849L350.481 51.0849L347.183 55.945L332.166 69.3911L347.331 68.8528L361.554 69.7431V70.0394L347.331 70.1879L329.574 71.7121L328.293 72.8589L320.357 80.7239L331.045 87.4676L330.792 88.1471L315.272 85.7645L314.203 86.8243L326.02 107.667L336.09 108.54L340.115 106.92L347.349 74.1809L348.079 74.2947L346.227 94.5952L365.3 84.6576L365.669 85.2994L346.191 97.6284L344.171 109.241L362.591 110.839L368.124 110.772L382.37 103.792L390.148 99.1931L390.37 99.4894L382.962 104.904L372.621 110.718L387.259 110.543L400 112.693V113.064L387.332 113.287L362.516 115.958L332.047 115.159L330.38 115.88L328.728 125.65L343.094 122.644L343.095 122.645L343.107 122.642L343.271 123.366L328.504 126.978L327.769 131.328L348.056 131.938L361.02 120.692L361.146 120.583L361.309 120.604L384.018 123.497L383.968 124.236L364.323 124.03L350.308 137.908L350.195 138.02L350.035 138.014L334.178 137.483L327.723 142.91L333.849 145.704L333.701 146.075L326.335 144.076L323.981 146.055L332.145 153.419L355.998 168.626L371.184 182.794L370.962 183.091L354.442 170.926L335.755 161.157L331.102 160.442L329.775 168.849L328.664 176.489L328.367 176.415L328.441 168.7L329.109 160.137L312.233 157.547L310.656 160.853L315.069 163.468L315.314 163.612L315.237 163.887L312.388 174.038L325.165 179.416L324.605 192.429L329.799 196.575L329.867 196.63L329.904 196.709L336.001 209.845L335.343 210.186L328.33 197.954L322.881 193.365L322.749 193.254V193.081L322.727 181.072L309.319 175.442L309.362 175.157L310.78 165.606L297.699 159.821L296.096 160.916L307.546 170.84L307.183 171.472L289.546 165.394L285.812 167.947L285.057 171.664L293.269 177.436L293.252 177.647L292.018 193.518L318.1 214.545L317.674 215.15L300.332 204.476L300.755 226.001L300.017 226.048L297.634 203.096L287.975 196.006L280.197 212.8L279.515 212.511L286.429 194.354L279.69 185.525L275.337 187.405L274.328 192.918L273.593 192.852L273.581 186.724L273.58 186.498L278.617 183.883L279.647 174.501L275.659 171.604L266.106 189.537L270.414 206.161L270.455 206.323L270.363 206.46L257.692 225.553L257.053 225.179L265.961 207.643L259.765 188.907L259.715 188.756L264.06 180.665L257.926 182.678L253.574 196.666L252.855 196.493L255.309 181.855L255.344 181.646L264.709 178.036L265.318 167.332L256.019 173.404L255.955 173.446L255.881 173.459L233.501 177.432L233.346 176.708L255.363 171.122L264.357 162.464L263.495 158.912L241.483 172.382L240.988 171.852L259.098 146.022L256.838 143.14L252.54 145.939L252.302 146.094L252.091 145.903L247.679 141.918L247.349 141.972L254.215 150.941L226.688 165.984L226.258 165.387L244.254 148.618L238.972 144.404L238.373 143.945L233.982 147.748L233.787 147.916L233.561 147.792L233.041 147.506L215.473 160.689L193.176 175.08L173.101 192.513L172.805 192.216L191.621 173.151L212.733 157.054L227.473 144.437L222.392 141.637L219.907 142.801L205.288 154.47L204.782 153.932L213.32 144.418L202.119 144.138L197.597 147.434L188.179 155.949L187.915 155.75L195.91 145.541L214.149 129.473L234.445 118.037L233.928 117.11L228.733 115.216L228.712 115.141L224.01 115.598L209.68 125.088L209.17 124.569L214.689 116.504L194.361 118.48L163.248 120.482L149.989 123.895L149.841 123.524L162.73 117.738L193.768 113.287L219.823 109.003L223.061 104.272L218.649 99.48L206.057 107.373L205.901 107.47L193.206 102.695L188.841 112.642L176.174 113.871L176.075 113.136L187.512 111.159L191.455 100.485L191.57 100.175L191.89 100.254L204.975 103.434L215.801 95.2914L214.132 92.782L219.173 90.8369L192.78 70.298L193.109 69.6482L220.899 77.6096L222.486 73.4717L220.791 71.7947L206.869 63.0697L206.69 62.9575L206.806 58.2617L179.842 43.9283L179.99 43.6313L206.878 55.3764L207.091 46.8311L179.938 27.2115L180.332 26.5849L198.212 36.3291L196.655 14.855L197.39 14.7703L200.979 37.5642L211.285 44.3209L211.452 44.4311V58.3045L217.426 63.2074L224.582 67.8509L233.178 49.439L228 33.0641L227.95 32.9055L239.682 13.028L240.339 13.3678L232.369 31.3494L239.601 49.8809L239.533 50.0258L232.765 64.3962L237.037 78.6774L237.542 79.0498L253.733 49.2869L254.416 49.5643L244.695 84.3243L246.466 85.6297L246.882 85.5435L268.363 73.6963L256.791 66.1159L257.065 65.4415L281.178 70.1742L283.824 64.2194L271.6 55.7676L271.449 55.6632L270.798 42.0984L259.949 42.0252L253.804 30.8641L254.44 30.4823L260.782 40.2156L272.131 39.6129L272.46 39.5963L272.515 39.9215L274.783 53.2125L284.578 58.8203L284.143 54.4614L284.81 25.0861L283.699 12.2529L284.069 12.1783L287.476 24.9375L289.032 54.0905L290.292 59.5766L291.957 61.2782L300.336 28.8748L301.062 28.9197L304.769 57.6257L309.721 57.4243L312.576 38.7574L312.772 38.6777L327.521 32.7389L334.756 0L335.486 0.113734ZM282.369 184.924L287.714 192.324L288.322 180.805L283.861 177.563L282.369 184.924ZM266.966 175.253L267.306 174.622L267.129 173.893L266.966 175.253ZM277.832 166.586L280.323 168.337L280.43 167.367L277.846 166.554L277.832 166.586ZM282.271 148.936L289.525 155.221L290.408 154.068L282.472 148.87L282.271 148.936ZM216.729 133.489L203.278 143.293L214.973 142.577L222.967 133.671H234.06L235.386 124.888L216.729 133.489ZM223.363 140.043L229.225 142.937L232.927 139.769L232.236 139.239L224.858 138.85L223.363 140.043ZM252.514 141.128L252.531 141.14L252.553 141.121L252.514 141.128ZM317.099 129.767L317.363 131.807L322.314 131.605L322.808 128.371L317.099 129.767ZM317.643 127.971L323.042 126.841L324.343 118.339L317.643 127.971ZM309.221 73.697L314.16 76.8135L324.737 68.6304L331.635 63.6384L321.585 63.3023L309.221 73.697Z" fill="black"/>
<path d="M168.657 197.854L160.73 200.005L160.582 199.634L168.063 196.222L168.657 197.854Z" fill="black"/>
<path d="M348.736 122.059L345.146 122.731L344.975 122.096L348.691 121.913L348.736 122.059Z" fill="black"/>
<path d="M336.145 90.1472L336.077 90.3653L332.441 89.0997L332.713 88.1399L336.145 90.1472Z" fill="black"/>
<path d="M370.221 83.1652L366.789 85.1726L366.517 84.2128L370.153 82.9472L370.221 83.1652Z" fill="black"/>
<path d="M179.027 46.747L171.101 48.8978L170.953 48.5269L178.434 45.1149L179.027 46.747Z" fill="black"/>
<path fill-rule="evenodd" clip-rule="evenodd" d="M168.757 298.886L170.609 278.586L151.537 288.523L151.168 287.882L170.646 275.553L172.759 263.4L172.794 263.203L186.456 257.301L189.068 241.853L168.781 241.242L155.817 252.489L155.691 252.598L155.528 252.577L153.332 252.297L140.542 268.053L140.246 267.831L150.991 251.999L132.818 249.684L132.869 248.945L152.514 249.151L153.763 247.915L157.061 243.055L172.078 229.609L156.913 230.147L142.69 229.257V228.961L156.913 228.812L174.67 227.288L175.95 226.141L183.886 218.276L173.199 211.532L173.452 210.853L188.972 213.236L190.04 212.176L178.224 191.333L168.154 190.46L164.129 192.08L156.894 224.819L156.164 224.705L158.016 204.405L138.944 214.342L138.575 213.701L158.053 201.372L160.073 189.759L141.653 188.161L136.119 188.228L121.874 195.208L114.096 199.807L113.874 199.511L121.281 194.096L131.623 188.282L116.985 188.457L104.244 186.307V185.936L116.911 185.713L141.727 183.042L172.197 183.841L173.863 183.12L175.516 173.35L161.149 176.356L161.149 176.355L161.137 176.358L160.973 175.634L175.74 172.022L176.475 167.672L156.187 167.062L143.224 178.308L143.098 178.417L142.935 178.396L120.225 175.503L120.276 174.764L139.921 174.97L153.936 161.092L154.048 160.98L154.208 160.986L170.065 161.517L176.521 156.09L170.395 153.296L170.543 152.925L177.909 154.924L180.263 152.945L172.099 145.581L148.246 130.374L133.06 116.206L133.282 115.909L149.801 128.074L168.489 137.843L173.142 138.558L174.469 130.151L175.58 122.511L175.877 122.585L175.803 130.3L175.134 138.863L192.011 141.453L193.588 138.147L189.175 135.532L188.93 135.388L189.007 135.113L191.856 124.962L179.079 119.584L179.638 106.571L174.444 102.425L174.377 102.37L174.339 102.291L168.243 89.1548L168.901 88.8137L175.913 101.046L181.362 105.635L181.495 105.746V105.919L181.517 117.928L194.925 123.558L194.882 123.843L193.464 133.394L206.545 139.179L208.148 138.084L196.698 128.16L197.061 127.528L214.698 133.606L218.432 131.053L219.187 127.336L210.975 121.564L210.992 121.353L212.226 105.482L186.143 84.4548L186.57 83.8499L203.912 94.5243L203.488 72.9988L204.226 72.9524L206.609 95.9043L216.269 102.994L224.047 86.1999L224.729 86.489L217.815 104.646L224.554 113.475L228.906 111.595L229.916 106.082L230.651 106.148L230.663 112.276L230.663 112.502L225.627 115.117L224.597 124.499L228.584 127.396L238.138 109.463L233.83 92.8385L233.789 92.677L233.88 92.5401L246.552 73.4472L247.19 73.821L238.283 91.3571L244.478 110.093L244.529 110.244L240.184 118.335L246.318 116.322L250.67 102.334L251.389 102.507L248.935 117.145L248.9 117.354L239.535 120.964L238.926 131.668L248.225 125.596L248.289 125.554L248.363 125.541L270.743 121.568L270.898 122.292L248.881 127.878L239.887 136.536L240.749 140.088L262.76 126.618L263.256 127.148L245.146 152.978L247.405 155.86L251.704 153.061L251.942 152.906L252.153 153.097L256.564 157.082L256.895 157.028L250.029 148.059L277.556 133.016L277.985 133.613L259.99 150.382L265.271 154.596L265.87 155.055L270.262 151.252L270.457 151.084L270.683 151.208L271.203 151.494L288.771 138.311L311.068 123.92L331.142 106.487L331.439 106.784L312.623 125.849L291.511 141.946L276.771 154.563L281.851 157.363L284.336 156.199L298.956 144.53L299.462 145.068L290.924 154.582L302.125 154.862L306.646 151.566L316.064 143.051L316.329 143.25L308.333 153.459L290.095 169.527L269.799 180.963L270.316 181.89L275.511 183.784L275.532 183.859L280.234 183.402L294.564 173.912L295.074 174.431L289.555 182.496L309.883 180.52L340.995 178.518L354.255 175.105L354.403 175.476L341.513 181.262L310.475 185.713L284.421 189.997L281.183 194.728L285.595 199.52L298.187 191.627L298.342 191.53L311.038 196.305L315.402 186.358L328.07 185.129L328.168 185.864L316.731 187.841L312.789 198.515L312.674 198.825L312.354 198.746L299.269 195.566L288.443 203.709L290.111 206.218L285.07 208.163L311.463 228.702L311.134 229.352L283.344 221.39L281.758 225.528L283.453 227.205L297.375 235.93L297.554 236.043L297.437 240.738L324.402 255.072L324.253 255.369L297.366 243.624L297.152 252.169L324.305 271.788L323.912 272.415L306.031 262.671L307.589 284.145L306.854 284.23L303.265 261.436L292.959 254.679L292.791 254.569V240.696L286.818 235.793L279.662 231.149L271.066 249.561L276.243 265.936L276.293 266.095L264.562 285.972L263.904 285.632L271.875 267.651L264.643 249.119L264.711 248.974L271.479 234.604L267.207 220.323L266.702 219.95L250.51 249.713L249.828 249.436L259.549 214.676L257.778 213.37L257.362 213.456L235.881 225.304L247.453 232.884L247.179 233.558L223.066 228.826L220.419 234.781L232.644 243.232L232.795 243.337L233.446 256.902L244.295 256.975L250.439 268.136L249.804 268.518L243.461 258.784L232.113 259.387L231.783 259.404L231.728 259.078L229.461 245.787L219.666 240.18L220.101 244.539L219.434 273.914L220.545 286.747L220.175 286.822L216.767 274.062L215.211 244.909L213.951 239.423L212.287 237.722L203.908 270.125L203.182 270.08L199.474 241.374L194.523 241.576L191.668 260.243L191.472 260.322L176.722 266.261L169.487 299L168.757 298.886ZM221.875 114.076L216.529 106.676L215.922 118.195L220.382 121.437L221.875 114.076ZM237.278 123.747L236.938 124.378L237.115 125.107L237.278 123.747ZM226.411 132.414L223.921 130.663L223.813 131.633L226.397 132.446L226.411 132.414ZM221.972 150.064L214.719 143.779L213.836 144.932L221.772 150.13L221.972 150.064ZM287.515 165.511L300.966 155.707L289.271 156.423L281.277 165.329H270.184L268.858 174.112L287.515 165.511ZM280.88 158.957L275.019 156.063L271.317 159.231L272.008 159.761L279.385 160.15L280.88 158.957ZM251.73 157.872L251.713 157.86L251.691 157.879L251.73 157.872ZM187.145 169.233L186.881 167.193L181.929 167.395L181.435 170.629L187.145 169.233ZM186.601 171.029L181.202 172.159L179.901 180.661L186.601 171.029ZM195.023 225.303L190.084 222.187L179.507 230.37L172.609 235.362L182.659 235.698L195.023 225.303Z" fill="black"/>
<path d="M335.587 101.146L343.513 98.9954L343.662 99.3663L336.18 102.778L335.587 101.146Z" fill="black"/>
<path d="M155.507 176.941L159.098 176.269L159.269 176.904L155.552 177.087L155.507 176.941Z" fill="black"/>
<path d="M168.098 208.853L168.166 208.635L171.802 209.9L171.53 210.86L168.098 208.853Z" fill="black"/>
<path d="M134.023 215.835L137.455 213.827L137.727 214.787L134.091 216.053L134.023 215.835Z" fill="black"/>
<path d="M325.216 252.253L333.143 250.102L333.291 250.473L325.809 253.885L325.216 252.253Z" fill="black"/></g>
  </defs>

  <g transform="translate(0 400)">
<rect width="800" height="1760" fill="#46280e"/>
  <rect y="1760" width="800" height="640" fill="#0d062b"/>

  <!-- Zone 1 (y 0-800): full-light dirt -->
  <rect y="112" width="800" height="6" fill="#35200c" opacity="0.65"/>
  <rect y="306" width="800" height="6" fill="#35200c" opacity="0.65"/>
  <rect y="552" width="800" height="6" fill="#35200c" opacity="0.65"/>
  <rect y="702" width="800" height="5" fill="#35200c" opacity="0.55"/>

  <rect x="36"  y="74"  width="128" height="50" rx="18" fill="#5e3a16"/>
  <rect x="214" y="56"  width="76"  height="38" rx="14" fill="#54320f"/>
  <rect x="334" y="78"  width="104" height="48" rx="18" fill="#6e4419"/>
  <rect x="586" y="64"  width="134" height="52" rx="20" fill="#5e3a16"/>

  <rect x="84"  y="158" width="88"  height="42" rx="16" fill="#3a2208"/>
  <rect x="196" y="184" width="138" height="56" rx="20" fill="#5e3a16"/>
  <rect x="402" y="150" width="80"  height="40" rx="14" fill="#6e4419"/>
  <rect x="508" y="176" width="98"  height="46" rx="16" fill="#54320f"/>
  <rect x="668" y="156" width="92"  height="44" rx="16" fill="#3a2208"/>
  <rect x="128" y="252" width="96"  height="42" rx="16" fill="#6e4419"/>
  <rect x="446" y="240" width="126" height="54" rx="20" fill="#5e3a16"/>
  <rect x="630" y="254" width="84"  height="40" rx="14" fill="#6e4419"/>

  <rect x="44"  y="346" width="110" height="50" rx="18" fill="#5e3a16"/>
  <rect x="228" y="330" width="84"  height="42" rx="14" fill="#6e4419"/>
  <rect x="350" y="356" width="118" height="50" rx="18" fill="#3a2208"/>
  <rect x="530" y="336" width="142" height="56" rx="20" fill="#54320f"/>
  <rect x="118" y="434" width="86"  height="40" rx="14" fill="#54320f"/>
  <rect x="262" y="448" width="122" height="50" rx="18" fill="#5e3a16"/>
  <rect x="478" y="426" width="92"  height="44" rx="16" fill="#6e4419"/>
  <rect x="618" y="446" width="110" height="48" rx="18" fill="#3a2208"/>

  <rect x="68"  y="588" width="118" height="50" rx="18" fill="#54320f"/>
  <rect x="252" y="572" width="90"  height="42" rx="14" fill="#6e4419"/>
  <rect x="396" y="596" width="132" height="54" rx="20" fill="#5e3a16"/>
  <rect x="592" y="578" width="100" height="46" rx="16" fill="#54320f"/>
  <rect x="142" y="666" width="84"  height="32" rx="12" fill="#3a2208"/>
  <rect x="470" y="672" width="96"  height="30" rx="12" fill="#6e4419"/>

  <rect x="92"  y="722" width="88"  height="26" rx="10" fill="#5e3a16"/>
  <rect x="312" y="726" width="104" height="24" rx="10" fill="#54320f"/>
  <rect x="558" y="720" width="82"  height="26" rx="10" fill="#6e4419"/>

  <rect x="178" y="128" width="32" height="16" rx="8" fill="#35200c"/>
  <rect x="540" y="118" width="28" height="14" rx="7" fill="#35200c"/>
  <rect x="358" y="296" width="30" height="16" rx="8" fill="#35200c"/>
  <rect x="700" y="402" width="32" height="16" rx="8" fill="#35200c"/>
  <rect x="206" y="528" width="28" height="14" rx="7" fill="#35200c"/>
  <rect x="648" y="652" width="30" height="16" rx="8" fill="#35200c"/>

  <!-- Zone 2 (y 800-1040): the earth starts running out -->
  <rect y="856" width="800" height="5" fill="#35200c" opacity="0.5"/>
  <rect x="48"  y="858" width="112" height="46" rx="16" fill="#54320f"/>
  <rect x="300" y="842" width="84"  height="40" rx="14" fill="#3a2208"/>
  <rect x="506" y="872" width="122" height="50" rx="18" fill="#5e3a16"/>
  <rect x="694" y="850" width="80"  height="38" rx="14" fill="#54320f"/>
  <rect y="800" width="800" height="240" fill="#0d062b" opacity="0.20"/>

  <!-- Zone 3 (y 1040-1280) -->
  <rect x="120" y="1078" width="96"  height="42" rx="16" fill="#3a2208"/>
  <rect x="388" y="1102" width="118" height="48" rx="18" fill="#54320f"/>
  <rect x="648" y="1070" width="86"  height="40" rx="14" fill="#3a2208"/>
  <rect y="1040" width="800" height="240" fill="#0d062b" opacity="0.45"/>

  <!-- Zone 4 (y 1280-1520) -->
  <rect x="214" y="1318" width="92"  height="40" rx="14" fill="#3a2208"/>
  <rect x="540" y="1356" width="104" height="42" rx="16" fill="#35200c"/>
  <rect y="1280" width="800" height="240" fill="#0d062b" opacity="0.70"/>

  <!-- Zone 5 (y 1520-1760): last ghosts of dirt -->
  <rect x="150" y="1500" width="30" height="16" rx="8" fill="#35200c"/>
  <rect x="356" y="1588" width="88" height="36" rx="14" fill="#35200c"/>
  <rect x="640" y="1620" width="30" height="16" rx="8" fill="#35200c"/>
  <rect y="1520" width="800" height="240" fill="#0d062b" opacity="0.88"/>

  <!-- Hint fragments (y 1840-2400): ~3% of the resting frame, rust tunnel palette.
       Asymmetric, hugging edges and the lower half; warmer the deeper. No green,
       nothing that assembles into a silhouette. -->
  <rect x="92"  y="2060" width="104" height="38" rx="14" fill="#a85a1c" opacity="0.14"/>
  <rect x="606" y="2144" width="130" height="46" rx="16" fill="#6e4419" opacity="0.16"/>
  <rect x="244" y="2272" width="64"  height="26" rx="10" fill="#a85a1c" opacity="0.12"/>
  <rect x="468" y="2322" width="108" height="34" rx="12" fill="#8a3e10" opacity="0.18"/>
  <rect x="700" y="2334" width="48"  height="20" rx="8"  fill="#6e4419" opacity="0.12"/>
  <rect x="36"  y="2232" width="40"  height="18" rx="8"  fill="#8a3e10" opacity="0.12"/>
  <rect x="164" y="2178" width="96"  height="32" rx="12" fill="#a85a1c" opacity="0.10"/>
  </g>

  <use href="#shaft-erosion" xlink:href="#shaft-erosion" transform="translate(60 37.0) scale(1.7000 1.7000)"/>
  <use href="#shaft-erosion" xlink:href="#shaft-erosion" transform="translate(48 565.6) scale(1.7000 1.7000)"/>
  <use href="#shaft-erosion" xlink:href="#shaft-erosion" transform="translate(52 1094.3) scale(1.7000 1.7000)" opacity="0.9"/>
  <use href="#shaft-erosion" xlink:href="#shaft-erosion" transform="translate(44 1622.9) scale(1.7000 1.7000)" opacity="0.4"/>
  <use href="#shaft-hole-4" xlink:href="#shaft-hole-4" transform="translate(76 301.3) scale(1.7000 1.7000)"/>
  <use href="#shaft-hole-1" xlink:href="#shaft-hole-1" transform="translate(76 829.9) scale(2.0482 1.6943)"/>
  <use href="#shaft-hole-3" xlink:href="#shaft-hole-3" transform="translate(72 1358.6) scale(1.7000 1.5038)" opacity="0.65"/>
  <use href="#shaft-hole-4" xlink:href="#shaft-hole-4" transform="translate(68 1887.2) scale(1.7000 1.7000)" opacity="0.22"/>

</svg>
