<svg width="800" height="2800" viewBox="0 0 800 2800" fill="none" xmlns="http://www.w3.org/2000/svg">
<g clip-path="url(#clip0_252_478)">
<path d="M0 2800H800L800 400H0L0 2800Z" fill="#141210"/>
<path d="M0 785L800 785L800 145L0 145L0 785Z" fill="#11100D"/>
<path opacity="0.65" d="M0 2688H800V2682H0V2688Z" fill="#35200C"/>
<path opacity="0.5" d="M0 1944H800V1939H0V1944Z" fill="#35200C"/>
<path d="M656 1942H736C744.837 1942 752 1934.84 752 1926V1912C752 1903.16 744.837 1896 736 1896H656C647.163 1896 640 1903.16 640 1912V1926C640 1934.84 647.163 1942 656 1942Z" fill="#54320F"/>
<path d="M430 1958H486C493.732 1958 500 1951.73 500 1944V1932C500 1924.27 493.732 1918 486 1918H430C422.268 1918 416 1924.27 416 1932V1944C416 1951.73 422.268 1958 430 1958Z" fill="#3A2208"/>
<path d="M190 1928H276C285.941 1928 294 1919.94 294 1910V1896C294 1886.06 285.941 1878 276 1878H190C180.059 1878 172 1886.06 172 1896V1910C172 1919.94 180.059 1928 190 1928Z" fill="#5E3A16"/>
<path d="M40 1950H92C99.732 1950 106 1943.73 106 1936V1926C106 1918.27 99.732 1912 92 1912H40C32.268 1912 26 1918.27 26 1926V1936C26 1943.73 32.268 1950 40 1950Z" fill="#54320F"/>
<path d="M600 1722H664C672.837 1722 680 1714.84 680 1706V1696C680 1687.16 672.837 1680 664 1680H600C591.163 1680 584 1687.16 584 1696V1706C584 1714.84 591.163 1722 600 1722Z" fill="#3A2208"/>
<path d="M312 1698H394C403.941 1698 412 1689.94 412 1680V1668C412 1658.06 403.941 1650 394 1650H312C302.059 1650 294 1658.06 294 1668V1680C294 1689.94 302.059 1698 312 1698Z" fill="#54320F"/>
<path d="M80 1730H138C145.732 1730 152 1723.73 152 1716V1704C152 1696.27 145.732 1690 138 1690H80C72.268 1690 66 1696.27 66 1704V1716C66 1723.73 72.268 1730 80 1730Z" fill="#3A2208"/>
<path d="M508 1482H572C579.732 1482 586 1475.73 586 1468V1456C586 1448.27 579.732 1442 572 1442H508C500.268 1442 494 1448.27 494 1456V1468C494 1475.73 500.268 1482 508 1482Z" fill="#3A2208"/>
<path d="M172 1444H244C252.837 1444 260 1436.84 260 1428V1418C260 1409.16 252.837 1402 244 1402H172C163.163 1402 156 1409.16 156 1418V1428C156 1436.84 163.163 1444 172 1444Z" fill="#35200C"/>
<path d="M628 1300H642C646.418 1300 650 1296.42 650 1292C650 1287.58 646.418 1284 642 1284H628C623.582 1284 620 1287.58 620 1292C620 1296.42 623.582 1300 628 1300Z" fill="#35200C"/>
<path d="M370 1212H430C437.732 1212 444 1205.73 444 1198V1190C444 1182.27 437.732 1176 430 1176H370C362.268 1176 356 1182.27 356 1190V1198C356 1205.73 362.268 1212 370 1212Z" fill="#35200C"/>
<path d="M138 1180H152C156.418 1180 160 1176.42 160 1172C160 1167.58 156.418 1164 152 1164H138C133.582 1164 130 1167.58 130 1172C130 1176.42 133.582 1180 138 1180Z" fill="#35200C"/>
<path opacity="0.14" d="M618 740H694C701.732 740 708 733.732 708 726V716C708 708.268 701.732 702 694 702H618C610.268 702 604 708.268 604 716V726C604 733.732 610.268 740 618 740Z" fill="#A85A1C"/>
<path opacity="0.16" d="M80 656H178C186.837 656 194 648.837 194 640V626C194 617.163 186.837 610 178 610H80C71.1634 610 64 617.163 64 626V640C64 648.837 71.1634 656 80 656Z" fill="#6E4419"/>
<path opacity="0.12" d="M502 528H546C551.523 528 556 523.523 556 518V512C556 506.477 551.523 502 546 502H502C496.477 502 492 506.477 492 512V518C492 523.523 496.477 528 502 528Z" fill="#A85A1C"/>
<path opacity="0.18" d="M236 478H320C326.627 478 332 472.627 332 466V456C332 449.373 326.627 444 320 444H236C229.373 444 224 449.373 224 456V466C224 472.627 229.373 478 236 478Z" fill="#8A3E10"/>
<path opacity="0.12" d="M60 466H92C96.4183 466 100 462.418 100 458V454C100 449.582 96.4183 446 92 446H60C55.5817 446 52 449.582 52 454V458C52 462.418 55.5817 466 60 466Z" fill="#6E4419"/>
<path opacity="0.12" d="M732 568H756C760.418 568 764 564.418 764 560V558C764 553.582 760.418 550 756 550H732C727.582 550 724 553.582 724 558V560C724 564.418 727.582 568 732 568Z" fill="#8A3E10"/>
<path opacity="0.1" d="M552 622H624C630.627 622 636 616.627 636 610V602C636 595.373 630.627 590 624 590H552C545.373 590 540 595.373 540 602V610C540 616.627 545.373 622 552 622Z" fill="#A85A1C"/>
<path d="M0 2792H800L800 1963H0L0 2792Z" fill="#141210"/>
<path d="M124 2222H192C200.837 2222 208 2214.84 208 2206V2192C208 2183.16 200.837 2176 192 2176H124C115.163 2176 108 2183.16 108 2192V2206C108 2214.84 115.163 2222 124 2222Z" fill="#54320F" fill-opacity="0.45"/>
<path d="M586 1989H646C652.627 1989 658 1983.63 658 1977V1969C658 1962.37 652.627 1957 646 1957H586C579.373 1957 574 1962.37 574 1969V1977C574 1983.63 579.373 1989 586 1989Z" fill="#3A2208"/>
<path d="M148 2319H250C261.046 2319 270 2310.05 270 2299V2283C270 2271.95 261.046 2263 250 2263H148C136.954 2263 128 2271.95 128 2283V2299C128 2310.05 136.954 2319 148 2319Z" fill="#54320F" fill-opacity="0.12"/>
<path d="M553 2262H635C644.941 2262 653 2253.94 653 2244V2230C653 2220.06 644.941 2212 635 2212H553C543.059 2212 535 2220.06 535 2230V2244C535 2253.94 543.059 2262 553 2262Z" fill="#3A2208" fill-opacity="0.35"/>
<path d="M42 2121H124C133.941 2121 142 2112.94 142 2103V2089C142 2079.06 133.941 2071 124 2071H42C32.0589 2071 24 2079.06 24 2089V2103C24 2112.94 32.0589 2121 42 2121Z" fill="#3A2208" fill-opacity="0.35"/>
<path d="M246 1983H318C324.627 1983 330 1977.63 330 1971V1965C330 1958.37 324.627 1953 318 1953H246C239.373 1953 234 1958.37 234 1965V1971C234 1977.63 239.373 1983 246 1983Z" fill="#6E4419"/>
<path d="M598 2527H614C618.418 2527 622 2523.42 622 2519C622 2514.58 618.418 2511 614 2511H598C593.582 2511 590 2514.58 590 2519C590 2523.42 593.582 2527 598 2527Z" fill="#35200C"/>
<path d="M420 2359H434C438.418 2359 442 2355.42 442 2351C442 2346.58 438.418 2343 434 2343H420C415.582 2343 412 2346.58 412 2351C412 2355.42 415.582 2359 420 2359Z" fill="#35200C"/>
<path d="M76 2253H92C96.4183 2253 100 2249.42 100 2245C100 2240.58 96.4183 2237 92 2237H76C71.5817 2237 68 2240.58 68 2245C68 2249.42 71.5817 2253 76 2253Z" fill="#35200C"/>
<path d="M573 2127H587C590.866 2127 594 2123.87 594 2120C594 2116.13 590.866 2113 587 2113H573C569.134 2113 566 2116.13 566 2120C566 2123.87 569.134 2127 573 2127Z" fill="#35200C"/>
<path d="M130 2003H144C148.418 2003 152 1999.42 152 1995C152 1990.58 148.418 1987 144 1987H130C125.582 1987 122 1990.58 122 1995C122 1999.42 125.582 2003 130 2003Z" fill="#35200C"/>
<path d="M800 -68H0V160H800V-68Z" fill="#0C3208"/>
<path d="M800 18H0V160H800V18Z" fill="#28221A"/>
<path d="M71 26H13C10.2386 26 8 28.2386 8 31V57C8 59.7614 10.2386 62 13 62H71C73.7614 62 76 59.7614 76 57V31C76 28.2386 73.7614 26 71 26Z" fill="#3A3426"/>
<path d="M99 119H41C38.2386 119 36 121.239 36 124V150C36 152.761 38.2386 155 41 155H99C101.761 155 104 152.761 104 150V124C104 121.239 101.761 119 99 119Z" fill="#3A3426"/>
<path d="M140 28H90C87.7909 28 86 29.7909 86 32V57C86 59.2091 87.7909 61 90 61H140C142.209 61 144 59.2091 144 57V32C144 29.7909 142.209 28 140 28Z" fill="#322C20"/>
<path d="M168 121H118C115.791 121 114 122.791 114 125V150C114 152.209 115.791 154 118 154H168C170.209 154 172 152.209 172 150V125C172 122.791 170.209 121 168 121Z" fill="#322C20"/>
<path d="M227 23H159C156.239 23 154 25.2386 154 28V56C154 58.7614 156.239 61 159 61H227C229.761 61 232 58.7614 232 56V28C232 25.2386 229.761 23 227 23Z" fill="#3A3426"/>
<path d="M255 116H187C184.239 116 182 118.239 182 121V149C182 151.761 184.239 154 187 154H255C257.761 154 260 151.761 260 149V121C260 118.239 257.761 116 255 116Z" fill="#3A3426"/>
<path d="M301 26H246C243.791 26 242 27.7909 242 30V57C242 59.2091 243.791 61 246 61H301C303.209 61 305 59.2091 305 57V30C305 27.7909 303.209 26 301 26Z" fill="#2C271E"/>
<path d="M329 119H274C271.791 119 270 120.791 270 123V150C270 152.209 271.791 154 274 154H329C331.209 154 333 152.209 333 150V123C333 120.791 331.209 119 329 119Z" fill="#2C271E"/>
<path d="M383 24H320C317.239 24 315 26.2386 315 29V56C315 58.7614 317.239 61 320 61H383C385.761 61 388 58.7614 388 56V29C388 26.2386 385.761 24 383 24Z" fill="#3A3426"/>
<path d="M411 117H348C345.239 117 343 119.239 343 122V149C343 151.761 345.239 154 348 154H411C413.761 154 416 151.761 416 149V122C416 119.239 413.761 117 411 117Z" fill="#3A3426"/>
<path d="M450 27H402C399.791 27 398 28.7909 398 31V57C398 59.2091 399.791 61 402 61H450C452.209 61 454 59.2091 454 57V31C454 28.7909 452.209 27 450 27Z" fill="#322C20"/>
<path d="M478 120H430C427.791 120 426 121.791 426 124V150C426 152.209 427.791 154 430 154H478C480.209 154 482 152.209 482 150V124C482 121.791 480.209 120 478 120Z" fill="#322C20"/>
<path d="M539 23H469C466.239 23 464 25.2386 464 28V56C464 58.7614 466.239 61 469 61H539C541.761 61 544 58.7614 544 56V28C544 25.2386 541.761 23 539 23Z" fill="#3A3426"/>
<path d="M567 116H497C494.239 116 492 118.239 492 121V149C492 151.761 494.239 154 497 154H567C569.761 154 572 151.761 572 149V121C572 118.239 569.761 116 567 116Z" fill="#3A3426"/>
<path d="M616 26H558C555.791 26 554 27.7909 554 30V57C554 59.2091 555.791 61 558 61H616C618.209 61 620 59.2091 620 57V30C620 27.7909 618.209 26 616 26Z" fill="#2C271E"/>
<path d="M644 119H586C583.791 119 582 120.791 582 123V150C582 152.209 583.791 154 586 154H644C646.209 154 648 152.209 648 150V123C648 120.791 646.209 119 644 119Z" fill="#2C271E"/>
<path d="M697 24H635C632.239 24 630 26.2386 630 29V56C630 58.7614 632.239 61 635 61H697C699.761 61 702 58.7614 702 56V29C702 26.2386 699.761 24 697 24Z" fill="#322C20"/>
<path d="M725 117H663C660.239 117 658 119.239 658 122V149C658 151.761 660.239 154 663 154H725C727.761 154 730 151.761 730 149V122C730 119.239 727.761 117 725 117Z" fill="#322C20"/>
<path d="M788 26H716C713.791 26 712 27.7909 712 30V58C712 60.2091 713.791 62 716 62H788C790.209 62 792 60.2091 792 58V30C792 27.7909 790.209 26 788 26Z" fill="#3A3426"/>
<path d="M816 119H744C741.791 119 740 120.791 740 123V151C740 153.209 741.791 155 744 155H816C818.209 155 820 153.209 820 151V123C820 120.791 818.209 119 816 119Z" fill="#3A3426"/>
<path d="M67 72H22C19.7909 72 18 73.7909 18 76V102C18 104.209 19.7909 106 22 106H67C69.2091 106 71 104.209 71 102V76C71 73.7909 69.2091 72 67 72Z" fill="#322C20"/>
<path d="M146 75H86C83.2386 75 81 77.2386 81 80V101C81 103.761 83.2386 106 86 106H146C148.761 106 151 103.761 151 101V80C151 77.2386 148.761 75 146 75Z" fill="#3A3426"/>
<path d="M213 71H165C162.791 71 161 72.7909 161 75V102C161 104.209 162.791 106 165 106H213C215.209 106 217 104.209 217 102V75C217 72.7909 215.209 71 213 71Z" fill="#2C271E"/>
<path d="M298 73H232C229.239 73 227 75.2386 227 78V100C227 102.761 229.239 105 232 105H298C300.761 105 303 102.761 303 100V78C303 75.2386 300.761 73 298 73Z" fill="#3A3426"/>
<path d="M369 72H317C314.791 72 313 73.7909 313 76V102C313 104.209 314.791 106 317 106H369C371.209 106 373 104.209 373 102V76C373 73.7909 371.209 72 369 72Z" fill="#322C20"/>
<path d="M446 74H388C385.239 74 383 76.2386 383 79V100C383 102.761 385.239 105 388 105H446C448.761 105 451 102.761 451 100V79C451 76.2386 448.761 74 446 74Z" fill="#3A3426"/>
<path d="M520 71H465C462.791 71 461 72.7909 461 75V102C461 104.209 462.791 106 465 106H520C522.209 106 524 104.209 524 102V75C524 72.7909 522.209 71 520 71Z" fill="#2C271E"/>
<path d="M607 73H539C536.239 73 534 75.2386 534 78V100C534 102.761 536.239 105 539 105H607C609.761 105 612 102.761 612 100V78C612 75.2386 609.761 73 607 73Z" fill="#3A3426"/>
<path d="M672 72H626C623.791 72 622 73.7909 622 76V102C622 104.209 623.791 106 626 106H672C674.209 106 676 104.209 676 102V76C676 73.7909 674.209 72 672 72Z" fill="#322C20"/>
<path d="M753 74H691C688.239 74 686 76.2386 686 79V100C686 102.761 688.239 105 691 105H753C755.761 105 758 102.761 758 100V79C758 76.2386 755.761 74 753 74Z" fill="#3A3426"/>
<path d="M296 148L318 94L348 130L384 86L426 134L466 92L496 148H296Z" fill="#11100D"/>
<path d="M296 148H496V184H296V148Z" fill="#11100D"/>
<path d="M292 148L280 192L268 150L292 148Z" fill="#28221A"/>
<path d="M500 148L514 196L526 152L500 148Z" fill="#28221A"/>
<path opacity="0.7" d="M263 184H251C248.239 184 246 186.239 246 189V193C246 195.761 248.239 198 251 198H263C265.761 198 268 195.761 268 193V189C268 186.239 265.761 184 263 184Z" fill="#3A3426"/>
<path opacity="0.6" d="M439 210H431C428.239 210 426 212.239 426 215V217C426 219.761 428.239 222 431 222H439C441.761 222 444 219.761 444 217V215C444 212.239 441.761 210 439 210Z" fill="#322C20"/>
<path opacity="0.45" d="M366 240H360C357.791 240 356 241.791 356 244V246C356 248.209 357.791 250 360 250H366C368.209 250 370 248.209 370 246V244C370 241.791 368.209 240 366 240Z" fill="#3A3426"/>
<path d="M60 105H-4V2800H60V105Z" fill="#2C271E"/>
<path d="M28 105H-4V2800H28V105Z" fill="#35200C"/>
<path d="M11 105H-4V2800H11V105Z" fill="#3A3426"/>
<path d="M62 165H32C25.3726 165 20 170.373 20 177V303C20 309.627 25.3726 315 32 315H62C68.6274 315 74 309.627 74 303V177C74 170.373 68.6274 165 62 165Z" fill="#3A3426"/>
<path d="M59 301H37C30.9249 301 26 305.925 26 312V422C26 428.075 30.9249 433 37 433H59C65.0751 433 70 428.075 70 422V312C70 305.925 65.0751 301 59 301Z" fill="#2C271E"/>
<path d="M63 419H31C23.8203 419 18 424.82 18 432V564C18 571.18 23.8203 577 31 577H63C70.1797 577 76 571.18 76 564V432C76 424.82 70.1797 419 63 419Z" fill="#40392A"/>
<path d="M61 563H39C32.9249 563 28 567.925 28 574V682C28 688.075 32.9249 693 39 693H61C67.0751 693 72 688.075 72 682V574C72 567.925 67.0751 563 61 563Z" fill="#28221A"/>
<path d="M64 679H32C25.3726 679 20 684.373 20 691V817C20 823.627 25.3726 829 32 829H64C70.6274 829 76 823.627 76 817V691C76 684.373 70.6274 679 64 679Z" fill="#322C20"/>
<path d="M61 815H39C32.9249 815 28 819.925 28 826V932C28 938.075 32.9249 943 39 943H61C67.0751 943 72 938.075 72 932V826C72 819.925 67.0751 815 61 815Z" fill="#23201B"/>
<path d="M63 929H31C23.8203 929 18 934.82 18 942V1072C18 1079.18 23.8203 1085 31 1085H63C70.1797 1085 76 1079.18 76 1072V942C76 934.82 70.1797 929 63 929Z" fill="#322C20"/>
<path d="M61 1071H39C32.9249 1071 28 1075.92 28 1082V1188C28 1194.08 32.9249 1199 39 1199H61C67.0751 1199 72 1194.08 72 1188V1082C72 1075.92 67.0751 1071 61 1071Z" fill="#464032"/>
<path d="M64 1185H32C25.3726 1185 20 1190.37 20 1197V1325C20 1331.63 25.3726 1337 32 1337H64C70.6274 1337 76 1331.63 76 1325V1197C76 1190.37 70.6274 1185 64 1185Z" fill="#3A3426"/>
<path d="M61 1323H39C32.9249 1323 28 1327.92 28 1334V1438C28 1444.08 32.9249 1449 39 1449H61C67.0751 1449 72 1444.08 72 1438V1334C72 1327.92 67.0751 1323 61 1323Z" fill="#33271A"/>
<path d="M52 525H48C44.6863 525 42 527.686 42 531V545C42 548.314 44.6863 551 48 551H52C55.3137 551 58 548.314 58 545V531C58 527.686 55.3137 525 52 525Z" fill="#28221A"/>
<path d="M54 1005H50C46.6863 1005 44 1007.69 44 1011V1025C44 1028.31 46.6863 1031 50 1031H54C57.3137 1031 60 1028.31 60 1025V1011C60 1007.69 57.3137 1005 54 1005Z" fill="#28221A"/>
<path d="M66 1395H32C25.3726 1395 20 1400.37 20 1407V1515C20 1521.63 25.3726 1527 32 1527H66C72.6274 1527 78 1521.63 78 1515V1407C78 1400.37 72.6274 1395 66 1395Z" fill="#6E4419"/>
<path d="M62 1535H40C34.4772 1535 30 1539.48 30 1545V1633C30 1638.52 34.4772 1643 40 1643H62C67.5228 1643 72 1638.52 72 1633V1545C72 1539.48 67.5228 1535 62 1535Z" fill="#3A2208"/>
<path d="M66 1651H32C25.3726 1651 20 1656.37 20 1663V1771C20 1777.63 25.3726 1783 32 1783H66C72.6274 1783 78 1777.63 78 1771V1663C78 1656.37 72.6274 1651 66 1651Z" fill="#5E3A16"/>
<path d="M62 1791H40C34.4772 1791 30 1795.48 30 1801V1889C30 1894.52 34.4772 1899 40 1899H62C67.5228 1899 72 1894.52 72 1889V1801C72 1795.48 67.5228 1791 62 1791Z" fill="#54320F"/>
<path d="M66 1907H32C25.3726 1907 20 1912.37 20 1919V2027C20 2033.63 25.3726 2039 32 2039H66C72.6274 2039 78 2033.63 78 2027V1919C78 1912.37 72.6274 1907 66 1907Z" fill="#6E4419"/>
<path d="M62 2047H40C34.4772 2047 30 2051.48 30 2057V2145C30 2150.52 34.4772 2155 40 2155H62C67.5228 2155 72 2150.52 72 2145V2057C72 2051.48 67.5228 2047 62 2047Z" fill="#3A2208"/>
<path d="M66 2163H32C25.3726 2163 20 2168.37 20 2175V2283C20 2289.63 25.3726 2295 32 2295H66C72.6274 2295 78 2289.63 78 2283V2175C78 2168.37 72.6274 2163 66 2163Z" fill="#5E3A16"/>
<path d="M52 1485H48C44.6863 1485 42 1487.69 42 1491V1503C42 1506.31 44.6863 1509 48 1509H52C55.3137 1509 58 1506.31 58 1503V1491C58 1487.69 55.3137 1485 52 1485Z" fill="#28221A"/>
<path d="M54 1965H50C46.6863 1965 44 1967.69 44 1971V1983C44 1986.31 46.6863 1989 50 1989H54C57.3137 1989 60 1986.31 60 1983V1971C60 1967.69 57.3137 1965 54 1965Z" fill="#28221A"/>
<path d="M796 105H732V2800H796V105Z" fill="#2C271E"/>
<path d="M796 105H764V2800H796V105Z" fill="#28221A"/>
<path d="M796 105H781V2800H796V105Z" fill="#2C271E"/>
<path d="M760 145H730C723.373 145 718 150.373 718 157V279C718 285.627 723.373 291 730 291H760C766.627 291 772 285.627 772 279V157C772 150.373 766.627 145 760 145Z" fill="#3A3426"/>
<path d="M755 277H733C726.925 277 722 281.925 722 288V400C722 406.075 726.925 411 733 411H755C761.075 411 766 406.075 766 400V288C766 281.925 761.075 277 755 277Z" fill="#332E26"/>
<path d="M761 397H729C721.82 397 716 402.82 716 410V540C716 547.18 721.82 553 729 553H761C768.18 553 774 547.18 774 540V410C774 402.82 768.18 397 761 397Z" fill="#2C271E"/>
<path d="M755 539H733C726.925 539 722 543.925 722 550V658C722 664.075 726.925 669 733 669H755C761.075 669 766 664.075 766 658V550C766 543.925 761.075 539 755 539Z" fill="#3A3426"/>
<path d="M760 655H728C721.373 655 716 660.373 716 667V795C716 801.627 721.373 807 728 807H760C766.627 807 772 801.627 772 795V667C772 660.373 766.627 655 760 655Z" fill="#2C271E"/>
<path d="M755 793H733C726.925 793 722 797.925 722 804V910C722 916.075 726.925 921 733 921H755C761.075 921 766 916.075 766 910V804C766 797.925 761.075 793 755 793Z" fill="#3A3426"/>
<path d="M761 907H729C721.82 907 716 912.82 716 920V1050C716 1057.18 721.82 1063 729 1063H761C768.18 1063 774 1057.18 774 1050V920C774 912.82 768.18 907 761 907Z" fill="#28221A"/>
<path d="M755 1049H733C726.925 1049 722 1053.92 722 1060V1166C722 1172.08 726.925 1177 733 1177H755C761.075 1177 766 1172.08 766 1166V1060C766 1053.92 761.075 1049 755 1049Z" fill="#464032"/>
<path d="M760 1163H728C721.373 1163 716 1168.37 716 1175V1303C716 1309.63 721.373 1315 728 1315H760C766.627 1315 772 1309.63 772 1303V1175C772 1168.37 766.627 1163 760 1163Z" fill="#2C271E"/>
<path d="M755 1301H733C726.925 1301 722 1305.92 722 1312V1416C722 1422.08 726.925 1427 733 1427H755C761.075 1427 766 1422.08 766 1416V1312C766 1305.92 761.075 1301 755 1301Z" fill="#33271A"/>
<path d="M744 503H740C736.686 503 734 505.686 734 509V523C734 526.314 736.686 529 740 529H744C747.314 529 750 526.314 750 523V509C750 505.686 747.314 503 744 503Z" fill="#28221A"/>
<path d="M742 983H738C734.686 983 732 985.686 732 989V1003C732 1006.31 734.686 1009 738 1009H742C745.314 1009 748 1006.31 748 1003V989C748 985.686 745.314 983 742 983Z" fill="#28221A"/>
<path d="M756 1269H734C728.477 1269 724 1273.48 724 1279V1367C724 1372.52 728.477 1377 734 1377H756C761.523 1377 766 1372.52 766 1367V1279C766 1273.48 761.523 1269 756 1269Z" fill="#3A2208"/>
<path d="M762 1385H728C721.373 1385 716 1390.37 716 1397V1505C716 1511.63 721.373 1517 728 1517H762C768.627 1517 774 1511.63 774 1505V1397C774 1390.37 768.627 1385 762 1385Z" fill="#5E3A16"/>
<path d="M756 1525H734C728.477 1525 724 1529.48 724 1535V1623C724 1628.52 728.477 1633 734 1633H756C761.523 1633 766 1628.52 766 1623V1535C766 1529.48 761.523 1525 756 1525Z" fill="#54320F"/>
<path d="M762 1641H728C721.373 1641 716 1646.37 716 1653V1761C716 1767.63 721.373 1773 728 1773H762C768.627 1773 774 1767.63 774 1761V1653C774 1646.37 768.627 1641 762 1641Z" fill="#6E4419"/>
<path d="M756 1781H734C728.477 1781 724 1785.48 724 1791V1879C724 1884.52 728.477 1889 734 1889H756C761.523 1889 766 1884.52 766 1879V1791C766 1785.48 761.523 1781 756 1781Z" fill="#3A2208"/>
<path d="M762 1897H728C721.373 1897 716 1902.37 716 1909V2017C716 2023.63 721.373 2029 728 2029H762C768.627 2029 774 2023.63 774 2017V1909C774 1902.37 768.627 1897 762 1897Z" fill="#5E3A16"/>
<path d="M756 2037H734C728.477 2037 724 2041.48 724 2047V2135C724 2140.52 728.477 2145 734 2145H756C761.523 2145 766 2140.52 766 2135V2047C766 2041.48 761.523 2037 756 2037Z" fill="#54320F"/>
<path d="M762 2153H728C721.373 2153 716 2158.37 716 2165V2273C716 2279.63 721.373 2285 728 2285H762C768.627 2285 774 2279.63 774 2273V2165C774 2158.37 768.627 2153 762 2153Z" fill="#6E4419"/>
<path d="M66 2200H0V2800H66V2200Z" fill="#46280E"/>
<path d="M34 2200H0V2800H34V2200Z" fill="#35200C"/>
<path d="M16 2200H0V2800H16V2200Z" fill="#28221A"/>
<path d="M70 2250H36C29.3726 2250 24 2255.37 24 2262V2370C24 2376.63 29.3726 2382 36 2382H70C76.6274 2382 82 2376.63 82 2370V2262C82 2255.37 76.6274 2250 70 2250Z" fill="#5E3A16"/>
<path d="M66 2390H44C38.4772 2390 34 2394.48 34 2400V2484C34 2489.52 38.4772 2494 44 2494H66C71.5228 2494 76 2489.52 76 2484V2400C76 2394.48 71.5228 2390 66 2390Z" fill="#54320F"/>
<path d="M68 2496H38C31.3726 2496 26 2501.37 26 2508V2612C26 2618.63 31.3726 2624 38 2624H68C74.6274 2624 80 2618.63 80 2612V2508C80 2501.37 74.6274 2496 68 2496Z" fill="#6E4419"/>
<path d="M66 2628H46C40.4772 2628 36 2632.48 36 2638V2728C36 2733.52 40.4772 2738 46 2738H66C71.5228 2738 76 2733.52 76 2728V2638C76 2632.48 71.5228 2628 66 2628Z" fill="#3A2208"/>
<path d="M58 2360H54C50.6863 2360 48 2362.69 48 2366V2378C48 2381.31 50.6863 2384 54 2384H58C61.3137 2384 64 2381.31 64 2378V2366C64 2362.69 61.3137 2360 58 2360Z" fill="#28221A"/>
<path d="M56 2560H52C48.6863 2560 46 2562.69 46 2566V2578C46 2581.31 48.6863 2584 52 2584H56C59.3137 2584 62 2581.31 62 2578V2566C62 2562.69 59.3137 2560 56 2560Z" fill="#28221A"/>
<path d="M800 2200H734V2800H800V2200Z" fill="#46280E"/>
<path d="M800 2200H766V2800H800V2200Z" fill="#35200C"/>
<path d="M800 2200H784V2800H800V2200Z" fill="#28221A"/>
<path d="M764 2230H730C723.373 2230 718 2235.37 718 2242V2346C718 2352.63 723.373 2358 730 2358H764C770.627 2358 776 2352.63 776 2346V2242C776 2235.37 770.627 2230 764 2230Z" fill="#6E4419"/>
<path d="M762 2366H740C734.477 2366 730 2370.48 730 2376V2462C730 2467.52 734.477 2472 740 2472H762C767.523 2472 772 2467.52 772 2462V2376C772 2370.48 767.523 2366 762 2366Z" fill="#3A2208"/>
<path d="M764 2470H732C725.373 2470 720 2475.37 720 2482V2584C720 2590.63 725.373 2596 732 2596H764C770.627 2596 776 2590.63 776 2584V2482C776 2475.37 770.627 2470 764 2470Z" fill="#54320F"/>
<path d="M762 2606H736C730.477 2606 726 2610.48 726 2616V2716C726 2721.52 730.477 2726 736 2726H762C767.523 2726 772 2721.52 772 2716V2616C772 2610.48 767.523 2606 762 2606Z" fill="#5E3A16"/>
<path d="M746 2330H742C738.686 2330 736 2332.69 736 2336V2348C736 2351.31 738.686 2354 742 2354H746C749.314 2354 752 2351.31 752 2348V2336C752 2332.69 749.314 2330 746 2330Z" fill="#28221A"/>
<path d="M746 2540H740C736.686 2540 734 2542.69 734 2546V2560C734 2563.31 736.686 2566 740 2566H746C749.314 2566 752 2563.31 752 2560V2546C752 2542.69 749.314 2540 746 2540Z" fill="#28221A"/>
<path opacity="0.1" d="M292 2330H228C223.582 2330 220 2333.58 220 2338V2348C220 2352.42 223.582 2356 228 2356H292C296.418 2356 300 2352.42 300 2348V2338C300 2333.58 296.418 2330 292 2330Z" fill="#322C20"/>
<path opacity="0.1" d="M582 2400H528C523.582 2400 520 2403.58 520 2408V2416C520 2420.42 523.582 2424 528 2424H582C586.418 2424 590 2420.42 590 2416V2408C590 2403.58 586.418 2400 582 2400Z" fill="#3A3426"/>
<path opacity="0.09" d="M379 2500H309C304.029 2500 300 2504.03 300 2509V2519C300 2523.97 304.029 2528 309 2528H379C383.971 2528 388 2523.97 388 2519V2509C388 2504.03 383.971 2500 379 2500Z" fill="#322C20"/>
<path opacity="0.11" d="M615 2560H567C563.134 2560 560 2563.13 560 2567V2575C560 2578.87 563.134 2582 567 2582H615C618.866 2582 622 2578.87 622 2575V2567C622 2563.13 618.866 2560 615 2560Z" fill="#2C271E"/>
<path opacity="0.14" d="M195 2452H157C153.134 2452 150 2455.13 150 2459C150 2462.87 153.134 2466 157 2466H195C198.866 2466 202 2462.87 202 2459C202 2455.13 198.866 2452 195 2452Z" fill="#A85A1C"/>
<path opacity="0.16" d="M640 2520H606C602.686 2520 600 2522.69 600 2526C600 2529.31 602.686 2532 606 2532H640C643.314 2532 646 2529.31 646 2526C646 2522.69 643.314 2520 640 2520Z" fill="#8A3E10"/>
<path opacity="0.12" d="M306 2640H266C262.686 2640 260 2642.69 260 2646C260 2649.31 262.686 2652 266 2652H306C309.314 2652 312 2649.31 312 2646C312 2642.69 309.314 2640 306 2640Z" fill="#A85A1C"/>
<path d="M800 2688H0V2800H800V2688Z" fill="#46280E"/>
<path d="M74 2688H14C10.6863 2688 8 2690.69 8 2694V2716C8 2719.31 10.6863 2722 14 2722H74C77.3137 2722 80 2719.31 80 2716V2694C80 2690.69 77.3137 2688 74 2688Z" fill="#3A3426"/>
<path d="M141 2690H93C90.2386 2690 88 2692.24 88 2695V2717C88 2719.76 90.2386 2722 93 2722H141C143.761 2722 146 2719.76 146 2717V2695C146 2692.24 143.761 2690 141 2690Z" fill="#322C20"/>
<path d="M228 2686H160C156.686 2686 154 2688.69 154 2692V2716C154 2719.31 156.686 2722 160 2722H228C231.314 2722 234 2719.31 234 2716V2692C234 2688.69 231.314 2686 228 2686Z" fill="#3A3426"/>
<path d="M299 2689H247C244.239 2689 242 2691.24 242 2694V2717C242 2719.76 244.239 2722 247 2722H299C301.761 2722 304 2719.76 304 2717V2694C304 2691.24 301.761 2689 299 2689Z" fill="#2C271E"/>
<path d="M380 2687H318C314.686 2687 312 2689.69 312 2693V2716C312 2719.31 314.686 2722 318 2722H380C383.314 2722 386 2719.31 386 2716V2693C386 2689.69 383.314 2687 380 2687Z" fill="#3A3426"/>
<path d="M445 2690H399C396.239 2690 394 2692.24 394 2695V2717C394 2719.76 396.239 2722 399 2722H445C447.761 2722 450 2719.76 450 2717V2695C450 2692.24 447.761 2690 445 2690Z" fill="#322C20"/>
<path d="M536 2686H464C460.686 2686 458 2688.69 458 2692V2716C458 2719.31 460.686 2722 464 2722H536C539.314 2722 542 2719.31 542 2716V2692C542 2688.69 539.314 2686 536 2686Z" fill="#3A3426"/>
<path d="M609 2689H555C552.239 2689 550 2691.24 550 2694V2717C550 2719.76 552.239 2722 555 2722H609C611.761 2722 614 2719.76 614 2717V2694C614 2691.24 611.761 2689 609 2689Z" fill="#2C271E"/>
<path d="M688 2687H628C624.686 2687 622 2689.69 622 2693V2716C622 2719.31 624.686 2722 628 2722H688C691.314 2722 694 2719.31 694 2716V2693C694 2689.69 691.314 2687 688 2687Z" fill="#322C20"/>
<path d="M786 2689H708C704.686 2689 702 2691.69 702 2695V2717C702 2720.31 704.686 2723 708 2723H786C789.314 2723 792 2720.31 792 2717V2695C792 2691.69 789.314 2689 786 2689Z" fill="#3A3426"/>
<path opacity="0.65" d="M800 2750H0V2755H800V2750Z" fill="#35200C"/>
<path d="M118 2693C126.284 2693 133 2690.76 133 2688C133 2685.24 126.284 2683 118 2683C109.716 2683 103 2685.24 103 2688C103 2690.76 109.716 2693 118 2693Z" fill="#0C3208"/>
<path d="M296 2691C302.627 2691 308 2689.21 308 2687C308 2684.79 302.627 2683 296 2683C289.373 2683 284 2684.79 284 2687C284 2689.21 289.373 2691 296 2691Z" fill="#186010"/>
<path d="M452 2693C460.837 2693 468 2690.76 468 2688C468 2685.24 460.837 2683 452 2683C443.163 2683 436 2685.24 436 2688C436 2690.76 443.163 2693 452 2693Z" fill="#0C3208"/>
<path d="M612 2691C618.075 2691 623 2689.21 623 2687C623 2684.79 618.075 2683 612 2683C605.925 2683 601 2684.79 601 2687C601 2689.21 605.925 2691 612 2691Z" fill="#186010"/>
<path d="M712 2693C719.18 2693 725 2691.21 725 2689C725 2686.79 719.18 2685 712 2685C704.82 2685 699 2686.79 699 2689C699 2691.21 704.82 2693 712 2693Z" fill="#0C3208"/>
<path d="M216 2732H204C201.791 2732 200 2733.79 200 2736V2737C200 2739.21 201.791 2741 204 2741H216C218.209 2741 220 2739.21 220 2737V2736C220 2733.79 218.209 2732 216 2732Z" fill="#35200C"/>
<path d="M405 2764H389C386.239 2764 384 2766.24 384 2769C384 2771.76 386.239 2774 389 2774H405C407.761 2774 410 2771.76 410 2769C410 2766.24 407.761 2764 405 2764Z" fill="#3A2208"/>
<path d="M574 2736H564C561.791 2736 560 2737.79 560 2740C560 2742.21 561.791 2744 564 2744H574C576.209 2744 578 2742.21 578 2740C578 2737.79 576.209 2736 574 2736Z" fill="#35200C"/>
</g>
<defs>
<clipPath id="clip0_252_478">
<rect width="800" height="2800" fill="white"/>
</clipPath>
</defs>
</svg>
