<svg width="120" height="360" viewBox="0 0 120 360" fill="none" xmlns="http://www.w3.org/2000/svg">
<g clip-path="url(#clip0_201_10)">
<path d="M45.0238 326.456L49.1905 360L40.8571 323.461L56.3333 313.278L51.5714 288.719L37.2857 283.927L30.1429 286.922L33.7143 283.328L30.1429 247.987L34.9048 236.606L36.6905 198.869L45.0238 187.488L34.9048 165.324L23 168.918L34.3095 164.126L42.0476 158.136L41.4524 119.201L34.3095 114.409L42.6429 118.003H49.7857L52.1667 90.4492L31.3333 79.6672L44.4286 82.6622L49.1905 53.9101L62.2857 47.9201L50.9762 25.1581L49.1905 23.9601L50.9762 23.3611L59.9048 14.975V0L62.881 14.975L53.3571 25.7571L66.4524 50.0166L53.3571 57.5042L49.1905 82.6622L56.7229 86.2562L59.9048 115.607H98L49.1905 124.592L53.3571 161.131L70.0238 164.126H53.3571L45.0238 167.121L56.3333 189.285L46.8095 203.062V240.2L85.5 237.804L46.2143 241.997L39.0714 249.185L59.9048 256.373L37.2857 250.383L37.881 280.932L53.3571 287.521L59.9048 284.526V311.481L65.8571 322.263L59.9048 316.273L45.0238 326.456Z" fill="black"/>
<path d="M56.3333 82.6622L56.7229 86.2562M56.7229 86.2562L59.9048 115.607H98L49.1905 124.592L53.3571 161.131L70.0238 164.126H53.3571L45.0238 167.121L56.3333 189.285L46.8095 203.062V240.2L85.5 237.804L46.2143 241.997L39.0714 249.185L59.9048 256.373L37.2857 250.383L37.881 280.932L53.3571 287.521L59.9048 284.526V311.481L65.8571 322.263L59.9048 316.273L45.0238 326.456L49.1905 360L40.8571 323.461L56.3333 313.278L51.5714 288.719L37.2857 283.927L30.1429 286.922L33.7143 283.328L30.1429 247.987L34.9048 236.606L36.6905 198.869L45.0238 187.488L34.9048 165.324L23 168.918L34.3095 164.126L42.0476 158.136L41.4524 119.201L34.3095 114.409L42.6429 118.003H49.7857L52.1667 90.4492L31.3333 79.6672L44.4286 82.6622L49.1905 53.9101L62.2857 47.9201L50.9762 25.1581L49.1905 23.9601L50.9762 23.3611L59.9048 14.975V0L62.881 14.975L53.3571 25.7571L66.4524 50.0166M79.5476 42.5291L66.4524 50.0166L53.3571 57.5042L49.1905 82.6622L56.7229 86.2562" stroke="black"/>
</g>
<defs>
<clipPath id="clip0_201_10">
<rect width="120" height="360" fill="white"/>
</clipPath>
</defs>
</svg>
