<svg width="120" height="360" viewBox="0 0 120 360" fill="none" xmlns="http://www.w3.org/2000/svg">
<path d="M100.807 236.836L101.101 237.605L101.232 237.951L100.94 238.179L89.6998 246.903L89.6578 246.936L89.609 246.96L70.2574 256.198L69.6998 256.464L69.5553 255.863L68.3824 250.988L68.278 250.552L68.7008 250.4L88.4039 243.355L100.089 236.581L100.598 236.286L100.807 236.836Z" fill="#070503" stroke="black"/>
<path d="M41.1765 134.389L27.2489 138.869L20 141.394L20.0814 141.882L27.6561 140.416L41.9095 136.914L41.1765 134.389Z" fill="#070503" stroke="black" stroke-width="3" stroke-linejoin="bevel"/>
<path d="M65.8641 67.4622L65.1307 69.9875L64.9852 70.4875L65.4911 70.6125L79.745 74.1145L79.7567 74.1174L79.7694 74.1194L87.3436 75.5862L87.8475 75.6838L87.9325 75.177L88.0135 74.6887L88.0829 74.2727L87.6844 74.134L80.4364 71.6096L80.4247 71.6057L66.4969 67.1262L66.0067 66.968L65.8641 67.4622Z" fill="#070503" stroke="black"/>
<path d="M90.4525 345.747L88.0091 360C88.0091 347.62 85.2941 340.452 83.9367 338.416L78.6425 331.086L67.2398 253.71L39.5475 205.656C40.4977 191.674 42.6425 162.081 43.6199 155.566C44.5973 149.05 43.2127 144.163 42.3982 142.534L27.3303 86.3348L62.7602 63.9367C63.0317 67.3321 63.4118 71.9229 62.7602 63.1222C62.1086 54.3214 63.8462 49.41 64.7964 48.0543L76.6063 30.543V29.7285V9.77376L79.457 0C79.457 0 82.4434 25.9276 82.3077 32.9864C80.9502 36.1086 77.3394 43.4932 73.7557 48.0543C70.172 52.6154 69.0045 64.8869 68.8688 70.4525L38.3258 91.629L55.0226 150.679L51.7647 209.321C59.095 221.131 74.2444 246.136 76.1991 251.674C78.1539 257.213 82.9864 308.552 85.1584 333.529L92.4887 342.081L90.4525 345.747Z" fill="black"/>
</svg>
