<svg width="155" height="199" viewBox="0 0 155 199" fill="none" xmlns="http://www.w3.org/2000/svg">
<path d="M69.585 22.7547L79.585 0.254662L65.085 24.7547L71.585 45.2547L60.585 68.7547L43.585 57.7547V39.2547L30.585 30.7547L26.085 2.25466L28.085 29.7547L5.08496 17.2547L39.085 41.7547L38.585 61.7547L58.585 74.2547L56.085 80.7547L21.085 70.7547L54.585 96.7547L48.085 99.2547L50.085 102.255L36.085 112.755L19.585 108.755L14.585 122.255L0.0849609 124.755L15.585 123.255L21.085 110.755L37.085 116.755L53.085 106.755L59.085 113.255L41.585 138.755L68.085 121.255L75.085 133.755L63.085 150.255L70.585 170.255L66.085 198.255L72.585 170.755L70.085 156.255L83.085 162.755L82.585 175.255L98.085 185.255L84.085 173.255L85.085 162.255L69.585 153.255L68.585 150.255L78.085 139.255L96.585 149.755L97.085 156.755L104.085 159.755L98.085 155.755V149.255L112.085 145.755L129.585 162.755L112.585 143.755L99.085 146.755L81.085 134.255L77.585 116.255L91.085 103.755L101.585 110.255L114.585 97.7547L128.585 103.755L136.585 99.7547L154.085 97.7547L136.085 98.2547L128.585 102.255L114.085 95.2547L101.585 107.255L91.085 98.7547L85.585 102.755L82.085 98.7547L103.085 65.2547L76.085 83.7547L70.085 63.7547L78.585 45.7547L69.585 22.7547Z" fill="black" stroke="black"/>
</svg>
