<svg width="137" height="191" viewBox="0 0 137 191" fill="none" xmlns="http://www.w3.org/2000/svg">
<path d="M66.7957 173.054L60.7957 190.099L64.2957 173.556L55.2957 151.498L67.2957 138.965L51.2957 128.938L58.7957 109.387L56.7957 106.88L44.7957 113.899L29.7957 109.387L25.7957 119.413L5.29565 122.923L24.7957 118.411L28.7957 107.382L44.2957 111.392L58.7957 99.3605L51.7957 91.8407H42.7957L38.7957 78.8064L35.2957 76.8011L9.29565 77.3025L33.7957 75.2972L27.7957 68.2787L36.2957 75.7985L40.2957 77.3025L44.2957 90.3368L53.2957 88.3315L59.2957 93.846L57.2957 74.7959L33.2957 60.7589L33.7957 42.7114L0.295654 18.1468L22.2957 31.1811L18.2957 0.0992813L24.7957 32.1837L38.7957 40.2048L37.7957 57.2497L56.2957 67.7774V62.7642L64.7957 44.7167L58.2957 25.6666L72.2957 0.600601L62.7957 24.1626L71.2957 45.7193L63.7957 62.2629L72.2957 81.313L87.2957 80.3104V69.7827L103.796 62.2629L88.7957 70.284L88.2957 81.313L72.7957 82.817L74.7957 100.864L84.2957 107.382L102.296 99.3605L118.296 111.392L136.296 104.374L117.796 113.899L100.796 103.371L82.7957 112.896L76.2957 109.888L64.7957 129.941L92.2957 150.495L107.296 147.487L122.796 166.537L106.296 149.994L92.2957 153.002L93.2957 159.017L102.296 163.028L92.2957 160.521L90.7957 154.004L71.7957 142.474L61.7957 151.999L66.7957 173.054Z" fill="black" stroke="black"/>
</svg>
