<svg xmlns="http://www.w3.org/2000/svg" viewBox="0 0 800 800" width="100%" height="100%" preserveAspectRatio="xMidYMid slice">
  <!-- Ground Erosion State 1: light damage — 3 thin cracks spread across width -->
  <!-- erosionCounter >= 5 -->

  <!-- Left crack: x≈195, y=574 to y=658 -->
  <polygon fill="#070503"
    points="
      194,574  190,586  186,600  190,614  187,628  191,642  188,654  191,658
      194,658  197,654  194,642  198,628  193,614  197,600  193,586  197,574
    "/>
  <polygon fill="#070503" points="188,598 176,593 178,601 188,604"/>
  <polygon fill="#070503" points="193,628 204,623 202,631 193,634"/>

  <!-- Center crack (widened from state 0): x≈400, y=570 to y=682 -->
  <polygon fill="#070503"
    points="
      397,570  393,583  388,597  393,612  389,627  393,641  390,655  393,669  397,681
      402,681  406,669  403,655  406,641  401,627  405,612  401,597  405,583  402,570
    "/>
  <polygon fill="#070503" points="390,594 377,588 380,597 390,600"/>
  <polygon fill="#070503" points="403,611 416,605 414,614 403,617"/>
  <polygon fill="#070503" points="391,652 379,646 381,655 391,658"/>
  <polygon fill="#070503" points="404,668 417,662 415,670 404,673"/>

  <!-- Right crack: x≈600, y=572 to y=656 -->
  <polygon fill="#070503"
    points="
      598,572  594,585  590,599  594,613  591,627  595,641  592,653  596,656
      599,656  602,653  598,641  602,627  597,613  601,599  597,585  601,572
    "/>
  <polygon fill="#070503" points="592,597 580,591 582,600 592,603"/>
  <polygon fill="#070503" points="597,628 609,622 607,631 597,634"/>

  <!-- Small dark gap hints at grass line between left and center cracks -->
  <ellipse cx="295" cy="573" rx="6" ry="3" fill="#040302" opacity="0.7"/>
</svg>
