<svg width="400" height="299" viewBox="0 0 400 299" fill="none" xmlns="http://www.w3.org/2000/svg">
<path fill-rule="evenodd" clip-rule="evenodd" d="M253.66 29.4829L247.803 41.7136L249.502 52.4698L269.983 49.9159L270.157 50.9492L249.937 55.2162L251.027 62.1109L264.716 71.0525V80.4591L272.123 84.2162L280.534 70.0203L281.465 70.5006L274.765 85.5566L286.497 91.5081L293.019 77.5898L286.259 56.2904L286.188 56.0661L286.307 55.8644L301.527 30.1741L302.459 30.6543L292.05 54.0468L301.419 77.9605L301.501 78.1714L301.404 78.3762L299.22 82.9955L306.074 76.3692L323.183 64.4159L323.708 64.9402L308.173 78.6763L293.057 96.6067L292.684 96.8197L292.567 97.0685L298.601 117.161L326.351 98.1673L327.092 98.8779L305.255 133.675L305.979 134.502L313.567 133.429L313.742 133.303L314.068 133.067L314.376 133.315L318.879 132.678L344.702 125.234L365.8 116.74L366.115 117.369L345.646 127.855L339.517 130.112L353.402 136.808L361.04 132.74L361.148 132.683L361.272 132.678L380.167 132.154L380.24 133.2L361.962 135.286L353.431 139.547L353.207 139.452L338.83 133.297L325.142 146.446L324.797 146.231L319.78 143.128L311.881 174.276L317.099 169.272L332.408 176.655L340.046 172.586L340.154 172.529L340.279 172.525L359.173 172L359.247 173.046L340.968 175.132L332.438 179.394L332.213 179.298L317.836 173.143L313.558 177.253L322.559 183.497L336.806 180.335L337.011 180.564L354.855 200.487L354.098 201.212L335.937 183.59L321.923 187.09V187.545L323.557 187.732L323.484 188.778L321.923 188.734V193.216L327.988 197.255L327.49 198.173L320.142 195.027L319.849 194.901L319.825 194.582L319.401 188.664L304.589 188.253L304.465 188.249L304.357 188.192L303.908 187.952L299.741 195.058L308.305 200.026L308.275 200.359L307.249 211.624L321.74 224.031L321.114 224.87L318.506 223.189L333.862 240.334L333.104 241.059L314.944 223.436L300.93 226.936V233.062L306.994 237.101L306.496 238.019L299.148 234.874L298.855 234.748L298.831 234.428L298.326 227.368L291.758 223.644L288.319 238.182L288.22 238.162L297.676 247.499L311.427 263.962L310.902 264.38L295.891 249.281L287.144 241.703L286.256 251.471L300.746 263.878L300.12 264.716L283.599 254.069L283.61 253.77L284.12 240.999L271.708 234.8L274.156 248.982L274.173 249.088L274.148 249.192L267.325 278.028L266.296 277.825L270.997 248.599L263.075 227.496L264.92 224.961L255.796 218.975L250.649 220.131L238.294 228.961L244.721 242.556L244.818 242.76L244.736 242.971L235.367 266.885L245.776 290.278L244.844 290.758L229.624 265.067L229.505 264.866L229.576 264.641L236.336 243.342L230.176 230.197L219.789 231.35L208.033 233.185V249.879L194.344 258.821L189.657 288.475L188.614 288.355L190.644 260.477L189.748 260.962L190.055 261.305L189.297 262.03L188.753 261.503L167.345 273.125L166.788 272.24L185.751 258.59L171.137 244.408L170.063 244.675L168.565 251.169L162.057 266.478L161.322 266.269L162.878 258.642L162.689 258.991L155.341 255.845L155.048 255.719L155.024 255.4L154.552 248.806L132.957 240.874L126.224 248.663L127.117 251.339L143.505 260.844L143.475 261.177L142.449 272.442L156.939 284.849L156.313 285.688L139.792 275.04L139.803 274.741L140.313 261.971L127.901 255.772L130.349 269.954L130.366 270.06L130.341 270.164L123.519 299L122.489 298.796L127.19 269.571L119.278 248.492L105.152 239.388L105.163 239.089L105.458 231.728L97.5798 236.926L96.8582 236.191L102.978 227.28L102.868 227.223L102.329 227.471L95.5112 233.159L95.709 234.302L95.7265 234.408L95.7019 234.512L88.8789 263.348L87.8497 263.144L90.8952 244.205L71.7836 254.629L74.5124 233.657L85.9615 239.914L92.0946 232.705L84.6289 212.815L85.6632 211.393L76.052 207.793L70.3557 220.728L53.779 222.33L53.6396 221.291L68.5618 218.721L73.8676 204.411L88.2167 207.886L93.5184 200.603L84.3798 192.552L84.3306 187.161L62.9402 201.274L62.2185 200.54L80.1739 174.4L74.2407 168.199L57.986 178.349L41.4124 172.141L35.716 185.076L19.1394 186.679L19 185.639L33.9221 183.069L39.228 168.759L56.761 173.005L70.861 162.44L68.6735 159.163L75.2402 156.639L68.7442 151.602L57.7174 153.336L37.3541 156.062L37.144 155.433L55.3484 149.986L58.0823 143.337L40.8107 129.946L41.2771 129.029L61.584 134.825L65.7766 124.631L58.97 120.381L58.9772 120.082L59.2314 109.914L58.6707 109.51L59.2273 108.624L59.2632 108.644L59.4949 99.3858L24.0311 73.8583L24.5877 72.9725L47.8868 85.6211L45.8572 57.7424L46.8997 57.6226L51.5864 87.2769L65.2753 96.2186V111.907L69.963 114.453L71.7836 110.029L75.562 105.065L66.6551 103.442L66.8058 102.405L76.7686 103.481L80.8412 98.1324L80.4968 93.3944L81.5393 93.2745L82.0549 96.5381L83.7525 94.3098L66.8499 78.6763L67.2701 78.152L86.3736 91.7836L92.1038 98.1099L86.8185 81.4565L86.7478 81.2322L86.8667 81.0305L102.087 55.3401L103.019 55.8204L92.6102 79.2128L100.778 100.063L104.534 93.7763L115.765 82.4508L133.277 82.3627L127.374 74.3631L128.071 73.6043L137.049 79.1002L137.172 74.2198L101.708 48.6922L102.264 47.8065L125.564 60.455L123.534 32.5764L124.576 32.4566L129.263 62.1109L142.952 71.0525V80.7263L152.714 78.2564L156.323 77.2191L150.036 68.2375L150.115 67.9907L155.388 51.3833L142.451 46.4773L142.163 46.3677L142.118 46.0636L139.706 29.9129L140.738 29.7204L144.077 44.4744L158.21 48.8909L158.656 49.0291L155.317 66.7394L162.568 75.425L168.774 73.6433L169.922 73.3903L164.495 56.2904L164.424 56.0661L164.543 55.8644L179.764 30.1741L180.696 30.6543L170.287 54.0468L177.236 71.7867L182.124 70.7146L197.54 48.6062L198.481 49.024L197.875 51.6434L201.105 38.0958L201.839 38.2013L199.693 58.8801L229.465 65.0334L234.766 56.8219L223.471 48.6922L224.028 47.8065L236.289 54.4625L245.816 39.7055L245.297 32.5764L246.34 32.4566L247.157 37.6289L252.746 28.9729L253.66 29.4829ZM157.123 254.034L163.017 257.959L164.165 252.338L157.123 249.75V254.034ZM185.989 234.706L171.016 240.554L170.816 241.416L172.005 241.153L172.21 241.382L186.888 257.77L202.252 246.712L201.934 234.016L185.989 234.706ZM161.753 246.751L164.658 247.691L164.711 246.013L161.753 246.751ZM107.809 236.79L120.104 247.317L126.518 238.509L119.019 235.754L108.413 230.152L107.809 236.79ZM157.758 244.315L164.816 242.748L164.847 241.796L152.198 240.457L157.758 244.315ZM86.8421 240.395L91.131 242.739L92.232 235.895L86.8421 240.395ZM153.825 223.879L155.415 225.653L154.657 226.378L153.226 224.99L146.883 236.77L151.488 239.965L162.792 207.232L153.825 223.879ZM135.277 238.19L138.398 239.199L135.719 237.68L135.277 238.19ZM279.512 229.565L279.516 229.568L287.391 237.344L289.776 222.52L285.171 219.91L279.512 229.565ZM109.667 228.952L119.964 233.238L128.374 235.958L131.833 231.209L131.49 230.596L116.185 225.374L115.932 224.818L109.667 228.952ZM270.923 230.367L280.418 235.874L276.891 232.818L270.297 228.491L270.923 230.367ZM94.8705 229.443L99.4947 224.01L100.112 223.541L93.2611 220.12L94.8705 229.443ZM272.811 224.475L278.898 229.098L284.225 219.372L279.526 216.709L272.811 224.475ZM294.316 204.311L295.149 209.136L295.167 209.242L295.142 209.346L293.203 217.541L301.565 223.343L314.343 220.507L304.592 214.222L304.604 213.923L305.114 201.153L298.194 197.697L294.316 204.311ZM92.6256 214.001L91.8127 213.696L92.4769 215.687L102.671 221.599L111.451 214.94L109.572 210.798L103.504 207.208L92.6256 214.001ZM269.335 215.937L266.91 216.48L268.847 219.567L273.726 212.864L269.335 215.937ZM288.48 214.265L290.84 215.903L291.991 208.753L291.882 208.463L288.48 214.265ZM282.98 206.394L282.326 206.85L283.035 210.488L287.423 213.532L291.199 206.643L288.632 199.805L282.98 206.394ZM292.717 195.045L293.875 201.757L296.55 196.875L292.767 194.986L292.717 195.045ZM292.471 186.171L291.402 187.408L292.143 190.651L298.074 194.091L301.996 186.935L296.719 184.124L292.471 186.171ZM305.822 184.683L305.264 185.638L305.279 185.646L318.717 187.179L308.975 181.656L305.822 184.683ZM299.465 178.08L304.049 181.787L305.664 180.238L305.856 179.887L300.52 176.862L299.465 178.08ZM287.363 177.062L287.827 176.724L286.916 176.552L287.363 177.062ZM303.296 149.631L306.388 154.174L304.079 168.016L303.59 168.388L304.029 170.642L309.024 174.107L309.432 173.363L315.942 140.755L314.114 139.625L303.296 149.631ZM106.361 172.48L105.626 173.16L107.86 173.798L113.29 172.184L113.704 171.105L106.361 172.48ZM60.8695 148.195L63.3031 147.384L61.6281 146.086L60.8695 148.195ZM321.387 136.793L320.925 138.612L325.043 141.941L336.041 131.393L321.387 136.793ZM65.301 135.886L77.5538 139.383L77.9741 138.29L73.2505 129.297L68.6971 126.453L65.301 135.886ZM93.9531 121.254L118.495 129.092L119.185 128.62L102.631 121.287L94.1827 120.958L93.9531 121.254ZM71.2167 119.455L77.522 123.531L77.8746 123.333L71.4791 118.729L71.2167 119.455ZM74.1977 111.182L72.5196 115.841L82.0242 121.001L82.4875 120.741L81.4235 106.133L77.7937 105.472L74.1977 111.182ZM85.6027 118.988L86.0589 118.732L86.0886 118.742L91.1638 107.909L83.6346 106.536L85.6027 118.988ZM94.9402 118.399L96.0801 118.385L95.1422 117.97L94.9402 118.399ZM65.2753 115.615L68.6007 117.765L68.9523 116.911L65.2753 114.264V115.615ZM82.3296 98.2748L83.2625 104.182L90.6308 104.978L84.3152 95.1239L82.3296 98.2748ZM78.9028 103.711L81.2656 103.966L81.0042 100.377L78.9028 103.711ZM271.057 93.893L271.4 94.7696L276.281 97.9246L285.291 94.0804L286.121 92.3099L274.234 86.7496L271.057 93.893ZM264.716 90.4493L267.401 92.185L271.405 85.4265L264.716 82.2972V90.4493ZM232.663 71.0269L232.52 71.2727L213.128 72.2731L211.735 74.6878L220.208 76.0548L224.678 77.5724L224.304 72.4226L225.346 72.3028L226.264 78.111L235.954 81.4022L255.689 83.0805L258.628 86.5007L258.802 79.5313L236.794 69.239L233.963 68.7956L232.663 71.0269ZM235.438 66.2673L237.634 66.722L258.853 77.4853L258.935 74.2198L239.119 59.9553L235.438 66.2673ZM193.35 71.3382L203.309 73.3289L204.027 73.4446L208.039 66.2284L216.158 66.0113L198.347 63.227L193.35 71.3382ZM241.109 57.0789L247.327 60.455L246.991 55.8378L241.109 57.0789ZM242.217 53.3791L246.77 52.8108L246.205 45.0498L242.217 53.3791Z" fill="#010106"/>
<path d="M351.629 171.686L333.05 169.379L348.48 152.497L351.629 171.686Z" fill="#3A3426"/>
<path d="M259.152 273.399L251.07 273.713L256.633 264.276L259.152 273.399Z" fill="#0C3208"/>
<path d="M348.166 104.052L332.945 96.1878L342.813 81.822L348.166 104.052Z" fill="#1E7010"/>
<path d="M217.27 34.6356L209.922 47.0087L201.734 31.9097L217.27 34.6356Z" fill="#1E7010"/>
<path d="M121.958 52.0418L113.876 52.3572L119.439 42.9199L121.958 52.0418Z" fill="#0C3208"/>
<path d="M34.3096 138.656L19.0892 130.791L28.9566 116.425L34.3096 138.656Z" fill="#3A3426"/>
<path d="M233.486 235.331L215.876 225.849L213.167 246.169L233.486 235.331Z" fill="#3A3426"/>
<path d="M321.35 112.2L307.87 109.411L314.618 124.813L321.35 112.2Z" fill="#3A3426"/>
<path d="M281.032 19.5146L275.48 17.3837L277.12 25.2696L281.032 19.5146Z" fill="#0C3208"/>
<path d="M302.939 158.465L290.483 160.339L293.954 172.674L302.939 158.465Z" fill="#1E7010"/>
<path d="M195.393 175.825L193.205 165.473L183.933 174.048L195.393 175.825Z" fill="#1E7010"/>
<path d="M133.158 141.161L127.606 139.029L129.246 146.915L133.158 141.161Z" fill="#0C3208"/>
<path d="M92.6299 60.1293L80.1736 62.0037L83.6446 74.3389L92.6299 60.1293Z" fill="#3A3426"/>
<path d="M254.159 39.9443L239.656 42.3797L242.577 27.5929L254.159 39.9443Z" fill="#3A3426"/>
<path d="M154.422 66.0581L183.395 56.7868L215.845 63.7403L250.612 74.1705L272.632 91.5542L283.062 117.05L280.744 143.705L271.473 165.725L264.519 186.585L255.248 207.446L239.023 223.671L215.845 232.942L190.349 237.578L162.535 235.26L134.721 225.988L113.86 209.764L102.271 186.585L97.6357 161.089L95.3178 133.275L99.9535 106.62L109.225 84.6008L125.45 69.5349L140.516 62.5814L154.422 66.0581Z" fill="#020208"/>
<path opacity="0.7" d="M183.395 215.558C228.199 215.558 264.519 187.021 264.519 151.818C264.519 116.615 228.199 88.0775 183.395 88.0775C138.592 88.0775 102.271 116.615 102.271 151.818C102.271 187.021 138.592 215.558 183.395 215.558Z" fill="#010105"/>
<path d="M139.357 68.376L123.132 61.4225L119.655 70.6938L137.039 75.3295L139.357 68.376Z" fill="#186010"/>
<path d="M200.779 60.2635L215.845 56.7868L218.163 66.0581L203.097 68.376L200.779 60.2635Z" fill="#1E7010"/>
<path d="M171.806 66.0582L160.217 59.1047L156.74 68.376L170.647 73.0117L171.806 66.0582Z" fill="#0C3208"/>
<path d="M227.434 66.0582L241.341 63.7404L243.659 73.0117L229.752 75.3295L227.434 66.0582Z" fill="#186010"/>
<path d="M102.271 112.415L86.0465 105.461L82.5698 121.686L99.9535 126.322L102.271 112.415Z" fill="#3A3426"/>
<path d="M96.4768 144.864L79.093 139.07L76.7752 154.136L94.1589 157.612L96.4768 144.864Z" fill="#28221A"/>
<path d="M99.9535 172.678L83.7287 168.043L81.4109 179.632L97.6357 181.95L99.9535 172.678Z" fill="#322C20"/>
<path d="M278.426 110.097L295.81 103.143L298.128 119.368L280.744 122.845L278.426 110.097Z" fill="#3A3426"/>
<path d="M280.744 142.547L299.287 137.911L300.446 152.977L281.903 156.454L280.744 142.547Z" fill="#28221A"/>
<path d="M270.314 172.678L287.698 169.202L288.857 180.791L271.473 183.109L270.314 172.678Z" fill="#322C20"/>
<path d="M131.244 230.624L116.178 223.671L113.86 235.26L130.085 238.736L131.244 230.624Z" fill="#3A3426"/>
<path d="M183.395 237.578L169.488 232.942L167.171 242.213L183.395 244.531V237.578Z" fill="#0C3208"/>
<path d="M235.547 230.624L250.612 225.988L252.93 236.419L237.864 239.895L235.547 230.624Z" fill="#28221A"/>
<path d="M208.891 235.26L223.957 231.783L226.275 242.213L210.05 243.372L208.891 235.26Z" fill="#322C20"/>
<path d="M128.926 70.6938L86.0465 28.9729L90.6822 37.0853L133.562 79.9652L128.926 70.6938Z" fill="#070503"/>
<path d="M89.5232 32.4496L75.6163 17.3837L79.093 26.655L90.6822 37.0853L89.5232 32.4496Z" fill="#070503"/>
<path d="M179.919 57.9457L175.283 17.3837L184.554 16.2248L186.872 57.9457H179.919Z" fill="#070503"/>
<path d="M177.601 22.0194L171.806 1.15891L181.078 0L184.554 22.0194H177.601Z" fill="#070503"/>
<path d="M247.136 71.8527L290.016 30.1318L292.333 39.4031L250.612 81.124L247.136 71.8527Z" fill="#070503"/>
<path d="M288.857 33.6085L305.081 18.5426L307.399 27.8139L291.174 40.562L288.857 33.6085Z" fill="#070503"/>
<path d="M281.903 117.05L327.101 112.415V121.686L281.903 126.322V117.05Z" fill="#070503"/>
<path d="M314.353 113.574L338.69 103.143L341.008 112.415L316.671 120.527L314.353 113.574Z" fill="#070503"/>
<path d="M262.202 207.446L296.969 251.485L291.174 254.961L255.248 210.923L262.202 207.446Z" fill="#070503"/>
<path d="M104.589 205.128L69.8217 253.802L75.6163 256.12L110.384 208.605L104.589 205.128Z" fill="#070503"/>
<path d="M96.4768 158.771L38.531 152.977V161.089L96.4768 165.725V158.771Z" fill="#070503"/>
<path d="M50.1202 154.136L23.4651 147.182V156.454L50.1202 162.248V154.136Z" fill="#070503"/>
<path d="M108.066 45.1977L93 33.6085L97.6357 42.8798L109.225 50.9922L108.066 45.1977Z" fill="#070503"/>
<path d="M257.566 42.8799L272.632 32.4496L269.155 41.721L256.407 49.8334L257.566 42.8799Z" fill="#070503"/>
</svg>
