<svg width="400" height="299" viewBox="0 0 400 299" fill="none" xmlns="http://www.w3.org/2000/svg">
<path fill-rule="evenodd" clip-rule="evenodd" d="M240.494 40.4237L235.609 50.6326L237.026 59.6107L254.108 57.479L254.252 58.3414L237.389 61.9031L238.298 67.658L249.714 75.1215V82.9731L255.892 86.1091L262.906 74.2599L263.683 74.6608L258.096 87.2279L267.879 92.1956L273.319 80.5781L267.681 62.7997L267.622 62.6125L267.721 62.4442L280.415 41.0007L281.192 41.4015L272.511 60.927L280.324 80.8875L280.392 81.0636L280.312 81.2345L278.49 85.0902L284.206 79.5593L298.475 69.582L298.913 70.0196L285.957 81.485L273.351 96.4513L273.039 96.6291L272.942 96.8368L277.974 113.607L301.117 97.7539L301.735 98.3471L283.523 127.392L284.128 128.082L290.456 127.187L290.602 127.081L290.874 126.884L291.13 127.092L294.886 126.56L316.422 120.346L334.017 113.256L334.28 113.782L317.209 122.534L312.098 124.418L323.677 130.007L330.047 126.611L330.138 126.563L330.241 126.56L345.999 126.122L346.06 126.995L330.817 128.736L323.702 132.294L323.515 132.214L311.525 127.076L300.109 138.052L299.821 137.872L295.637 135.283L289.049 161.281L293.402 157.105L306.169 163.266L312.539 159.871L312.629 159.823L312.733 159.819L328.49 159.382L328.552 160.254L313.308 161.995L306.194 165.553L306.006 165.473L294.016 160.336L290.448 163.766L297.955 168.978L309.836 166.338L310.007 166.53L324.89 183.159L324.258 183.765L309.112 169.056L297.425 171.977V172.356L298.787 172.513L298.726 173.386L297.425 173.349V177.09L302.482 180.461L302.067 181.228L295.939 178.602L295.694 178.497L295.675 178.23L295.321 173.291L282.968 172.948L282.865 172.945L282.774 172.897L282.4 172.697L278.925 178.628L286.067 182.775L286.043 183.053L285.187 192.455L297.272 202.811L296.749 203.511L294.575 202.108L307.381 216.419L306.749 217.024L291.604 202.315L279.916 205.236V210.349L284.974 213.72L284.558 214.487L278.43 211.861L278.186 211.756L278.166 211.489L277.745 205.596L272.267 202.488L269.399 214.623L269.316 214.606L277.203 222.399L288.671 236.141L288.233 236.49L275.714 223.887L268.42 217.561L267.678 225.715L279.763 236.071L279.241 236.771L265.462 227.883L265.472 227.634L265.898 216.974L255.545 211.8L257.587 223.638L257.602 223.726L257.581 223.813L251.891 247.882L251.032 247.712L254.953 223.318L248.346 205.703L249.884 203.587L242.276 198.591L237.983 199.556L227.679 206.926L233.039 218.273L233.12 218.444L233.051 218.62L225.238 238.581L233.919 258.106L233.142 258.507L220.448 237.064L220.349 236.895L220.408 236.708L226.046 218.93L220.909 207.958L212.246 208.92L202.441 210.452V224.386L191.025 231.85L187.116 256.602L186.247 256.502L187.939 233.232L187.192 233.637L187.448 233.924L186.816 234.529L186.362 234.089L168.508 243.79L168.044 243.05L183.859 231.657L171.671 219.82L170.775 220.043L169.526 225.463L164.098 238.241L163.485 238.066L164.783 231.7L164.625 231.992L158.497 229.366L158.253 229.261L158.233 228.994L157.839 223.491L139.83 216.87L134.214 223.371L134.958 225.604L148.626 233.539L148.601 233.817L147.745 243.22L159.83 253.576L159.308 254.276L145.529 245.388L145.539 245.138L145.964 234.479L135.612 229.305L137.654 241.143L137.668 241.231L137.648 241.318L131.958 265.387L131.099 265.217L135.02 240.823L128.421 223.228L116.64 215.63L116.65 215.38L116.895 209.236L110.325 213.574L109.723 212.961L114.827 205.523L114.736 205.476L114.286 205.682L108.6 210.43L108.765 211.384L108.779 211.472L108.759 211.56L103.069 235.629L102.21 235.459L104.75 219.65L88.8113 228.351L91.0871 210.846L100.636 216.068L105.75 210.051L99.5242 193.45L100.387 192.262L92.3711 189.257L87.6204 200.054L73.7957 201.392L73.6795 200.524L86.1243 198.379L90.5493 186.435L102.516 189.335L106.938 183.256L99.3164 176.536L99.2754 172.036L81.436 183.816L80.8342 183.203L95.8087 161.384L90.8605 156.209L77.3043 164.681L63.4821 159.499L58.7314 170.296L44.9067 171.633L44.7905 170.766L57.2353 168.62L61.6603 156.676L76.2827 160.22L88.0419 151.402L86.2175 148.667L91.6941 146.56L86.2765 142.355L77.0803 143.803L60.0976 146.078L59.9223 145.553L75.1046 141.007L77.3846 135.457L62.9803 124.28L63.3693 123.514L80.305 128.352L83.8016 119.843L78.125 116.296L78.131 116.046L78.343 107.559L77.8754 107.222L78.3396 106.482L78.3695 106.499L78.5627 98.771L48.9863 77.4635L49.4506 76.7241L68.8817 87.2818L67.189 64.0117L68.0585 63.9117L71.9671 88.6639L83.3835 96.1274V109.223L87.293 111.348L88.8113 107.655L91.9625 103.511L84.5342 102.157L84.6599 101.291L92.9687 102.189L96.3653 97.7249L96.078 93.77L96.9475 93.67L97.3775 96.394L98.7932 94.5341L84.6967 81.485L85.0472 81.0474L100.979 92.4255L105.758 97.7061L101.35 83.8056L101.291 83.6184L101.39 83.45L114.084 62.0065L114.861 62.4074L106.18 81.9329L112.992 99.336L116.125 94.0888L125.491 84.6355L140.096 84.562L135.173 77.8849L135.754 77.2515L143.242 81.8388L143.344 77.7652L113.768 56.4576L114.232 55.7183L133.663 66.2759L131.97 43.0059L132.84 42.9059L136.748 67.658L148.165 75.1215V83.1962L156.306 81.1345L159.316 80.2687L154.073 72.7719L154.139 72.5659L158.537 58.7039L147.747 54.6088L147.507 54.5174L147.469 54.2635L145.457 40.7827L146.318 40.622L149.103 52.937L160.89 56.6234L161.262 56.7388L158.477 71.5214L164.524 78.7712L169.7 77.284L170.658 77.0729L166.132 62.7997L166.073 62.6125L166.172 62.4442L178.865 41.0007L179.643 41.4015L170.962 60.927L176.757 75.7344L180.833 74.8395L193.69 56.3858L194.475 56.7346L193.97 58.921L196.664 47.6129L197.276 47.7009L195.487 64.9613L220.316 70.0974L224.736 63.2433L215.317 56.4576L215.781 55.7183L226.007 61.274L233.952 48.9565L233.52 43.0059L234.389 42.9059L235.07 47.2231L239.731 39.9981L240.494 40.4237ZM159.983 227.854L164.899 231.13L165.856 226.439L159.983 224.279V227.854ZM184.057 211.721L171.57 216.602L171.403 217.322L172.395 217.102L172.566 217.294L184.807 230.973L197.62 221.743L197.355 211.146L184.057 211.721ZM163.845 221.775L166.268 222.56L166.312 221.159L163.845 221.775ZM118.856 213.461L129.11 222.248L134.459 214.896L128.205 212.596L119.36 207.92L118.856 213.461ZM160.513 219.742L166.399 218.434L166.425 217.639L155.876 216.522L160.513 219.742ZM101.37 216.47L104.947 218.426L105.865 212.714L101.37 216.47ZM157.233 202.684L158.559 204.165L157.927 204.77L156.734 203.611L151.443 213.444L155.284 216.111L164.711 188.79L157.233 202.684ZM141.764 214.63L144.367 215.472L142.133 214.204L141.764 214.63ZM262.054 207.43L262.057 207.433L268.626 213.924L270.614 201.55L266.774 199.371L262.054 207.43ZM120.405 206.918L128.993 210.496L136.007 212.766L138.892 208.802L138.605 208.291L125.842 203.932L125.63 203.468L120.405 206.918ZM254.891 208.1L262.81 212.696L259.869 210.146L254.369 206.534L254.891 208.1ZM108.066 207.329L111.922 202.793L112.437 202.402L106.723 199.546L108.066 207.329ZM256.465 203.181L261.542 207.041L265.985 198.922L262.066 196.699L256.465 203.181ZM274.4 186.351L275.095 190.378L275.11 190.467L275.089 190.554L273.472 197.394L280.446 202.237L291.103 199.869L282.971 194.624L282.98 194.374L283.406 183.715L277.635 180.83L274.4 186.351ZM106.193 194.439L105.515 194.185L106.069 195.846L114.571 200.781L121.894 195.223L120.327 191.766L115.266 188.769L106.193 194.439ZM253.566 196.055L251.544 196.509L253.159 199.085L257.229 193.491L253.566 196.055ZM269.533 194.66L271.501 196.027L272.462 190.059L272.371 189.817L269.533 194.66ZM264.947 188.09L264.401 188.471L264.992 191.507L268.652 194.048L271.801 188.297L269.66 182.59L264.947 188.09ZM273.067 178.617L274.033 184.219L276.263 180.144L273.109 178.568L273.067 178.617ZM272.862 171.209L271.97 172.242L272.588 174.949L277.535 177.821L280.805 171.847L276.404 169.501L272.862 171.209ZM283.997 169.968L283.531 170.765L283.544 170.772L294.751 172.051L286.626 167.441L283.997 169.968ZM278.695 164.456L282.518 167.55L283.864 166.257L284.025 165.965L279.574 163.44L278.695 164.456ZM268.602 163.607L268.989 163.325L268.229 163.181L268.602 163.607ZM281.889 140.71L284.469 144.503L282.543 156.056L282.135 156.366L282.501 158.247L286.667 161.14L287.007 160.519L292.436 133.301L290.912 132.359L281.889 140.71ZM117.648 159.782L117.035 160.349L118.899 160.882L123.427 159.535L123.773 158.635L117.648 159.782ZM79.7091 139.512L81.7387 138.835L80.3418 137.751L79.7091 139.512ZM296.978 129.994L296.592 131.512L300.026 134.291L309.199 125.487L296.978 129.994ZM83.4049 129.237L93.6236 132.156L93.9741 131.244L90.0347 123.738L86.2372 121.364L83.4049 129.237ZM107.3 117.024L127.768 123.567L128.344 123.173L114.538 117.052L107.492 116.777L107.3 117.024ZM88.3386 115.523L93.5971 118.925L93.8912 118.76L88.5574 114.917L88.3386 115.523ZM90.8246 108.618L89.4251 112.506L97.3518 116.813L97.7383 116.596L96.8509 104.403L93.8236 103.851L90.8246 108.618ZM100.336 115.133L100.717 114.919L100.742 114.927L104.974 105.885L98.6949 104.74L100.336 115.133ZM108.124 114.641L109.074 114.63L108.292 114.283L108.124 114.641ZM83.3835 112.318L86.1568 114.112L86.4501 113.399L83.3835 111.189V112.318ZM97.6066 97.8437L98.3846 102.775L104.53 103.439L99.2626 95.2137L97.6066 97.8437ZM94.7486 102.381L96.7192 102.594L96.5012 99.5984L94.7486 102.381ZM255.003 94.1863L255.289 94.9179L259.359 97.5513L266.874 94.3427L267.566 92.8649L257.653 88.2237L255.003 94.1863ZM249.714 91.3118L251.954 92.7606L255.293 87.1194L249.714 84.5073V91.3118ZM222.983 75.1001L222.863 75.3053L206.691 76.1404L205.529 78.1558L212.596 79.2969L216.323 80.5636L216.011 76.2651L216.881 76.1651L217.646 81.0132L225.727 83.7603L242.186 85.1612L244.637 88.016L244.782 82.1987L226.428 73.6078L224.067 73.2377L222.983 75.1001ZM225.297 71.1274L227.128 71.5069L244.825 80.4909L244.893 77.7652L228.367 65.8588L225.297 71.1274ZM190.196 75.36L198.502 77.0216L199.1 77.1182L202.446 71.0949L209.218 70.9137L194.363 68.5897L190.196 75.36ZM230.026 63.4579L235.212 66.2759L234.932 62.4219L230.026 63.4579ZM230.951 60.3697L234.748 59.8953L234.276 53.4173L230.951 60.3697Z" fill="#020208"/>
<path d="M245.075 244.018L238.334 244.28L242.973 236.403L245.075 244.018Z" fill="#020208"/>
<path d="M322.199 159.119L306.704 157.194L319.573 143.102L322.199 159.119Z" fill="#020208"/>
<path d="M57.5585 131.549L44.8648 124.985L53.0942 112.994L57.5585 131.549Z" fill="#020208"/>
<path d="M319.31 102.666L306.617 96.1017L314.846 84.1107L319.31 102.666Z" fill="#020208"/>
<path d="M130.656 59.2534L123.915 59.5167L128.555 51.6395L130.656 59.2534Z" fill="#020208"/>
<path d="M210.145 44.7247L204.017 55.0524L197.189 42.4494L210.145 44.7247Z" fill="#020208"/>
<path fill-rule="evenodd" clip-rule="evenodd" d="M220.027 13.7497L217.832 37.8099L240.437 26.0318L240.875 26.7925L217.789 41.4048L215.284 55.8084L215.243 56.042L199.05 63.0369L195.955 81.3454L220 82.0692L235.364 68.7396L235.513 68.6108L235.707 68.6357L238.309 68.9671L253.469 50.2929L253.819 50.5565L241.084 69.32L262.622 72.0641L262.562 72.9407L239.279 72.696L237.799 74.1607L233.89 79.921L216.092 95.8572L234.065 95.2193L250.922 96.2745V96.6257L234.065 96.8017L213.02 98.6081L211.502 99.9673L202.097 109.289L214.764 117.282L214.464 118.087L196.069 115.263L194.803 116.519L208.807 141.222L220.742 142.256L225.513 140.336L234.087 101.534L234.953 101.669L232.758 125.729L255.363 113.951L255.8 114.712L232.714 129.324L230.32 143.087L252.152 144.981L258.71 144.902L275.594 136.629L284.812 131.179L285.075 131.53L276.296 137.948L264.039 144.838L281.388 144.63L296.489 147.179V147.619L281.475 147.883L252.063 151.048L215.951 150.102L213.976 150.956L212.017 162.536L229.044 158.973L229.045 158.974L229.059 158.97L229.254 159.828L211.752 164.109L210.881 169.265L234.925 169.988L250.29 156.659L250.439 156.53L250.632 156.555L277.548 159.983L277.488 160.86L254.204 160.615L237.594 177.063L237.46 177.196L237.271 177.189L218.477 176.56L210.826 182.992L218.087 186.303L217.911 186.743L209.181 184.374L206.391 186.72L216.067 195.447L244.338 213.471L262.336 230.263L262.073 230.615L242.494 216.196L220.345 204.618L214.831 203.771L213.258 213.734L211.941 222.79L211.59 222.702L211.677 213.558L212.469 203.409L192.467 200.34L190.598 204.258L195.828 207.357L196.119 207.528L196.028 207.854L192.651 219.885L207.794 226.259L207.131 241.682L213.287 246.596L213.367 246.661L213.412 246.755L220.637 262.324L219.857 262.728L211.546 248.23L205.088 242.791L204.931 242.659V242.455L204.905 228.221L189.014 221.548L189.064 221.211L190.745 209.891L175.242 203.035L173.342 204.333L186.912 216.095L186.482 216.843L165.579 209.64L161.153 212.666L160.259 217.072L169.991 223.912L169.971 224.162L168.508 242.973L199.422 267.894L198.916 268.611L178.362 255.96L178.864 281.472L177.989 281.527L175.165 254.324L163.717 245.922L154.498 265.826L153.69 265.483L161.884 243.963L153.898 233.499L148.739 235.727L147.542 242.262L146.671 242.184L146.657 234.921L146.656 234.653L152.625 231.553L153.846 220.433L149.12 217L137.798 238.254L142.903 257.958L142.952 258.149L142.843 258.311L127.825 280.94L127.068 280.497L137.625 259.713L130.283 237.508L130.223 237.328L135.373 227.739L128.102 230.125L122.944 246.703L122.092 246.499L125.001 229.149L125.042 228.901L136.142 224.624L136.864 211.936L125.842 219.134L125.767 219.183L125.678 219.198L99.1543 223.907L98.97 223.049L125.065 216.429L135.725 206.167L134.703 201.958L108.615 217.922L108.027 217.294L129.491 186.68L126.814 183.264L121.719 186.582L121.437 186.766L121.187 186.539L115.958 181.816L115.566 181.88L123.704 192.51L91.0795 210.339L90.5702 209.632L111.899 189.757L105.639 184.763L104.929 184.219L99.7245 188.725L99.493 188.925L99.2255 188.779L98.609 188.439L77.7874 204.063L51.361 221.12L27.5685 241.781L27.2169 241.429L49.5176 218.834L74.5396 199.756L92.0097 184.802L85.9883 181.483L83.0432 182.863L65.7162 196.692L65.116 196.055L75.2358 184.779L61.96 184.447L56.6013 188.354L45.439 198.445L45.1252 198.209L54.6019 186.11L76.2184 167.066L100.273 153.512L99.6602 152.414L93.5033 150.169L93.4784 150.08L87.9054 150.621L70.9214 161.87L70.317 161.254L76.858 151.695L52.7654 154.038L15.8908 156.411L0.175765 160.456L0 160.016L15.2769 153.158L52.0632 147.883L82.9429 142.805L86.7805 137.198L81.5513 131.519L66.6276 140.873L66.4433 140.988L51.3961 135.329L46.2235 147.118L31.2098 148.575L31.0932 147.704L44.6485 145.361L49.3212 132.71L49.4576 132.343L49.8365 132.436L65.345 136.205L78.1758 126.554L76.1986 123.58L82.1729 121.275L50.892 96.9322L51.2821 96.162L84.2186 105.598L86.0989 100.694L84.09 98.706L67.5896 88.3652L67.3778 88.2321L67.5159 82.6668L35.5576 65.6788L35.7334 65.3267L67.6008 79.247L67.8537 69.1191L35.6716 45.866L36.138 45.1233L57.3301 56.6722L55.4841 31.2211L56.3553 31.1206L60.6087 58.1361L72.824 66.1441L73.022 66.2746V82.7174L80.1023 88.5283L88.5836 94.0319L98.7711 72.21L92.6348 52.8025L92.5756 52.6145L106.48 29.0557L107.259 29.4584L97.8125 50.7703L106.384 72.7338L106.303 72.9055L98.2815 89.9373L103.345 106.863L103.944 107.305L123.134 72.0297L123.942 72.3586L112.422 113.556L114.52 115.103L115.013 115.001L140.473 100.96L126.757 91.9756L127.082 91.1762L155.66 96.7854L158.798 89.7278L144.309 79.7106L144.13 79.587L143.359 63.51L130.5 63.4232L123.218 50.195L123.971 49.7425L131.488 61.2785L144.938 60.5642L145.329 60.5444L145.394 60.9299L148.081 76.6824L159.69 83.3287L159.175 78.1626L159.965 43.3469L158.648 28.137L159.087 28.0486L163.126 43.1709L164.97 77.723L166.464 84.2251L168.436 86.2419L178.367 47.8373L179.228 47.8905L183.622 81.9129L189.49 81.6742L192.874 59.5502L193.106 59.4557L210.587 52.417L219.162 13.6149L220.027 13.7497ZM157.073 232.787L163.408 241.558L164.128 227.905L158.841 224.063L157.073 232.787ZM138.817 221.325L139.22 220.576L139.01 219.714L138.817 221.325ZM151.696 211.053L154.648 213.128L154.775 211.979L151.712 211.014L151.696 211.053ZM156.957 190.134L165.554 197.583L166.6 196.217L157.194 190.055L156.957 190.134ZM79.2758 171.827L63.3335 183.446L77.1949 182.597L86.6691 172.042H99.8162L101.388 161.632L79.2758 171.827ZM87.1389 179.593L94.0863 183.024L98.4736 179.269L97.6548 178.641L88.9111 178.18L87.1389 179.593ZM121.688 180.88L121.709 180.894L121.735 180.872L121.688 180.88ZM198.234 167.415L198.547 169.832L204.416 169.594L205.001 165.76L198.234 167.415ZM198.879 165.286L205.278 163.947L206.82 153.87L198.879 165.286ZM188.897 100.961L194.751 104.654L207.287 94.9557L215.462 89.0392L203.552 88.6408L188.897 100.961Z" fill="black"/>
<path d="M22.3007 248.111L12.9063 250.66L12.7305 250.221L21.5976 246.177L22.3007 248.111Z" fill="black"/>
<path d="M235.731 158.279L231.476 159.076L231.274 158.323L235.678 158.106L235.731 158.279Z" fill="black"/>
<path d="M220.808 120.457L220.728 120.716L216.418 119.216L216.741 118.078L220.808 120.457Z" fill="black"/>
<path d="M261.195 112.182L257.127 114.562L256.805 113.424L261.114 111.924L261.195 112.182Z" fill="black"/>
<path d="M34.5922 69.0195L25.1978 71.5687L25.022 71.1291L33.8891 67.0851L34.5922 69.0195Z" fill="black"/>
<path fill-rule="evenodd" clip-rule="evenodd" d="M335.486 0.113734L333.634 20.4142L352.707 10.4766L353.076 11.1184L333.597 23.4474L331.484 35.6003L331.45 35.7974L317.787 41.6993L315.176 57.1469L335.463 57.7575L348.427 46.5109L348.552 46.4022L348.716 46.4232L350.911 46.7028L363.702 30.9466L363.998 31.169L353.252 47.0006L371.425 49.3158L371.375 50.0555L351.73 49.849L350.481 51.0849L347.183 55.945L332.166 69.3911L347.331 68.8528L361.554 69.7431V70.0394L347.331 70.1879L329.574 71.7121L328.293 72.8589L320.357 80.7239L331.045 87.4676L330.792 88.1471L315.272 85.7645L314.203 86.8243L326.02 107.667L336.09 108.54L340.115 106.92L347.349 74.1809L348.079 74.2947L346.227 94.5952L365.3 84.6576L365.669 85.2994L346.191 97.6284L344.171 109.241L362.591 110.839L368.124 110.772L382.37 103.792L390.148 99.1931L390.37 99.4894L382.962 104.904L372.621 110.718L387.259 110.543L400 112.693V113.064L387.332 113.287L362.516 115.958L332.047 115.159L330.38 115.88L328.728 125.65L343.094 122.644L343.095 122.645L343.107 122.642L343.271 123.366L328.504 126.978L327.769 131.328L348.056 131.938L361.02 120.692L361.146 120.583L361.309 120.604L384.018 123.497L383.968 124.236L364.323 124.03L350.308 137.908L350.195 138.02L350.035 138.014L334.178 137.483L327.723 142.91L333.849 145.704L333.701 146.075L326.335 144.076L323.981 146.055L332.145 153.419L355.998 168.626L371.184 182.794L370.962 183.091L354.442 170.926L335.755 161.157L331.102 160.442L329.775 168.849L328.664 176.489L328.367 176.415L328.441 168.7L329.109 160.137L312.233 157.547L310.656 160.853L315.069 163.468L315.314 163.612L315.237 163.887L312.388 174.038L325.165 179.416L324.605 192.429L329.799 196.575L329.867 196.63L329.904 196.709L336.001 209.845L335.343 210.186L328.33 197.954L322.881 193.365L322.749 193.254V193.081L322.727 181.072L309.319 175.442L309.362 175.157L310.78 165.606L297.699 159.821L296.096 160.916L307.546 170.84L307.183 171.472L289.546 165.394L285.812 167.947L285.057 171.664L293.269 177.436L293.252 177.647L292.018 193.518L318.1 214.545L317.674 215.15L300.332 204.476L300.755 226.001L300.017 226.048L297.634 203.096L287.975 196.006L280.197 212.8L279.515 212.511L286.429 194.354L279.69 185.525L275.337 187.405L274.328 192.918L273.593 192.852L273.581 186.724L273.58 186.498L278.617 183.883L279.647 174.501L275.659 171.604L266.106 189.537L270.414 206.161L270.455 206.323L270.363 206.46L257.692 225.553L257.053 225.179L265.961 207.643L259.765 188.907L259.715 188.756L264.06 180.665L257.926 182.678L253.574 196.666L252.855 196.493L255.309 181.855L255.344 181.646L264.709 178.036L265.318 167.332L256.019 173.404L255.955 173.446L255.881 173.459L233.501 177.432L233.346 176.708L255.363 171.122L264.357 162.464L263.495 158.912L241.483 172.382L240.988 171.852L259.098 146.022L256.838 143.14L252.54 145.939L252.302 146.094L252.091 145.903L247.679 141.918L247.349 141.972L254.215 150.941L226.688 165.984L226.258 165.387L244.254 148.618L238.972 144.404L238.373 143.945L233.982 147.748L233.787 147.916L233.561 147.792L233.041 147.506L215.473 160.689L193.176 175.08L173.101 192.513L172.805 192.216L191.621 173.151L212.733 157.054L227.473 144.437L222.392 141.637L219.907 142.801L205.288 154.47L204.782 153.932L213.32 144.418L202.119 144.138L197.597 147.434L188.179 155.949L187.915 155.75L195.91 145.541L214.149 129.473L234.445 118.037L233.928 117.11L228.733 115.216L228.712 115.141L224.01 115.598L209.68 125.088L209.17 124.569L214.689 116.504L194.361 118.48L163.248 120.482L149.989 123.895L149.841 123.524L162.73 117.738L193.768 113.287L219.823 109.003L223.061 104.272L218.649 99.48L206.057 107.373L205.901 107.47L193.206 102.695L188.841 112.642L176.174 113.871L176.075 113.136L187.512 111.159L191.455 100.485L191.57 100.175L191.89 100.254L204.975 103.434L215.801 95.2914L214.132 92.782L219.173 90.8369L192.78 70.298L193.109 69.6482L220.899 77.6096L222.486 73.4717L220.791 71.7947L206.869 63.0697L206.69 62.9575L206.806 58.2617L179.842 43.9283L179.99 43.6313L206.878 55.3764L207.091 46.8311L179.938 27.2115L180.332 26.5849L198.212 36.3291L196.655 14.855L197.39 14.7703L200.979 37.5642L211.285 44.3209L211.452 44.4311V58.3045L217.426 63.2074L224.582 67.8509L233.178 49.439L228 33.0641L227.95 32.9055L239.682 13.028L240.339 13.3678L232.369 31.3494L239.601 49.8809L239.533 50.0258L232.765 64.3962L237.037 78.6774L237.542 79.0498L253.733 49.2869L254.416 49.5643L244.695 84.3243L246.466 85.6297L246.882 85.5435L268.363 73.6963L256.791 66.1159L257.065 65.4415L281.178 70.1742L283.824 64.2194L271.6 55.7676L271.449 55.6632L270.798 42.0984L259.949 42.0252L253.804 30.8641L254.44 30.4823L260.782 40.2156L272.131 39.6129L272.46 39.5963L272.515 39.9215L274.783 53.2125L284.578 58.8203L284.143 54.4614L284.81 25.0861L283.699 12.2529L284.069 12.1783L287.476 24.9375L289.032 54.0905L290.292 59.5766L291.957 61.2782L300.336 28.8748L301.062 28.9197L304.769 57.6257L309.721 57.4243L312.576 38.7574L312.772 38.6777L327.521 32.7389L334.756 0L335.486 0.113734ZM282.369 184.924L287.714 192.324L288.322 180.805L283.861 177.563L282.369 184.924ZM266.966 175.253L267.306 174.622L267.129 173.893L266.966 175.253ZM277.832 166.586L280.323 168.337L280.43 167.367L277.846 166.554L277.832 166.586ZM282.271 148.936L289.525 155.221L290.408 154.068L282.472 148.87L282.271 148.936ZM216.729 133.489L203.278 143.293L214.973 142.577L222.967 133.671H234.06L235.386 124.888L216.729 133.489ZM223.363 140.043L229.225 142.937L232.927 139.769L232.236 139.239L224.858 138.85L223.363 140.043ZM252.514 141.128L252.531 141.14L252.553 141.121L252.514 141.128ZM317.099 129.767L317.363 131.807L322.314 131.605L322.808 128.371L317.099 129.767ZM317.643 127.971L323.042 126.841L324.343 118.339L317.643 127.971ZM309.221 73.697L314.16 76.8135L324.737 68.6304L331.635 63.6384L321.585 63.3023L309.221 73.697Z" fill="black"/>
<path d="M168.657 197.854L160.73 200.005L160.582 199.634L168.063 196.222L168.657 197.854Z" fill="black"/>
<path d="M348.736 122.059L345.146 122.731L344.975 122.096L348.691 121.913L348.736 122.059Z" fill="black"/>
<path d="M336.145 90.1472L336.077 90.3653L332.441 89.0997L332.713 88.1399L336.145 90.1472Z" fill="black"/>
<path d="M370.221 83.1652L366.789 85.1726L366.517 84.2128L370.153 82.9472L370.221 83.1652Z" fill="black"/>
<path d="M179.027 46.747L171.101 48.8978L170.953 48.5269L178.434 45.1149L179.027 46.747Z" fill="black"/>
<path fill-rule="evenodd" clip-rule="evenodd" d="M168.757 298.886L170.609 278.586L151.537 288.523L151.168 287.882L170.646 275.553L172.759 263.4L172.794 263.203L186.456 257.301L189.068 241.853L168.781 241.242L155.817 252.489L155.691 252.598L155.528 252.577L153.332 252.297L140.542 268.053L140.246 267.831L150.991 251.999L132.818 249.684L132.869 248.945L152.514 249.151L153.763 247.915L157.061 243.055L172.078 229.609L156.913 230.147L142.69 229.257V228.961L156.913 228.812L174.67 227.288L175.95 226.141L183.886 218.276L173.199 211.532L173.452 210.853L188.972 213.236L190.04 212.176L178.224 191.333L168.154 190.46L164.129 192.08L156.894 224.819L156.164 224.705L158.016 204.405L138.944 214.342L138.575 213.701L158.053 201.372L160.073 189.759L141.653 188.161L136.119 188.228L121.874 195.208L114.096 199.807L113.874 199.511L121.281 194.096L131.623 188.282L116.985 188.457L104.244 186.307V185.936L116.911 185.713L141.727 183.042L172.197 183.841L173.863 183.12L175.516 173.35L161.149 176.356L161.149 176.355L161.137 176.358L160.973 175.634L175.74 172.022L176.475 167.672L156.187 167.062L143.224 178.308L143.098 178.417L142.935 178.396L120.225 175.503L120.276 174.764L139.921 174.97L153.936 161.092L154.048 160.98L154.208 160.986L170.065 161.517L176.521 156.09L170.395 153.296L170.543 152.925L177.909 154.924L180.263 152.945L172.099 145.581L148.246 130.374L133.06 116.206L133.282 115.909L149.801 128.074L168.489 137.843L173.142 138.558L174.469 130.151L175.58 122.511L175.877 122.585L175.803 130.3L175.134 138.863L192.011 141.453L193.588 138.147L189.175 135.532L188.93 135.388L189.007 135.113L191.856 124.962L179.079 119.584L179.638 106.571L174.444 102.425L174.377 102.37L174.339 102.291L168.243 89.1548L168.901 88.8137L175.913 101.046L181.362 105.635L181.495 105.746V105.919L181.517 117.928L194.925 123.558L194.882 123.843L193.464 133.394L206.545 139.179L208.148 138.084L196.698 128.16L197.061 127.528L214.698 133.606L218.432 131.053L219.187 127.336L210.975 121.564L210.992 121.353L212.226 105.482L186.143 84.4548L186.57 83.8499L203.912 94.5243L203.488 72.9988L204.226 72.9524L206.609 95.9043L216.269 102.994L224.047 86.1999L224.729 86.489L217.815 104.646L224.554 113.475L228.906 111.595L229.916 106.082L230.651 106.148L230.663 112.276L230.663 112.502L225.627 115.117L224.597 124.499L228.584 127.396L238.138 109.463L233.83 92.8385L233.789 92.677L233.88 92.5401L246.552 73.4472L247.19 73.821L238.283 91.3571L244.478 110.093L244.529 110.244L240.184 118.335L246.318 116.322L250.67 102.334L251.389 102.507L248.935 117.145L248.9 117.354L239.535 120.964L238.926 131.668L248.225 125.596L248.289 125.554L248.363 125.541L270.743 121.568L270.898 122.292L248.881 127.878L239.887 136.536L240.749 140.088L262.76 126.618L263.256 127.148L245.146 152.978L247.405 155.86L251.704 153.061L251.942 152.906L252.153 153.097L256.564 157.082L256.895 157.028L250.029 148.059L277.556 133.016L277.985 133.613L259.99 150.382L265.271 154.596L265.87 155.055L270.262 151.252L270.457 151.084L270.683 151.208L271.203 151.494L288.771 138.311L311.068 123.92L331.142 106.487L331.439 106.784L312.623 125.849L291.511 141.946L276.771 154.563L281.851 157.363L284.336 156.199L298.956 144.53L299.462 145.068L290.924 154.582L302.125 154.862L306.646 151.566L316.064 143.051L316.329 143.25L308.333 153.459L290.095 169.527L269.799 180.963L270.316 181.89L275.511 183.784L275.532 183.859L280.234 183.402L294.564 173.912L295.074 174.431L289.555 182.496L309.883 180.52L340.995 178.518L354.255 175.105L354.403 175.476L341.513 181.262L310.475 185.713L284.421 189.997L281.183 194.728L285.595 199.52L298.187 191.627L298.342 191.53L311.038 196.305L315.402 186.358L328.07 185.129L328.168 185.864L316.731 187.841L312.789 198.515L312.674 198.825L312.354 198.746L299.269 195.566L288.443 203.709L290.111 206.218L285.07 208.163L311.463 228.702L311.134 229.352L283.344 221.39L281.758 225.528L283.453 227.205L297.375 235.93L297.554 236.043L297.437 240.738L324.402 255.072L324.253 255.369L297.366 243.624L297.152 252.169L324.305 271.788L323.912 272.415L306.031 262.671L307.589 284.145L306.854 284.23L303.265 261.436L292.959 254.679L292.791 254.569V240.696L286.818 235.793L279.662 231.149L271.066 249.561L276.243 265.936L276.293 266.095L264.562 285.972L263.904 285.632L271.875 267.651L264.643 249.119L264.711 248.974L271.479 234.604L267.207 220.323L266.702 219.95L250.51 249.713L249.828 249.436L259.549 214.676L257.778 213.37L257.362 213.456L235.881 225.304L247.453 232.884L247.179 233.558L223.066 228.826L220.419 234.781L232.644 243.232L232.795 243.337L233.446 256.902L244.295 256.975L250.439 268.136L249.804 268.518L243.461 258.784L232.113 259.387L231.783 259.404L231.728 259.078L229.461 245.787L219.666 240.18L220.101 244.539L219.434 273.914L220.545 286.747L220.175 286.822L216.767 274.062L215.211 244.909L213.951 239.423L212.287 237.722L203.908 270.125L203.182 270.08L199.474 241.374L194.523 241.576L191.668 260.243L191.472 260.322L176.722 266.261L169.487 299L168.757 298.886ZM221.875 114.076L216.529 106.676L215.922 118.195L220.382 121.437L221.875 114.076ZM237.278 123.747L236.938 124.378L237.115 125.107L237.278 123.747ZM226.411 132.414L223.921 130.663L223.813 131.633L226.397 132.446L226.411 132.414ZM221.972 150.064L214.719 143.779L213.836 144.932L221.772 150.13L221.972 150.064ZM287.515 165.511L300.966 155.707L289.271 156.423L281.277 165.329H270.184L268.858 174.112L287.515 165.511ZM280.88 158.957L275.019 156.063L271.317 159.231L272.008 159.761L279.385 160.15L280.88 158.957ZM251.73 157.872L251.713 157.86L251.691 157.879L251.73 157.872ZM187.145 169.233L186.881 167.193L181.929 167.395L181.435 170.629L187.145 169.233ZM186.601 171.029L181.202 172.159L179.901 180.661L186.601 171.029ZM195.023 225.303L190.084 222.187L179.507 230.37L172.609 235.362L182.659 235.698L195.023 225.303Z" fill="black"/>
<path d="M335.587 101.146L343.513 98.9954L343.662 99.3663L336.18 102.778L335.587 101.146Z" fill="black"/>
<path d="M155.507 176.941L159.098 176.269L159.269 176.904L155.552 177.087L155.507 176.941Z" fill="black"/>
<path d="M168.098 208.853L168.166 208.635L171.802 209.9L171.53 210.86L168.098 208.853Z" fill="black"/>
<path d="M134.023 215.835L137.455 213.827L137.727 214.787L134.091 216.053L134.023 215.835Z" fill="black"/>
<path d="M325.216 252.253L333.143 250.102L333.291 250.473L325.809 253.885L325.216 252.253Z" fill="black"/>
</svg>
