<svg width="400" height="341" viewBox="0 0 400 341" fill="none" xmlns="http://www.w3.org/2000/svg">
<path fill-rule="evenodd" clip-rule="evenodd" d="M294.04 0.651495L273.962 31.5798L278.944 49.2931L278.683 49.5291L264.601 62.2975L270.845 84.2478L274.231 80.7954L274.349 80.7521L295.338 72.9741L305.108 52.5894L305.218 52.3622L336.687 43.1228L337.073 44.1875L310.887 55.623L300.734 79.6253L300.641 79.8469L300.418 79.9322L281.453 87.2737L273.429 108.845L284.225 118.12L306.602 101.211L306.863 101.109L307.962 87.8222L306.262 73.527L306.716 73.414L310.002 87.7092L310.166 99.825L340.852 87.8964L341.817 85.1453L342.906 85.45L342.529 87.2449L351.261 83.8512L399.886 70.5775L400 71.1448L352.621 87.482L341.364 92.7837L338.656 105.676L338.539 105.795L321.534 123.035L325.419 137.429L349.937 137.439L355.301 131.923L366.796 135.485L366.556 136.59L355.779 135.216L351.823 139.82L362.999 150.399L388.417 144.147L388.743 145.232L362.195 154.692L361.944 154.46L349.367 142.881L311.384 146.543L310.832 168.539L320.431 168.831L324.744 167.723L336.639 159.3L351.601 148.182L351.828 148.522L337.886 160.889L331.964 165.87L360.215 158.62L398.186 151.018L398.413 151.586L361.235 162.478L321.677 176.206L320.754 176.266L321.757 177.947L327.702 178.525L344.379 169.427L344.984 170.385L328.422 182.446L328.287 182.545L328.121 182.554L324.624 182.754L327.079 186.869L336.16 178.614L336.946 179.43L328.055 188.507L330.393 192.425L337.396 192.364L353.955 170.941L354.892 171.575L342.697 192.317L352.732 192.231L353.053 192.229L355.179 195.706L370.562 195.113L370.654 196.243L359.069 197.67L359.089 197.722L356.97 198.633L365.538 212.634L364.605 213.276L354.291 199.785L335.041 208.066L332.49 223.249L338.42 224.536L346.193 216.94L347.049 217.677L341.205 225.803L341.739 225.673L341.854 226.127L340.674 226.543L340.02 227.453L338.678 227.245L327.685 231.12L325.583 231.458L321.298 234.698L333.502 241.269L343.436 238.486L343.681 238.418L343.895 238.555L371.089 255.943L370.535 256.932L345.647 244.826L321.463 253.36L321.904 253.925L322.916 255.57L324.411 255.788L330.171 254.872L330.373 255.18L331.438 256.815L342.375 258.415L342.539 258.44L342.665 258.549L358.107 272.017L357.422 272.917L341.603 262.392L335.105 262.451L347.592 281.634L368.189 290.291L367.82 291.36L344.617 284.996L344.457 284.952L344.346 284.827L333.417 272.643L341.513 285.806L340.946 286.033L324.339 263.811L308.051 267.183L306.303 296.073L312.137 302.486L312.37 302.742L307.408 315.924L306.321 315.618L308.7 303.015L303.482 297.944L290.193 310.414L295.731 340.74L294.629 341L285.44 309.235L300.17 295.024L298.58 250.752L289.294 257.571L279.867 248.878L277.223 249.575L296.721 280.251L295.926 281.026L278.615 269.322L276.627 279.962L275.506 279.813L276.476 267.876L267.823 262.026L260.509 271.261L269.018 279.322L269.249 279.541L264.3 302.937L263.185 302.734L266.547 280.588L256.45 271.612L256.753 271.196L264.896 260.047L263.134 258.856L256.999 262.038L259.227 265.336L259.47 265.697L249.479 277.224L262.519 291.783L262.336 292.133L253.981 308.049L258.096 316.449L258.153 316.569V316.703L258.024 337.133L256.892 337.174L255.311 317.352L251.13 308.218L251.02 307.98L251.132 307.741L258.31 292.437L244.904 277.495L244.609 277.166L244.854 276.801L252.383 265.504L251.744 264.764L243.704 268.936L243.104 272.597L242.116 291.786L245.168 299.421L243.128 314.397H242.561L241.088 300.669L239.185 297.217L217.178 308.949L216.596 307.978L237.386 293.949L227.852 276.644L225.798 278.947L227.502 280.163L226.872 281.106L224.952 279.897L217.058 288.756L212.597 295.409L207.77 314.641L214.278 332.502L213.242 332.958L203.789 314.771L203.713 314.623L203.728 314.457L205.95 290.332L205.651 290.118L185.134 307.271L184.378 306.425L203.165 288.342L193.826 281.671L174.865 297.229L174.241 304.553L174.213 304.899L163.068 309.444L162.554 308.436L171.756 302.657L171.897 296.585L156.729 295.515L155.965 296.29L143.028 313.581L140.519 327.131L139.395 326.998L139.987 315.882L139.925 315.841L139.996 315.722L140.495 306.359L154.752 286.575L150.702 277.447L149.841 278.002L146.456 273.297L124.477 276.706L120.022 282.979L108.117 281.225L108.186 280.097L119.045 279.799L122.249 274.642L109.583 265.905L85.4249 275.988L84.9368 274.965L109.719 261.54L124.206 271.24L141.749 266.753L136.06 258.842L135.874 258.583L136 258.287L136.763 256.508L115.155 249L115.471 247.912L136.483 252.848L139.734 249.588L142.262 243.701L142.19 243.621L142.383 243.422L143.318 241.245L142.946 239.043L139.668 238.206L139.91 237.097L142.702 237.6L142.323 235.351L114.82 246.89L91.9257 258.897L78.7702 273.339L77.8969 272.619L85.6109 262.209L76.9627 266.745L76.6229 266.178L88.077 258.881L93.4909 251.577L88.0704 237.167L82.299 239.038L79.3945 249.516L78.2832 249.311L79.4167 237.669L79.4499 237.323L86.606 234.505L96.0843 211.872L84.3291 202.716L61.8668 211.74L61.7118 211.802L61.548 211.771L41.4356 207.9L41.5762 206.777L60.5363 207.916L83.603 194.204L83.9184 194.016L84.2184 194.229L96.5869 202.977L102.225 184.503L93.3713 187.53L92.933 186.487L104.317 180.724L107.694 177.006L107.971 177.029L122.852 178.23L123.315 175.337L91.6114 175.6L87.6542 178.697L87.3454 178.565L81.6559 176.117L56.3566 178.412L29.1734 195.467L28.5248 194.538L48.3527 179.205L28.1097 181.425V180.857L45.9319 176.332L17.2543 168.996L17.4956 167.887L53.7588 174.431L67.8684 163.19L68.1418 162.97L68.4606 163.12L76.9948 167.108L63.2471 157.031L50.4392 149.998L50.5532 149.657L64.2676 155.329L84.8449 168.663L86.3702 168.377L89.412 168.17L103.473 156.899L98.9811 155.113L98.8948 155.02L97.6451 153.684L92.6784 155.29L92.2965 154.223L96.5736 152.538L83.5985 138.665L61.0399 137.549L60.7876 137.535L60.6282 137.34L40.0852 112.077L40.9154 111.308L61.5945 131.04L87.6332 131.109H87.8734L88.0394 131.283L102.149 145.937L110.819 145.576L107.002 133.968L108.068 133.583L109.976 138.424L121.451 143.711L125.447 143.978L128.883 133.294L113.001 129.467L112.673 129.389L112.586 129.065L107.298 109.585L63.1851 93.977L63.5094 92.8912L90.5222 99.5624L83.4115 83.6661L50.6661 70.3504L50.779 69.8961L81.6083 79.6331L76.4823 68.1721L77.4995 67.6713L84.3877 80.5117L99.632 85.327L140.962 104.743L141.172 103.328L132.89 89.7401L111.308 89.6005L111.257 88.4693L130.9 86.5491L128.314 82.9371L128.168 82.731L135.21 50.6704L136.328 50.8432L133.751 79.3251L144.512 92.9621L145.764 81.6961H146.217L146.331 94.9709L146.343 95.2823L150.04 99.9668L150.008 100.204L149.466 104.264L171.172 101.897L171.451 101.867L171.643 102.071L175.932 106.595L176.054 87.7103L177.185 87.6593L178.966 105.924L192.605 95.0651L185.203 89.9251L185.823 88.9756L193.983 93.9682L196.582 91.8996L176.611 59.3514L159.802 56.2823L159.465 56.2214L151.009 29.3151L152.07 28.9206L162.403 52.9927L177.572 55.5455L178.858 49.61L171.269 41.8297L172.004 40.9722L181.489 47.8051L181.772 48.0079L181.718 48.3513L180.607 55.6164L195.39 75.1956L204.279 71.6113L200.396 68.7615L186.569 55.828L186.909 55.4868L201.644 67.1738L206.905 70.5531L209.206 69.6258L212.704 45.6512L212.728 45.4872L212.838 45.3609L226.291 29.9034L227.191 30.5892L216.677 46.4235L216.922 73.2766L216.927 73.6444L213.884 75.036L219.782 78.8254L231.013 62.1801L224.595 56.1128L225.347 55.2641L231.961 60.7763L235.761 55.1466L260.357 29.0514L260.811 29.3915L239.048 57.5299L235.692 63.8864L245.906 72.4013L246.55 63.0576L247.68 63.0565L248.576 75.7961L250.574 80.0995L250.693 80.3522L250.563 80.5992L243.692 93.8662L252.118 99.1192L252.37 99.2754L252.384 99.5713L252.781 107.307L265.18 91.6902L256.988 61.5286L256.899 61.204L271.66 46.9619L264.115 0.741242L265.222 0.504133L272.37 27.4182L293.112 0L294.04 0.651495ZM143.981 308.437L143.804 309.387L144.993 307.41L143.981 308.437ZM187.345 257.003L186.986 256.958L186.04 256.839L185.877 260.426L184.746 260.448L184.423 256.636L177.232 255.732L176.947 267.022L176.936 267.489L176.475 267.567L161.374 270.131L160.918 270.63L160.484 270.283L156.062 271.034L163.089 289.069L160.198 291.998L171.856 292.66L190.277 274.305L192.309 269.973L192.456 269.661L192.803 269.647L195.036 269.563L198.901 265.714L190.315 254.682L189.396 254.592L189.099 254.202L187.345 257.003ZM207.434 269.311L204.678 273.01L206.335 281.9L214.396 288.239L213.852 290.407L215.472 287.508L222.478 278.34L219.179 276.264L217.896 279.689L216.824 279.324L217.986 275.513L207.733 269.06L207.434 269.311ZM229.969 251.755L233.608 270.489L237.098 279.224L236.641 267.422L236.627 267.089L236.913 266.916L241.862 263.906L242.232 253.751L239.233 250.279L229.969 251.755ZM199.189 276.28L202.199 278.648L201.309 274.487L199.189 276.28ZM219.781 274.655L223.349 277.2L226.144 273.544L225.899 273.099L223.518 264.684L219.781 274.655ZM148.287 273.013L150.279 276.495L148.706 272.949L148.287 273.013ZM217.156 256.269L214.113 260.352L215.367 262.61L209.658 267.433L218.522 273.756L222.447 260.895L220.918 255.491L220.343 258.329L219.227 258.139L219.599 255.434L217.156 256.269ZM143.751 251.824L140.063 258.644L144.326 266.095L146.329 265.583L145.537 254.379L144.936 250.832L143.751 251.824ZM147.057 249.061L147.577 254.265L146.794 265.463L151.327 264.304L150.939 263.747L160.476 256.371L158.827 243.641L155.133 242.311L147.057 249.061ZM152.766 263.936L161.178 261.786L160.803 258.894L152.766 263.936ZM244.823 262.108L247.857 260.263L245.56 257.604L244.823 262.108ZM307.682 258.452L312.168 257.737L308.123 248.884L307.682 258.452ZM219.247 253.466L218.94 253.876L219.879 253.402L219.883 253.364L219.247 253.466ZM186.19 253.509L186.245 253.514L187.216 251.722L186.325 250.547L186.19 253.509ZM210.241 253.384L212.655 249.446L210.569 247.514L210.068 247.906L209.76 247.774L206.297 246.284L210.241 253.384ZM177.385 249.745L177.305 252.85L184.145 253.357L183.604 246.962L182.968 246.127L177.385 249.745ZM91.8405 236.086L97.7569 252.496L97.2809 253.018L112.78 243.146L138.329 228.926L135.841 225.547L135.65 225.703L134.882 224.872L135.141 224.598L131.729 219.965L113.315 222.992L112.998 223.043L104.335 212.823L91.8405 236.086ZM312.859 241.084L312.951 241.312L320.177 245.004L330.673 242.063L318.327 236.947L312.859 241.084ZM152.247 237.028L150.652 238.304L150.697 238.374L150.784 238.511L152.265 237.027L152.247 237.028ZM153.298 236.984L158.144 238.367L157.971 237.038L157.181 236.822L153.298 236.984ZM209.162 234.496L212.703 236.677L214.963 234.865L213.065 232.494L209.162 234.496ZM149.343 236.25L149.344 236.248L149.332 236.233L149.343 236.25ZM226.698 234.896L226.744 235.133L227.619 235.74L229.916 232.855L229.718 232.532L226.698 234.896ZM309.141 234.103L309.227 234.249L309.581 234.033L309.141 234.103ZM182.722 232.724L183.191 233.531L183.159 232.524L182.722 232.724ZM203.227 230.384L202.976 230.689L207.154 233.261L211.57 230.628L207.589 225.657L203.227 230.384ZM298.391 226.793L303.768 230.666L304.329 231.385L305.808 231.243L300.614 223.6L298.391 226.793ZM301.87 221.794L307.364 231.095L312.558 230.599L311.327 217.343L307.136 214.229L301.87 221.794ZM315.199 216.72L316.243 229.936L327.354 223.106L321.219 215.956L315.199 216.72ZM165.865 216.412L151.089 229.233L151.331 229.487L157.098 228.258L164.865 220.256L165.041 220.076L165.293 220.085L166.149 220.117L166.202 220.015L167.096 218.253L166.599 216.266L165.865 216.412ZM329.17 228.745L336.603 226.927L332.419 226.287L329.17 228.745ZM145.235 217.893L144.34 222.123L145.075 222.898L153.166 213.751L153.644 211.042L145.235 217.893ZM200.511 220.962L200.58 222.819L202.974 219.891L202.468 219.259L200.511 220.962ZM328.282 214.67L323.855 214.518L328.525 222.386L328.688 222.287L330.704 211.224L328.282 214.67ZM288.697 219.812L292.113 222.272L296.083 216.371L288.697 219.812ZM142.465 220.149L142.753 220.452L142.847 219.837L142.465 220.149ZM109.615 202.994L105.425 210.793L113.949 218.958L132.632 214.12L133.368 211.61L110.364 202.62L109.615 202.994ZM139.963 217.514L140.924 218.526L143.45 215.875L144.133 211.379L143.304 210.642L139.963 217.514ZM285.698 212.393L285.956 214.757L293.92 212.533L296.266 206.155L289.365 201.028L285.698 212.393ZM297.876 213.706L300.727 209.469L299.537 208.585L297.876 213.706ZM144.819 208.422L146.604 210.113L146.835 210.332L146.769 210.642L146.293 212.889L152.482 206.391L144.819 208.422ZM317.562 199.222L317.339 199.448L317.029 199.379L303.53 196.266L301.854 201.437L308.357 207.319L325.073 208.309L333.079 197.948L328.891 198.366L328.701 198.091L324.547 192.088L317.562 199.222ZM105.78 183.003L97.9362 203.93L98.2295 204.137L98.3557 204.02L99.1837 204.813L99.7128 205.188L108.177 185.761L108.632 185.863L122.506 188.936L122.916 181.506L109.061 180.389L105.78 183.003ZM338.445 200.213L335.895 203.838L353.175 198.397L338.445 200.213ZM303.957 183.942L297.205 197.232L298.962 198.822L301.362 192.3L301.86 192.43L316.664 196.342L323.309 190.299L318.337 183.116L303.957 183.942ZM125.553 185.955L125.242 189.542L131.492 190.927L133.411 188.859L130.699 185.487L125.553 185.955ZM138.128 184.811L142.855 189.043L144.634 186.807L143.817 184.293L138.128 184.811ZM150.498 188.578L154.638 187.505L154.639 187.221L152.325 185.874L150.498 188.578ZM125.771 183.451L125.661 184.718L129.565 184.076L129.06 183.448L125.771 183.451ZM125.152 180.401L126.564 180.344L125.633 179.187L125.152 180.401ZM127.608 175.302L127.6 175.386L132.858 180.093L141.33 179.756L141.458 179.561L134.039 175.25L127.608 175.302ZM66.3597 172.135L70.5626 171.347L68.817 170.595L66.3597 172.135ZM102.22 167.301L125.277 165.737L125.681 162.939L112.522 159.243L102.22 167.301ZM128.636 165.509L130.097 165.41L131.709 164.633L128.813 163.82L128.636 165.509ZM275.463 161.021L281.228 163.879L279.244 155.777L275.463 161.021ZM310.229 107.451L302.715 114.152L313.56 118.097L313.207 119.174L301.074 115.614L281.633 132.953L273.395 143.396L282.896 146.943L283.209 147.059L283.45 148.663L284.046 149.121L283.611 149.724L283.995 152.276L289.776 162.977L292.424 162.005L296.688 138.487L317.858 138.191L313.677 119.29L313.973 119.072L335.53 103.086L338.699 94.0391L310.229 107.451ZM263.984 155.329L273.581 160.087L278.756 153.781L278.322 152.01L268.854 149.155L263.984 155.329ZM135.35 147.249L147.082 150.472L148.657 149.414L147.496 146.648L135.35 147.249ZM128.041 145.241L131.194 146.107L146.54 144.367L143.359 136.784L131.321 133.882L128.041 145.241ZM112.764 145.495L114.665 145.416L117.195 144.421L110.694 140.246L112.764 145.495ZM260.119 126.657L262.344 128.593L274.798 125.245L282.213 119.641L272.062 111.436L260.119 126.657ZM94.9321 100.167L112.502 104.235L112.844 104.313L112.925 104.656L117.336 123.156L119.041 123.545L118.095 104.367L119.224 104.276L121.358 123.133L125.589 125.041L139.564 128.234L138.169 123.601L138.187 123.476L139.726 113.088L97.8178 89.5241L86.824 85.0533L94.9321 100.167ZM163.679 123.223L166.981 126.387L171.784 126.708L172.127 125.453L170.108 121.959L171.05 121.331L172.673 123.465L174.008 118.601L172.644 116.568L163.679 123.223ZM233.377 123.218L236.478 121.8L234.855 121.554L233.377 123.218ZM226.883 117.967L229.69 123.203L229.935 122.943L230.367 115.575L226.795 114.674L226.883 117.967ZM231.796 120.976L233.59 119.08L233.809 118.849L234.119 118.916L239.089 119.968L239.308 117.831L231.728 115.918L231.796 120.976ZM148.837 108.974L148.834 109L159.575 119.291L170.143 112.838L167.051 108.228L148.837 108.974ZM195.681 116.363L196.501 119.063L199.169 118.655L204.564 113.679L201.291 110.267L195.681 116.363ZM225.332 83.511L223.508 105.491L224.209 106.657L225.111 93.9926L226.243 94.0169L226.685 110.587L246.96 112.285L247.247 101.481L239.844 94.2075L247.047 80.3023L245.911 76.2626L234.736 65.698L225.332 83.511ZM209.265 101.603L202.72 108.714L206.371 112.012L213.547 105.396L214.76 99.1779L209.265 101.603ZM199.339 81.695L211.071 97.7065L215.458 95.6025L218.153 81.7959L210.842 76.4288L199.339 81.695Z" fill="black"/>
<path d="M243.809 324.268L235.875 333.118L235.421 332.778L241.542 322.679L243.809 324.268Z" fill="black"/>
<path d="M347.634 305.775L347.067 305.888L345.027 294.202L347.634 293.862V305.775Z" fill="black"/>
<path d="M68.2348 273.325L57.354 275.254L57.2399 274.687L67.5551 270.716L68.2348 273.325Z" fill="black"/>
<path d="M17.2289 181.879L16.8891 184.602L0 181.425V180.857L17.2289 181.879Z" fill="black"/>
</svg>
