<svg width="332" height="300" viewBox="0 0 332 300" fill="none" xmlns="http://www.w3.org/2000/svg">
<path fill-rule="evenodd" clip-rule="evenodd" d="M246.38 0.150943L243.922 27.0929L269.235 13.9041L269.725 14.7559L243.873 31.1183L241.069 47.2471L241.023 47.5086L222.891 55.3413L219.425 75.8427L246.349 76.6532L263.554 61.7271L263.721 61.5829L263.938 61.6108L266.852 61.9819L283.827 41.071L284.22 41.3661L269.959 62.377L294.077 65.4497L294.01 66.4313L267.938 66.1573L266.281 67.7975L261.904 74.2477L241.973 92.0926L262.1 91.3783L280.976 92.5599V92.9531L262.1 93.1502L238.533 95.173L236.834 96.695L226.302 107.133L240.486 116.083L240.15 116.985L219.553 113.823L218.135 115.229L233.817 142.89L247.181 144.049L252.523 141.899L262.125 98.4495L263.093 98.6005L260.635 125.542L285.948 112.354L286.438 113.205L260.586 129.568L257.906 144.979L282.352 147.1L289.696 147.012L308.602 137.748L318.925 131.645L319.219 132.038L309.388 139.224L295.664 146.94L315.09 146.707L332 149.562V150.054L315.188 150.35L282.254 153.894L241.816 152.834L239.604 153.791L237.411 166.758L256.477 162.768L256.478 162.769L256.494 162.765L256.712 163.725L237.114 168.519L236.138 174.292L263.063 175.103L280.267 160.177L280.434 160.032L280.651 160.06L310.79 163.899L310.723 164.881L284.651 164.607L266.051 183.025L265.901 183.174L265.689 183.166L244.644 182.461L236.077 189.663L244.208 193.372L244.011 193.864L234.235 191.211L231.111 193.838L241.946 203.611L273.602 223.793L293.756 242.596L293.461 242.991L271.538 226.844L246.736 213.88L240.561 212.932L238.8 224.088L237.326 234.228L236.932 234.13L237.03 223.891L237.917 212.526L215.519 209.089L213.426 213.477L219.283 216.947L219.608 217.139L219.507 217.503L215.725 230.976L232.682 238.113L231.94 255.383L238.833 260.886L238.922 260.959L238.972 261.063L247.063 278.497L246.19 278.95L236.883 262.715L229.652 256.625L229.476 256.477V256.249L229.446 240.31L211.652 232.838L211.709 232.46L213.591 219.785L196.23 212.107L194.103 213.561L209.299 226.731L208.817 227.569L185.41 219.503L180.454 222.892L179.453 227.825L190.351 235.485L190.329 235.765L188.691 256.828L223.307 284.735L222.74 285.537L199.725 271.371L200.287 299.938L199.308 300L196.145 269.539L183.325 260.131L173.002 282.418L172.098 282.035L181.273 257.938L172.33 246.22L166.553 248.715L165.213 256.032L164.238 255.945L164.222 247.812L164.221 247.512L170.906 244.04L172.273 231.589L166.981 227.744L154.302 251.544L160.019 273.608L160.074 273.822L159.952 274.004L143.135 299.343L142.287 298.847L154.109 275.574L145.887 250.709L145.82 250.508L151.587 239.77L143.445 242.442L137.67 261.006L136.715 260.777L139.973 241.349L140.019 241.072L152.448 236.282L153.256 222.075L140.915 230.134L140.83 230.189L140.731 230.207L111.03 235.479L110.824 234.519L140.044 227.105L151.98 215.614L150.837 210.901L121.624 228.777L120.966 228.074L145.001 193.794L142.002 189.968L136.298 193.683L135.982 193.89L135.701 193.636L129.847 188.347L129.408 188.418L138.52 200.322L101.988 220.287L101.418 219.494L125.301 197.239L118.291 191.647L117.496 191.037L111.669 196.084L111.409 196.308L111.11 196.143L110.42 195.763L87.1041 213.259L57.5126 232.358L30.8704 255.494L30.4767 255.1L55.4484 229.798L83.4673 208.435L103.03 191.69L96.2873 187.974L92.9894 189.519L73.5872 205.005L72.9151 204.291L84.2469 191.665L69.381 191.293L63.3806 195.668L50.8813 206.968L50.5299 206.704L61.1417 193.155L85.3472 171.83L112.283 156.653L111.597 155.423L104.702 152.909L104.674 152.81L98.434 153.416L79.4158 166.012L78.7389 165.322L86.0634 154.619L59.0852 157.241L17.7941 159.899L0.196816 164.428L0 163.936L17.1067 156.257L58.2989 150.35L92.8771 144.663L97.1744 138.385L91.3188 132.025L74.6077 142.5L74.4013 142.629L57.5519 136.292L51.7598 149.493L34.9478 151.125L34.8173 150.149L49.9961 147.525L55.2285 133.36L55.3812 132.948L55.8055 133.052L73.1714 137.273L87.539 126.466L85.3251 123.136L92.0149 120.555L56.9874 93.2963L57.4242 92.4339L94.3056 103L96.4111 97.5083L94.1616 95.2826L75.6849 83.7033L75.4478 83.5542L75.6024 77.3223L39.8164 58.2996L40.0132 57.9054L75.6974 73.493L75.9806 62.152L39.9441 36.1139L40.4664 35.2822L64.1966 48.2143L62.1296 19.7149L63.105 19.6024L67.868 49.8535L81.5462 58.8207L81.768 58.9669V77.379L89.6963 83.8859L99.1934 90.0486L110.601 65.6132L103.73 43.8812L103.664 43.6706L119.233 17.2902L120.106 17.7411L109.528 41.6055L119.126 66.1996L119.035 66.3919L110.053 85.4636L115.723 104.417L116.393 104.911L137.882 65.4113L138.787 65.7795L125.886 111.911L128.237 113.644L128.789 113.529L157.297 97.8064L141.939 87.746L142.303 86.851L174.304 93.1319L177.817 85.229L161.593 74.0121L161.393 73.8737L160.529 55.8711L146.131 55.774L137.976 40.9614L138.819 40.4547L147.237 53.3723L162.297 52.5724L162.735 52.5503L162.808 52.982L165.817 70.6212L178.817 78.0636L178.24 72.2787L179.125 33.2931L177.65 16.2615L178.142 16.1625L182.664 33.096L184.729 71.7864L186.401 79.0673L188.61 81.3257L199.73 38.3213L200.694 38.3809L205.614 76.4782L212.186 76.2109L215.974 51.437L216.235 51.3312L235.81 43.4495L245.411 0L246.38 0.150943ZM175.885 245.423L182.979 255.244L183.786 239.956L177.866 235.654L175.885 245.423ZM155.443 232.588L155.895 231.75L155.659 230.783L155.443 232.588ZM169.865 221.086L173.17 223.409L173.312 222.122L169.883 221.042L169.865 221.086ZM175.756 197.661L185.383 206.003L186.554 204.472L176.022 197.573L175.756 197.661ZM88.7708 177.161L70.9191 190.172L86.4407 189.221L97.0496 177.402H111.771L113.531 165.745L88.7708 177.161ZM97.5757 185.858L105.355 189.7L110.268 185.495L109.351 184.792L99.5602 184.276L97.5757 185.858ZM136.263 187.298L136.286 187.315L136.315 187.29L136.263 187.298ZM221.977 172.221L222.327 174.928L228.899 174.66L229.555 170.368L221.977 172.221ZM222.699 169.837L229.865 168.337L231.591 157.054L222.699 169.837ZM211.522 97.8073L218.077 101.943L232.114 91.0831L241.269 84.458L227.931 84.0119L211.522 97.8073Z" fill="black"/>
<path d="M24.9716 262.582L14.4521 265.437L14.2552 264.945L24.1844 260.416L24.9716 262.582Z" fill="black"/>
<path d="M263.965 161.991L259.2 162.883L258.974 162.04L263.905 161.798L263.965 161.991Z" fill="black"/>
<path d="M247.255 119.639L247.165 119.929L242.339 118.249L242.7 116.975L247.255 119.639Z" fill="black"/>
<path d="M292.478 110.373L287.924 113.037L287.563 111.763L292.388 110.084L292.478 110.373Z" fill="black"/>
<path d="M38.7353 62.0405L28.2158 64.895L28.0189 64.4027L37.9481 59.8744L38.7353 62.0405Z" fill="black"/>
</svg>
