<svg width="400" height="299" viewBox="0 0 400 299" fill="none" xmlns="http://www.w3.org/2000/svg">
<path fill-rule="evenodd" clip-rule="evenodd" d="M259.838 0.564673L253.352 14.1078L255.234 26.018L277.913 23.1901L278.105 24.3342L255.716 29.0591L256.922 36.6935L272.08 46.5946V57.0104L280.282 61.1706L289.595 45.4516L290.627 45.9834L283.208 62.6549L296.198 69.245L303.42 53.8333L295.934 30.2486L295.856 30.0002L295.988 29.7769L312.841 1.33004L313.873 1.86183L302.348 27.7642L312.721 54.2438L312.812 54.4773L312.705 54.7041L310.286 59.8191L317.875 52.4817L336.821 39.2459L337.402 39.8265L320.2 55.0363L303.462 74.8906L303.049 75.1264L302.92 75.402L309.601 97.6499L340.328 76.6186L341.149 77.4056L316.968 115.936L317.771 116.852L326.173 115.664L326.367 115.524L326.728 115.262L327.068 115.538L332.055 114.833L360.648 106.589L384.01 97.1839L384.359 97.8812L361.694 109.492L354.907 111.991L370.282 119.406L378.739 114.901L378.859 114.837L378.997 114.833L399.918 114.252L400 115.41L379.761 117.72L370.314 122.439L370.066 122.333L354.147 115.518L338.99 130.078L338.607 129.84L333.052 126.404L324.306 160.893L330.084 155.353L347.035 163.527L355.493 159.022L355.613 158.959L355.75 158.954L376.672 158.374L376.754 159.531L356.514 161.841L347.068 166.56L346.82 166.455L330.9 159.639L326.163 164.189L336.13 171.104L351.905 167.602L352.132 167.856L371.891 189.917L371.052 190.72L350.943 171.207L335.426 175.083V175.586L337.235 175.794L337.153 176.951L335.426 176.903V181.866L342.141 186.338L341.589 187.355L333.453 183.871L333.128 183.732L333.102 183.378L332.632 176.825L316.232 176.371L316.094 176.366L315.974 176.303L315.477 176.037L310.863 183.905L320.346 189.407L320.314 189.775L319.177 202.249L335.223 215.987L334.529 216.916L331.642 215.054L348.645 234.039L347.806 234.842L327.697 215.329L312.18 219.204V225.987L318.895 230.459L318.343 231.476L310.207 227.993L309.882 227.853L309.856 227.5L309.296 219.682L302.024 215.559L298.216 231.657L298.106 231.634L308.577 241.973L323.803 260.202L323.222 260.666L306.601 243.947L296.915 235.555L295.931 246.371L311.976 260.109L311.283 261.038L292.989 249.248L293.001 248.916L293.567 234.776L279.822 227.911L282.533 243.616L282.552 243.732L282.525 243.848L274.97 275.778L273.83 275.552L279.036 243.192L270.264 219.823L272.306 217.017L262.204 210.388L256.504 211.668L242.823 221.446L249.94 236.499L250.047 236.726L249.956 236.96L239.583 263.439L251.108 289.342L250.076 289.873L233.223 261.427L233.091 261.203L233.17 260.955L240.655 237.37L233.835 222.815L222.333 224.091L209.315 226.123V244.609L194.157 254.51L188.968 287.346L187.813 287.213L190.061 256.343L189.069 256.881L189.408 257.261L188.569 258.063L187.967 257.48L164.262 270.349L163.645 269.368L184.643 254.254L168.46 238.551L167.272 238.846L165.612 246.036L158.406 262.988L157.592 262.757L159.315 254.311L159.106 254.698L150.97 251.215L150.645 251.075L150.619 250.722L150.096 243.421L126.185 234.638L118.728 243.262L119.717 246.225L137.863 256.75L137.83 257.119L136.694 269.593L152.74 283.331L152.046 284.26L133.752 272.469L133.765 272.138L134.33 257.998L120.585 251.133L123.296 266.837L123.315 266.954L123.288 267.07L115.733 299L114.593 298.774L119.799 266.413L111.037 243.072L95.3959 232.992L95.4084 232.661L95.7341 224.51L87.0111 230.265L86.212 229.452L92.9884 219.585L92.8669 219.522L92.2699 219.796L84.7205 226.095L84.9396 227.36L84.9589 227.477L84.9317 227.593L77.3766 259.523L76.237 259.297L79.6093 238.326L58.4471 249.868L61.4686 226.646L74.1462 233.574L80.9373 225.591L72.6706 203.568L73.8159 201.993L63.1735 198.006L56.8659 212.33L38.5107 214.104L38.3563 212.953L54.8795 210.107L60.7547 194.262L76.6434 198.11L82.514 190.045L72.3948 181.131L72.3403 175.161L48.6548 190.788L47.8557 189.975L67.7376 161.03L61.1678 154.165L43.169 165.404L24.8172 158.529L18.5096 172.852L0.15437 174.627L0 173.476L16.5232 170.63L22.3983 154.785L41.8126 159.486L57.4255 147.788L55.0032 144.159L62.2745 141.364L55.0816 135.787L42.8716 137.707L20.3234 140.725L20.0907 140.029L40.2485 133.998L43.2757 126.635L24.1509 111.808L24.6674 110.792L47.1531 117.209L51.7955 105.922L44.2587 101.216L44.2666 100.885L44.5481 89.6254L43.9272 89.1786L44.5436 88.1978L44.5833 88.2194L44.8398 77.968L5.57093 49.7014L6.18727 48.7206L31.9863 62.7263L29.7388 31.8564L30.8932 31.7237L36.0828 64.5598L51.2405 74.4609V91.8331L56.4312 94.6519L58.4471 89.7535L62.6309 84.2565L52.7683 82.4593L52.9351 81.3106L63.9669 82.5024L68.4765 76.5801L68.0952 71.3336L69.2495 71.201L69.8205 74.8146L71.7001 72.3473L52.984 55.0363L53.4493 54.4558L74.6025 69.55L80.9476 76.5551L75.0951 58.1148L75.0168 57.8665L75.1485 57.6431L92.002 29.1963L93.0338 29.7281L81.5083 55.6305L90.5525 78.7175L94.7114 71.7566L107.147 59.2158L126.539 59.1183L120.002 50.2604L120.774 49.4202L130.715 55.5058L130.851 50.1017L91.582 21.8352L92.1984 20.8543L117.997 34.8601L115.75 3.99013L116.904 3.85746L122.094 36.6935L137.252 46.5946V57.3064L148.061 54.5715L152.057 53.4228L145.096 43.4776L145.183 43.2043L151.022 24.815L136.697 19.3826L136.378 19.2612L136.328 18.9245L133.657 1.0409L134.8 0.827734L138.497 17.1647L154.147 22.0551L154.641 22.2082L150.943 41.8187L158.972 51.4363L165.844 49.4633L167.115 49.1832L161.106 30.2486L161.028 30.0002L161.16 29.7769L178.013 1.33004L179.045 1.86183L167.519 27.7642L175.214 47.4076L180.626 46.2204L197.696 21.7399L198.738 22.2025L198.068 25.103L201.644 10.1018L202.457 10.2185L200.081 33.1161L233.047 39.9296L238.916 30.837L226.41 21.8352L227.027 20.8543L240.603 28.2246L251.153 11.8842L250.578 3.99013L251.733 3.85746L252.637 9.5847L258.826 0L259.838 0.564673ZM152.943 249.209L159.469 253.555L160.741 247.331L152.943 244.466V249.209ZM184.906 227.807L168.326 234.283L168.105 235.237L169.422 234.946L169.649 235.2L185.902 253.347L202.914 241.102L202.562 227.044L184.906 227.807ZM158.07 241.145L161.287 242.186L161.346 240.327L158.07 241.145ZM98.338 230.116L111.952 241.772L119.054 232.018L110.751 228.968L99.0065 222.765L98.338 230.116ZM153.647 238.447L161.462 236.713L161.496 235.658L147.49 234.176L153.647 238.447ZM75.1212 234.107L79.8704 236.702L81.0894 229.125L75.1212 234.107ZM149.291 215.818L151.052 217.783L150.213 218.586L148.628 217.049L141.605 230.093L146.703 233.631L159.22 197.386L149.291 215.818ZM128.753 231.666L132.208 232.782L129.243 231.101L128.753 231.666ZM288.463 222.115L288.468 222.118L297.189 230.729L299.829 214.314L294.73 211.424L288.463 222.115ZM100.395 221.436L111.797 226.182L121.11 229.194L124.939 223.935L124.559 223.257L107.613 217.474L107.332 216.858L100.395 221.436ZM278.954 223.003L289.467 229.101L285.562 225.717L278.26 220.925L278.954 223.003ZM84.0111 221.98L89.1314 215.964L89.8147 215.444L82.2291 211.656L84.0111 221.98ZM281.043 216.478L287.784 221.598L293.682 210.828L288.479 207.879L281.043 216.478ZM304.856 194.151L305.779 199.494L305.798 199.611L305.771 199.726L303.623 208.801L312.883 215.225L327.032 212.085L316.235 205.126L316.248 204.795L316.813 190.654L309.15 186.827L304.856 194.151ZM81.5253 204.881L80.6252 204.543L81.3607 206.747L92.649 213.294L102.371 205.921L100.29 201.334L93.5707 197.359L81.5253 204.881ZM277.194 207.024L274.51 207.626L276.654 211.044L282.057 203.622L277.194 207.024ZM298.394 205.174L301.007 206.987L302.282 199.07L302.161 198.749L298.394 205.174ZM292.304 196.457L291.58 196.963L292.365 200.991L297.224 204.362L301.404 196.733L298.562 189.162L292.304 196.457ZM303.085 183.891L304.368 191.323L307.329 185.917L303.141 183.826L303.085 183.891ZM302.813 174.064L301.629 175.434L302.45 179.025L309.017 182.835L313.36 174.91L307.517 171.798L302.813 174.064ZM317.597 172.417L316.979 173.475L316.996 173.484L331.875 175.181L321.088 169.065L317.597 172.417ZM310.558 165.106L315.634 169.21L317.421 167.495L317.635 167.107L311.726 163.757L310.558 165.106ZM297.157 163.979L297.671 163.604L296.662 163.414L297.157 163.979ZM314.799 133.604L318.224 138.635L315.667 153.962L315.125 154.373L315.611 156.869L321.142 160.706L321.594 159.883L328.803 123.776L326.779 122.525L314.799 133.604ZM96.7341 158.904L95.9203 159.657L98.3947 160.364L104.407 158.577L104.866 157.383L96.7341 158.904ZM46.362 132.014L49.0566 131.116L47.2019 129.679L46.362 132.014ZM334.832 119.389L334.32 121.402L338.88 125.089L351.058 113.41L334.832 119.389ZM51.2689 118.384L64.8364 122.256L65.3017 121.046L60.0713 111.089L55.0294 107.94L51.2689 118.384ZM82.9952 102.182L110.17 110.862L110.935 110.339L92.6047 102.219L83.2495 101.854L82.9952 102.182ZM57.8194 100.191L64.8012 104.704L65.1916 104.485L58.1099 99.387L57.8194 100.191ZM61.1201 91.0303L59.262 96.1883L69.7864 101.902L70.2995 101.614L69.1213 85.4391L65.102 84.7066L61.1201 91.0303ZM73.7489 99.6739L74.254 99.3904L74.287 99.4006L79.9067 87.4053L71.5696 85.8859L73.7489 99.6739ZM84.0883 99.0207L85.3505 99.006L84.3119 98.5456L84.0883 99.0207ZM51.2405 95.9388L54.9227 98.3189L55.312 97.3732L51.2405 94.4421V95.9388ZM70.1247 76.7377L71.1576 83.2791L79.3165 84.1601L72.3233 73.2487L70.1247 76.7377ZM66.3301 82.7575L68.9465 83.0398L68.657 79.0656L66.3301 82.7575ZM279.101 71.8858L279.482 72.8564L284.886 76.3499L294.863 72.0933L295.782 70.1328L282.62 63.9759L279.101 71.8858ZM272.08 68.0726L275.054 69.9945L279.487 62.5109L272.08 59.0457V68.0726ZM236.588 46.5662L236.43 46.8384L214.957 47.9462L213.415 50.6199L222.797 52.1336L227.746 53.814L227.332 48.1117L228.486 47.9791L229.502 54.4104L240.232 58.0547L262.084 59.9132L265.339 63.7003L265.532 55.9831L241.163 44.5865L238.028 44.0955L236.588 46.5662ZM239.661 41.296L242.092 41.7994L265.588 53.7176L265.679 50.1017L243.737 34.3067L239.661 41.296ZM193.057 46.9109L204.085 49.1152L204.879 49.2433L209.322 41.2529L218.313 41.0125L198.59 37.9295L193.057 46.9109ZM245.94 31.1216L252.826 34.8601L252.453 29.7474L245.94 31.1216ZM247.167 27.0249L252.209 26.3956L251.583 17.8019L247.167 27.0249Z" fill="#020208"/>
<path d="M265.92 270.652L256.97 271L263.13 260.55L265.92 270.652Z" fill="#020208"/>
<path d="M368.319 158.026L347.746 155.471L364.832 136.778L368.319 158.026Z" fill="#020208"/>
<path d="M16.9523 121.451L0.0987511 112.743L11.0249 96.8357L16.9523 121.451Z" fill="#020208"/>
<path d="M364.484 83.1351L347.63 74.4268L358.556 58.5196L364.484 83.1351Z" fill="#020208"/>
<path d="M114.005 25.5441L105.055 25.8933L111.215 15.4435L114.005 25.5441Z" fill="#020208"/>
<path d="M219.543 6.27036L211.407 19.9711L202.341 3.25197L219.543 6.27036Z" fill="#020208"/>
</svg>
