<svg width="400" height="338" viewBox="0 0 400 338" fill="none" xmlns="http://www.w3.org/2000/svg">
<path fill-rule="evenodd" clip-rule="evenodd" d="M311.155 0.216724L305.981 26.9667L298.552 37.9746L311.232 37.4633L315.609 26.6036L315.712 26.3494L315.982 26.309L333.49 23.6671L333.697 24.6034L316.95 29.5186L313.57 39.3144L313.469 39.6033L313.165 39.6352L296.231 41.3822L294.481 43.282L298.267 56.0256L317.949 54.1914L321.025 48.4834L321.165 48.2254L321.458 48.2301L328.766 48.3652L328.836 49.3193L322.262 50.4133L319.958 55.5302L330.325 63.7226L352.092 55.8305L352.451 56.7217L329.824 66.7689L329.6 66.6001L319.137 58.7708L298.853 62.5414L288.96 76.5478L295.599 92.242L299.65 91.7073L299.904 91.5853L299.948 91.6679L306.988 90.7409L307.357 90.6912L307.497 91.0374L313.824 106.822L328.125 107.085L328.347 107.09L333.857 113.858L348.311 122.473L347.856 123.318L332.301 115.776L332.2 115.726L332.13 115.637L327.293 109.367L312.088 109.769L311.754 109.778L305.58 94.4177L301.916 95.3813L306.911 104.801L307.043 105.049L300.04 115.935L312.949 125.31L313.14 125.45L313.147 125.686L313.603 143.41L321.212 144.647L332.218 117.465L333.143 117.645L333.163 147.637L346.057 146.682L352.805 128.61L352.896 128.367L353.147 128.31L373.004 123.749L392.946 105.388L393.621 106.071L375.047 125.854L374.979 125.926L374.89 125.966L362.827 131.266L373.821 137.608L383.314 130.764L383.537 130.604L400 137.834L399.676 138.736L382.894 133.945L374.81 140.422L374.571 140.613L359.047 132.907L356.553 133.578L352.959 146.378L370.58 155.342L376.226 152.159L376.482 152.016L376.725 152.175L382.834 156.194L382.384 157.039L376.242 154.451L371.564 157.547L375.961 170.014L398.577 174.971L398.406 175.915L374.193 172.363L373.914 172.322L373.813 172.059L369.141 159.849L349.979 152.201L334.143 158.759L332.138 170.989L345.027 171.824L345.3 170.617L345.326 170.507L345.397 170.419L356.328 157.018L357.097 157.593L347.616 171.502L347.493 171.984L354.92 172.466V173.138L347.116 173.467L345.522 179.748L345.468 179.964L345.268 180.062L341.949 181.68L339.023 197.642L351.161 205.629L351.187 205.851L352.21 214.295L358.254 226.186L363.783 215.907L364.064 215.903L388.532 215.477L388.582 216.435L365.519 218.459L359.566 230.261L363.809 233.93L370.232 232.148L370.571 233.044L364 236.249L363.737 236.377L363.501 236.201L358.308 232.323L339.686 238.96L341.618 252.113L344.006 253.098L360.386 247.441L360.599 247.661L367.789 255.119L385.046 252.514L385.253 253.45L368 258.515L359.259 250.326L347.545 255.21L358.833 262.009L358.916 262.06L358.974 262.14L374.87 284.136L374.114 284.727L356.679 263.968L337.568 256.903L337.325 256.814L337.266 256.562L332.881 237.775L320.216 235.179L316.365 264.923L315.426 264.983L307.98 236.616L300.274 236.869L297.56 254.389L297.524 254.623L297.316 254.737L287.902 259.879L289.606 260.638L289.395 261.557L287.427 261.493L288.018 267.481L287.346 267.577L286.027 261.447L285.088 261.416L283.315 262.384L288.75 273.821L288.871 274.077L288.708 274.306L280.072 286.517L279.269 285.991L286.409 274.117L279.873 262.246L279.668 261.872L280.515 261.265L259.446 260.573L259.967 273.502L278.026 280.957L278.075 281.212L281.965 301.227L299.63 321.792L298.925 322.444L279.794 303.2L279.724 303.13L279.687 303.04L274.8 290.794L268.098 301.581L274.615 311.306L274.767 311.534L266.995 327.76L266.106 327.406L271.451 310.779L265.254 302.476L265.073 302.23L265.217 301.961L273.287 286.958L272.7 284.442L260.04 280.417L250.498 297.744L253.623 303.758L249.236 309.973L248.408 309.495L251.198 303.437L248.263 298.655L235.668 302.635L229.96 325.092L229.023 324.89L233.381 300.787L233.431 300.51L246.046 296.154L254.326 277.241L248.308 261.18L231.607 257.859L226.449 268.133L226.282 268.467L216.749 266.382L216.989 271.515L214.493 290.442L216.989 304.372L216.317 304.564L211.517 290.634L211.605 273.311L204.18 272.035L201.064 276.451L200.935 276.633L200.713 276.652L192.246 277.392L187.6 279.564L200.645 294.157L199.952 294.821L185.344 280.619L177.005 284.52L176.561 283.669L184.04 279.351L183.346 278.676L170.531 281.882V287.495L176.077 291.195L175.621 292.037L168.902 289.154L168.634 289.039L168.612 288.746L168.15 282.277L150.959 272.512L142.276 282.574L143.093 285.025L158.078 293.735L158.051 294.04L157.113 304.361L170.363 315.728L169.791 316.496L154.683 306.741L154.694 306.467L155.16 294.767L143.81 289.087L146.048 302.081L146.064 302.178L146.042 302.273L139.803 328.693L138.862 328.506L143.16 301.73L135.916 282.395L147.406 266.582L141.556 256.129L140.486 255.69L116.084 271.82L115.424 271.148L129.196 251.059L123.392 248.678L102.278 253.775L106.804 258.352L106.296 258.671L103.748 260.267L111.53 274.394L127.325 277.36L127.744 277.44L127.714 277.866L126.786 291.387L138.261 299.145L137.754 299.962L124.781 292.53L124.536 292.389L124.539 292.108L124.651 279.443L108.736 278.413L108.5 278.398L108.368 278.2L98.5307 263.457L91.4358 266.476L96.626 295.342L95.7486 295.684L79.7347 270.333L69.3413 278.029L73.326 297.17L58.7856 311.82L51.7151 338L50.7797 337.783L55.9351 311.131L55.9548 311.034L56.0082 310.953L63.3825 300.026L50.7028 300.538L46.3262 311.396L46.2231 311.651L45.9532 311.692L28.4452 314.333L28.2389 313.397L44.9849 308.481L48.3659 298.686L48.4662 298.397L48.7699 298.365L65.7034 296.618L67.4544 294.719L63.6674 281.974L43.9857 283.81L40.9092 289.518L40.7696 289.776L33.1695 289.635L33.0991 288.681L39.6738 287.587L41.9769 282.471L31.6097 274.277L9.84323 282.17L9.48422 281.279L31.8534 271.346L32.1102 271.232L32.3361 271.4L42.799 279.23L63.0816 275.459L72.9754 261.452L66.337 245.758L54.9472 247.26L54.5778 247.31L54.4391 246.963L48.111 231.179L33.8106 230.915L33.5875 230.91L28.0786 224.143L24.9554 222.281L14.4682 234.77L13.7117 234.179L23.1059 221.179L13.6236 215.527L14.0792 214.682L24.2402 219.608L29.6084 212.183L29.6656 212.103L29.749 212.052L41.0367 205.253L29.3225 200.369L20.5816 208.557L3.32951 203.493L3.53573 202.557L20.7925 205.162L27.9821 197.703L28.1949 197.484L28.4845 197.583L44.5762 203.141L46.9637 202.156L48.8956 189.002L30.273 182.366L24.8447 186.42L24.5823 186.292L18.0114 183.087L18.3498 182.191L24.7726 183.973L29.016 180.303L24.1145 170.587L19.0659 172.946L18.7782 172.37L23.5756 169.519L23.0628 168.502L0 166.478L0.0496801 165.519L24.5176 165.946L24.7988 165.95L24.9319 166.199L25.9565 168.104L36.7267 161.705L54.1963 155.557L59.5955 155.096L55.6014 153.841L55.2452 153.731L55.2659 153.358L55.8442 142.506L45.7788 144.922L45.387 144.064L56.1432 136.361L43.3136 130.105L43.1139 130.006L43.0595 129.791L40.9664 121.545L38.7814 118.34L27.1769 108.053L0.658965 102.485L0.821128 101.539L27.7993 105.179L27.8837 105.229L31.68 107.49L32.2536 107.061L33.476 108.559L39.2042 111.971L37.9687 99.3311L26.6267 95.4901L26.5714 95.2227L22.9344 77.8791L23.8558 77.6192L29.7172 94.0715L39.6813 96.8889L39.9756 96.9734L42.7362 114.096L44.7309 115.736L57.2259 111.224L54.2694 91.6613L48.4006 88.9142L48.1354 88.7895L48.1232 88.4967L47.8401 81.1863L48.7878 81.0615L50.2547 87.5689L55.4908 89.5775L63.0694 78.7498L53.9517 57.4498L54.8197 57.0407L66.0071 78.8248L66.1364 79.0753L65.9808 79.3099L58.7697 90.2127L63.6918 110.265L78.2293 119.35L93.5036 111.819L92.5578 106.852L87.3114 104.447L68.5942 96.7613L68.7864 96.0887L82.1184 99.1819L82.4175 98.4679L90.4019 100.12L81.571 78.1634L74.6299 59.0851L75.2035 58.7914L83.8282 77.2017L93.6255 99.0562L107.003 92.7721L106.799 87.5173L96.9212 81.2876L96.4872 60.6425L82.5777 37.3685L83.382 36.846L98.9619 59.0682L99.0181 59.1489L99.0397 59.2446L101.773 72.1439L110.211 62.6568L105.333 51.7127L105.492 51.4903L115.751 37.0467L116.567 37.5477L108.471 53.0224L113.166 62.2599L113.303 62.533L113.115 62.7741L102.612 76.1819L102.761 78.762L106.536 80.7219L106.44 78.2441L112.875 72.3512L120.641 57.4151L121.511 57.8213L114.878 73.7961L114.834 73.9011L108.771 79.1682L109.009 82.0063L114.552 84.8847L126.902 69.4362L124.846 62.9767L130.226 57.6008L130.961 58.2135L127.18 63.7076L129.259 68.9202L142.349 67.1433L151.792 45.9869L152.681 46.3462L144.287 69.3537L144.19 69.6192L131.018 71.762L119.643 88.9884L121.621 99.4127L133.375 109.895L138.4 111.83L122.346 92.9185L137.608 88.5952L154.214 81.5822L171.107 83.407L175.413 97.4791L177.034 97.8149L177.906 91.1659L177.01 83.9089L162.192 74.5626L161.758 53.9175L147.848 30.6435L148.652 30.1209L164.232 52.3432L164.288 52.4238L164.31 52.5195L167.043 65.4189L175.481 55.9318L170.603 44.9877L170.762 44.7653L181.021 30.3217L181.838 30.8227L173.742 46.2974L178.436 55.5349L178.574 55.8079L178.385 56.0491L167.882 69.4569L168.031 72.0369L179.822 78.1596L192.172 62.7112L190.116 56.2517L195.496 50.8758L196.231 51.4885L192.45 56.9826L194.53 62.1952L207.619 60.4183L217.062 39.2618L217.951 39.6212L209.557 62.6287L209.461 62.8942L196.288 65.037L184.913 82.2633L185.232 83.9455L192.128 84.9447L208.061 78.9881L204.974 103.92L207.853 100.023L212.342 85.4119L208.158 83.2147L217.564 69.0929L223.131 52.7607L223.708 52.8564L220.924 70.4373L216.636 80.2687L229.275 83.3113L246.661 87.3615L246.744 87.3418L238.182 77.7177L229.873 69.7843L230.269 69.2327L239.932 76.0318L250.071 86.5387L259.656 84.2251L255.131 79.6476L255.64 79.3296L258.188 77.7328L250.405 63.6063L234.191 60.5609L235.149 46.6126L223.675 38.8547L224.182 38.0394L237.399 45.6106L237.397 45.8921L237.284 58.5578L253.199 59.588L253.436 59.603L263.404 74.5438L270.5 71.5237L265.309 42.6581L266.187 42.3166L282.201 67.6668L292.593 59.9707L288.609 40.8305L303.15 26.1805L310.221 0L311.155 0.216724ZM154.168 266.812L171.112 278.59L184.14 275.693L184.327 275.903L186.263 278.069L191.535 275.026L191.633 274.971L191.745 274.963L199.646 274.48L201.506 271.575L163.14 264.983L153.004 260.825L154.168 266.812ZM206.718 268.438L211.187 269.04L210.548 265.028L209.316 264.758L206.718 268.438ZM150.896 249.974L152.509 258.274L163.908 262.677L203.77 268.042L207.856 261.665L208.037 261.384L208.363 261.455L210.037 261.819L209.03 255.492L192.128 261.717L172.739 259.026L156.709 249.131L153.104 247.928L150.896 249.974ZM227.067 255.28L216.218 255.026L216.602 263.248L224.201 264.902L228.378 253.064L228.5 252.717L228.867 252.745L232.332 253.015L228.166 245.253L222.69 242.538L227.067 255.28ZM262.832 248.718L284.543 258.383L285.259 257.871L282.739 246.153L279.455 241.265L264.323 241.147L262.832 248.718ZM285.57 244.615L285.81 245.096L286.95 256.662L293.089 252.271L294.2 236.178L292.545 235.971L285.57 244.615ZM126.025 248.042L130.167 249.642L132.004 246.964L131.728 246.665L126.025 248.042ZM55.7008 187.817L51.3158 206.605L51.2568 206.856L51.014 206.946L31.9021 214.01L26.3436 220.628L29.6337 222.224L29.7359 222.274L29.8043 222.363L34.642 228.633L49.847 228.231L50.1816 228.223L50.3053 228.533L56.3551 243.583L68.8417 240.297L72.0437 245.91L75.9609 244.119L70.841 206.841L71.1504 206.731L70.932 205.043L61.683 210.318L52.4688 221.847L51.9888 221.462L59.6677 208.108L70.3011 200.173L68.3664 185.221L55.7008 187.817ZM291.023 230.027L283.267 240.006L285.165 243.805L291.139 235.794L290.622 235.73L292.8 229.671L291.023 230.027ZM126.63 241.384L126.892 241.423L126.774 241.294L126.63 241.384ZM106.839 238.491L118.129 240.141L120.938 238.033L108.815 235.205L109.313 236.034L108.51 236.56L107.303 234.852L107.047 234.792L106.839 238.491ZM265.649 235.131L275.98 236.092L274.182 233.415L265.649 235.131ZM279.445 232.356L281.24 235.948L286.143 231.009L279.445 232.356ZM77.5047 198.455L78.8649 200.519L76.6283 201.794L74.283 210.731L87.7182 232.826L94.2291 225.316L91.2474 222.519L84.2397 208.973L77.5254 198.378L77.5047 198.455ZM332.41 186.332L333.336 203.688L332.981 203.799L322.019 207.241L322.606 224.274L337.475 232.803L357.457 227.669L357.566 227.466L349.871 215.087L349.812 214.99L349.801 214.878L349.054 206.992L335.695 199.036L338.56 183.333L332.41 186.332ZM218.961 231.684L220.853 231.631L215.549 221.75L218.961 231.684ZM274.426 214.127L281.27 218.361L282.229 217.732L280.082 213.716L278.361 212.911L274.426 214.127ZM313.196 209.809L316.909 209.785L317.449 203.345L317.81 203.28L330.155 201.058L329.288 184.524L329.595 184.392L335.614 181.783L326.355 178.857L326.371 178.488L326.533 174.833L313.196 209.809ZM267.128 209.458L269.501 208.765L267.706 207.925L267.128 209.458ZM321.035 174.768L309.584 199.994L311.617 206.611L322.257 174.658L321.035 174.768ZM254.917 201.988L254.884 202.039L261.352 206.04L262.05 205.278L254.985 201.973L254.917 201.988ZM47.2702 181.86L51.1068 182.846L64.8101 174.985L51.4489 174.834L47.2702 181.86ZM37.7831 164.204L26.6548 169.401L31.1251 177.711L45.9026 181.508L50.3203 172.643L50.6016 172.629L63.2409 172.017L63.3272 160.237L54.964 160.169L37.7831 164.204ZM331.624 174.119L331.386 175.577L340.368 179.723L343.553 178.344L344.632 173.571L331.624 174.119ZM65.4709 174.569L65.4653 174.609L65.9761 174.317L66.1477 169.311L65.4709 174.569ZM262.293 168.142L283.716 169.195L279.389 167.302L262.293 168.142ZM58.915 141.769L58.4266 151.101L67.4562 152.725L77.6922 145.001L74.2737 138.083L58.915 141.769ZM264.022 150.754L279.077 147.925L277.658 146.71L264.022 150.754ZM285.974 93.882L289.804 121.763L301.167 126.927L307.119 137.976L287.846 143.689L292.761 145.355L307.532 142.581L308.442 127.215L296.669 116.268L296.357 115.978L304.605 104.695L300.665 95.7106L293.449 97.6104L293.093 97.7033L289.892 92.09L285.974 93.882ZM43.4748 121.514L45.0289 128.386L58.8916 134.393L67.7693 128.035L63.9514 123.804L50.4066 126.68L50.1722 125.748L64.7941 121.488L64.9947 121.686L68.6467 125.277L61.4862 116.667L43.4748 121.514ZM146.641 121.726L147.303 122.316L146.741 121.655L146.641 121.726ZM143.658 119.066L144.097 119.457L144.536 119.057L143.909 118.318L143.658 119.066ZM203.838 113.094L204.653 110.439L204.182 110.319L203.838 113.094ZM110.071 94.672L109.768 94.8136L96.0279 101.283L107.027 103.56L112.438 99.393L113.448 91.711L109.62 89.2961L110.071 94.672Z" fill="black"/>
<path d="M317.005 294.957L306.159 287.56L316.717 277.664L317.005 294.957Z" fill="black"/>
<path d="M23.2887 145.085L6.87554 140.186L24.3451 130.674L23.2887 145.085Z" fill="black"/>
<path d="M341.481 99.2588L332.747 97.0494L338.794 91.1894L341.481 99.2588Z" fill="black"/>
</svg>
