<svg width="800" height="800" viewBox="0 0 800 800" fill="none" xmlns="http://www.w3.org/2000/svg">
<g clip-path="url(#clip0_246_2)">
<path d="M800 0H0V271H800V0Z" fill="#35200C"/>
<path d="M800 257V677H0V257H800Z" fill="#46280E"/>
<path d="M126 498H64C59.5817 498 56 501.582 56 506V516C56 520.418 59.5817 524 64 524H126C130.418 524 134 520.418 134 516V506C134 501.582 130.418 498 126 498Z" fill="#54320F"/>
<path d="M281 482H235C231.134 482 228 485.134 228 489V497C228 500.866 231.134 504 235 504H281C284.866 504 288 500.866 288 497V489C288 485.134 284.866 482 281 482Z" fill="#3A2208"/>
<path d="M455 506H385C380.029 506 376 510.029 376 515V525C376 529.971 380.029 534 385 534H455C459.971 534 464 529.971 464 525V515C464 510.029 459.971 506 455 506Z" fill="#5E3A16"/>
<path d="M598 488H548C543.582 488 540 491.582 540 496V504C540 508.418 543.582 512 548 512H598C602.418 512 606 508.418 606 504V496C606 491.582 602.418 488 598 488Z" fill="#54320F"/>
<path d="M750 502H686C681.582 502 678 505.582 678 510V520C678 524.418 681.582 528 686 528H750C754.418 528 758 524.418 758 520V510C758 505.582 754.418 502 750 502Z" fill="#3A2208"/>
<path d="M192 584H138C133.582 584 130 587.582 130 592V600C130 604.418 133.582 608 138 608H192C196.418 608 200 604.418 200 600V592C200 587.582 196.418 584 192 584Z" fill="#6E4419"/>
<path d="M357 596H313C309.134 596 306 599.134 306 603V611C306 614.866 309.134 618 313 618H357C360.866 618 364 614.866 364 611V603C364 599.134 360.866 596 357 596Z" fill="#54320F"/>
<path d="M546 578H478C473.582 578 470 581.582 470 586V596C470 600.418 473.582 604 478 604H546C550.418 604 554 600.418 554 596V586C554 581.582 550.418 578 546 578Z" fill="#3A2208"/>
<path d="M685 593H637C633.134 593 630 596.134 630 600V608C630 611.866 633.134 615 637 615H685C688.866 615 692 611.866 692 608V600C692 596.134 688.866 593 685 593Z" fill="#5E3A16"/>
<path d="M153 414H107C103.134 414 100 417.134 100 421V429C100 432.866 103.134 436 107 436H153C156.866 436 160 432.866 160 429V421C160 417.134 156.866 414 153 414Z" fill="#3A2208"/>
<path d="M498 406H428C423.029 406 419 410.029 419 415V425C419 429.971 423.029 434 428 434H498C502.971 434 507 429.971 507 425V415C507 410.029 502.971 406 498 406Z" fill="#54320F"/>
<path d="M192 328H138C133.582 328 130 331.582 130 336V344C130 348.418 133.582 352 138 352H192C196.418 352 200 348.418 200 344V336C200 331.582 196.418 328 192 328Z" fill="#6E4419"/>
<path d="M315 416H261C256.582 416 253 419.582 253 424V432C253 436.418 256.582 440 261 440H315C319.418 440 323 436.418 323 432V424C323 419.582 319.418 416 315 416Z" fill="#6E4419"/>
<path d="M357 340H313C309.134 340 306 343.134 306 347V355C306 358.866 309.134 362 313 362H357C360.866 362 364 358.866 364 355V347C364 343.134 360.866 340 357 340Z" fill="#54320F"/>
<path d="M546 322H478C473.582 322 470 325.582 470 330V340C470 344.418 473.582 348 478 348H546C550.418 348 554 344.418 554 340V330C554 325.582 550.418 322 546 322Z" fill="#3A2208"/>
<path d="M669 410H601C596.582 410 593 413.582 593 418V428C593 432.418 596.582 436 601 436H669C673.418 436 677 432.418 677 428V418C677 413.582 673.418 410 669 410Z" fill="#3A2208"/>
<path d="M685 336H637C633.134 336 630 339.134 630 343V351C630 354.866 633.134 358 637 358H685C688.866 358 692 354.866 692 351V343C692 339.134 688.866 336 685 336Z" fill="#5E3A16"/>
<path opacity="0.65" d="M800 460H0V465H800V460Z" fill="#35200C"/>
<path opacity="0.55" d="M800 556H0V560H800V556Z" fill="#35200C"/>
<path opacity="0.5" d="M800 638H0V642H800V638Z" fill="#35200C"/>
<path opacity="0.55" d="M800 300H0V304H800V300Z" fill="#35200C"/>
<path opacity="0.5" d="M800 382H0V386H800V382Z" fill="#35200C"/>
<path d="M800 676H0V720H800V676Z" fill="#3A2208"/>
<path d="M75 692H11C4.92487 692 0 696.925 0 703V755C0 761.075 4.92487 766 11 766H75C81.0751 766 86 761.075 86 755V703C86 696.925 81.0751 692 75 692Z" fill="#54320F"/>
<path d="M146 686H88C82.4772 686 78 690.477 78 696V724C78 729.523 82.4772 734 88 734H146C151.523 734 156 729.523 156 724V696C156 690.477 151.523 686 146 686Z" fill="#5E3A16"/>
<path d="M228 694H160C153.373 694 148 699.373 148 706V774C148 780.627 153.373 786 160 786H228C234.627 786 240 780.627 240 774V706C240 699.373 234.627 694 228 694Z" fill="#6E4419"/>
<path d="M292 688H242C236.477 688 232 692.477 232 698V734C232 739.523 236.477 744 242 744H292C297.523 744 302 739.523 302 734V698C302 692.477 297.523 688 292 688Z" fill="#3A2208"/>
<path d="M371 692H305C298.925 692 294 696.925 294 703V759C294 765.075 298.925 770 305 770H371C377.075 770 382 765.075 382 759V703C382 696.925 377.075 692 371 692Z" fill="#54320F"/>
<path d="M440 686H384C378.477 686 374 690.477 374 696V720C374 725.523 378.477 730 384 730H440C445.523 730 450 725.523 450 720V696C450 690.477 445.523 686 440 686Z" fill="#5E3A16"/>
<path d="M524 694H454C447.373 694 442 699.373 442 706V782C442 788.627 447.373 794 454 794H524C530.627 794 536 788.627 536 782V706C536 699.373 530.627 694 524 694Z" fill="#54320F"/>
<path d="M590 688H538C532.477 688 528 692.477 528 698V738C528 743.523 532.477 748 538 748H590C595.523 748 600 743.523 600 738V698C600 692.477 595.523 688 590 688Z" fill="#6E4419"/>
<path d="M665 692H603C596.925 692 592 696.925 592 703V763C592 769.075 596.925 774 603 774H665C671.075 774 676 769.075 676 763V703C676 696.925 671.075 692 665 692Z" fill="#3A2208"/>
<path d="M724 686H678C672.477 686 668 690.477 668 696V726C668 731.523 672.477 736 678 736H724C729.523 736 734 731.523 734 726V696C734 690.477 729.523 686 724 686Z" fill="#5E3A16"/>
<path d="M789 692H737C730.925 692 726 696.925 726 703V769C726 775.075 730.925 780 737 780H789C795.075 780 800 775.075 800 769V703C800 696.925 795.075 692 789 692Z" fill="#54320F"/>
<path d="M150 704H144C140.686 704 138 706.686 138 710V722C138 725.314 140.686 728 144 728H150C153.314 728 156 725.314 156 722V710C156 706.686 153.314 704 150 704Z" fill="#28221A"/>
<path d="M376 702H368C364.686 702 362 704.686 362 708V718C362 721.314 364.686 724 368 724H376C379.314 724 382 721.314 382 718V708C382 704.686 379.314 702 376 702Z" fill="#28221A"/>
<path d="M594 706H588C584.686 706 582 708.686 582 712V724C582 727.314 584.686 730 588 730H594C597.314 730 600 727.314 600 724V712C600 708.686 597.314 706 594 706Z" fill="#28221A"/>
<path d="M196 785C196 782.239 193.761 780 191 780C188.239 780 186 782.239 186 785V801C186 803.761 188.239 806 191 806C193.761 806 196 803.761 196 801V785Z" fill="#0C3208"/>
<path d="M483 788H482C479.791 788 478 789.791 478 792V808C478 810.209 479.791 812 482 812H483C485.209 812 487 810.209 487 808V792C487 789.791 485.209 788 483 788Z" fill="#186010"/>
<path d="M634 773C634 770.239 631.761 768 629 768C626.239 768 624 770.239 624 773V785C624 787.761 626.239 790 629 790C631.761 790 634 787.761 634 785V773Z" fill="#0C3208"/>
<path opacity="0.15" d="M302 716H268C264.686 716 262 718.686 262 722V723C262 726.314 264.686 729 268 729H302C305.314 729 308 726.314 308 723V722C308 718.686 305.314 716 302 716Z" fill="#A85A1C"/>
<path opacity="0.13" d="M588 708H562C558.686 708 556 710.686 556 714C556 717.314 558.686 720 562 720H588C591.314 720 594 717.314 594 714C594 710.686 591.314 708 588 708Z" fill="#8A3E10"/>
</g>
<defs>
<clipPath id="clip0_246_2">
<rect width="800" height="800" fill="white"/>
</clipPath>
</defs>
</svg>
