<svg width="272" height="423" viewBox="0 0 272 423" fill="none" xmlns="http://www.w3.org/2000/svg">
<g clip-path="url(#clip0_335_20)">
<rect x="62" y="287" width="148" height="6" fill="#913951"/>
<rect x="200.864" y="286.846" width="148" height="4" transform="rotate(-70 200.864 286.846)" fill="#E7394C"/>
<rect width="148" height="4" transform="matrix(-0.34202 -0.939693 -0.939693 0.34202 72.3779 288.074)" fill="#E7394C"/>
<rect x="62" y="338" width="148" height="74" fill="#C62828"/>
<rect x="62" y="411" width="148" height="12" fill="#913951"/>
<rect x="62" y="344" width="40" height="68" fill="#E7394C"/>
<rect x="62" y="423" width="80" height="6" transform="rotate(-90 62 423)" fill="#913951"/>
<rect x="66" y="338" width="51" height="6" transform="rotate(-90 66 338)" fill="#913951"/>
<rect x="62" y="338" width="148" height="6" fill="#913951"/>
<rect x="170" y="344" width="40" height="68" fill="#E7394C"/>
<rect x="204" y="423" width="80" height="6" transform="rotate(-90 204 423)" fill="#913951"/>
<rect x="200" y="338" width="51" height="6" transform="rotate(-90 200 338)" fill="#913951"/>
<path d="M87 375H95V384H87V375Z" fill="#C62828"/>
<path d="M185 375H177V384H185V375Z" fill="#C62828"/>
<path d="M185 358H177V367H185V358Z" fill="#C62828"/>
<path d="M202 375H194V384H202V375Z" fill="#C62828"/>
<path d="M78 384H87V392H78V384Z" fill="#C62828"/>
<path d="M87 392H95V401H87V392Z" fill="#C62828"/>
<path d="M185 392H177V401H185V392Z" fill="#C62828"/>
<path d="M70 392H78V401H70V392Z" fill="#C62828"/>
<path d="M202 392H194V401H202V392Z" fill="#C62828"/>
<path d="M78 401H87V409H78V401Z" fill="#C62828"/>
<path d="M194 401H185V409H194V401Z" fill="#C62828"/>
<path d="M194 367H185V375H194V367Z" fill="#C62828"/>
<path d="M78 375H87V384H78V375Z" fill="white"/>
<path d="M70 384H78V392H70V384Z" fill="white"/>
<path d="M202 384H194V392H202V384Z" fill="white"/>
<path d="M194 392H185V401H194V392Z" fill="white"/>
<path d="M87 401H95V409H87V401Z" fill="white"/>
<path d="M185 367H177V375H185V367Z" fill="white"/>
<path d="M202 367H194V375H202V367Z" fill="white"/>
<path d="M110.5 412L102 411.5V343.5L110.5 412Z" fill="#913951"/>
<path d="M161 411.5L169.5 412V344L161 411.5Z" fill="#913951"/>
<mask id="mask0_335_20" style="mask-type:alpha" maskUnits="userSpaceOnUse" x="13" y="14" width="248" height="248">
<circle cx="137" cy="138" r="124" fill="#D9D9D9"/>
</mask>
<g mask="url(#mask0_335_20)">
<path fill-rule="evenodd" clip-rule="evenodd" d="M243.55 181.281L243.55 94.7869H227.099V62.0428H210.442L210.648 44.95H181.365V28.475L94.2563 28.475V41.4491H61.3541V107.349H28.452L28.452 156.774V181.281H44.903V210.318H61.3541V226.793H90.8838V243.268L181.365 243.268V226.793H214.555V210.318H227.099V181.281H243.55Z" fill="white"/>
<rect x="111" y="154" width="51" height="32" fill="#B9C2FD"/>
<rect x="162" y="154" width="51" height="32" fill="#DD5F68"/>
<rect x="60" y="154" width="51" height="32" fill="#D43242"/>
<rect x="111" y="90" width="51" height="32" fill="#F3F2F2"/>
<rect x="162" y="90" width="51" height="32" fill="#B9C2FD"/>
<rect x="60" y="90" width="51" height="32" fill="#DD5F68"/>
<rect x="9" y="90" width="51" height="32" fill="#B9C2FD"/>
<rect x="9" y="58" width="51" height="32" fill="#DD5F68"/>
<rect x="9" y="122" width="51" height="32" fill="#D43242"/>
<rect x="9" y="186" width="51" height="32" fill="#D43242"/>
<rect x="9" y="154" width="51" height="32" fill="#DD5F68"/>
<rect x="213" y="90" width="51" height="32" fill="#F3F2F2"/>
<rect x="213" y="58" width="51" height="32" fill="#B9C2FD"/>
<rect x="213" y="122" width="51" height="32" fill="#B9C2FD"/>
<rect x="213" y="186" width="51" height="32" fill="#D43242"/>
<rect x="213" y="154" width="51" height="32" fill="#F3F2F2"/>
<rect x="60" y="122" width="51" height="32" fill="#B9C2FD"/>
<rect x="111" y="122" width="51" height="32" fill="#DD5F68"/>
<rect x="60" y="186" width="51" height="32" fill="#DD5F68"/>
<rect x="60" y="218" width="51" height="32" fill="#D43242"/>
<rect x="111" y="186" width="51" height="32" fill="#D43242"/>
<rect x="60" y="58" width="51" height="32" fill="#F3F2F2"/>
<rect x="60" y="26" width="51" height="32" fill="#DD5F68"/>
<rect x="111" y="58" width="51" height="32" fill="#B9C2FD"/>
<rect x="162" y="122" width="51" height="32" fill="#F3F2F2"/>
<rect x="162" y="186" width="51" height="32" fill="#B9C2FD"/>
<rect x="162" y="218" width="51" height="32" fill="#D43242"/>
<rect x="162" y="58" width="51" height="32" fill="#F3F2F2"/>
<rect x="162" y="26" width="51" height="32" fill="#B9C2FD"/>
<rect x="111" y="26" width="51" height="32" fill="#F3F2F2"/>
<rect x="111" y="218" width="51" height="32" fill="#DD5F68"/>
<rect x="118.64" y="167.64" width="82" height="82" transform="rotate(-45 118.64 167.64)" fill="#5AA83A"/>
<path fill-rule="evenodd" clip-rule="evenodd" d="M160.627 183.29H135.04V151.452H160.627V125.871H192.453V151.452H218.04V183.29H192.453V208.871H160.627V183.29Z" fill="#00CFD5"/>
<rect x="161.04" y="151.871" width="31" height="31" fill="#5AA83A"/>
</g>
<g opacity="0.7">
<path fill-rule="evenodd" clip-rule="evenodd" d="M28.4511 94.7868V62.0427H44.9021V94.9928H28.4511L28.4511 177.162H12L12 94.7868H28.4511ZM243.549 94.9928H227.098V62.0427H243.549V94.7868H260V177.162H243.549L243.549 94.9928ZM144.637 259.949V271.899H128.186V259.949H94.9957V243.268L177.251 243.268V259.949H144.637ZM177.251 28.475L94.9957 28.475V12H177.251V28.475ZM227.098 210.318V177.368H243.549V210.318H227.098ZM227.098 226.793H210.647V210.318H227.098V226.793ZM227.098 62.0427H210.647V45.5677H227.098V62.0427ZM28.4511 210.318V177.368H44.9021V210.318H28.4511ZM61.3532 226.793H44.9021V210.318H61.3532V226.793ZM61.3532 62.0427H44.9021V45.5677H61.3532V62.0427ZM210.647 243.268H177.745V226.793H210.647V243.268ZM210.647 44.9499H177.745V28.475H210.647V44.9499ZM94.2554 243.268H61.3532V226.793H94.2554V243.268ZM94.2554 44.9499H61.3532V28.475H94.2554V44.9499Z" fill="#B7031E"/>
</g>
<rect x="17" y="82" width="11" height="12" fill="#B9C2FD"/>
<rect x="244" y="82" width="11" height="12" fill="#B9C2FD"/>
<rect x="128" y="272" width="16" height="12" fill="#C21F34"/>
<rect x="118" y="260" width="38" height="12" fill="#DD5F68"/>
<rect x="34" y="50" width="11" height="12" fill="#DD5F68"/>
<rect x="50" y="34" width="11" height="12" fill="#DD5F68"/>
<rect x="84" y="16" width="11" height="12" fill="#DD5F68"/>
<rect x="227" y="50" width="11" height="12" fill="#B9C2FD"/>
<rect x="211" y="34" width="11" height="12" fill="#B9C2FD"/>
<rect x="177" y="16" width="11" height="12" fill="#B9C2FD"/>
<rect x="17" y="177" width="11" height="12" fill="#C01129"/>
<rect x="34" y="210" width="11" height="12" fill="#D43242"/>
<rect x="50" y="226" width="11" height="12" fill="#D43242"/>
<rect x="84" y="244" width="11" height="12" fill="#C01129"/>
<rect x="244" y="177" width="11" height="12" fill="#F3F2F2"/>
<rect x="211" y="226" width="11" height="12" fill="#D43242"/>
<rect x="227" y="210" width="11" height="12" fill="#B9C2FD"/>
<rect x="178" y="243" width="11" height="12" fill="#D43242"/>
<rect x="117" width="38" height="12" fill="#B9C2FD"/>
<rect y="156" width="38" height="12" transform="rotate(-90 0 156)" fill="#C01129"/>
<rect x="260" y="156" width="38" height="12" transform="rotate(-90 260 156)" fill="#B9C2FD"/>
</g>
<defs>
<clipPath id="clip0_335_20">
<rect width="272" height="423" fill="white"/>
</clipPath>
</defs>
</svg>
