<?xml version="1.0" encoding="UTF-8"?>
<svg width="76px" height="84px" viewBox="0 0 76 84" version="1.1" xmlns="http://www.w3.org/2000/svg" xmlns:xlink="http://www.w3.org/1999/xlink">
    <!-- Generator: Sketch 55.2 (78181) - https://sketchapp.com -->
    <title>Bomb</title>
    <desc>Created with Sketch.</desc>
    <g id="Bomb" stroke="none" stroke-width="1" fill="none" fill-rule="evenodd">
        <g>
            <polygon id="Path-4-background--dk-grey" fill="#9E9E9E" points="4 43.1 4 64.1 8 64.1 8 72.05 12.05 72.05 12 76.2 19.12 76.2 19.12 80.2 40.3 80.2 40.3 77.05 48.3 77.05 48.3 61.05 56.3 61.05 56.3 49.05 56.3 43.1 52.3 43.1 52.3 36.05 48.3 36.05 48.3 32.05 41.12 32.05 41.12 28.05 19.12 28.05 19.12 32.05 11.05 32.05 11.05 36.05 8 36.05 8 43.1"></polygon>
            <path d="M52.3,64.25 L52.3,72.2 L48.3,72.2 L48.3,60.2 L52.3,60.2 L52.3,48.25 L56.3,48.25 L56.3,64.25 L52.3,64.25 Z M40.3,76.2 L40.3,80.2 L36.3,80.2 L36.3,76.2 L36.3,72.2 L48.3,72.2 L48.3,76.2 L40.3,76.2 Z" id="Combined-Shape--grey" fill="#635D63"></path>
            <path d="M52.1,16 L56.05,16 L56.05,20 L52.05,20 L52.05,16 L48.1,16 L48.1,12 L52.1,12 L52.1,16 Z M56.3,64.1 L56.3,72.05 L52.3,72.05 L52.3,64.05 L56.3,64.05 L56.3,44.1 L60.3,44.1 L60.3,64.1 L56.3,64.1 Z M4,64.05 L8,64.05 L8,72.05 L4,72.05 L4,64.1 L2.88657986e-14,64.1 L2.7533531e-14,44.1 L4,44.1 L4,64.05 Z M28.05,24 L28.05,16 L32.05,16 L32.05,24 L40.12,24 L40.12,28.05 L20.12,28.05 L20.12,24 L28.05,24 Z M48.12,7.95 L48.12,11.95 L36.12,11.95 L36.12,7.95 L48.12,7.95 Z M20.12,80.2 L40.12,80.2 L40.12,84.2 L20.12,84.2 L20.12,80.2 Z M8,36.05 L8,44.05 L4,44.05 L4,36.05 L8,36.05 Z M36.05,16 L32.05,16 L32.05,12 L36.05,12 L36.05,16 Z M8,32.05 L12,32.05 L12,36.05 L8,36.05 L8,32.05 Z M8,72.05 L12,72.05 L12,76.05 L8,76.05 L8,72.05 Z M56.3,36.05 L56.3,44.05 L52.3,44.05 L52.3,36.05 L56.3,36.05 Z M48.3,32.05 L52.3,32.05 L52.3,36.05 L48.3,36.05 L48.3,32.05 Z M48.3,72.05 L52.3,72.05 L52.3,76.05 L48.3,76.05 L48.3,72.05 Z M12,28.05 L20,28.05 L20,32.05 L12,32.05 L12,28.05 Z M12,76.2 L20,76.2 L20,80.2 L12,80.2 L12,76.2 Z M40.3,28.05 L48.3,28.05 L48.3,32.05 L40.3,32.05 L40.3,28.05 Z M40.3,76.2 L48.3,76.2 L48.3,80.2 L40.3,80.2 L40.3,76.2 Z" id="Combined-Shape--black" fill="#000000"></path>
            <path d="M24.05,40.05 L28.05,40.05 L28.05,48.05 L24.05,48.05 L24.05,52.05 L16.05,52.05 L16.05,48.05 L12.05,48.05 L12.05,40.05 L16.05,40.05 L16.05,36.05 L24.05,36.05 L24.05,40.05 Z" id="Combined-Shape--white" fill="#FFFFFF"></path>
            <g id="boom" transform="translate(52.050000, 0.000000)">
                <path d="M4,16 L1.77635684e-15,16 L1.77635684e-15,12 L4,12 L4,16 Z M4,8 L1.77635684e-15,8 L1.77635684e-15,4 L4,4 L4,8 Z M8,12 L4,12 L4,8 L8,8 L8,12 Z M8,24 L4,24 L4,20 L8,20 L12,20 L12,24 L12,28 L8,28 L8,24 Z M16,12 L12,12 L12,8 L16,8 L16,12 Z M12,8 L8,8 L8,-3.01980663e-14 L12,-3.01980663e-14 L12,8 Z M20,8 L16,8 L16,4 L20,4 L20,8 Z M16,20 L12,20 L12,16 L16,16 L16,20 Z M20,24 L16,24 L16,20 L20,20 L20,24 Z M24,16 L16,16 L16,12 L24,12 L24,16 Z" id="Combined-Shape--red" fill="#C62828"></path>
                <path d="M8,20 L4,20 L4,16 L8,16 L8,20 Z M12,16 L8,16 L8,12 L12,12 L12,16 Z" id="Combined-Shape--egg" fill="#FFC107"></path>
                <path d="M12,20 L8,20 L8,16 L12,16 L12,20 Z M8,16 L4,16 L4,12 L8,12 L8,16 Z" id="Combined-Shape--yellow" fill="#FFEB3B"></path>
                <path d="M12,12 L8,12 L8,8 L12,8 L12,12 Z M16,16 L12,16 L12,12 L16,12 L16,16 Z" id="Combined-Shape--orange" fill="#FE9800"></path>
            </g>
        </g>
    </g>
</svg>